<?xml version="1.0" standalone="no"?>
<!DOCTYPE svg PUBLIC "-//W3C//DTD SVG 1.1//EN" "http://www.w3.org/Graphics/SVG/1.1/DTD/svg11.dtd" >
<svg xmlns="http://www.w3.org/2000/svg" xmlns:xlink="http://www.w3.org/1999/xlink" version="1.1">
<metadata>
Created by FontForge 20170812 at Thu Mar 27 06:12:29 2025
 By www-data
Copyright \(c\) 2018 by Nikola &#38; Zoran Kostic. All rights reserved.
</metadata>
<defs>
<font id="RocGrotesk-ExtraLight" horiz-adv-x="604" >
  <font-face 
    font-family="Roc Grotesk ExtraLight"
    font-weight="300"
    font-stretch="normal"
    units-per-em="1000"
    panose-1="0 0 4 0 0 0 0 0 0 0"
    ascent="760"
    descent="-240"
    x-height="494"
    cap-height="658"
    bbox="-379 -252 1025 930"
    underline-thickness="50"
    underline-position="-80"
    stemh="32"
    stemv="35"
    unicode-range="U+000D-FB02"
  />
<missing-glyph horiz-adv-x="436" 
d="M68 0v658h300v-658h-300zM117 59h200v541h-200v-541z" />
    <glyph glyph-name="f_f" unicode="ff" horiz-adv-x="717" 
d="M104 0v463h-89v31h89v54c0 110 57 164 151 164c35 0 63 -7 80 -13v-33c-17 7 -45 14 -77 14c-77 0 -120 -41 -120 -132v-54h302v54c0 110 57 164 151 164c35 0 63 -7 80 -13v-33c-17 7 -45 14 -77 14c-77 0 -120 -41 -120 -132v-54h205v-31h-205v-463h-34v463h-302v-463
h-34z" />
    <glyph glyph-name="fi" unicode="fi" horiz-adv-x="568" 
d="M104 0v463h-89v31h89v54c0 110 57 164 151 164c35 0 63 -7 80 -13v-33c-17 7 -45 14 -77 14c-77 0 -120 -41 -120 -132v-54h205v-31h-205v-463h-34zM455 564v87h39v-87h-39zM457 0v494h34v-494h-34z" />
    <glyph glyph-name="fl" unicode="fl" horiz-adv-x="568" 
d="M104 0v463h-89v31h89v54c0 110 57 164 151 164c35 0 63 -7 80 -13v-33c-17 7 -45 14 -77 14c-77 0 -120 -41 -120 -132v-54h205v-31h-205v-463h-34zM457 0v693h34v-693h-34z" />
    <glyph glyph-name=".notdef" horiz-adv-x="436" 
d="M68 0v658h300v-658h-300zM117 59h200v541h-200v-541z" />
    <glyph glyph-name="space" unicode=" " horiz-adv-x="237" 
 />
    <glyph glyph-name="quotesingle" unicode="'" horiz-adv-x="206" 
d="M96 440l-14 209v9h42v-9l-14 -209h-14z" />
    <glyph glyph-name="quotedbl" unicode="&#x22;" horiz-adv-x="344" 
d="M96 440l-14 209v9h42v-9l-14 -209h-14zM233 440l-13 209v9h41v-9l-13 -209h-15z" />
    <glyph glyph-name="quotesinglbase" unicode="&#x201a;" horiz-adv-x="196" 
d="M35 -130v26c41 10 62 44 66 103v1h-11v90h38v-54c0 -101 -30 -152 -93 -166z" />
    <glyph glyph-name="quoteleft" unicode="&#x2018;" horiz-adv-x="203" 
d="M168 670v-26c-41 -10 -62 -44 -66 -103v-1h11v-90h-38v54c0 101 30 152 93 166z" />
    <glyph glyph-name="quoteright" unicode="&#x2019;" horiz-adv-x="196" 
d="M35 438v26c41 10 62 44 66 103v1h-11v90h38v-54c0 -101 -30 -152 -93 -166z" />
    <glyph glyph-name="quotedblbase" unicode="&#x201e;" horiz-adv-x="334" 
d="M35 -130v26c41 10 62 44 66 103v1h-11v90h38v-54c0 -101 -30 -152 -93 -166zM173 -130v26c41 10 62 44 66 103v1h-11v90h38v-54c0 -101 -30 -152 -93 -166z" />
    <glyph glyph-name="quotedblleft" unicode="&#x201c;" horiz-adv-x="334" 
d="M161 670v-26c-41 -10 -62 -44 -66 -103v-1h11v-90h-38v54c0 101 30 152 93 166zM299 670v-26c-41 -10 -62 -44 -66 -103v-1h11v-90h-38v54c0 101 30 152 93 166z" />
    <glyph glyph-name="quotedblright" unicode="&#x201d;" horiz-adv-x="334" 
d="M35 439v26c41 10 62 44 66 103v1h-11v90h38v-54c0 -101 -30 -152 -93 -166zM173 439v26c41 10 62 44 66 103v1h-11v90h38v-54c0 -101 -30 -152 -93 -166z" />
    <glyph glyph-name="exclam" unicode="!" horiz-adv-x="190" 
d="M87 214l-11 355v103h37v-103l-10 -355h-16zM76 0v90h38v-90h-38z" />
    <glyph glyph-name="exclamdown" unicode="&#xa1;" horiz-adv-x="190" 
d="M76 375v89h38v-89h-38zM76 -208v103l11 355h16l10 -355v-103h-37z" />
    <glyph glyph-name="question" unicode="?" horiz-adv-x="511" 
d="M100 157v171h31c18 -47 65 -85 143 -85c89 0 167 77 167 209c0 121 -77 189 -178 189c-99 0 -164 -59 -164 -157c0 -8 0 -17 1 -29h-31c-1 12 -1 23 -1 31c0 117 77 185 195 185c120 0 210 -79 210 -219c0 -147 -90 -238 -198 -238c-79 0 -130 40 -146 74h-1l1 -131h-29z
M96 0v90h38v-90h-38z" />
    <glyph glyph-name="questiondown" unicode="&#xbf;" horiz-adv-x="511" 
d="M377 374v90h38v-90h-38zM248 -207c-121 0 -210 79 -210 219c0 147 90 238 198 238c79 0 129 -40 146 -74h1l-1 131h28v-171h-30c-18 47 -65 85 -143 85c-90 0 -168 -77 -168 -209c0 -121 78 -189 179 -189c99 0 164 59 164 157c0 8 0 17 -1 29h31c1 -12 1 -23 1 -31
c0 -117 -78 -185 -195 -185z" />
    <glyph glyph-name="period" unicode="." horiz-adv-x="262" 
d="M112 0v90h38v-90h-38z" />
    <glyph glyph-name="colon" unicode=":" horiz-adv-x="262" 
d="M112 364v89h38v-89h-38zM112 0v90h38v-90h-38z" />
    <glyph glyph-name="comma" unicode="," horiz-adv-x="262" 
d="M52 -130v26c41 10 62 44 66 103v1h-11v90h38v-54c0 -101 -30 -152 -93 -166z" />
    <glyph glyph-name="semicolon" unicode=";" horiz-adv-x="262" 
d="M112 364v89h38v-89h-38zM57 -130v25c41 11 62 45 66 104v1h-11v90h38v-54c0 -101 -29 -152 -93 -166z" />
    <glyph glyph-name="periodcentered" unicode="&#xb7;" horiz-adv-x="267" 
d="M114 263v88h38v-88h-38z" />
    <glyph glyph-name="bullet" unicode="&#x2022;" horiz-adv-x="377" 
d="M189 237c-18 0 -33 17 -33 72s15 72 33 72s33 -17 33 -72s-15 -72 -33 -72z" />
    <glyph glyph-name="ellipsis" unicode="&#x2026;" horiz-adv-x="754" 
d="M114 0v90h38v-90h-38zM359 0v90h37v-90h-37zM602 0v90h38v-90h-38z" />
    <glyph glyph-name="numbersign" unicode="#" 
d="M577 440h-133l-38 -227h171v-32h-176l-31 -181h-27l31 181h-194l-30 -181h-27l30 181h-126v32h132l38 227h-170v32h175l31 186h27l-31 -186h194l31 186h27l-31 -186h127v-32zM379 213l38 227h-193l-38 -227h193z" />
    <glyph glyph-name="ampersand" unicode="&#x26;" horiz-adv-x="681" 
d="M639 27c3 0 8 0 14 1v-32c-5 -1 -11 -1 -16 -1c-51 0 -111 27 -167 76c-51 -51 -116 -81 -200 -81c-129 0 -208 83 -208 192c0 100 64 172 177 199c-25 54 -38 104 -38 143c0 91 54 144 140 144c84 0 134 -53 134 -133c0 -89 -58 -145 -190 -173l-1 -1
c47 -87 120 -178 186 -245c53 66 87 157 104 255h32c-17 -102 -54 -204 -114 -275c51 -45 104 -69 147 -69zM341 636c-66 0 -107 -42 -107 -112c0 -40 14 -87 38 -136c120 28 171 71 171 146c0 62 -38 102 -102 102zM96 182c0 -90 67 -160 176 -160c73 0 131 26 176 70
c-74 73 -150 170 -196 261h-3c-99 -24 -153 -85 -153 -171z" />
    <glyph glyph-name="at" unicode="@" horiz-adv-x="835" 
d="M416 -159c-229 0 -373 123 -373 365c0 276 177 463 399 463c241 0 351 -119 351 -307c0 -193 -85 -342 -180 -342c-64 0 -101 49 -77 159h-2c-31 -93 -91 -159 -183 -159c-89 0 -136 70 -136 167c0 134 81 303 228 303c63 0 108 -32 132 -70h1l16 62h30l-48 -255
c-8 -43 -13 -81 -13 -109c0 -42 17 -72 57 -72c78 0 150 148 150 316c0 176 -101 283 -326 283c-207 0 -374 -178 -374 -439c0 -225 132 -341 348 -341c99 0 195 16 252 38l1 -23c-61 -24 -158 -39 -253 -39zM355 51c96 0 171 98 200 257l13 76c-19 42 -68 75 -123 75
c-126 0 -197 -154 -197 -271c0 -81 37 -137 107 -137z" />
    <glyph glyph-name="asterisk" unicode="*" horiz-adv-x="468" 
d="M143 281l-23 12l91 168v2l-150 44l7 27l151 -46l1 1v191h27v-191l2 -1l150 46l7 -27l-149 -44l-1 -2l91 -168l-23 -12l-89 163h-3z" />
    <glyph glyph-name="percent" unicode="%" 
d="M171 376c-78 0 -128 52 -128 146c0 90 49 145 128 145s128 -55 128 -145c0 -94 -49 -146 -128 -146zM45 0l483 658h31l-483 -658h-31zM171 401c62 0 101 43 101 121c0 76 -39 120 -101 120c-61 0 -101 -44 -101 -120c0 -78 39 -121 101 -121zM433 -9
c-78 0 -128 52 -128 146c0 90 49 145 128 145s128 -55 128 -145c0 -94 -49 -146 -128 -146zM433 17c62 0 101 43 101 120c0 76 -39 120 -101 120c-61 0 -101 -44 -101 -120c0 -77 39 -120 101 -120z" />
    <glyph glyph-name="perthousand" unicode="&#x2030;" horiz-adv-x="901" 
d="M170 376c-78 0 -127 52 -127 146c0 90 49 145 127 145c79 0 129 -55 129 -145c0 -94 -50 -146 -129 -146zM44 0l483 658h31l-483 -658h-31zM170 401c62 0 101 43 101 121c0 76 -39 120 -101 120c-61 0 -100 -44 -100 -120c0 -78 39 -121 100 -121zM432 -9
c-78 0 -127 52 -127 146c0 90 49 145 127 145c80 0 129 -55 129 -145c0 -94 -50 -146 -129 -146zM741 -9c-79 0 -128 52 -128 146c0 90 49 145 128 145s128 -55 128 -145c0 -94 -49 -146 -128 -146zM432 17c62 0 102 43 102 120c0 76 -40 120 -102 120
c-61 0 -100 -44 -100 -120c0 -77 39 -120 100 -120zM741 17c62 0 101 43 101 120c0 76 -39 120 -101 120c-61 0 -101 -44 -101 -120c0 -77 39 -120 101 -120z" />
    <glyph glyph-name="currency" unicode="&#xa4;" 
d="M93 55l-19 16l98 117c-39 33 -61 83 -61 143c0 58 21 108 59 140l-96 115l19 16l99 -115c30 19 68 30 110 30s79 -11 109 -30l99 115l20 -16l-97 -115c38 -32 60 -82 60 -140c0 -60 -23 -111 -62 -143l99 -117l-20 -16l-101 117c-29 -19 -66 -29 -107 -29
c-42 0 -79 10 -108 29zM302 172c96 0 160 66 160 159c0 92 -64 157 -160 157s-160 -65 -160 -157c0 -93 64 -159 160 -159z" />
    <glyph glyph-name="Euro" unicode="&#x20ac;" 
d="M405 597c-131 0 -226 -74 -253 -200h333l-7 -24h-331c-2 -17 -3 -34 -3 -52c0 -15 1 -29 2 -42h301l-7 -24h-290c23 -123 113 -194 236 -194c45 0 99 9 126 24v-33c-32 -15 -89 -23 -130 -23c-142 0 -244 83 -267 226h-74l9 24h62c-1 13 -2 27 -2 41c0 18 1 36 3 53h-72
l9 24h67c28 146 137 232 288 232c52 0 102 -10 135 -25l-9 -31c-31 13 -77 24 -126 24z" />
    <glyph glyph-name="dollar" unicode="$" 
d="M546 199c0 -88 -61 -149 -178 -165v-107h-23v104c-15 -1 -30 -2 -46 -2c-15 0 -30 1 -43 2v-104h-22v106c-144 20 -176 110 -176 190h33c1 -67 25 -139 143 -158v259c-50 8 -96 19 -122 35c-32 20 -51 55 -51 103c0 86 65 146 173 163v106h22v-104c13 1 26 2 40 2
c17 0 34 -1 49 -2v104h23v-108c101 -17 153 -77 153 -193h-33c0 97 -41 146 -120 162v-254c45 -7 91 -17 119 -31c39 -21 59 -61 59 -108zM297 598c-14 0 -28 -1 -41 -2v-244c18 -3 36 -5 52 -7c12 -1 24 -3 37 -4v254c-15 2 -31 3 -48 3zM136 383c21 -12 58 -21 98 -28v238
c-86 -15 -139 -62 -139 -130c0 -39 15 -65 41 -80zM299 60c16 0 32 1 46 2v248l-52 6c-12 1 -25 3 -37 5v-259c13 -1 28 -2 43 -2zM368 65c94 15 144 62 144 133c0 39 -14 68 -47 84c-22 11 -59 19 -97 25v-242z" />
    <glyph glyph-name="dollar.ss06" 
d="M546 199c0 -101 -80 -166 -233 -170v-102h-23v102c-192 3 -232 104 -232 194h33c1 -77 33 -160 199 -163v256c-70 8 -143 21 -178 43c-32 20 -51 55 -51 103c0 100 88 165 229 167v102h23v-102c138 -5 208 -63 208 -199h-33c0 118 -60 164 -175 168v-254
c59 -6 134 -17 174 -37c39 -21 59 -61 59 -108zM95 463c0 -39 15 -65 41 -80c31 -18 98 -29 154 -36v251c-118 -2 -195 -54 -195 -135zM313 60c129 4 199 54 199 138c0 39 -14 68 -47 84c-33 17 -98 26 -152 32v-254z" />
    <glyph glyph-name="cent" unicode="&#xa2;" 
d="M309 104c117 0 205 64 205 172h32c0 -127 -99 -204 -237 -204c-15 0 -30 1 -45 3l-25 -105h-24l26 109c-112 25 -186 115 -186 250c0 161 106 257 259 257c17 0 32 -1 48 -3l25 105h25l-26 -110c95 -22 160 -92 160 -196h-32c0 87 -55 145 -136 165l-106 -441
c12 -1 24 -2 37 -2zM89 329c0 -118 64 -196 160 -218l105 440c-13 2 -26 3 -40 3c-132 0 -225 -84 -225 -225z" />
    <glyph glyph-name="sterling" unicode="&#xa3;" 
d="M548 214c2 -9 5 -28 5 -46c0 -88 -56 -139 -133 -139c-63 0 -122 30 -173 60l-9 5c-19 -39 -53 -65 -99 -65c-59 0 -88 31 -88 69c0 35 24 64 75 64c32 0 64 -11 97 -27c2 12 3 25 3 39c0 33 -12 71 -35 114h-126v24h112l-6 10c-41 64 -66 113 -66 160
c0 82 78 147 211 147c130 0 215 -58 215 -173c0 -24 -3 -49 -5 -62h-32c2 15 4 39 4 60c0 96 -74 143 -182 143c-110 0 -177 -51 -177 -117c0 -41 23 -86 61 -147l12 -21h223v-24h-211c20 -41 31 -77 31 -111c0 -20 -2 -38 -7 -55l9 -5c53 -29 106 -56 161 -56
c59 0 102 38 102 109c0 16 -2 34 -5 44h33zM137 53c36 0 63 21 77 54c-31 16 -62 26 -89 26c-34 0 -48 -18 -48 -38c0 -23 19 -42 60 -42z" />
    <glyph glyph-name="yen" unicode="&#xa5;" 
d="M555 619l-207 -302h188v-24h-205l-12 -18v-71h217v-24h-217v-141h-34v141h-218v24h218v71l-12 18h-206v24h189l-207 302h41l213 -311h2l211 311h39z" />
    <glyph glyph-name="florin" unicode="&#x192;" 
d="M542 395v-31h-215l-31 -280c-14 -122 -63 -179 -153 -179c-38 0 -72 7 -87 13v31c15 -6 48 -12 84 -12c72 0 110 45 122 150l31 277h-148v31h151l5 46c13 120 60 178 155 178c36 0 70 -7 85 -13v-31c-15 5 -47 12 -83 12c-75 0 -113 -47 -123 -149l-5 -43h212z" />
    <glyph glyph-name="franc" unicode="&#x20a3;" 
d="M508 587h-355v-204h304v-29h-304v-158h175v-24h-175v-133h-34v133h-87v24h87v423h389v-32z" />
    <glyph glyph-name="peseta" unicode="&#x20a7;" 
d="M590 391v-24h-74c-8 -128 -97 -199 -236 -199h-140v-129h-34v328h-91v24h91v228h160c152 0 249 -84 251 -228h73zM140 588v-197h345c-2 125 -88 197 -219 197h-126zM280 196c118 0 196 60 204 171h-344v-171h140z" />
    <glyph glyph-name="uni20AA" unicode="&#x20aa;" 
d="M62 39v494h236c66 0 94 -29 94 -87v-299h-28v296c0 41 -20 63 -71 63h-203v-467h-28zM212 39v387h28v-360h204c50 0 70 28 70 73v394h28v-396c0 -61 -28 -98 -93 -98h-237z" />
    <glyph glyph-name="uni20BD" unicode="&#x20bd;" 
d="M314 245h-161v-69h276v-25h-276v-112h-34v112h-76v25h76v69h-76v25h76v349h178c142 0 227 -73 227 -198c0 -112 -73 -176 -210 -176zM153 587v-317h161c114 0 177 53 177 149c0 106 -72 168 -194 168h-144z" />
    <glyph glyph-name="lira.turk" unicode="&#x20ba;" 
d="M531 313c1 -19 1 -35 1 -40c0 -153 -91 -234 -281 -234h-90v289l-119 -32v25l119 32v88l-119 -32v26l119 32v152h34v-143l211 57v-25l-211 -57v-89l211 57v-25l-211 -57v-266h57c169 0 248 69 248 201c0 6 0 21 -1 41h32z" />
    <glyph glyph-name="registered" unicode="&#xae;" horiz-adv-x="806" 
d="M403 -126c-197 0 -369 159 -369 399s172 399 369 399s369 -159 369 -399s-172 -399 -369 -399zM403 -74c168 0 317 135 317 347s-149 347 -317 347s-316 -135 -316 -347s148 -347 316 -347zM260 71v413h145c96 0 144 -45 144 -114c0 -45 -12 -75 -48 -93v-2
c37 -15 48 -43 48 -79v-125h-73v121c0 32 -13 49 -51 49h-92v-170h-73zM333 301h77c49 0 66 20 66 59c0 36 -15 58 -71 58h-72v-117z" />
    <glyph glyph-name="copyright" unicode="&#xa9;" horiz-adv-x="806" 
d="M403 -126c-197 0 -369 159 -369 399s172 399 369 399s369 -159 369 -399s-172 -399 -369 -399zM403 -74c168 0 317 135 317 347s-149 347 -317 347s-316 -135 -316 -347s148 -347 316 -347zM410 61c-119 0 -190 85 -190 217c0 142 89 216 185 216c111 0 170 -66 170 -157
h-71c-5 56 -42 91 -99 91c-70 0 -112 -63 -112 -150c0 -90 47 -150 117 -150c51 0 89 26 95 86h71c-3 -89 -65 -153 -166 -153z" />
    <glyph glyph-name="trademark" unicode="&#x2122;" horiz-adv-x="792" 
d="M151 318v286h-109v54h279v-54h-110v-286h-60zM375 318v340h94l71 -173h2l70 173h95v-340h-61v262l-6 1l-91 -221h-17l-91 221l-5 -1v-262h-61z" />
    <glyph glyph-name="dagger" unicode="&#x2020;" 
d="M292 -40l-9 276l6 185h-2l-90 -5h-96v31h96l89 -5h3v14l-4 155v61h34v-61l-4 -155v-14h3l88 5h97v-31h-97l-89 5h-2l6 -185l-9 -276h-20z" />
    <glyph glyph-name="daggerdbl" unicode="&#x2021;" 
d="M285 -40v61l4 125v14h-3l-89 -5h-96v31h96l90 -5h2l-6 135l6 135h-2l-90 -5h-96v31h96l89 -5h3v14l-4 125v61h34v-61l-4 -125v-14h3l88 5h97v-31h-97l-89 5h-2l6 -135l-6 -135h2l89 5h97v-31h-97l-88 5h-3v-14l4 -125v-61h-34z" />
    <glyph glyph-name="paragraph" unicode="&#xb6;" 
d="M343 -96v276h-84c-115 0 -190 72 -190 191c0 131 85 209 219 209h248v-676h-29v647h-135v-647h-29zM263 209h80v342h-55c-114 0 -187 -67 -187 -179c0 -102 64 -163 162 -163z" />
    <glyph glyph-name="section" unicode="&#xa7;" 
d="M300 -126c-121 0 -179 56 -179 158h33c0 -83 45 -126 146 -126c99 0 157 40 157 110c0 35 -15 58 -41 72c-47 24 -185 38 -234 58c-48 19 -74 55 -74 99c0 51 36 91 86 98v2c-11 3 -20 7 -29 12c-35 20 -52 59 -52 97c0 86 73 140 190 140c120 0 179 -56 179 -158h-33
c0 83 -45 126 -146 126c-96 0 -156 -41 -156 -106c0 -30 14 -60 42 -75c48 -26 172 -36 232 -59c46 -17 75 -51 75 -97c0 -51 -34 -89 -85 -99v-1c13 -4 22 -8 30 -14c32 -19 50 -52 50 -94c0 -89 -73 -143 -191 -143zM362 139c61 1 100 32 100 82c0 36 -24 61 -63 75
c-33 12 -124 29 -161 35c-59 -3 -96 -34 -96 -82c0 -34 23 -62 62 -77c32 -13 115 -25 158 -33z" />
    <glyph glyph-name="estimated" unicode="&#x212e;" horiz-adv-x="855" 
d="M428 -14c-211 0 -383 152 -383 343c0 190 172 343 383 343s382 -153 382 -343v-22h-619c-3 0 -5 -1 -5 -4v-153c0 -8 3 -16 8 -22c59 -63 143 -100 235 -100c88 0 167 34 226 91h76c-69 -82 -180 -133 -303 -133zM191 349h475c3 0 5 2 5 5v157c0 9 -4 17 -10 23
c-60 60 -142 96 -232 96c-92 0 -174 -37 -234 -99c-5 -6 -9 -15 -9 -24v-153c0 -3 2 -5 5 -5z" />
    <glyph glyph-name="uni2113" unicode="&#x2113;" 
d="M442 43l1 -34c-16 -8 -51 -18 -87 -18c-81 0 -136 43 -160 149c-36 -15 -75 -27 -117 -34v30c40 7 77 19 111 34c-5 34 -8 73 -8 118v187c0 159 34 242 131 242c75 0 127 -62 127 -216c0 -144 -77 -275 -213 -346c21 -96 66 -132 130 -132c40 0 72 12 85 20zM216 287
c0 -38 2 -72 6 -101c113 64 186 176 186 314c0 132 -43 185 -94 185c-72 0 -98 -70 -98 -209v-189z" />
    <glyph glyph-name="parenleft" unicode="(" horiz-adv-x="236" 
d="M189 -146c-86 97 -146 253 -146 430s60 342 146 440h36c-89 -100 -151 -267 -151 -440c0 -172 62 -330 151 -430h-36z" />
    <glyph glyph-name="parenright" unicode=")" horiz-adv-x="236" 
d="M11 -146c88 100 152 258 152 430c0 173 -64 340 -152 440h35c87 -98 147 -263 147 -440s-60 -333 -146 -430h-36z" />
    <glyph glyph-name="bracketleft" unicode="[" horiz-adv-x="323" 
d="M76 -184v971h235v-26h-203v-919h203v-26h-235z" />
    <glyph glyph-name="bracketright" unicode="]" horiz-adv-x="323" 
d="M13 -184v26h202v919h-202v26h234v-971h-234z" />
    <glyph glyph-name="braceleft" unicode="{" horiz-adv-x="350" 
d="M326 -181c-144 0 -218 30 -218 130c0 84 62 159 62 233c0 50 -32 89 -81 89h-61v26h61c49 0 81 40 81 89c0 76 -62 149 -62 233c0 100 75 130 218 130v-26c-124 0 -186 -24 -186 -104c0 -73 61 -154 61 -231c0 -46 -25 -91 -72 -103v-2c47 -12 72 -57 72 -103
c0 -78 -61 -154 -61 -231c0 -80 61 -104 186 -104v-26z" />
    <glyph glyph-name="braceright" unicode="}" horiz-adv-x="350" 
d="M25 -181v26c124 0 186 24 186 104c0 77 -61 153 -61 231c0 46 25 91 72 103v2c-47 12 -72 57 -72 103c0 77 61 158 61 231c0 80 -62 104 -186 104v26c143 0 218 -30 218 -130c0 -84 -62 -157 -62 -233c0 -49 32 -89 82 -89h60v-26h-60c-50 0 -82 -39 -82 -89
c0 -74 62 -149 62 -233c0 -100 -75 -130 -218 -130z" />
    <glyph glyph-name="less" unicode="&#x3c;" 
d="M492 41l-380 237v20l380 237v-35l-341 -211v-2l341 -211v-35z" />
    <glyph glyph-name="greater" unicode="&#x3e;" 
d="M112 41v35l341 211v2l-341 211v35l380 -237v-20z" />
    <glyph glyph-name="lessequal" unicode="&#x2264;" 
d="M492 146l-380 198v20l380 197v-33l-337 -173v-2l337 -173v-34zM114 56v28h378v-28h-378z" />
    <glyph glyph-name="greaterequal" unicode="&#x2265;" 
d="M112 146v34l337 173v2l-337 173v33l380 -197v-20zM112 56v28h378v-28h-378z" />
    <glyph glyph-name="guilsinglleft" unicode="&#x2039;" horiz-adv-x="360" 
d="M240 60l-160 220l160 221h34l-160 -221l160 -220h-34z" />
    <glyph glyph-name="guilsinglright" unicode="&#x203a;" horiz-adv-x="360" 
d="M86 60l160 220l-160 221h34l160 -221l-160 -220h-34z" />
    <glyph glyph-name="guillemotleft" unicode="&#xab;" horiz-adv-x="583" 
d="M237 60l-159 220l159 221h35l-160 -221l160 -220h-35zM430 60l-160 220l160 221h34l-160 -221l160 -220h-34z" />
    <glyph glyph-name="guillemotright" unicode="&#xbb;" horiz-adv-x="583" 
d="M119 60l160 220l-160 221h35l159 -221l-159 -220h-35zM312 60l159 220l-159 221h34l159 -221l-159 -220h-34z" />
    <glyph glyph-name="plus" unicode="+" 
d="M288 58v211h-206v28h206v211h28v-211h206v-28h-206v-211h-28z" />
    <glyph glyph-name="plusminus" unicode="&#xb1;" 
d="M288 158v197h-206v28h206v197h28v-197h206v-28h-206v-197h-28zM82 60v28h440v-28h-440z" />
    <glyph glyph-name="hyphen" unicode="-" horiz-adv-x="286" 
d="M38 269v28h210v-28h-210z" />
    <glyph glyph-name="endash" unicode="&#x2013;" horiz-adv-x="575" 
d="M39 269v28h498v-28h-498z" />
    <glyph glyph-name="emdash" unicode="&#x2014;" horiz-adv-x="740" 
d="M39 269v28h662v-28h-662z" />
    <glyph glyph-name="equal" unicode="=" 
d="M81 338v28h442v-28h-442zM81 191v28h442v-28h-442z" />
    <glyph glyph-name="notequal" unicode="&#x2260;" 
d="M157 87l47 119h-75l12 39h70l45 108h-110l15 46h191l34 71h59l-49 -119h78l-12 -39h-71l-46 -108h111l-14 -45h-194l-35 -72h-56z" />
    <glyph glyph-name="minus" unicode="&#x2212;" 
d="M81 269v28h442v-28h-442z" />
    <glyph glyph-name="multiply" unicode="&#xd7;" 
d="M99 107l-18 22l198 154l-198 154l18 22l203 -156l203 156l18 -22l-199 -154l199 -154l-18 -22l-203 155z" />
    <glyph glyph-name="divide" unicode="&#xf7;" 
d="M284 400v88h36v-88h-36zM81 269v28h442v-28h-442zM284 78v89h36v-89h-36z" />
    <glyph glyph-name="logicalnot" unicode="&#xac;" 
d="M496 92v177h-415v28h443v-205h-28z" />
    <glyph glyph-name="approxequal" unicode="&#x2248;" 
d="M414 264c-75 0 -142 79 -226 79c-69 0 -123 -50 -131 -57v32c9 9 63 53 130 53c89 0 156 -78 226 -78c62 0 111 39 134 54v-31c-24 -18 -74 -52 -133 -52zM414 200c-75 0 -142 78 -226 78c-69 0 -123 -50 -131 -56v32c9 8 63 52 130 52c89 0 156 -77 226 -77
c62 0 111 38 134 54v-32c-24 -17 -74 -51 -133 -51z" />
    <glyph glyph-name="infinity" unicode="&#x221e;" horiz-adv-x="650" 
d="M170 59c-78 0 -119 67 -119 228c0 160 41 228 119 228c57 0 90 -51 116 -114l37 -81h2l38 81c27 63 60 114 117 114c79 0 120 -68 120 -228c0 -161 -42 -228 -120 -228c-56 0 -90 52 -118 116l-37 78h-2l-36 -78c-28 -63 -62 -116 -117 -116zM171 88c41 0 69 46 93 102
l45 97l-45 100c-23 54 -50 99 -93 99c-61 0 -92 -59 -92 -199s32 -199 92 -199zM479 88c60 0 93 59 93 199s-32 199 -93 199c-44 0 -69 -44 -94 -99l-45 -100l44 -97c26 -57 52 -102 95 -102z" />
    <glyph glyph-name="backslash" unicode="\" horiz-adv-x="292" 
d="M261 -200l-258 940h28l258 -940h-28z" />
    <glyph glyph-name="bar" unicode="|" horiz-adv-x="201" 
d="M87 -200v940h26v-940h-26z" />
    <glyph glyph-name="slash" unicode="/" horiz-adv-x="293" 
d="M-22 -200l310 940h28l-311 -940h-27z" />
    <glyph glyph-name="brokenbar" unicode="&#xa6;" horiz-adv-x="201" 
d="M87 363v377h26v-377h-26zM87 -200v378h26v-378h-26z" />
    <glyph glyph-name="degree" unicode="&#xb0;" horiz-adv-x="432" 
d="M216 326c-105 0 -177 71 -177 173c0 98 72 172 177 172c103 0 177 -74 177 -172c0 -102 -74 -173 -177 -173zM216 355c84 0 147 60 147 144c0 82 -63 143 -147 143c-85 0 -148 -61 -148 -143c0 -84 63 -144 148 -144z" />
    <glyph glyph-name="fraction" unicode="&#x2044;" horiz-adv-x="108" 
d="M-98 -46l-22 10l326 740l22 -10z" />
    <glyph glyph-name="underscore" unicode="_" horiz-adv-x="583" 
d="M0 -137v29h583v-29h-583z" />
    <glyph glyph-name="zero" unicode="0" 
d="M301 -9c-151 0 -250 127 -250 341c0 210 99 335 250 335c153 0 252 -125 252 -335c0 -214 -99 -341 -252 -341zM301 24c131 0 218 115 218 308c0 190 -87 303 -218 303c-130 0 -216 -113 -216 -303c0 -193 86 -308 216 -308z" />
    <glyph glyph-name="one" unicode="1" 
d="M62 0v32h244v417h-164v29l112 1c52 0 54 9 55 188h31v-635h202v-32h-480z" />
    <glyph glyph-name="two" unicode="2" 
d="M69 0c0 111 22 140 205 226c157 74 216 120 216 239c0 104 -74 170 -188 170c-123 0 -196 -77 -196 -197c0 -38 4 -72 7 -87h-33c-3 14 -7 48 -7 88c0 140 86 228 230 228c135 0 221 -78 221 -202c0 -125 -58 -183 -232 -265c-164 -77 -187 -102 -188 -168h431v-32h-466z
" />
    <glyph glyph-name="three" unicode="3" 
d="M295 -9c-141 0 -241 74 -241 196c0 10 0 26 1 46h33c-1 -21 -1 -35 -1 -42c0 -106 84 -167 208 -167c131 0 220 66 220 173c0 83 -73 129 -181 129h-83v29h76c95 0 159 48 159 129c0 94 -80 151 -186 151c-120 0 -198 -63 -198 -168c0 -16 1 -34 2 -46h-33
c-2 11 -3 30 -3 49c0 123 92 197 232 197c128 0 220 -69 220 -181c0 -72 -49 -128 -120 -140v-1c86 -8 150 -67 150 -150c0 -124 -104 -204 -255 -204z" />
    <glyph glyph-name="four" unicode="4" 
d="M433 0v176h-391v35l380 447h46v-450h117v-32h-117v-176h-35zM80 208h353v413h-1l-352 -412v-1z" />
    <glyph glyph-name="five" unicode="5" 
d="M297 -9c-128 0 -234 64 -234 173c0 6 0 14 1 23h34c-1 -10 -1 -17 -1 -22c0 -89 91 -142 200 -142c130 0 212 80 212 197c0 113 -79 180 -203 180c-91 0 -165 -40 -194 -109l-37 4l26 363h404v-32h-374l-22 -298h1c27 60 106 102 201 102c142 0 232 -80 232 -210
c0 -138 -99 -229 -246 -229z" />
    <glyph glyph-name="six" unicode="6" 
d="M318 -9c-179 0 -265 104 -265 333c0 228 94 343 258 343c135 0 222 -70 222 -197c0 -12 -1 -26 -2 -34h-34c1 8 2 21 2 33c0 108 -73 166 -188 166c-143 0 -223 -101 -223 -311c0 -34 1 -71 4 -94h2c6 84 91 147 226 147c147 0 232 -67 232 -179
c0 -131 -93 -207 -234 -207zM318 23c121 0 200 63 200 175c0 94 -73 149 -201 149c-136 0 -214 -66 -215 -165c23 -102 94 -159 216 -159z" />
    <glyph glyph-name="seven" unicode="7" 
d="M164 0c65 234 218 479 361 624v1h-481v33h523v-30c-165 -174 -299 -397 -365 -628h-38z" />
    <glyph glyph-name="eight" unicode="8" 
d="M302 -9c-150 0 -249 72 -249 189c0 85 64 147 163 162v1c-80 13 -133 71 -133 148c0 109 86 176 219 176s219 -67 219 -176c0 -77 -53 -135 -134 -148v-1c99 -15 164 -77 164 -162c0 -117 -99 -189 -249 -189zM302 355c111 0 186 52 186 136c0 90 -75 144 -186 144
s-186 -54 -186 -144c0 -84 75 -136 186 -136zM302 23c129 0 214 59 214 157c0 90 -85 145 -214 145s-214 -55 -214 -145c0 -98 85 -157 214 -157z" />
    <glyph glyph-name="nine" unicode="9" 
d="M303 -9c-141 0 -237 66 -237 186v33h34c-1 -11 -1 -22 -1 -31c0 -103 83 -156 204 -156c142 0 215 106 215 310c0 35 -1 67 -5 95h-2c-12 -100 -101 -171 -223 -171c-142 0 -237 75 -237 195c0 132 97 215 240 215c168 0 262 -91 262 -331c0 -226 -87 -345 -250 -345z
M289 288c125 0 212 78 213 196c-27 106 -101 151 -211 151c-123 0 -206 -70 -206 -183c0 -102 83 -164 204 -164z" />
    <glyph glyph-name="summation" unicode="&#x2211;" 
d="M55 -112v32l315 363v1l-315 343v31h497v-33h-447v-1l311 -339v-1l-315 -362v-1h454v-33h-500z" />
    <glyph glyph-name="uni2206" unicode="&#x2206;" horiz-adv-x="707" 
d="M48 0l284 658h43l284 -658h-611zM100 33h504l-251 586h-2z" />
    <glyph glyph-name="product" unicode="&#x220f;" horiz-adv-x="663" 
d="M153 -106v731h-123v33h602v-33h-122v-731h-35v731h-287v-731h-35z" />
    <glyph glyph-name="uni2126" unicode="&#x2126;" horiz-adv-x="729" 
d="M46 0v33h227v37c-120 30 -224 133 -224 286c0 192 142 312 316 312c173 0 315 -120 315 -312c0 -153 -103 -255 -223 -286v-37h226v-33h-257v86c110 25 218 121 218 270c0 172 -128 279 -279 279c-152 0 -281 -107 -281 -279c0 -150 109 -245 220 -270v-86h-258z" />
    <glyph glyph-name="uni00B5" unicode="&#xb5;" 
d="M53 -198v692h34v-297c0 -107 62 -173 171 -173c112 0 213 88 213 233v237h34v-341c0 -91 18 -129 59 -129c11 0 20 2 24 3v-31c-4 -2 -15 -4 -29 -4c-51 0 -84 33 -86 157h-2c-27 -100 -119 -157 -213 -157c-89 0 -152 43 -170 99h-1v-289h-34z" />
    <glyph glyph-name="partialdiff" unicode="&#x2202;" 
d="M130 706c256 -30 414 -186 414 -421c0 -183 -95 -293 -241 -293c-147 0 -242 95 -242 254c0 157 93 256 228 256c97 0 178 -49 213 -134c-34 174 -173 284 -382 311zM303 24c125 0 207 96 207 258v5c-23 115 -110 183 -220 183c-115 0 -195 -87 -195 -224
c0 -139 82 -222 208 -222z" />
    <glyph glyph-name="pi" unicode="&#x3c0;" 
d="M521 -8c-83 0 -115 50 -115 153v317h-234v-462h-34v462h-117v32h561v-32h-142v-317c0 -84 25 -121 86 -121c22 0 40 6 48 9v-31c-9 -4 -28 -10 -53 -10z" />
    <glyph glyph-name="integral" unicode="&#x222b;" 
d="M179 -240c-40 0 -77 7 -94 12v29c19 -6 55 -14 91 -14c83 0 138 38 138 135c0 30 -4 88 -11 162l-33 346c-5 62 -11 138 -11 168c0 113 65 162 166 162c38 0 76 -6 94 -10v-28c-19 5 -57 11 -91 11c-83 0 -138 -39 -138 -135c0 -30 5 -105 11 -166l32 -346
c7 -72 11 -135 11 -164c0 -113 -65 -162 -165 -162z" />
    <glyph glyph-name="lozenge" unicode="&#x25ca;" 
d="M289 -54l-223 322l223 322h25l224 -322l-224 -322h-25zM301 -18h2l199 286l-199 285h-2l-199 -285z" />
    <glyph glyph-name="radical" unicode="&#x221a;" 
d="M305 -98l-126 436h-138v28h160l124 -430h4l213 814h31l-223 -848h-45z" />
    <glyph glyph-name="asciitilde" unicode="~" 
d="M425 179c-49 0 -82 24 -108 61l-52 74c-23 32 -47 53 -85 53c-46 0 -80 -29 -80 -102v-79h-28v81c0 91 47 128 107 128c49 0 81 -24 107 -61l52 -73c24 -33 47 -54 86 -54c42 0 80 23 80 102v79h28v-80c0 -99 -52 -129 -107 -129z" />
    <glyph glyph-name="asciicircum" unicode="^" 
d="M65 354l225 318h24l225 -318h-36l-200 285h-2l-200 -285h-36z" />
    <glyph glyph-name="A" unicode="A" horiz-adv-x="693" 
d="M613 0l-74 173h-388l-75 -173h-38l287 658h42l288 -658h-42zM164 202h362l-179 419h-2z" />
    <glyph glyph-name="B" unicode="B" horiz-adv-x="613" 
d="M76 0v658h248c138 0 206 -63 206 -171c0 -75 -32 -133 -114 -142v-1c96 -11 139 -72 139 -156c0 -119 -64 -188 -201 -188h-278zM111 356h236c104 0 150 47 150 129c0 89 -56 141 -174 141h-212v-270zM111 32h242c116 0 167 57 167 158c0 83 -49 136 -165 136h-244v-294z
" />
    <glyph glyph-name="C" unicode="C" horiz-adv-x="713" 
d="M380 -10c-182 0 -322 127 -322 339s138 339 320 339c159 0 280 -97 280 -249v-24h-33v23c0 133 -109 217 -247 217c-160 0 -285 -115 -285 -306s127 -306 287 -306c138 0 248 83 248 213v10h33v-11c0 -150 -122 -245 -281 -245z" />
    <glyph glyph-name="D" unicode="D" horiz-adv-x="677" 
d="M76 0v658h226c188 0 317 -116 317 -328c0 -213 -121 -330 -297 -330h-246zM111 33h210c154 0 263 104 263 297c0 191 -116 295 -281 295h-192v-592z" />
    <glyph glyph-name="E" unicode="E" horiz-adv-x="536" 
d="M76 0v658h410v-33h-375v-279h309v-30h-309v-283h384v-33h-419z" />
    <glyph glyph-name="F" unicode="F" horiz-adv-x="514" 
d="M76 0v658h403v-33h-368v-293h320v-30h-320v-302h-35z" />
    <glyph glyph-name="G" unicode="G" horiz-adv-x="722" 
d="M383 -10c-181 0 -325 124 -325 332c0 215 143 346 321 346c153 0 274 -85 274 -231c0 -17 -1 -38 -2 -51h-34c1 11 2 30 2 50c0 125 -108 199 -240 199c-157 0 -286 -118 -286 -314c0 -187 132 -299 290 -299c135 0 240 84 240 220v27h-279v29h314v-298h-34
c1 16 2 71 4 155h-1c-23 -107 -127 -165 -244 -165z" />
    <glyph glyph-name="H" unicode="H" horiz-adv-x="692" 
d="M76 0v658h35v-297h470v297h35v-658h-35v330h-470v-330h-35z" />
    <glyph glyph-name="I" unicode="I" horiz-adv-x="197" 
d="M81 0v658h35v-658h-35z" />
    <glyph glyph-name="J" unicode="J" horiz-adv-x="588" 
d="M287 -10c-144 0 -223 82 -223 234c0 35 2 79 3 104h34c-1 -25 -3 -68 -3 -104c0 -132 67 -201 189 -201c117 0 193 71 193 255v380h35v-379c0 -207 -89 -289 -228 -289z" />
    <glyph glyph-name="K" unicode="K" horiz-adv-x="680" 
d="M76 0v658h35v-443h2l468 443h49l-331 -311l347 -347h-50l-323 323l-162 -150v-173h-35z" />
    <glyph glyph-name="L" unicode="L" horiz-adv-x="522" 
d="M76 0v658h35v-625h375v-33h-410z" />
    <glyph glyph-name="M" unicode="M" horiz-adv-x="776" 
d="M76 0v658h61l250 -611h2l250 611h60v-658h-35v634h-1l-260 -634h-32l-260 634h-1v-634h-34z" />
    <glyph glyph-name="N" unicode="N" horiz-adv-x="684" 
d="M76 0v658h58l438 -610h2v610h34v-658h-43l-453 632h-2v-632h-34z" />
    <glyph glyph-name="O" unicode="O" horiz-adv-x="765" 
d="M382 -10c-177 0 -324 128 -324 342c0 211 147 336 324 336c178 0 325 -125 325 -336c0 -214 -147 -342 -325 -342zM382 23c156 0 290 115 290 309c0 190 -134 303 -290 303s-289 -113 -289 -303c0 -194 133 -309 289 -309z" />
    <glyph glyph-name="P" unicode="P" horiz-adv-x="613" 
d="M76 0v658h247c145 0 232 -82 232 -213c0 -134 -85 -208 -224 -208h-220v-237h-35zM111 267h218c119 0 192 62 192 177c0 112 -75 181 -198 181h-212v-358z" />
    <glyph glyph-name="Q" unicode="Q" horiz-adv-x="767" 
d="M382 -10c-177 0 -324 128 -324 342c0 211 147 336 324 336c179 0 325 -126 325 -336c0 -171 -102 -281 -216 -310v-2c58 1 146 1 204 2v-32h-313zM382 23c156 0 290 115 290 309c0 190 -134 303 -290 303s-289 -113 -289 -303c0 -194 133 -309 289 -309z" />
    <glyph glyph-name="R" unicode="R" horiz-adv-x="634" 
d="M76 0v658h270c147 0 219 -64 219 -184c0 -82 -38 -149 -128 -158v-1c93 -11 124 -74 124 -157v-158h-35v158c0 84 -37 138 -155 138h-260v-296h-35zM111 326h237c134 0 183 58 183 146c0 101 -61 153 -185 153h-235v-299z" />
    <glyph glyph-name="S" unicode="S" horiz-adv-x="627" 
d="M311 -10c-208 0 -250 118 -250 235h33c0 -106 39 -203 217 -203c177 0 222 77 222 155c0 50 -20 80 -59 98s-115 28 -173 36c-58 7 -143 23 -181 45c-36 23 -61 63 -61 122c0 110 93 190 247 190c184 0 239 -87 239 -240h-33c0 134 -51 208 -205 208
c-133 0 -213 -66 -213 -156c0 -50 20 -81 50 -98c35 -21 121 -34 175 -42c60 -8 136 -19 179 -40s70 -64 70 -122c0 -94 -55 -188 -257 -188z" />
    <glyph glyph-name="T" unicode="T" horiz-adv-x="563" 
d="M264 0v625h-234v33h502v-33h-233v-625h-35z" />
    <glyph glyph-name="U" unicode="U" horiz-adv-x="667" 
d="M335 -10c-162 0 -262 94 -262 240v428h35v-428c0 -127 86 -207 227 -207s227 80 227 207v428h33v-428c0 -146 -99 -240 -260 -240z" />
    <glyph glyph-name="V" unicode="V" horiz-adv-x="679" 
d="M317 0l-285 658h41l265 -620h3l266 620h38l-285 -658h-43z" />
    <glyph glyph-name="W" unicode="W" horiz-adv-x="987" 
d="M261 0l-229 658h38l210 -612h3l192 601h38l192 -601h2l211 612h36l-229 -658h-40l-190 596h-3l-190 -596h-41z" />
    <glyph glyph-name="X" unicode="X" horiz-adv-x="626" 
d="M33 0l258 334l-251 324h44l230 -300l229 300h43l-251 -323l258 -335h-44l-237 309l-237 -309h-42z" />
    <glyph glyph-name="Y" unicode="Y" horiz-adv-x="648" 
d="M306 0v270l-274 388h43l249 -356h2l249 356h40l-274 -388v-270h-35z" />
    <glyph glyph-name="Z" unicode="Z" horiz-adv-x="586" 
d="M52 0v28l436 596v1h-426v33h472v-27l-436 -597v-1h431v-33h-477z" />
    <glyph glyph-name="Aacute" unicode="&#xc1;" horiz-adv-x="693" 
d="M445 856l-92 -138h-31l81 138h42zM613 0l-74 173h-388l-75 -173h-38l287 658h42l288 -658h-42zM164 202h362l-179 419h-2z" />
    <glyph glyph-name="Abreve" unicode="&#x102;" horiz-adv-x="693" 
d="M345 728c-89 0 -124 60 -124 111v17h28v-14c0 -43 27 -87 96 -87c70 0 97 44 97 87v14h29v-17c0 -51 -36 -111 -126 -111zM613 0l-74 173h-388l-75 -173h-38l287 658h42l288 -658h-42zM164 202h362l-179 419h-2z" />
    <glyph glyph-name="Acircumflex" unicode="&#xc2;" horiz-adv-x="693" 
d="M347 823h-2l-131 -98v36l131 98h2l131 -98v-36zM613 0l-74 173h-388l-75 -173h-38l287 658h42l288 -658h-42zM164 202h362l-179 419h-2z" />
    <glyph glyph-name="uni0200" unicode="&#x200;" horiz-adv-x="693" 
d="M312 718h-31l-89 138h40zM467 718h-30l-89 138h40zM613 0l-74 173h-388l-75 -173h-38l287 658h42l288 -658h-42zM164 202h362l-179 419h-2z" />
    <glyph glyph-name="Adieresis" unicode="&#xc4;" horiz-adv-x="693" 
d="M289 815v-87h-35v87h35zM438 815v-87h-35v87h35zM613 0l-74 173h-388l-75 -173h-38l287 658h42l288 -658h-42zM164 202h362l-179 419h-2z" />
    <glyph glyph-name="Agrave" unicode="&#xc0;" horiz-adv-x="693" 
d="M389 718h-31l-93 138h42zM613 0l-74 173h-388l-75 -173h-38l287 658h42l288 -658h-42zM164 202h362l-179 419h-2z" />
    <glyph glyph-name="uni0202" unicode="&#x202;" horiz-adv-x="693" 
d="M249 742v-14h-28v17c0 52 36 111 125 111c90 0 125 -59 125 -111v-17h-28v14c0 43 -28 88 -97 88s-97 -45 -97 -88zM613 0l-74 173h-388l-75 -173h-38l287 658h42l288 -658h-42zM164 202h362l-179 419h-2z" />
    <glyph glyph-name="Amacron" unicode="&#x100;" horiz-adv-x="693" 
d="M473 803v-29h-254v29h254zM613 0l-74 173h-388l-75 -173h-38l287 658h42l288 -658h-42zM164 202h362l-179 419h-2z" />
    <glyph glyph-name="Aogonek" unicode="&#x104;" horiz-adv-x="693" 
d="M617 -165c22 0 37 5 47 9v-27c-10 -5 -29 -10 -50 -10c-52 0 -78 30 -78 70c0 41 34 88 78 123h-1l-74 173h-388l-75 -173h-38l287 658h42l288 -658h-8c-47 -39 -79 -84 -79 -120c0 -27 16 -45 49 -45zM164 202h362l-179 419h-2z" />
    <glyph glyph-name="Aring" unicode="&#xc5;" horiz-adv-x="693" 
d="M613 0l-74 173h-388l-75 -173h-38l277 634c-65 10 -98 49 -98 103c0 62 46 107 129 107c85 0 129 -45 129 -107c0 -54 -33 -93 -98 -103l278 -634h-42zM245 737c0 -47 33 -79 101 -79s101 32 101 79s-35 80 -101 80c-65 0 -101 -33 -101 -80zM164 202h362l-179 419h-2z
" />
    <glyph glyph-name="Atilde" unicode="&#xc3;" horiz-adv-x="693" 
d="M274 848c-34 0 -60 -36 -67 -111h-27c9 93 44 138 93 138c35 0 54 -17 75 -49l14 -22c17 -27 30 -41 54 -41c33 0 59 36 67 111h28c-9 -93 -44 -138 -95 -138c-34 0 -54 19 -74 49l-14 22c-17 27 -30 41 -54 41zM613 0l-74 173h-388l-75 -173h-38l287 658h42l288 -658
h-42zM164 202h362l-179 419h-2z" />
    <glyph glyph-name="AE" unicode="&#xc6;" horiz-adv-x="818" 
d="M38 0l324 658h406v-33h-351v-279h285v-30h-285v-283h360v-33h-395v173h-221l-85 -173h-38zM175 202h207v422h-2z" />
    <glyph glyph-name="AEacute" unicode="&#x1fc;" horiz-adv-x="818" 
d="M541 718l81 138h42l-92 -138h-31zM38 0l324 658h406v-33h-351v-279h285v-30h-285v-283h360v-33h-395v173h-221l-85 -173h-38zM175 202h207v422h-2z" />
    <glyph glyph-name="Cacute" unicode="&#x106;" horiz-adv-x="713" 
d="M346 718l81 138h42l-92 -138h-31zM380 -10c-182 0 -322 127 -322 339s138 339 320 339c159 0 280 -97 280 -249v-24h-33v23c0 133 -109 217 -247 217c-160 0 -285 -115 -285 -306s127 -306 287 -306c138 0 248 83 248 213v10h33v-11c0 -150 -122 -245 -281 -245z" />
    <glyph glyph-name="Ccaron" unicode="&#x10c;" horiz-adv-x="713" 
d="M350 718l-109 138h40l88 -115h2l88 115h40l-109 -138h-40zM380 -10c-182 0 -322 127 -322 339s138 339 320 339c159 0 280 -97 280 -249v-24h-33v23c0 133 -109 217 -247 217c-160 0 -285 -115 -285 -306s127 -306 287 -306c138 0 248 83 248 213v10h33v-11
c0 -150 -122 -245 -281 -245z" />
    <glyph glyph-name="Ccedilla" unicode="&#xc7;" horiz-adv-x="713" 
d="M628 246h33v-11c0 -149 -121 -244 -279 -245l-20 -54l1 -1c7 3 21 7 36 7c55 0 82 -31 82 -72c0 -46 -30 -88 -107 -88c-73 0 -111 32 -116 80h29c6 -35 35 -55 87 -55c56 0 79 30 79 62c0 30 -22 50 -65 50c-29 0 -54 -8 -63 -11l31 83c-170 10 -298 135 -298 338
c0 212 138 339 320 339c159 0 280 -97 280 -249v-24h-33v23c0 133 -109 217 -247 217c-160 0 -285 -115 -285 -306s127 -306 287 -306c138 0 248 83 248 213v10z" />
    <glyph glyph-name="Ccircumflex" unicode="&#x108;" horiz-adv-x="713" 
d="M238 725v36l131 98h2l131 -98v-36l-131 98h-2zM380 -10c-182 0 -322 127 -322 339s138 339 320 339c159 0 280 -97 280 -249v-24h-33v23c0 133 -109 217 -247 217c-160 0 -285 -115 -285 -306s127 -306 287 -306c138 0 248 83 248 213v10h33v-11
c0 -150 -122 -245 -281 -245z" />
    <glyph glyph-name="Cdotaccent" unicode="&#x10a;" horiz-adv-x="713" 
d="M352 728v87h36v-87h-36zM380 -10c-182 0 -322 127 -322 339s138 339 320 339c159 0 280 -97 280 -249v-24h-33v23c0 133 -109 217 -247 217c-160 0 -285 -115 -285 -306s127 -306 287 -306c138 0 248 83 248 213v10h33v-11c0 -150 -122 -245 -281 -245z" />
    <glyph glyph-name="Eth" unicode="&#xd0;" horiz-adv-x="692" 
d="M317 658c188 0 317 -116 317 -328c0 -213 -121 -330 -297 -330h-246v316h-87v26h87v316h226zM336 33c154 0 263 104 263 297c0 191 -116 295 -281 295h-192v-283h197v-26h-197v-283h210z" />
    <glyph glyph-name="Dcaron" unicode="&#x10e;" horiz-adv-x="677" 
d="M268 718l-109 138h40l88 -115h2l88 115h40l-109 -138h-40zM76 0v658h226c188 0 317 -116 317 -328c0 -213 -121 -330 -297 -330h-246zM111 33h210c154 0 263 104 263 297c0 191 -116 295 -281 295h-192v-592z" />
    <glyph glyph-name="Dmacron" unicode="&#x110;" horiz-adv-x="692" 
d="M317 658c188 0 317 -116 317 -328c0 -213 -121 -330 -297 -330h-246v316h-87v26h87v316h226zM336 33c154 0 263 104 263 297c0 191 -116 295 -281 295h-192v-283h197v-26h-197v-283h210z" />
    <glyph glyph-name="Eacute" unicode="&#xc9;" horiz-adv-x="536" 
d="M259 718l81 138h42l-92 -138h-31zM76 0v658h410v-33h-375v-279h309v-30h-309v-283h384v-33h-419z" />
    <glyph glyph-name="Ebreve" unicode="&#x114;" horiz-adv-x="536" 
d="M282 728c-89 0 -124 60 -124 111v17h28v-14c0 -43 27 -87 96 -87c70 0 97 44 97 87v14h29v-17c0 -51 -36 -111 -126 -111zM76 0v658h410v-33h-375v-279h309v-30h-309v-283h384v-33h-419z" />
    <glyph glyph-name="Ecaron" unicode="&#x11a;" horiz-adv-x="536" 
d="M263 718l-109 138h40l88 -115h2l88 115h40l-109 -138h-40zM76 0v658h410v-33h-375v-279h309v-30h-309v-283h384v-33h-419z" />
    <glyph glyph-name="Ecircumflex" unicode="&#xca;" horiz-adv-x="536" 
d="M151 725v36l131 98h2l131 -98v-36l-131 98h-2zM76 0v658h410v-33h-375v-279h309v-30h-309v-283h384v-33h-419z" />
    <glyph glyph-name="uni0204" unicode="&#x204;" horiz-adv-x="536" 
d="M218 718l-89 138h40l80 -138h-31zM374 718l-89 138h40l79 -138h-30zM76 0v658h410v-33h-375v-279h309v-30h-309v-283h384v-33h-419z" />
    <glyph glyph-name="Edieresis" unicode="&#xcb;" horiz-adv-x="536" 
d="M191 728v87h35v-87h-35zM340 728v87h35v-87h-35zM76 0v658h410v-33h-375v-279h309v-30h-309v-283h384v-33h-419z" />
    <glyph glyph-name="Edotaccent" unicode="&#x116;" horiz-adv-x="536" 
d="M265 728v87h36v-87h-36zM76 0v658h410v-33h-375v-279h309v-30h-309v-283h384v-33h-419z" />
    <glyph glyph-name="Egrave" unicode="&#xc8;" horiz-adv-x="536" 
d="M295 718l-93 138h42l82 -138h-31zM76 0v658h410v-33h-375v-279h309v-30h-309v-283h384v-33h-419z" />
    <glyph glyph-name="uni0206" unicode="&#x206;" horiz-adv-x="536" 
d="M158 728v17c0 52 36 111 125 111c90 0 125 -59 125 -111v-17h-28v14c0 43 -28 88 -97 88s-97 -45 -97 -88v-14h-28zM76 0v658h410v-33h-375v-279h309v-30h-309v-283h384v-33h-419z" />
    <glyph glyph-name="Emacron" unicode="&#x112;" horiz-adv-x="536" 
d="M156 774v29h254v-29h-254zM76 0v658h410v-33h-375v-279h309v-30h-309v-283h384v-33h-419z" />
    <glyph glyph-name="Eogonek" unicode="&#x118;" horiz-adv-x="536" 
d="M453 -165c22 0 37 5 47 9v-27c-10 -5 -29 -10 -50 -10c-52 0 -78 30 -78 70c0 41 34 88 78 123h-374v658h410v-33h-375v-279h309v-30h-309v-283h384v-33h-12c-47 -39 -79 -84 -79 -120c0 -27 16 -45 49 -45z" />
    <glyph glyph-name="Gbreve" unicode="&#x11e;" horiz-adv-x="722" 
d="M369 728c-89 0 -124 60 -124 111v17h28v-14c0 -43 27 -87 96 -87c70 0 97 44 97 87v14h29v-17c0 -51 -36 -111 -126 -111zM383 -10c-181 0 -325 124 -325 332c0 215 143 346 321 346c153 0 274 -85 274 -231c0 -17 -1 -38 -2 -51h-34c1 11 2 30 2 50
c0 125 -108 199 -240 199c-157 0 -286 -118 -286 -314c0 -187 132 -299 290 -299c135 0 240 84 240 220v27h-279v29h314v-298h-34c1 16 2 71 4 155h-1c-23 -107 -127 -165 -244 -165z" />
    <glyph glyph-name="Gcircumflex" unicode="&#x11c;" horiz-adv-x="722" 
d="M238 725v36l131 98h2l131 -98v-36l-131 98h-2zM383 -10c-181 0 -325 124 -325 332c0 215 143 346 321 346c153 0 274 -85 274 -231c0 -17 -1 -38 -2 -51h-34c1 11 2 30 2 50c0 125 -108 199 -240 199c-157 0 -286 -118 -286 -314c0 -187 132 -299 290 -299
c135 0 240 84 240 220v27h-279v29h314v-298h-34c1 16 2 71 4 155h-1c-23 -107 -127 -165 -244 -165z" />
    <glyph glyph-name="Gcommaaccent" unicode="&#x122;" horiz-adv-x="722" 
d="M383 -10c-181 0 -325 124 -325 332c0 215 143 346 321 346c153 0 274 -85 274 -231c0 -17 -1 -38 -2 -51h-34c1 11 2 30 2 50c0 125 -108 199 -240 199c-157 0 -286 -118 -286 -314c0 -187 132 -299 290 -299c135 0 240 84 240 220v27h-279v29h314v-298h-34
c1 16 2 71 4 155h-1c-23 -107 -127 -165 -244 -165zM300 -252v26c41 10 62 44 66 103v1h-11v90h38v-54c0 -101 -30 -152 -93 -166z" />
    <glyph glyph-name="Gdotaccent" unicode="&#x120;" horiz-adv-x="722" 
d="M352 728v87h36v-87h-36zM383 -10c-181 0 -325 124 -325 332c0 215 143 346 321 346c153 0 274 -85 274 -231c0 -17 -1 -38 -2 -51h-34c1 11 2 30 2 50c0 125 -108 199 -240 199c-157 0 -286 -118 -286 -314c0 -187 132 -299 290 -299c135 0 240 84 240 220v27h-279v29
h314v-298h-34c1 16 2 71 4 155h-1c-23 -107 -127 -165 -244 -165z" />
    <glyph glyph-name="Hcircumflex" unicode="&#x124;" horiz-adv-x="692" 
d="M214 725v36l131 98h2l131 -98v-36l-131 98h-2zM76 0v658h35v-297h470v297h35v-658h-35v330h-470v-330h-35z" />
    <glyph glyph-name="Iacute" unicode="&#xcd;" horiz-adv-x="197" 
d="M75 718l81 138h42l-92 -138h-31zM81 0v658h35v-658h-35z" />
    <glyph glyph-name="Icircumflex" unicode="&#xce;" horiz-adv-x="197" 
d="M-33 725v36l131 98h2l131 -98v-36l-131 98h-2zM81 0v658h35v-658h-35z" />
    <glyph glyph-name="uni0208" unicode="&#x208;" horiz-adv-x="197" 
d="M34 718l-89 138h40l80 -138h-31zM190 718l-89 138h40l79 -138h-30zM81 0v658h35v-658h-35z" />
    <glyph glyph-name="Idieresis" unicode="&#xcf;" horiz-adv-x="197" 
d="M7 728v87h35v-87h-35zM156 728v87h35v-87h-35zM81 0v658h35v-658h-35z" />
    <glyph glyph-name="Idotaccent" unicode="&#x130;" horiz-adv-x="197" 
d="M81 728v87h36v-87h-36zM81 0v658h35v-658h-35z" />
    <glyph glyph-name="Igrave" unicode="&#xcc;" horiz-adv-x="197" 
d="M111 718l-93 138h42l82 -138h-31zM81 0v658h35v-658h-35z" />
    <glyph glyph-name="uni020A" unicode="&#x20a;" horiz-adv-x="197" 
d="M-26 728v17c0 52 36 111 125 111c90 0 125 -59 125 -111v-17h-28v14c0 43 -28 88 -97 88s-97 -45 -97 -88v-14h-28zM81 0v658h35v-658h-35z" />
    <glyph glyph-name="Imacron" unicode="&#x12a;" horiz-adv-x="197" 
d="M-28 774v29h254v-29h-254zM81 0v658h35v-658h-35z" />
    <glyph glyph-name="Iogonek" unicode="&#x12e;" horiz-adv-x="197" 
d="M85 -165c22 0 37 5 47 9v-27c-10 -5 -29 -10 -50 -10c-52 0 -78 30 -78 70c0 41 34 88 78 123h-1v658h35v-658h-1c-47 -39 -79 -84 -79 -120c0 -27 16 -45 49 -45z" />
    <glyph glyph-name="uni00A40301" horiz-adv-x="588" 
d="M455 718l81 138h42l-92 -138h-31zM287 -10c-144 0 -223 82 -223 234c0 35 2 79 3 104h34c-1 -25 -3 -68 -3 -104c0 -132 67 -201 189 -201c117 0 193 71 193 255v380h35v-379c0 -207 -89 -289 -228 -289z" />
    <glyph glyph-name="Jcircumflex" unicode="&#x134;" horiz-adv-x="588" 
d="M347 725v36l131 98h2l131 -98v-36l-131 98h-2zM287 -10c-144 0 -223 82 -223 234c0 35 2 79 3 104h34c-1 -25 -3 -68 -3 -104c0 -132 67 -201 189 -201c117 0 193 71 193 255v380h35v-379c0 -207 -89 -289 -228 -289z" />
    <glyph glyph-name="Kcommaaccent" unicode="&#x136;" horiz-adv-x="680" 
d="M76 0v658h35v-443h2l468 443h49l-331 -311l347 -347h-50l-323 323l-162 -150v-173h-35zM267 -252v26c41 10 62 44 66 103v1h-11v90h38v-54c0 -101 -30 -152 -93 -166z" />
    <glyph glyph-name="Lacute" unicode="&#x139;" horiz-adv-x="522" 
d="M78 718l81 138h42l-92 -138h-31zM76 0v658h35v-625h375v-33h-410z" />
    <glyph glyph-name="Lcaron" unicode="&#x13d;" horiz-adv-x="522" 
d="M76 0v658h35v-625h375v-33h-410zM294 438v26c41 10 62 44 66 103v1h-11v90h38v-54c0 -101 -30 -152 -93 -166z" />
    <glyph glyph-name="Lcommaaccent" unicode="&#x13b;" horiz-adv-x="522" 
d="M76 0v658h35v-625h375v-33h-410zM192 -252v26c41 10 62 44 66 103v1h-11v90h38v-54c0 -101 -30 -152 -93 -166z" />
    <glyph glyph-name="Ldot" unicode="&#x13f;" horiz-adv-x="532" 
d="M76 0v658h35v-625h375v-33h-410zM358 298v89h38v-89h-38z" />
    <glyph glyph-name="Lslash" unicode="&#x141;" horiz-adv-x="529" 
d="M118 33h375v-33h-410v289l-89 -37v28l89 37v341h35v-326l135 56v-28l-135 -56v-271z" />
    <glyph glyph-name="Nacute" unicode="&#x143;" horiz-adv-x="684" 
d="M318 718l81 138h42l-92 -138h-31zM76 0v658h58l438 -610h2v610h34v-658h-43l-453 632h-2v-632h-34z" />
    <glyph glyph-name="Ncaron" unicode="&#x147;" horiz-adv-x="684" 
d="M322 718l-109 138h40l88 -115h2l88 115h40l-109 -138h-40zM76 0v658h58l438 -610h2v610h34v-658h-43l-453 632h-2v-632h-34z" />
    <glyph glyph-name="Ncommaaccent" unicode="&#x145;" horiz-adv-x="684" 
d="M76 0v658h58l438 -610h2v610h34v-658h-43l-453 632h-2v-632h-34zM269 -252v26c41 10 62 44 66 103v1h-11v90h38v-54c0 -101 -30 -152 -93 -166z" />
    <glyph glyph-name="Ntilde" unicode="&#xd1;" horiz-adv-x="684" 
d="M176 737c9 93 44 138 93 138c35 0 54 -17 75 -49l14 -22c17 -27 30 -41 54 -41c33 0 59 36 67 111h28c-9 -93 -44 -138 -95 -138c-34 0 -54 19 -74 49l-14 22c-17 27 -30 41 -54 41c-34 0 -60 -36 -67 -111h-27zM76 0v658h58l438 -610h2v610h34v-658h-43l-453 632h-2
v-632h-34z" />
    <glyph glyph-name="Oacute" unicode="&#xd3;" horiz-adv-x="765" 
d="M358 718l81 138h42l-92 -138h-31zM382 -10c-177 0 -324 128 -324 342c0 211 147 336 324 336c178 0 325 -125 325 -336c0 -214 -147 -342 -325 -342zM382 23c156 0 290 115 290 309c0 190 -134 303 -290 303s-289 -113 -289 -303c0 -194 133 -309 289 -309z" />
    <glyph glyph-name="Obreve" unicode="&#x14e;" horiz-adv-x="765" 
d="M381 728c-89 0 -124 60 -124 111v17h28v-14c0 -43 27 -87 96 -87c70 0 97 44 97 87v14h29v-17c0 -51 -36 -111 -126 -111zM382 -10c-177 0 -324 128 -324 342c0 211 147 336 324 336c178 0 325 -125 325 -336c0 -214 -147 -342 -325 -342zM382 23c156 0 290 115 290 309
c0 190 -134 303 -290 303s-289 -113 -289 -303c0 -194 133 -309 289 -309z" />
    <glyph glyph-name="Ocircumflex" unicode="&#xd4;" horiz-adv-x="765" 
d="M250 725v36l131 98h2l131 -98v-36l-131 98h-2zM382 -10c-177 0 -324 128 -324 342c0 211 147 336 324 336c178 0 325 -125 325 -336c0 -214 -147 -342 -325 -342zM382 23c156 0 290 115 290 309c0 190 -134 303 -290 303s-289 -113 -289 -303c0 -194 133 -309 289 -309z
" />
    <glyph glyph-name="uni020C" unicode="&#x20c;" horiz-adv-x="765" 
d="M317 718l-89 138h40l80 -138h-31zM473 718l-89 138h40l79 -138h-30zM382 -10c-177 0 -324 128 -324 342c0 211 147 336 324 336c178 0 325 -125 325 -336c0 -214 -147 -342 -325 -342zM382 23c156 0 290 115 290 309c0 190 -134 303 -290 303s-289 -113 -289 -303
c0 -194 133 -309 289 -309z" />
    <glyph glyph-name="Odieresis" unicode="&#xd6;" horiz-adv-x="765" 
d="M290 728v87h35v-87h-35zM439 728v87h35v-87h-35zM382 -10c-177 0 -324 128 -324 342c0 211 147 336 324 336c178 0 325 -125 325 -336c0 -214 -147 -342 -325 -342zM382 23c156 0 290 115 290 309c0 190 -134 303 -290 303s-289 -113 -289 -303c0 -194 133 -309 289 -309
z" />
    <glyph glyph-name="Ograve" unicode="&#xd2;" horiz-adv-x="765" 
d="M394 718l-93 138h42l82 -138h-31zM382 -10c-177 0 -324 128 -324 342c0 211 147 336 324 336c178 0 325 -125 325 -336c0 -214 -147 -342 -325 -342zM382 23c156 0 290 115 290 309c0 190 -134 303 -290 303s-289 -113 -289 -303c0 -194 133 -309 289 -309z" />
    <glyph glyph-name="Ohungarumlaut" unicode="&#x150;" horiz-adv-x="765" 
d="M252 719l78 137h41l-90 -137h-29zM407 719l79 137h41l-90 -137h-30zM382 -10c-177 0 -324 128 -324 342c0 211 147 336 324 336c178 0 325 -125 325 -336c0 -214 -147 -342 -325 -342zM382 23c156 0 290 115 290 309c0 190 -134 303 -290 303s-289 -113 -289 -303
c0 -194 133 -309 289 -309z" />
    <glyph glyph-name="uni020E" unicode="&#x20e;" horiz-adv-x="765" 
d="M257 728v17c0 52 36 111 125 111c90 0 125 -59 125 -111v-17h-28v14c0 43 -28 88 -97 88s-97 -45 -97 -88v-14h-28zM382 -10c-177 0 -324 128 -324 342c0 211 147 336 324 336c178 0 325 -125 325 -336c0 -214 -147 -342 -325 -342zM382 23c156 0 290 115 290 309
c0 190 -134 303 -290 303s-289 -113 -289 -303c0 -194 133 -309 289 -309z" />
    <glyph glyph-name="Omacron" unicode="&#x14c;" horiz-adv-x="765" 
d="M255 774v29h254v-29h-254zM382 -10c-177 0 -324 128 -324 342c0 211 147 336 324 336c178 0 325 -125 325 -336c0 -214 -147 -342 -325 -342zM382 23c156 0 290 115 290 309c0 190 -134 303 -290 303s-289 -113 -289 -303c0 -194 133 -309 289 -309z" />
    <glyph glyph-name="Oslash" unicode="&#xd8;" horiz-adv-x="765" 
d="M609 581c61 -58 98 -142 98 -249c0 -214 -147 -342 -325 -342c-79 0 -152 26 -209 73l-33 -39l-17 15l33 39c-60 59 -98 145 -98 254c0 211 147 336 324 336c80 0 154 -25 211 -72l30 36l17 -15zM93 332c0 -97 33 -174 86 -227l391 464c-51 43 -117 66 -188 66
c-156 0 -289 -113 -289 -303zM382 23c156 0 290 115 290 309c0 94 -33 170 -85 222l-392 -464c51 -44 117 -67 187 -67z" />
    <glyph glyph-name="Oslashacute" unicode="&#x1fe;" horiz-adv-x="765" 
d="M481 856l-92 -138h-31l81 138h42zM609 581c61 -58 98 -142 98 -249c0 -214 -147 -342 -325 -342c-79 0 -152 26 -209 73l-33 -39l-17 15l33 39c-60 59 -98 145 -98 254c0 211 147 336 324 336c80 0 154 -25 211 -72l30 36l17 -15zM93 332c0 -97 33 -174 86 -227l391 464
c-51 43 -117 66 -188 66c-156 0 -289 -113 -289 -303zM382 23c156 0 290 115 290 309c0 94 -33 170 -85 222l-392 -464c51 -44 117 -67 187 -67z" />
    <glyph glyph-name="Otilde" unicode="&#xd5;" horiz-adv-x="765" 
d="M216 737c9 93 44 138 93 138c35 0 54 -17 75 -49l14 -22c17 -27 30 -41 54 -41c33 0 59 36 67 111h28c-9 -93 -44 -138 -95 -138c-34 0 -54 19 -74 49l-14 22c-17 27 -30 41 -54 41c-34 0 -60 -36 -67 -111h-27zM382 -10c-177 0 -324 128 -324 342c0 211 147 336 324 336
c178 0 325 -125 325 -336c0 -214 -147 -342 -325 -342zM382 23c156 0 290 115 290 309c0 190 -134 303 -290 303s-289 -113 -289 -303c0 -194 133 -309 289 -309z" />
    <glyph glyph-name="OE" unicode="&#x152;" horiz-adv-x="915" 
d="M386 -10c-180 0 -328 128 -328 342c0 211 148 336 328 336c36 0 74 -4 97 -10h383v-33h-348v-279h281v-30h-281v-283h356v-33h-390c-26 -5 -65 -10 -98 -10zM386 23c36 0 74 4 97 12v587c-25 9 -63 13 -97 13c-159 0 -293 -113 -293 -303c0 -194 135 -309 293 -309z" />
    <glyph glyph-name="Thorn" unicode="&#xde;" horiz-adv-x="596" 
d="M76 0v658h35v-115h215c137 0 215 -79 215 -214c0 -132 -76 -209 -207 -209h-223v-120h-35zM111 150h221c110 0 174 65 174 178c0 116 -65 182 -180 182h-215v-360z" />
    <glyph glyph-name="Racute" unicode="&#x154;" horiz-adv-x="634" 
d="M294 718l81 138h42l-92 -138h-31zM76 0v658h270c147 0 219 -64 219 -184c0 -82 -38 -149 -128 -158v-1c93 -11 124 -74 124 -157v-158h-35v158c0 84 -37 138 -155 138h-260v-296h-35zM111 326h237c134 0 183 58 183 146c0 101 -61 153 -185 153h-235v-299z" />
    <glyph glyph-name="Rcaron" unicode="&#x158;" horiz-adv-x="634" 
d="M298 718l-109 138h40l88 -115h2l88 115h40l-109 -138h-40zM76 0v658h270c147 0 219 -64 219 -184c0 -82 -38 -149 -128 -158v-1c93 -11 124 -74 124 -157v-158h-35v158c0 84 -37 138 -155 138h-260v-296h-35zM111 326h237c134 0 183 58 183 146c0 101 -61 153 -185 153
h-235v-299z" />
    <glyph glyph-name="Rcommaaccent" unicode="&#x156;" horiz-adv-x="634" 
d="M76 0v658h270c147 0 219 -64 219 -184c0 -82 -38 -149 -128 -158v-1c93 -11 124 -74 124 -157v-158h-35v158c0 84 -37 138 -155 138h-260v-296h-35zM111 326h237c134 0 183 58 183 146c0 101 -61 153 -185 153h-235v-299zM254 -252v26c41 10 62 44 66 103v1h-11v90h38
v-54c0 -101 -30 -152 -93 -166z" />
    <glyph glyph-name="uni0210" unicode="&#x210;" horiz-adv-x="634" 
d="M253 718l-89 138h40l80 -138h-31zM409 718l-89 138h40l79 -138h-30zM76 0v658h270c147 0 219 -64 219 -184c0 -82 -38 -149 -128 -158v-1c93 -11 124 -74 124 -157v-158h-35v158c0 84 -37 138 -155 138h-260v-296h-35zM111 326h237c134 0 183 58 183 146
c0 101 -61 153 -185 153h-235v-299z" />
    <glyph glyph-name="uni0212" unicode="&#x212;" horiz-adv-x="634" 
d="M193 728v17c0 52 36 111 125 111c90 0 125 -59 125 -111v-17h-28v14c0 43 -28 88 -97 88s-97 -45 -97 -88v-14h-28zM76 0v658h270c147 0 219 -64 219 -184c0 -82 -38 -149 -128 -158v-1c93 -11 124 -74 124 -157v-158h-35v158c0 84 -37 138 -155 138h-260v-296h-35z
M111 326h237c134 0 183 58 183 146c0 101 -61 153 -185 153h-235v-299z" />
    <glyph glyph-name="Sacute" unicode="&#x15a;" horiz-adv-x="627" 
d="M282 718l81 138h42l-92 -138h-31zM311 -10c-208 0 -250 118 -250 235h33c0 -106 39 -203 217 -203c177 0 222 77 222 155c0 50 -20 80 -59 98s-115 28 -173 36c-58 7 -143 23 -181 45c-36 23 -61 63 -61 122c0 110 93 190 247 190c184 0 239 -87 239 -240h-33
c0 134 -51 208 -205 208c-133 0 -213 -66 -213 -156c0 -50 20 -81 50 -98c35 -21 121 -34 175 -42c60 -8 136 -19 179 -40s70 -64 70 -122c0 -94 -55 -188 -257 -188z" />
    <glyph glyph-name="Scaron" unicode="&#x160;" horiz-adv-x="627" 
d="M286 718l-109 138h40l88 -115h2l88 115h40l-109 -138h-40zM311 -10c-208 0 -250 118 -250 235h33c0 -106 39 -203 217 -203c177 0 222 77 222 155c0 50 -20 80 -59 98s-115 28 -173 36c-58 7 -143 23 -181 45c-36 23 -61 63 -61 122c0 110 93 190 247 190
c184 0 239 -87 239 -240h-33c0 134 -51 208 -205 208c-133 0 -213 -66 -213 -156c0 -50 20 -81 50 -98c35 -21 121 -34 175 -42c60 -8 136 -19 179 -40s70 -64 70 -122c0 -94 -55 -188 -257 -188z" />
    <glyph glyph-name="Scedilla" unicode="&#x15e;" horiz-adv-x="627" 
d="M568 178c0 -93 -53 -185 -248 -188l-20 -54l1 -1c7 3 21 7 36 7c55 0 82 -31 82 -72c0 -46 -30 -88 -107 -88c-73 0 -111 32 -116 80h29c6 -35 35 -55 87 -55c56 0 79 30 79 62c0 30 -22 50 -65 50c-29 0 -54 -8 -63 -11l31 82c-193 7 -233 121 -233 235h33
c0 -106 39 -203 217 -203c177 0 222 77 222 155c0 50 -20 80 -59 98s-115 28 -173 36c-58 7 -143 23 -181 45c-36 23 -61 63 -61 122c0 110 93 190 247 190c184 0 239 -87 239 -240h-33c0 134 -51 208 -205 208c-133 0 -213 -66 -213 -156c0 -50 20 -81 50 -98
c35 -21 121 -34 175 -42c60 -8 136 -19 179 -40s70 -64 70 -122z" />
    <glyph glyph-name="Scircumflex" unicode="&#x15c;" horiz-adv-x="627" 
d="M174 725v36l131 98h2l131 -98v-36l-131 98h-2zM311 -10c-208 0 -250 118 -250 235h33c0 -106 39 -203 217 -203c177 0 222 77 222 155c0 50 -20 80 -59 98s-115 28 -173 36c-58 7 -143 23 -181 45c-36 23 -61 63 -61 122c0 110 93 190 247 190c184 0 239 -87 239 -240
h-33c0 134 -51 208 -205 208c-133 0 -213 -66 -213 -156c0 -50 20 -81 50 -98c35 -21 121 -34 175 -42c60 -8 136 -19 179 -40s70 -64 70 -122c0 -94 -55 -188 -257 -188z" />
    <glyph glyph-name="Scommaaccent" unicode="&#x218;" horiz-adv-x="627" 
d="M311 -10c-208 0 -250 118 -250 235h33c0 -106 39 -203 217 -203c177 0 222 77 222 155c0 50 -20 80 -59 98s-115 28 -173 36c-58 7 -143 23 -181 45c-36 23 -61 63 -61 122c0 110 93 190 247 190c184 0 239 -87 239 -240h-33c0 134 -51 208 -205 208
c-133 0 -213 -66 -213 -156c0 -50 20 -81 50 -98c35 -21 121 -34 175 -42c60 -8 136 -19 179 -40s70 -64 70 -122c0 -94 -55 -188 -257 -188zM237 -252v26c41 10 62 44 66 103v1h-11v90h38v-54c0 -101 -30 -152 -93 -166z" />
    <glyph glyph-name="Tcaron" unicode="&#x164;" horiz-adv-x="563" 
d="M261 718l-109 138h40l88 -115h2l88 115h40l-109 -138h-40zM264 0v625h-234v33h502v-33h-233v-625h-35z" />
    <glyph glyph-name="uni0162" unicode="&#x162;" horiz-adv-x="563" 
d="M264 0v625h-234v33h502v-33h-233v-625h-35zM208 -252v26c41 10 62 44 66 103v1h-11v90h38v-54c0 -101 -30 -152 -93 -166z" />
    <glyph glyph-name="Uacute" unicode="&#xda;" horiz-adv-x="667" 
d="M311 718l81 138h42l-92 -138h-31zM335 -10c-162 0 -262 94 -262 240v428h35v-428c0 -127 86 -207 227 -207s227 80 227 207v428h33v-428c0 -146 -99 -240 -260 -240z" />
    <glyph glyph-name="Ubreve" unicode="&#x16c;" horiz-adv-x="667" 
d="M334 728c-89 0 -124 60 -124 111v17h28v-14c0 -43 27 -87 96 -87c70 0 97 44 97 87v14h29v-17c0 -51 -36 -111 -126 -111zM335 -10c-162 0 -262 94 -262 240v428h35v-428c0 -127 86 -207 227 -207s227 80 227 207v428h33v-428c0 -146 -99 -240 -260 -240z" />
    <glyph glyph-name="Ucircumflex" unicode="&#xdb;" horiz-adv-x="667" 
d="M203 725v36l131 98h2l131 -98v-36l-131 98h-2zM335 -10c-162 0 -262 94 -262 240v428h35v-428c0 -127 86 -207 227 -207s227 80 227 207v428h33v-428c0 -146 -99 -240 -260 -240z" />
    <glyph glyph-name="uni0214" unicode="&#x214;" horiz-adv-x="667" 
d="M270 718l-89 138h40l80 -138h-31zM426 718l-89 138h40l79 -138h-30zM335 -10c-162 0 -262 94 -262 240v428h35v-428c0 -127 86 -207 227 -207s227 80 227 207v428h33v-428c0 -146 -99 -240 -260 -240z" />
    <glyph glyph-name="Udieresis" unicode="&#xdc;" horiz-adv-x="667" 
d="M243 728v87h35v-87h-35zM392 728v87h35v-87h-35zM335 -10c-162 0 -262 94 -262 240v428h35v-428c0 -127 86 -207 227 -207s227 80 227 207v428h33v-428c0 -146 -99 -240 -260 -240z" />
    <glyph glyph-name="Ugrave" unicode="&#xd9;" horiz-adv-x="667" 
d="M347 718l-93 138h42l82 -138h-31zM335 -10c-162 0 -262 94 -262 240v428h35v-428c0 -127 86 -207 227 -207s227 80 227 207v428h33v-428c0 -146 -99 -240 -260 -240z" />
    <glyph glyph-name="Uhungarumlaut" unicode="&#x170;" horiz-adv-x="667" 
d="M205 719l78 137h41l-90 -137h-29zM360 719l79 137h41l-90 -137h-30zM335 -10c-162 0 -262 94 -262 240v428h35v-428c0 -127 86 -207 227 -207s227 80 227 207v428h33v-428c0 -146 -99 -240 -260 -240z" />
    <glyph glyph-name="uni0216" unicode="&#x216;" horiz-adv-x="667" 
d="M210 728v17c0 52 36 111 125 111c90 0 125 -59 125 -111v-17h-28v14c0 43 -28 88 -97 88s-97 -45 -97 -88v-14h-28zM335 -10c-162 0 -262 94 -262 240v428h35v-428c0 -127 86 -207 227 -207s227 80 227 207v428h33v-428c0 -146 -99 -240 -260 -240z" />
    <glyph glyph-name="Umacron" unicode="&#x16a;" horiz-adv-x="667" 
d="M208 774v29h254v-29h-254zM335 -10c-162 0 -262 94 -262 240v428h35v-428c0 -127 86 -207 227 -207s227 80 227 207v428h33v-428c0 -146 -99 -240 -260 -240z" />
    <glyph glyph-name="Uogonek" unicode="&#x172;" horiz-adv-x="667" 
d="M73 230v428h35v-428c0 -127 86 -207 227 -207s227 80 227 207v428h33v-428c0 -105 -52 -183 -142 -220c-19 -8 -36 -19 -52 -32c-30 -23 -60 -62 -60 -98c0 -27 17 -45 49 -45c23 0 38 5 47 9v-27c-10 -5 -28 -10 -50 -10c-51 0 -77 30 -77 70s31 86 71 115v2
c-15 -3 -30 -4 -46 -4c-162 0 -262 94 -262 240z" />
    <glyph glyph-name="Uring" unicode="&#x16e;" horiz-adv-x="667" 
d="M335 718c-86 0 -129 43 -129 105s46 107 129 107c85 0 129 -45 129 -107s-43 -105 -129 -105zM335 744c68 0 101 32 101 79s-35 80 -101 80c-65 0 -101 -33 -101 -80s33 -79 101 -79zM335 -10c-162 0 -262 94 -262 240v428h35v-428c0 -127 86 -207 227 -207
s227 80 227 207v428h33v-428c0 -146 -99 -240 -260 -240z" />
    <glyph glyph-name="Utilde" unicode="&#x168;" horiz-adv-x="667" 
d="M169 737c9 93 44 138 93 138c35 0 54 -17 75 -49l14 -22c17 -27 30 -41 54 -41c33 0 59 36 67 111h28c-9 -93 -44 -138 -95 -138c-34 0 -54 19 -74 49l-14 22c-17 27 -30 41 -54 41c-34 0 -60 -36 -67 -111h-27zM335 -10c-162 0 -262 94 -262 240v428h35v-428
c0 -127 86 -207 227 -207s227 80 227 207v428h33v-428c0 -146 -99 -240 -260 -240z" />
    <glyph glyph-name="Wacute" unicode="&#x1e82;" horiz-adv-x="987" 
d="M469 718l81 138h42l-92 -138h-31zM261 0l-229 658h38l210 -612h3l192 601h38l192 -601h2l211 612h36l-229 -658h-40l-190 596h-3l-190 -596h-41z" />
    <glyph glyph-name="Wcircumflex" unicode="&#x174;" horiz-adv-x="987" 
d="M361 725v36l131 98h2l131 -98v-36l-131 98h-2zM261 0l-229 658h38l210 -612h3l192 601h38l192 -601h2l211 612h36l-229 -658h-40l-190 596h-3l-190 -596h-41z" />
    <glyph glyph-name="Wdieresis" unicode="&#x1e84;" horiz-adv-x="987" 
d="M401 728v87h35v-87h-35zM550 728v87h35v-87h-35zM261 0l-229 658h38l210 -612h3l192 601h38l192 -601h2l211 612h36l-229 -658h-40l-190 596h-3l-190 -596h-41z" />
    <glyph glyph-name="Wgrave" unicode="&#x1e80;" horiz-adv-x="987" 
d="M505 718l-93 138h42l82 -138h-31zM261 0l-229 658h38l210 -612h3l192 601h38l192 -601h2l211 612h36l-229 -658h-40l-190 596h-3l-190 -596h-41z" />
    <glyph glyph-name="Yacute" unicode="&#xdd;" horiz-adv-x="648" 
d="M299 718l81 138h42l-92 -138h-31zM306 0v270l-274 388h43l249 -356h2l249 356h40l-274 -388v-270h-35z" />
    <glyph glyph-name="Ycircumflex" unicode="&#x176;" horiz-adv-x="648" 
d="M191 725v36l131 98h2l131 -98v-36l-131 98h-2zM306 0v270l-274 388h43l249 -356h2l249 356h40l-274 -388v-270h-35z" />
    <glyph glyph-name="Ydieresis" unicode="&#x178;" horiz-adv-x="648" 
d="M231 728v87h35v-87h-35zM380 728v87h35v-87h-35zM306 0v270l-274 388h43l249 -356h2l249 356h40l-274 -388v-270h-35z" />
    <glyph glyph-name="Ygrave" unicode="&#x1ef2;" horiz-adv-x="648" 
d="M335 718l-93 138h42l82 -138h-31zM306 0v270l-274 388h43l249 -356h2l249 356h40l-274 -388v-270h-35z" />
    <glyph glyph-name="Zacute" unicode="&#x179;" horiz-adv-x="586" 
d="M267 718l81 138h42l-92 -138h-31zM52 0v28l436 596v1h-426v33h472v-27l-436 -597v-1h431v-33h-477z" />
    <glyph glyph-name="Zcaron" unicode="&#x17d;" horiz-adv-x="586" 
d="M271 718l-109 138h40l88 -115h2l88 115h40l-109 -138h-40zM52 0v28l436 596v1h-426v33h472v-27l-436 -597v-1h431v-33h-477z" />
    <glyph glyph-name="Zdotaccent" unicode="&#x17b;" horiz-adv-x="586" 
d="M273 728v87h36v-87h-36zM52 0v28l436 596v1h-426v33h472v-27l-436 -597v-1h431v-33h-477z" />
    <glyph glyph-name="a" unicode="a" horiz-adv-x="566" 
d="M243 -7c-107 0 -184 54 -184 144c0 69 47 126 176 126h233v53c0 99 -71 155 -185 155c-108 0 -177 -46 -177 -125c0 -12 1 -22 2 -28h-33c-1 5 -2 19 -2 31c0 96 83 153 211 153c133 0 218 -69 218 -188v-314h-34c1 31 2 90 2 137h-1c-22 -89 -108 -144 -226 -144z
M247 24c134 0 221 76 221 204v7h-231c-108 0 -145 -41 -145 -98c0 -71 66 -113 155 -113z" />
    <glyph glyph-name="b" unicode="b" horiz-adv-x="616" 
d="M326 -8c-114 0 -192 61 -217 138h-1c0 -52 1 -104 2 -130h-34v693h34v-256c0 -17 -1 -57 -1 -89h1c21 97 108 154 219 154c138 0 230 -94 230 -245c0 -166 -98 -265 -233 -265zM321 24c117 0 204 87 204 232c0 132 -81 214 -200 214c-128 0 -215 -82 -215 -227v-27
c0 -102 81 -192 211 -192z" />
    <glyph glyph-name="c" unicode="c" horiz-adv-x="565" 
d="M291 -8c-139 0 -234 95 -234 255s98 255 241 255c116 0 207 -74 207 -197h-32c0 103 -78 165 -175 165c-122 0 -207 -84 -207 -223s82 -223 201 -223c102 0 183 61 184 163h32c0 -122 -94 -195 -217 -195z" />
    <glyph glyph-name="d" unicode="d" horiz-adv-x="616" 
d="M293 -8c-143 0 -236 100 -236 263c0 145 96 247 241 247c107 0 181 -42 206 -127h1v318h34v-693h-34c2 51 2 102 3 153h-1c-20 -90 -97 -161 -214 -161zM297 24c134 0 208 108 208 216v25c0 139 -83 205 -205 205c-125 0 -209 -90 -209 -215c0 -144 81 -231 206 -231z
" />
    <glyph glyph-name="e" unicode="e" horiz-adv-x="565" 
d="M508 248h-417v-5c0 -138 80 -220 204 -220c100 0 174 52 181 140h32c-6 -107 -92 -171 -214 -171c-145 0 -237 94 -237 251c0 162 92 259 237 259c130 0 214 -79 214 -229v-25zM294 471c-114 0 -190 -70 -202 -195h384v4c0 126 -72 191 -182 191z" />
    <glyph glyph-name="f" unicode="f" horiz-adv-x="381" 
d="M104 0v463h-89v31h89v54c0 110 57 164 151 164c35 0 63 -7 80 -13v-33c-17 7 -45 14 -77 14c-77 0 -120 -41 -120 -132v-54h205v-31h-205v-463h-34z" />
    <glyph glyph-name="g" unicode="g" horiz-adv-x="572" 
d="M380 55c92 0 144 -41 144 -113c0 -95 -85 -153 -230 -153c-153 0 -243 52 -243 142c0 63 49 106 113 107c-26 15 -40 42 -40 76c0 32 11 53 24 64v3c-47 30 -73 81 -73 145c0 107 72 176 193 176c53 0 96 -13 129 -37c-8 12 -17 34 -17 55c0 42 29 66 78 66
c21 0 35 -3 42 -6v-31c-6 3 -20 7 -39 7c-35 0 -55 -15 -55 -47c0 -21 9 -46 21 -73c23 -28 35 -66 35 -110c0 -107 -73 -176 -194 -176c-37 0 -69 6 -96 18c-9 -7 -17 -27 -17 -50c0 -39 24 -63 68 -63h157zM108 326c0 -88 60 -145 160 -145s160 57 160 145
s-60 145 -160 145s-160 -57 -160 -145zM294 -180c129 0 196 46 196 120c0 53 -41 84 -113 84h-154h-1c-90 0 -137 -33 -137 -93c0 -71 78 -111 209 -111z" />
    <glyph glyph-name="h" unicode="h" horiz-adv-x="607" 
d="M76 0v693h34v-235c0 -25 -1 -78 -2 -106h1c27 94 106 150 224 150c133 0 211 -69 211 -198v-304h-34v299c0 113 -66 171 -184 171c-125 0 -216 -76 -216 -213v-257h-34z" />
    <glyph glyph-name="i" unicode="i" horiz-adv-x="187" 
d="M74 564v87h39v-87h-39zM76 0v494h34v-494h-34z" />
    <glyph glyph-name="j" unicode="j" horiz-adv-x="187" 
d="M74 564v87h39v-87h-39zM-37 -207c-29 0 -61 6 -77 11v32c18 -5 47 -11 74 -11c75 0 116 55 116 161v508h34v-508c0 -124 -50 -193 -147 -193z" />
    <glyph glyph-name="k" unicode="k" horiz-adv-x="590" 
d="M76 0v693h34v-511h1l379 312h52l-278 -226l292 -268h-50l-268 247l-128 -105v-142h-34z" />
    <glyph glyph-name="l" unicode="l" horiz-adv-x="187" 
d="M76 0v693h34v-693h-34z" />
    <glyph glyph-name="m" unicode="m" horiz-adv-x="867" 
d="M69 0v494h34l-2 -136h1c22 93 93 144 181 144c94 0 156 -49 167 -137h1c19 87 95 137 182 137c107 0 171 -67 171 -194v-308h-34v303c0 111 -52 167 -144 167c-99 0 -172 -72 -172 -202v-268h-34v312c0 102 -52 158 -144 158c-98 0 -173 -74 -173 -208v-262h-34z" />
    <glyph glyph-name="n" unicode="n" horiz-adv-x="600" 
d="M69 0v494h34l-2 -140h2c26 92 105 148 223 148c133 0 211 -69 211 -198v-304h-34v299c0 113 -66 171 -184 171c-126 0 -216 -75 -216 -210v-260h-34z" />
    <glyph glyph-name="o" unicode="o" horiz-adv-x="596" 
d="M298 -8c-141 0 -241 95 -241 254c0 160 100 256 241 256s241 -96 241 -256c0 -159 -100 -254 -241 -254zM298 24c119 0 207 83 207 222c0 140 -88 224 -207 224c-120 0 -207 -84 -207 -224c0 -139 87 -222 207 -222z" />
    <glyph glyph-name="p" unicode="p" horiz-adv-x="616" 
d="M76 -198v692h34l-2 -149h1c18 90 99 157 218 157c141 0 232 -94 232 -246c0 -165 -95 -264 -229 -264c-124 0 -195 59 -221 133h-1c1 -31 2 -82 2 -108v-215h-34zM328 24c113 0 197 87 197 232c0 132 -79 214 -202 214c-134 0 -210 -89 -213 -222v-33
c0 -101 74 -191 218 -191z" />
    <glyph glyph-name="q" unicode="q" horiz-adv-x="616" 
d="M505 -198v346h-2c-20 -91 -105 -156 -214 -156c-137 0 -232 98 -232 263c0 149 96 247 236 247c119 0 191 -57 211 -133h1v125h34v-692h-34zM293 24c140 0 212 110 212 220v22c0 119 -70 204 -208 204c-122 0 -206 -85 -206 -215c0 -145 83 -231 202 -231z" />
    <glyph glyph-name="r" unicode="r" horiz-adv-x="516" 
d="M69 0v494h34l-2 -150h2c21 92 90 158 190 158c110 0 170 -67 170 -197c0 -24 -3 -53 -5 -68h-32c2 15 4 42 4 64c0 114 -49 169 -142 169c-107 0 -185 -87 -185 -231v-239h-34z" />
    <glyph glyph-name="s" unicode="s" horiz-adv-x="529" 
d="M260 -8c-145 0 -203 68 -203 172h32c0 -89 51 -141 171 -141c115 0 180 43 180 114c0 31 -12 55 -36 68c-21 11 -58 19 -146 28c-84 8 -134 19 -162 38c-26 18 -39 49 -39 85c0 87 80 146 201 146c135 0 196 -62 196 -175h-32c-1 95 -52 144 -163 144
c-101 0 -168 -47 -168 -113c0 -28 9 -53 32 -66c25 -14 73 -23 150 -31c92 -10 126 -17 154 -33c31 -16 47 -50 47 -91c0 -90 -78 -145 -214 -145z" />
    <glyph glyph-name="t" unicode="t" horiz-adv-x="378" 
d="M253 -2c-104 0 -150 65 -150 170v295h-88v31h73c12 0 17 6 18 28l2 84h29v-112h196v-31h-196v-293c0 -89 36 -140 118 -140c31 0 63 6 75 10v-31c-14 -4 -46 -11 -77 -11z" />
    <glyph glyph-name="u" unicode="u" horiz-adv-x="600" 
d="M272 -8c-143 0 -208 82 -208 196v306h34v-302c0 -98 56 -168 179 -168c124 0 220 96 220 234v236h34v-494h-34c1 32 2 98 2 160h-1c-23 -98 -112 -168 -226 -168z" />
    <glyph glyph-name="v" unicode="v" horiz-adv-x="574" 
d="M267 0l-234 494h40l214 -458h3l214 458h37l-233 -494h-41z" />
    <glyph glyph-name="w" unicode="w" horiz-adv-x="766" 
d="M184 0l-151 494h37l136 -457h2l160 457h33l158 -457h3l136 457h35l-151 -494h-42l-155 447h-3l-157 -447h-41z" />
    <glyph glyph-name="x" unicode="x" horiz-adv-x="530" 
d="M33 0l207 252l-199 242h46l180 -219l179 219h43l-199 -242l208 -252h-46l-188 228l-187 -228h-44z" />
    <glyph glyph-name="y" unicode="y" horiz-adv-x="544" 
d="M134 -207c-21 0 -44 7 -55 12v31c11 -5 32 -11 52 -11c65 0 89 41 144 175h-14l-228 494h40l212 -463h2l188 463h36l-203 -500c-60 -153 -93 -201 -174 -201z" />
    <glyph glyph-name="z" unicode="z" horiz-adv-x="479" 
d="M54 0v25l326 436v2h-319v31h365v-25l-327 -437v-1h327v-31h-372z" />
    <glyph glyph-name="aacute" unicode="&#xe1;" horiz-adv-x="566" 
d="M260 554l81 138h42l-92 -138h-31zM243 -7c-107 0 -184 54 -184 144c0 69 47 126 176 126h233v53c0 99 -71 155 -185 155c-108 0 -177 -46 -177 -125c0 -12 1 -22 2 -28h-33c-1 5 -2 19 -2 31c0 96 83 153 211 153c133 0 218 -69 218 -188v-314h-34c1 31 2 90 2 137h-1
c-22 -89 -108 -144 -226 -144zM247 24c134 0 221 76 221 204v7h-231c-108 0 -145 -41 -145 -98c0 -71 66 -113 155 -113z" />
    <glyph glyph-name="abreve" unicode="&#x103;" horiz-adv-x="566" 
d="M283 564c-89 0 -124 60 -124 111v17h28v-14c0 -43 27 -87 96 -87c70 0 97 44 97 87v14h29v-17c0 -51 -36 -111 -126 -111zM243 -7c-107 0 -184 54 -184 144c0 69 47 126 176 126h233v53c0 99 -71 155 -185 155c-108 0 -177 -46 -177 -125c0 -12 1 -22 2 -28h-33
c-1 5 -2 19 -2 31c0 96 83 153 211 153c133 0 218 -69 218 -188v-314h-34c1 31 2 90 2 137h-1c-22 -89 -108 -144 -226 -144zM247 24c134 0 221 76 221 204v7h-231c-108 0 -145 -41 -145 -98c0 -71 66 -113 155 -113z" />
    <glyph glyph-name="acircumflex" unicode="&#xe2;" horiz-adv-x="566" 
d="M152 561v36l131 98h2l131 -98v-36l-131 98h-2zM243 -7c-107 0 -184 54 -184 144c0 69 47 126 176 126h233v53c0 99 -71 155 -185 155c-108 0 -177 -46 -177 -125c0 -12 1 -22 2 -28h-33c-1 5 -2 19 -2 31c0 96 83 153 211 153c133 0 218 -69 218 -188v-314h-34
c1 31 2 90 2 137h-1c-22 -89 -108 -144 -226 -144zM247 24c134 0 221 76 221 204v7h-231c-108 0 -145 -41 -145 -98c0 -71 66 -113 155 -113z" />
    <glyph glyph-name="uni0201" unicode="&#x201;" horiz-adv-x="566" 
d="M219 554l-89 138h40l80 -138h-31zM375 554l-89 138h40l79 -138h-30zM243 -7c-107 0 -184 54 -184 144c0 69 47 126 176 126h233v53c0 99 -71 155 -185 155c-108 0 -177 -46 -177 -125c0 -12 1 -22 2 -28h-33c-1 5 -2 19 -2 31c0 96 83 153 211 153
c133 0 218 -69 218 -188v-314h-34c1 31 2 90 2 137h-1c-22 -89 -108 -144 -226 -144zM247 24c134 0 221 76 221 204v7h-231c-108 0 -145 -41 -145 -98c0 -71 66 -113 155 -113z" />
    <glyph glyph-name="adieresis" unicode="&#xe4;" horiz-adv-x="566" 
d="M192 564v87h35v-87h-35zM341 564v87h35v-87h-35zM243 -7c-107 0 -184 54 -184 144c0 69 47 126 176 126h233v53c0 99 -71 155 -185 155c-108 0 -177 -46 -177 -125c0 -12 1 -22 2 -28h-33c-1 5 -2 19 -2 31c0 96 83 153 211 153c133 0 218 -69 218 -188v-314h-34
c1 31 2 90 2 137h-1c-22 -89 -108 -144 -226 -144zM247 24c134 0 221 76 221 204v7h-231c-108 0 -145 -41 -145 -98c0 -71 66 -113 155 -113z" />
    <glyph glyph-name="agrave" unicode="&#xe0;" horiz-adv-x="566" 
d="M296 554l-93 138h42l82 -138h-31zM243 -7c-107 0 -184 54 -184 144c0 69 47 126 176 126h233v53c0 99 -71 155 -185 155c-108 0 -177 -46 -177 -125c0 -12 1 -22 2 -28h-33c-1 5 -2 19 -2 31c0 96 83 153 211 153c133 0 218 -69 218 -188v-314h-34c1 31 2 90 2 137h-1
c-22 -89 -108 -144 -226 -144zM247 24c134 0 221 76 221 204v7h-231c-108 0 -145 -41 -145 -98c0 -71 66 -113 155 -113z" />
    <glyph glyph-name="uni0203" unicode="&#x203;" horiz-adv-x="566" 
d="M159 564v17c0 52 36 111 125 111c90 0 125 -59 125 -111v-17h-28v14c0 43 -28 88 -97 88s-97 -45 -97 -88v-14h-28zM243 -7c-107 0 -184 54 -184 144c0 69 47 126 176 126h233v53c0 99 -71 155 -185 155c-108 0 -177 -46 -177 -125c0 -12 1 -22 2 -28h-33
c-1 5 -2 19 -2 31c0 96 83 153 211 153c133 0 218 -69 218 -188v-314h-34c1 31 2 90 2 137h-1c-22 -89 -108 -144 -226 -144zM247 24c134 0 221 76 221 204v7h-231c-108 0 -145 -41 -145 -98c0 -71 66 -113 155 -113z" />
    <glyph glyph-name="amacron" unicode="&#x101;" horiz-adv-x="566" 
d="M157 610v29h254v-29h-254zM243 -7c-107 0 -184 54 -184 144c0 69 47 126 176 126h233v53c0 99 -71 155 -185 155c-108 0 -177 -46 -177 -125c0 -12 1 -22 2 -28h-33c-1 5 -2 19 -2 31c0 96 83 153 211 153c133 0 218 -69 218 -188v-314h-34c1 31 2 90 2 137h-1
c-22 -89 -108 -144 -226 -144zM247 24c134 0 221 76 221 204v7h-231c-108 0 -145 -41 -145 -98c0 -71 66 -113 155 -113z" />
    <glyph glyph-name="aogonek" unicode="&#x105;" horiz-adv-x="566" 
d="M472 -165c22 0 37 5 47 9v-27c-10 -5 -29 -10 -50 -10c-52 0 -78 30 -78 70c0 41 34 88 78 123h-1c1 31 2 90 2 137h-1c-22 -89 -108 -144 -226 -144c-107 0 -184 54 -184 144c0 69 47 126 176 126h233v53c0 99 -71 155 -185 155c-108 0 -177 -46 -177 -125
c0 -12 1 -22 2 -28h-33c-1 5 -2 19 -2 31c0 96 83 153 211 153c133 0 218 -69 218 -188v-314c-47 -39 -79 -84 -79 -120c0 -27 16 -45 49 -45zM468 228v7h-231c-108 0 -145 -41 -145 -98c0 -71 66 -113 155 -113c134 0 221 76 221 204z" />
    <glyph glyph-name="aring" unicode="&#xe5;" horiz-adv-x="566" 
d="M284 554c-86 0 -129 43 -129 105s46 107 129 107c85 0 129 -45 129 -107s-43 -105 -129 -105zM284 580c68 0 101 32 101 79s-35 80 -101 80c-65 0 -101 -33 -101 -80s33 -79 101 -79zM243 -7c-107 0 -184 54 -184 144c0 69 47 126 176 126h233v53c0 99 -71 155 -185 155
c-108 0 -177 -46 -177 -125c0 -12 1 -22 2 -28h-33c-1 5 -2 19 -2 31c0 96 83 153 211 153c133 0 218 -69 218 -188v-314h-34c1 31 2 90 2 137h-1c-22 -89 -108 -144 -226 -144zM247 24c134 0 221 76 221 204v7h-231c-108 0 -145 -41 -145 -98c0 -71 66 -113 155 -113z" />
    <glyph glyph-name="atilde" unicode="&#xe3;" horiz-adv-x="566" 
d="M118 573c9 93 44 138 93 138c35 0 54 -17 75 -49l14 -22c17 -27 30 -41 54 -41c33 0 59 36 67 111h28c-9 -93 -44 -138 -95 -138c-34 0 -54 19 -74 49l-14 22c-17 27 -30 41 -54 41c-34 0 -60 -36 -67 -111h-27zM243 -7c-107 0 -184 54 -184 144c0 69 47 126 176 126h233
v53c0 99 -71 155 -185 155c-108 0 -177 -46 -177 -125c0 -12 1 -22 2 -28h-33c-1 5 -2 19 -2 31c0 96 83 153 211 153c133 0 218 -69 218 -188v-314h-34c1 31 2 90 2 137h-1c-22 -89 -108 -144 -226 -144zM247 24c134 0 221 76 221 204v7h-231c-108 0 -145 -41 -145 -98
c0 -71 66 -113 155 -113z" />
    <glyph glyph-name="ae" unicode="&#xe6;" horiz-adv-x="962" 
d="M905 273v-32h-417c1 -137 81 -218 204 -218c100 0 174 52 181 140h32c-6 -107 -92 -171 -214 -171c-115 0 -198 59 -223 159h-2c-22 -104 -108 -158 -229 -158c-109 0 -178 54 -178 143c0 73 47 133 188 133h207v47c0 99 -64 155 -178 155c-107 0 -170 -46 -170 -123
c0 -10 1 -21 2 -30h-33c-1 8 -2 20 -2 31c0 96 76 153 203 153c116 0 187 -51 200 -140h2c27 86 106 140 213 140c130 0 214 -79 214 -229zM873 269v11c0 126 -72 191 -182 191c-116 0 -193 -73 -202 -202h384zM454 229v12h-204c-121 0 -158 -44 -158 -104
c0 -71 58 -113 147 -113c135 0 215 76 215 205z" />
    <glyph glyph-name="aeacute" unicode="&#x1fd;" horiz-adv-x="962" 
d="M572 692l-92 -138h-31l81 138h42zM905 273v-32h-417c1 -137 81 -218 204 -218c100 0 174 52 181 140h32c-6 -107 -92 -171 -214 -171c-115 0 -198 59 -223 159h-2c-22 -104 -108 -158 -229 -158c-109 0 -178 54 -178 143c0 73 47 133 188 133h207v47
c0 99 -64 155 -178 155c-107 0 -170 -46 -170 -123c0 -10 1 -21 2 -30h-33c-1 8 -2 20 -2 31c0 96 76 153 203 153c116 0 187 -51 200 -140h2c27 86 106 140 213 140c130 0 214 -79 214 -229zM873 269v11c0 126 -72 191 -182 191c-116 0 -193 -73 -202 -202h384zM454 229v12
h-204c-121 0 -158 -44 -158 -104c0 -71 58 -113 147 -113c135 0 215 76 215 205z" />
    <glyph glyph-name="cacute" unicode="&#x107;" horiz-adv-x="565" 
d="M266 554l81 138h42l-92 -138h-31zM291 -8c-139 0 -234 95 -234 255s98 255 241 255c116 0 207 -74 207 -197h-32c0 103 -78 165 -175 165c-122 0 -207 -84 -207 -223s82 -223 201 -223c102 0 183 61 184 163h32c0 -122 -94 -195 -217 -195z" />
    <glyph glyph-name="ccaron" unicode="&#x10d;" horiz-adv-x="565" 
d="M270 554l-109 138h40l88 -115h2l88 115h40l-109 -138h-40zM291 -8c-139 0 -234 95 -234 255s98 255 241 255c116 0 207 -74 207 -197h-32c0 103 -78 165 -175 165c-122 0 -207 -84 -207 -223s82 -223 201 -223c102 0 183 61 184 163h32c0 -122 -94 -195 -217 -195z" />
    <glyph glyph-name="ccedilla" unicode="&#xe7;" horiz-adv-x="565" 
d="M508 187c0 -121 -93 -194 -214 -195l-21 -56l1 -1c7 3 21 7 36 7c55 0 82 -31 82 -72c0 -46 -30 -88 -107 -88c-73 0 -111 32 -116 80h29c6 -35 35 -55 87 -55c56 0 79 30 79 62c0 30 -22 50 -65 50c-29 0 -54 -8 -63 -11l32 85c-126 10 -211 103 -211 254
c0 160 98 255 241 255c116 0 207 -74 207 -197h-32c0 103 -78 165 -175 165c-122 0 -207 -84 -207 -223s82 -223 201 -223c102 0 183 61 184 163h32z" />
    <glyph glyph-name="ccircumflex" unicode="&#x109;" horiz-adv-x="565" 
d="M158 561v36l131 98h2l131 -98v-36l-131 98h-2zM291 -8c-139 0 -234 95 -234 255s98 255 241 255c116 0 207 -74 207 -197h-32c0 103 -78 165 -175 165c-122 0 -207 -84 -207 -223s82 -223 201 -223c102 0 183 61 184 163h32c0 -122 -94 -195 -217 -195z" />
    <glyph glyph-name="cdotaccent" unicode="&#x10b;" horiz-adv-x="565" 
d="M272 564v87h36v-87h-36zM291 -8c-139 0 -234 95 -234 255s98 255 241 255c116 0 207 -74 207 -197h-32c0 103 -78 165 -175 165c-122 0 -207 -84 -207 -223s82 -223 201 -223c102 0 183 61 184 163h32c0 -122 -94 -195 -217 -195z" />
    <glyph glyph-name="eth" unicode="&#xf0;" horiz-adv-x="597" 
d="M358 629c116 -73 182 -192 182 -344c0 -183 -95 -293 -241 -293c-147 0 -242 95 -242 254c0 157 93 256 228 256c97 0 178 -50 213 -136c-20 109 -81 193 -175 247l-204 -90l-10 21l188 83c-52 26 -113 43 -182 52l11 27c79 -9 149 -31 208 -63l143 63l10 -20zM299 24
c124 0 207 96 207 258v5c-23 115 -110 183 -221 183c-114 0 -194 -87 -194 -224c0 -139 82 -222 208 -222z" />
    <glyph glyph-name="dcaron" unicode="&#x10f;" horiz-adv-x="651" 
d="M293 -8c-143 0 -236 100 -236 263c0 145 96 247 241 247c107 0 181 -42 206 -127h1v318h34v-693h-34c2 51 2 102 3 153h-1c-20 -90 -97 -161 -214 -161zM568 438v26c41 10 62 44 66 103v1h-11v90h38v-54c0 -101 -30 -152 -93 -166zM297 24c134 0 208 108 208 216v25
c0 139 -83 205 -205 205c-125 0 -209 -90 -209 -215c0 -144 81 -231 206 -231z" />
    <glyph glyph-name="dmacron" unicode="&#x111;" horiz-adv-x="613" 
d="M615 610v-25h-76v-585h-34c2 51 2 102 3 153h-1c-20 -90 -97 -161 -214 -161c-143 0 -236 100 -236 263c0 145 96 247 241 247c107 0 181 -42 206 -127h1v210h-270v25h270v83h34v-83h76zM505 240v25c0 139 -83 205 -205 205c-125 0 -209 -90 -209 -215
c0 -144 81 -231 206 -231c134 0 208 108 208 216z" />
    <glyph glyph-name="eacute" unicode="&#xe9;" horiz-adv-x="565" 
d="M383 692l-92 -138h-31l81 138h42zM508 248h-417v-5c0 -138 80 -220 204 -220c100 0 174 52 181 140h32c-6 -107 -92 -171 -214 -171c-145 0 -237 94 -237 251c0 162 92 259 237 259c130 0 214 -79 214 -229v-25zM294 471c-114 0 -190 -70 -202 -195h384v4
c0 126 -72 191 -182 191z" />
    <glyph glyph-name="ebreve" unicode="&#x115;" horiz-adv-x="565" 
d="M283 564c-89 0 -124 60 -124 111v17h28v-14c0 -43 27 -87 96 -87c70 0 97 44 97 87v14h29v-17c0 -51 -36 -111 -126 -111zM508 248h-417v-5c0 -138 80 -220 204 -220c100 0 174 52 181 140h32c-6 -107 -92 -171 -214 -171c-145 0 -237 94 -237 251c0 162 92 259 237 259
c130 0 214 -79 214 -229v-25zM294 471c-114 0 -190 -70 -202 -195h384v4c0 126 -72 191 -182 191z" />
    <glyph glyph-name="ecaron" unicode="&#x11b;" horiz-adv-x="565" 
d="M304 554h-40l-109 138h40l88 -115h2l88 115h40zM508 248h-417v-5c0 -138 80 -220 204 -220c100 0 174 52 181 140h32c-6 -107 -92 -171 -214 -171c-145 0 -237 94 -237 251c0 162 92 259 237 259c130 0 214 -79 214 -229v-25zM294 471c-114 0 -190 -70 -202 -195h384v4
c0 126 -72 191 -182 191z" />
    <glyph glyph-name="ecircumflex" unicode="&#xea;" horiz-adv-x="565" 
d="M285 659h-2l-131 -98v36l131 98h2l131 -98v-36zM508 248h-417v-5c0 -138 80 -220 204 -220c100 0 174 52 181 140h32c-6 -107 -92 -171 -214 -171c-145 0 -237 94 -237 251c0 162 92 259 237 259c130 0 214 -79 214 -229v-25zM294 471c-114 0 -190 -70 -202 -195h384v4
c0 126 -72 191 -182 191z" />
    <glyph glyph-name="uni0205" unicode="&#x205;" horiz-adv-x="565" 
d="M250 554h-31l-89 138h40zM405 554h-30l-89 138h40zM508 248h-417v-5c0 -138 80 -220 204 -220c100 0 174 52 181 140h32c-6 -107 -92 -171 -214 -171c-145 0 -237 94 -237 251c0 162 92 259 237 259c130 0 214 -79 214 -229v-25zM294 471c-114 0 -190 -70 -202 -195h384
v4c0 126 -72 191 -182 191z" />
    <glyph glyph-name="edieresis" unicode="&#xeb;" horiz-adv-x="565" 
d="M227 651v-87h-35v87h35zM376 651v-87h-35v87h35zM508 248h-417v-5c0 -138 80 -220 204 -220c100 0 174 52 181 140h32c-6 -107 -92 -171 -214 -171c-145 0 -237 94 -237 251c0 162 92 259 237 259c130 0 214 -79 214 -229v-25zM294 471c-114 0 -190 -70 -202 -195h384v4
c0 126 -72 191 -182 191z" />
    <glyph glyph-name="edotaccent" unicode="&#x117;" horiz-adv-x="565" 
d="M302 651v-87h-36v87h36zM508 248h-417v-5c0 -138 80 -220 204 -220c100 0 174 52 181 140h32c-6 -107 -92 -171 -214 -171c-145 0 -237 94 -237 251c0 162 92 259 237 259c130 0 214 -79 214 -229v-25zM294 471c-114 0 -190 -70 -202 -195h384v4c0 126 -72 191 -182 191z
" />
    <glyph glyph-name="egrave" unicode="&#xe8;" horiz-adv-x="565" 
d="M327 554h-31l-93 138h42zM508 248h-417v-5c0 -138 80 -220 204 -220c100 0 174 52 181 140h32c-6 -107 -92 -171 -214 -171c-145 0 -237 94 -237 251c0 162 92 259 237 259c130 0 214 -79 214 -229v-25zM294 471c-114 0 -190 -70 -202 -195h384v4c0 126 -72 191 -182 191
z" />
    <glyph glyph-name="uni0207" unicode="&#x207;" horiz-adv-x="565" 
d="M187 578v-14h-28v17c0 52 36 111 125 111c90 0 125 -59 125 -111v-17h-28v14c0 43 -28 88 -97 88s-97 -45 -97 -88zM508 248h-417v-5c0 -138 80 -220 204 -220c100 0 174 52 181 140h32c-6 -107 -92 -171 -214 -171c-145 0 -237 94 -237 251c0 162 92 259 237 259
c130 0 214 -79 214 -229v-25zM294 471c-114 0 -190 -70 -202 -195h384v4c0 126 -72 191 -182 191z" />
    <glyph glyph-name="emacron" unicode="&#x113;" horiz-adv-x="565" 
d="M411 639v-29h-254v29h254zM508 248h-417v-5c0 -138 80 -220 204 -220c100 0 174 52 181 140h32c-6 -107 -92 -171 -214 -171c-145 0 -237 94 -237 251c0 162 92 259 237 259c130 0 214 -79 214 -229v-25zM294 471c-114 0 -190 -70 -202 -195h384v4
c0 126 -72 191 -182 191z" />
    <glyph glyph-name="eogonek" unicode="&#x119;" horiz-adv-x="565" 
d="M508 248h-417v-5c0 -138 80 -220 204 -220c100 0 174 52 181 140h32c-2 -40 -16 -74 -38 -101c-14 -17 -40 -44 -54 -59c-44 -42 -70 -86 -70 -123c0 -27 16 -45 49 -45c22 0 37 5 47 9v-27c-10 -5 -29 -10 -50 -10c-52 0 -77 30 -77 70s25 89 70 129v1
c-27 -10 -57 -15 -91 -15c-145 0 -237 94 -237 251c0 162 92 259 237 259c130 0 214 -79 214 -229v-25zM294 471c-114 0 -190 -70 -202 -195h384v4c0 126 -72 191 -182 191z" />
    <glyph glyph-name="gbreve" unicode="&#x11f;" horiz-adv-x="572" 
d="M267 564c-89 0 -124 60 -124 111v17h28v-14c0 -43 27 -87 96 -87c70 0 97 44 97 87v14h29v-17c0 -51 -36 -111 -126 -111zM380 55c92 0 144 -41 144 -113c0 -95 -85 -153 -230 -153c-153 0 -243 52 -243 142c0 63 49 106 113 107c-26 15 -40 42 -40 76c0 32 11 53 24 64
v3c-47 30 -73 81 -73 145c0 107 72 176 193 176c16 0 30 -1 44 -3c30 -2 84 -5 137 -5c24 0 46 1 57 2v-29c-10 -1 -29 -2 -46 -2c-30 0 -57 2 -71 6c47 -30 73 -81 73 -145c0 -107 -73 -176 -194 -176c-37 0 -69 6 -96 18c-9 -7 -17 -27 -17 -50c0 -39 24 -63 68 -63h157z
M108 326c0 -88 60 -145 160 -145s160 57 160 145s-60 145 -160 145s-160 -57 -160 -145zM294 -180c129 0 196 46 196 120c0 53 -41 84 -113 84h-154h-1c-90 0 -137 -33 -137 -93c0 -71 78 -111 209 -111z" />
    <glyph glyph-name="gcircumflex" unicode="&#x11d;" horiz-adv-x="572" 
d="M269 659h-2l-131 -98v36l131 98h2l131 -98v-36zM380 55c92 0 144 -41 144 -113c0 -95 -85 -153 -230 -153c-153 0 -243 52 -243 142c0 63 49 106 113 107c-26 15 -40 42 -40 76c0 32 11 53 24 64v3c-47 30 -73 81 -73 145c0 107 72 176 193 176c16 0 30 -1 44 -3
c30 -2 84 -5 137 -5c24 0 46 1 57 2v-29c-10 -1 -29 -2 -46 -2c-30 0 -57 2 -71 6c47 -30 73 -81 73 -145c0 -107 -73 -176 -194 -176c-37 0 -69 6 -96 18c-9 -7 -17 -27 -17 -50c0 -39 24 -63 68 -63h157zM108 326c0 -88 60 -145 160 -145s160 57 160 145s-60 145 -160 145
s-160 -57 -160 -145zM294 -180c129 0 196 46 196 120c0 53 -41 84 -113 84h-154h-1c-90 0 -137 -33 -137 -93c0 -71 78 -111 209 -111z" />
    <glyph glyph-name="gcommaaccent" unicode="&#x123;" horiz-adv-x="572" 
d="M286 644v-90h-38v54c0 101 30 152 93 166v-26c-41 -10 -62 -44 -66 -103v-1h11zM380 55c92 0 144 -41 144 -113c0 -95 -85 -153 -230 -153c-153 0 -243 52 -243 142c0 63 49 106 113 107c-26 15 -40 42 -40 76c0 32 11 53 24 64v3c-47 30 -73 81 -73 145
c0 107 72 176 193 176c16 0 30 -1 44 -3c30 -2 84 -5 137 -5c24 0 46 1 57 2v-29c-10 -1 -29 -2 -46 -2c-30 0 -57 2 -71 6c47 -30 73 -81 73 -145c0 -107 -73 -176 -194 -176c-37 0 -69 6 -96 18c-9 -7 -17 -27 -17 -50c0 -39 24 -63 68 -63h157zM108 326
c0 -88 60 -145 160 -145s160 57 160 145s-60 145 -160 145s-160 -57 -160 -145zM294 -180c129 0 196 46 196 120c0 53 -41 84 -113 84h-154h-1c-90 0 -137 -33 -137 -93c0 -71 78 -111 209 -111z" />
    <glyph glyph-name="gdotaccent" unicode="&#x121;" horiz-adv-x="572" 
d="M286 651v-87h-36v87h36zM380 55c92 0 144 -41 144 -113c0 -95 -85 -153 -230 -153c-153 0 -243 52 -243 142c0 63 49 106 113 107c-26 15 -40 42 -40 76c0 32 11 53 24 64v3c-47 30 -73 81 -73 145c0 107 72 176 193 176c16 0 30 -1 44 -3c30 -2 84 -5 137 -5
c24 0 46 1 57 2v-29c-10 -1 -29 -2 -46 -2c-30 0 -57 2 -71 6c47 -30 73 -81 73 -145c0 -107 -73 -176 -194 -176c-37 0 -69 6 -96 18c-9 -7 -17 -27 -17 -50c0 -39 24 -63 68 -63h157zM108 326c0 -88 60 -145 160 -145s160 57 160 145s-60 145 -160 145s-160 -57 -160 -145
zM294 -180c129 0 196 46 196 120c0 53 -41 84 -113 84h-154h-1c-90 0 -137 -33 -137 -93c0 -71 78 -111 209 -111z" />
    <glyph glyph-name="hcircumflex" unicode="&#x125;" horiz-adv-x="607" 
d="M-39 726v36l131 98h2l131 -98v-36l-131 98h-2zM76 0v693h34v-235c0 -25 -1 -78 -2 -106h1c27 94 106 150 224 150c133 0 211 -69 211 -198v-304h-34v299c0 113 -66 171 -184 171c-125 0 -216 -76 -216 -213v-257h-34z" />
    <glyph glyph-name="dotlessi" unicode="&#x131;" horiz-adv-x="187" 
d="M76 0v494h34v-494h-34z" />
    <glyph glyph-name="iacute" unicode="&#xed;" horiz-adv-x="187" 
d="M69 554l81 138h42l-92 -138h-31zM76 0v494h34v-494h-34z" />
    <glyph glyph-name="icircumflex" unicode="&#xee;" horiz-adv-x="187" 
d="M-39 561v36l131 98h2l131 -98v-36l-131 98h-2zM76 0v494h34v-494h-34z" />
    <glyph glyph-name="uni0209" unicode="&#x209;" horiz-adv-x="187" 
d="M28 554l-89 138h40l80 -138h-31zM184 554l-89 138h40l79 -138h-30zM76 0v494h34v-494h-34z" />
    <glyph glyph-name="idieresis" unicode="&#xef;" horiz-adv-x="187" 
d="M1 564v87h35v-87h-35zM150 564v87h35v-87h-35zM76 0v494h34v-494h-34z" />
    <glyph glyph-name="igrave" unicode="&#xec;" horiz-adv-x="187" 
d="M105 554l-93 138h42l82 -138h-31zM76 0v494h34v-494h-34z" />
    <glyph glyph-name="uni020B" unicode="&#x20b;" horiz-adv-x="187" 
d="M-32 564v17c0 52 36 111 125 111c90 0 125 -59 125 -111v-17h-28v14c0 43 -28 88 -97 88s-97 -45 -97 -88v-14h-28zM76 0v494h34v-494h-34z" />
    <glyph glyph-name="imacron" unicode="&#x12b;" horiz-adv-x="187" 
d="M-34 610v29h254v-29h-254zM76 0v494h34v-494h-34z" />
    <glyph glyph-name="iogonek" unicode="&#x12f;" horiz-adv-x="187" 
d="M113 651v-87h-39v87h39zM80 -165c22 0 37 5 47 9v-27c-10 -5 -29 -10 -50 -10c-52 0 -78 30 -78 70c0 41 34 88 78 123h-1v494h34v-494c-47 -39 -79 -84 -79 -120c0 -27 16 -45 49 -45z" />
    <glyph glyph-name="uni006A0301" horiz-adv-x="185" 
d="M69 554l81 138h42l-92 -138h-31zM-37 -207c-29 0 -61 6 -77 11v32c18 -5 47 -11 74 -11c75 0 116 55 116 161v508h34v-508c0 -124 -50 -193 -147 -193z" />
    <glyph glyph-name="jcircumflex" unicode="&#x135;" horiz-adv-x="185" 
d="M-39 561v36l131 98h2l131 -98v-36l-131 98h-2zM-37 -207c-29 0 -61 6 -77 11v32c18 -5 47 -11 74 -11c75 0 116 55 116 161v508h34v-508c0 -124 -50 -193 -147 -193z" />
    <glyph glyph-name="uni0237" unicode="&#x237;" horiz-adv-x="185" 
d="M-37 -207c-29 0 -61 6 -77 11v32c18 -5 47 -11 74 -11c75 0 116 55 116 161v508h34v-508c0 -124 -50 -193 -147 -193z" />
    <glyph glyph-name="kcommaaccent" unicode="&#x137;" horiz-adv-x="590" 
d="M76 0v693h34v-511h1l379 312h52l-278 -226l292 -268h-50l-268 247l-128 -105v-142h-34zM233 -252v26c41 10 62 44 66 103v1h-11v90h38v-54c0 -101 -30 -152 -93 -166z" />
    <glyph glyph-name="lacute" unicode="&#x13a;" horiz-adv-x="187" 
d="M69 728l81 138h42l-92 -138h-31zM76 0v693h34v-693h-34z" />
    <glyph glyph-name="lcaron" unicode="&#x13e;" horiz-adv-x="222" 
d="M76 0v693h34v-693h-34zM139 438v26c41 10 62 44 66 103v1h-11v90h38v-54c0 -101 -30 -152 -93 -166z" />
    <glyph glyph-name="lcommaaccent" unicode="&#x13c;" horiz-adv-x="187" 
d="M76 0v693h34v-693h-34zM20 -252v26c41 10 62 44 66 103v1h-11v90h38v-54c0 -101 -30 -152 -93 -166z" />
    <glyph glyph-name="ldot" unicode="&#x140;" horiz-adv-x="222" 
d="M76 0v693h34v-693h-34zM186 263v89h37v-89h-37z" />
    <glyph glyph-name="lslash" unicode="&#x142;" horiz-adv-x="187" 
d="M173 331v-29l-63 -38v-264h-34v244l-62 -37v30l62 37v419h34v-399z" />
    <glyph glyph-name="nacute" unicode="&#x144;" horiz-adv-x="600" 
d="M279 554l81 138h42l-92 -138h-31zM69 0v494h34l-2 -140h2c26 92 105 148 223 148c133 0 211 -69 211 -198v-304h-34v299c0 113 -66 171 -184 171c-126 0 -216 -75 -216 -210v-260h-34z" />
    <glyph glyph-name="ncaron" unicode="&#x148;" horiz-adv-x="600" 
d="M283 554l-109 138h40l88 -115h2l88 115h40l-109 -138h-40zM69 0v494h34l-2 -140h2c26 92 105 148 223 148c133 0 211 -69 211 -198v-304h-34v299c0 113 -66 171 -184 171c-126 0 -216 -75 -216 -210v-260h-34z" />
    <glyph glyph-name="ncommaaccent" unicode="&#x146;" horiz-adv-x="600" 
d="M69 0v494h34l-2 -140h2c26 92 105 148 223 148c133 0 211 -69 211 -198v-304h-34v299c0 113 -66 171 -184 171c-126 0 -216 -75 -216 -210v-260h-34zM228 -252v26c41 10 62 44 66 103v1h-11v90h38v-54c0 -101 -30 -152 -93 -166z" />
    <glyph glyph-name="ntilde" unicode="&#xf1;" horiz-adv-x="600" 
d="M137 573c9 93 44 138 93 138c35 0 54 -17 75 -49l14 -22c17 -27 30 -41 54 -41c33 0 59 36 67 111h28c-9 -93 -44 -138 -95 -138c-34 0 -54 19 -74 49l-14 22c-17 27 -30 41 -54 41c-34 0 -60 -36 -67 -111h-27zM69 0v494h34l-2 -140h2c26 92 105 148 223 148
c133 0 211 -69 211 -198v-304h-34v299c0 113 -66 171 -184 171c-126 0 -216 -75 -216 -210v-260h-34z" />
    <glyph glyph-name="oacute" unicode="&#xf3;" horiz-adv-x="596" 
d="M274 554l81 138h42l-92 -138h-31zM298 -8c-141 0 -241 95 -241 254c0 160 100 256 241 256s241 -96 241 -256c0 -159 -100 -254 -241 -254zM298 24c119 0 207 83 207 222c0 140 -88 224 -207 224c-120 0 -207 -84 -207 -224c0 -139 87 -222 207 -222z" />
    <glyph glyph-name="obreve" unicode="&#x14f;" horiz-adv-x="596" 
d="M297 564c-89 0 -124 60 -124 111v17h28v-14c0 -43 27 -87 96 -87c70 0 97 44 97 87v14h29v-17c0 -51 -36 -111 -126 -111zM298 -8c-141 0 -241 95 -241 254c0 160 100 256 241 256s241 -96 241 -256c0 -159 -100 -254 -241 -254zM298 24c119 0 207 83 207 222
c0 140 -88 224 -207 224c-120 0 -207 -84 -207 -224c0 -139 87 -222 207 -222z" />
    <glyph glyph-name="ocircumflex" unicode="&#xf4;" horiz-adv-x="596" 
d="M166 561v36l131 98h2l131 -98v-36l-131 98h-2zM298 -8c-141 0 -241 95 -241 254c0 160 100 256 241 256s241 -96 241 -256c0 -159 -100 -254 -241 -254zM298 24c119 0 207 83 207 222c0 140 -88 224 -207 224c-120 0 -207 -84 -207 -224c0 -139 87 -222 207 -222z" />
    <glyph glyph-name="uni020D" unicode="&#x20d;" horiz-adv-x="596" 
d="M233 554l-89 138h40l80 -138h-31zM389 554l-89 138h40l79 -138h-30zM298 -8c-141 0 -241 95 -241 254c0 160 100 256 241 256s241 -96 241 -256c0 -159 -100 -254 -241 -254zM298 24c119 0 207 83 207 222c0 140 -88 224 -207 224c-120 0 -207 -84 -207 -224
c0 -139 87 -222 207 -222z" />
    <glyph glyph-name="odieresis" unicode="&#xf6;" horiz-adv-x="596" 
d="M206 564v87h35v-87h-35zM355 564v87h35v-87h-35zM298 -8c-141 0 -241 95 -241 254c0 160 100 256 241 256s241 -96 241 -256c0 -159 -100 -254 -241 -254zM298 24c119 0 207 83 207 222c0 140 -88 224 -207 224c-120 0 -207 -84 -207 -224c0 -139 87 -222 207 -222z" />
    <glyph glyph-name="ograve" unicode="&#xf2;" horiz-adv-x="596" 
d="M310 554l-93 138h42l82 -138h-31zM298 -8c-141 0 -241 95 -241 254c0 160 100 256 241 256s241 -96 241 -256c0 -159 -100 -254 -241 -254zM298 24c119 0 207 83 207 222c0 140 -88 224 -207 224c-120 0 -207 -84 -207 -224c0 -139 87 -222 207 -222z" />
    <glyph glyph-name="ohungarumlaut" unicode="&#x151;" horiz-adv-x="596" 
d="M168 555l78 137h41l-90 -137h-29zM323 555l79 137h41l-90 -137h-30zM298 -8c-141 0 -241 95 -241 254c0 160 100 256 241 256s241 -96 241 -256c0 -159 -100 -254 -241 -254zM298 24c119 0 207 83 207 222c0 140 -88 224 -207 224c-120 0 -207 -84 -207 -224
c0 -139 87 -222 207 -222z" />
    <glyph glyph-name="uni020F" unicode="&#x20f;" horiz-adv-x="596" 
d="M173 564v17c0 52 36 111 125 111c90 0 125 -59 125 -111v-17h-28v14c0 43 -28 88 -97 88s-97 -45 -97 -88v-14h-28zM298 -8c-141 0 -241 95 -241 254c0 160 100 256 241 256s241 -96 241 -256c0 -159 -100 -254 -241 -254zM298 24c119 0 207 83 207 222
c0 140 -88 224 -207 224c-120 0 -207 -84 -207 -224c0 -139 87 -222 207 -222z" />
    <glyph glyph-name="omacron" unicode="&#x14d;" horiz-adv-x="596" 
d="M171 610v29h254v-29h-254zM298 -8c-141 0 -241 95 -241 254c0 160 100 256 241 256s241 -96 241 -256c0 -159 -100 -254 -241 -254zM298 24c119 0 207 83 207 222c0 140 -88 224 -207 224c-120 0 -207 -84 -207 -224c0 -139 87 -222 207 -222z" />
    <glyph glyph-name="oslash" unicode="&#xf8;" horiz-adv-x="596" 
d="M474 431c41 -44 65 -107 65 -185c0 -159 -100 -254 -241 -254c-64 0 -120 20 -162 56l-35 -40l-18 15l37 42c-40 43 -63 105 -63 181c0 160 100 256 241 256c63 0 118 -19 160 -55l34 39l18 -14zM91 246c0 -65 19 -118 52 -156l292 331c-36 32 -83 49 -137 49
c-120 0 -207 -84 -207 -224zM298 24c119 0 207 83 207 222c0 67 -20 121 -54 159l-292 -331c36 -33 84 -50 139 -50z" />
    <glyph glyph-name="oslashacute" unicode="&#x1ff;" horiz-adv-x="596" 
d="M397 692l-92 -138h-31l81 138h42zM474 431c41 -44 65 -107 65 -185c0 -159 -100 -254 -241 -254c-64 0 -120 20 -162 56l-35 -40l-18 15l37 42c-40 43 -63 105 -63 181c0 160 100 256 241 256c63 0 118 -19 160 -55l34 39l18 -14zM91 246c0 -65 19 -118 52 -156l292 331
c-36 32 -83 49 -137 49c-120 0 -207 -84 -207 -224zM298 24c119 0 207 83 207 222c0 67 -20 121 -54 159l-292 -331c36 -33 84 -50 139 -50z" />
    <glyph glyph-name="otilde" unicode="&#xf5;" horiz-adv-x="596" 
d="M132 573c9 93 44 138 93 138c35 0 54 -17 75 -49l14 -22c17 -27 30 -41 54 -41c33 0 59 36 67 111h28c-9 -93 -44 -138 -95 -138c-34 0 -54 19 -74 49l-14 22c-17 27 -30 41 -54 41c-34 0 -60 -36 -67 -111h-27zM298 -8c-141 0 -241 95 -241 254c0 160 100 256 241 256
s241 -96 241 -256c0 -159 -100 -254 -241 -254zM298 24c119 0 207 83 207 222c0 140 -88 224 -207 224c-120 0 -207 -84 -207 -224c0 -139 87 -222 207 -222z" />
    <glyph glyph-name="oe" unicode="&#x153;" horiz-adv-x="1013" 
d="M956 248h-417v-5c0 -138 80 -220 204 -220c101 0 174 52 181 140h32c-5 -107 -92 -171 -214 -171c-113 0 -197 63 -220 163h-1c-26 -99 -113 -163 -223 -163c-141 0 -241 95 -241 254c0 160 100 256 241 256c111 0 199 -65 223 -166h2c25 102 105 166 219 166
c131 0 214 -79 214 -229v-25zM742 471c-114 0 -190 -70 -202 -195h384v4c0 126 -72 191 -182 191zM298 24c119 0 207 83 207 222c0 140 -88 224 -207 224c-120 0 -207 -84 -207 -224c0 -139 87 -222 207 -222z" />
    <glyph glyph-name="thorn" unicode="&#xfe;" horiz-adv-x="616" 
d="M76 -198v891h34v-257c0 -18 -1 -61 -2 -81h1c24 89 108 147 220 147c138 0 230 -94 230 -245c0 -166 -95 -265 -229 -265c-124 0 -195 59 -221 133h-1c0 -36 2 -82 2 -108v-215h-34zM328 24c113 0 197 87 197 232c0 132 -82 214 -200 214c-127 0 -215 -82 -215 -227v-28
c0 -101 74 -191 218 -191z" />
    <glyph glyph-name="racute" unicode="&#x155;" horiz-adv-x="516" 
d="M250 554l81 138h42l-92 -138h-31zM69 0v494h34l-2 -150h2c21 92 90 158 190 158c110 0 170 -67 170 -197c0 -24 -3 -53 -5 -68h-32c2 15 4 42 4 64c0 114 -49 169 -142 169c-107 0 -185 -87 -185 -231v-239h-34z" />
    <glyph glyph-name="rcaron" unicode="&#x159;" horiz-adv-x="516" 
d="M254 554l-109 138h40l88 -115h2l88 115h40l-109 -138h-40zM69 0v494h34l-2 -150h2c21 92 90 158 190 158c110 0 170 -67 170 -197c0 -24 -3 -53 -5 -68h-32c2 15 4 42 4 64c0 114 -49 169 -142 169c-107 0 -185 -87 -185 -231v-239h-34z" />
    <glyph glyph-name="rcommaaccent" unicode="&#x157;" horiz-adv-x="516" 
d="M69 0v494h34l-2 -150h2c21 92 90 158 190 158c110 0 170 -67 170 -197c0 -24 -3 -53 -5 -68h-32c2 15 4 42 4 64c0 114 -49 169 -142 169c-107 0 -185 -87 -185 -231v-239h-34zM14 -252v26c41 10 62 44 66 103v1h-11v90h38v-54c0 -101 -30 -152 -93 -166z" />
    <glyph glyph-name="uni0211" unicode="&#x211;" horiz-adv-x="516" 
d="M209 554l-89 138h40l80 -138h-31zM365 554l-89 138h40l79 -138h-30zM69 0v494h34l-2 -150h2c21 92 90 158 190 158c110 0 170 -67 170 -197c0 -24 -3 -53 -5 -68h-32c2 15 4 42 4 64c0 114 -49 169 -142 169c-107 0 -185 -87 -185 -231v-239h-34z" />
    <glyph glyph-name="uni0213" unicode="&#x213;" horiz-adv-x="516" 
d="M149 564v17c0 52 36 111 125 111c90 0 125 -59 125 -111v-17h-28v14c0 43 -28 88 -97 88s-97 -45 -97 -88v-14h-28zM69 0v494h34l-2 -150h2c21 92 90 158 190 158c110 0 170 -67 170 -197c0 -24 -3 -53 -5 -68h-32c2 15 4 42 4 64c0 114 -49 169 -142 169
c-107 0 -185 -87 -185 -231v-239h-34z" />
    <glyph glyph-name="sacute" unicode="&#x15b;" horiz-adv-x="529" 
d="M234 554l81 138h42l-92 -138h-31zM260 -8c-145 0 -203 68 -203 172h32c0 -89 51 -141 171 -141c115 0 180 43 180 114c0 31 -12 55 -36 68c-21 11 -58 19 -146 28c-84 8 -134 19 -162 38c-26 18 -39 49 -39 85c0 87 80 146 201 146c135 0 196 -62 196 -175h-32
c-1 95 -52 144 -163 144c-101 0 -168 -47 -168 -113c0 -28 9 -53 32 -66c25 -14 73 -23 150 -31c92 -10 126 -17 154 -33c31 -16 47 -50 47 -91c0 -90 -78 -145 -214 -145z" />
    <glyph glyph-name="scaron" unicode="&#x161;" horiz-adv-x="529" 
d="M238 554l-109 138h40l88 -115h2l88 115h40l-109 -138h-40zM260 -8c-145 0 -203 68 -203 172h32c0 -89 51 -141 171 -141c115 0 180 43 180 114c0 31 -12 55 -36 68c-21 11 -58 19 -146 28c-84 8 -134 19 -162 38c-26 18 -39 49 -39 85c0 87 80 146 201 146
c135 0 196 -62 196 -175h-32c-1 95 -52 144 -163 144c-101 0 -168 -47 -168 -113c0 -28 9 -53 32 -66c25 -14 73 -23 150 -31c92 -10 126 -17 154 -33c31 -16 47 -50 47 -91c0 -90 -78 -145 -214 -145z" />
    <glyph glyph-name="scedilla" unicode="&#x15f;" horiz-adv-x="529" 
d="M474 137c0 -88 -74 -142 -204 -145l-21 -56l1 -1c7 3 21 7 36 7c55 0 82 -31 82 -72c0 -46 -30 -88 -107 -88c-73 0 -111 32 -116 80h29c6 -35 35 -55 87 -55c56 0 79 30 79 62c0 30 -22 50 -65 50c-29 0 -54 -8 -63 -11l32 84c-133 5 -187 72 -187 172h32
c0 -89 51 -141 171 -141c115 0 180 43 180 114c0 31 -12 55 -36 68c-21 11 -58 19 -146 28c-84 8 -134 19 -162 38c-26 18 -39 49 -39 85c0 87 80 146 201 146c135 0 196 -62 196 -175h-32c-1 95 -52 144 -163 144c-101 0 -168 -47 -168 -113c0 -28 9 -53 32 -66
c25 -14 73 -23 150 -31c92 -10 126 -17 154 -33c31 -16 47 -50 47 -91z" />
    <glyph glyph-name="scircumflex" unicode="&#x15d;" horiz-adv-x="529" 
d="M126 561v36l131 98h2l131 -98v-36l-131 98h-2zM260 -8c-145 0 -203 68 -203 172h32c0 -89 51 -141 171 -141c115 0 180 43 180 114c0 31 -12 55 -36 68c-21 11 -58 19 -146 28c-84 8 -134 19 -162 38c-26 18 -39 49 -39 85c0 87 80 146 201 146c135 0 196 -62 196 -175
h-32c-1 95 -52 144 -163 144c-101 0 -168 -47 -168 -113c0 -28 9 -53 32 -66c25 -14 73 -23 150 -31c92 -10 126 -17 154 -33c31 -16 47 -50 47 -91c0 -90 -78 -145 -214 -145z" />
    <glyph glyph-name="scommaaccent" unicode="&#x219;" horiz-adv-x="529" 
d="M260 -8c-145 0 -203 68 -203 172h32c0 -89 51 -141 171 -141c115 0 180 43 180 114c0 31 -12 55 -36 68c-21 11 -58 19 -146 28c-84 8 -134 19 -162 38c-26 18 -39 49 -39 85c0 87 80 146 201 146c135 0 196 -62 196 -175h-32c-1 95 -52 144 -163 144
c-101 0 -168 -47 -168 -113c0 -28 9 -53 32 -66c25 -14 73 -23 150 -31c92 -10 126 -17 154 -33c31 -16 47 -50 47 -91c0 -90 -78 -145 -214 -145zM186 -252v26c41 10 62 44 66 103v1h-11v90h38v-54c0 -101 -30 -152 -93 -166z" />
    <glyph glyph-name="germandbls" unicode="&#xdf;" horiz-adv-x="642" 
d="M370 -8c-56 0 -107 7 -135 12v31c30 -5 81 -11 135 -11c113 0 181 48 181 130c0 34 -11 60 -34 76c-25 18 -68 29 -128 39c-75 12 -115 23 -136 39c-18 13 -27 34 -27 57c0 22 7 42 23 58c15 13 48 28 93 48c51 22 81 53 81 109c0 66 -51 106 -134 106
c-109 0 -179 -64 -179 -204v-482h-34v482c0 158 82 236 213 236c105 0 168 -52 168 -138c0 -65 -35 -108 -91 -132c-43 -18 -76 -31 -88 -42c-13 -12 -18 -24 -18 -39s6 -28 19 -37c17 -11 61 -22 120 -32c76 -12 115 -24 142 -44c31 -23 44 -62 44 -101
c0 -101 -80 -161 -215 -161z" />
    <glyph glyph-name="tcaron" unicode="&#x165;" horiz-adv-x="378" 
d="M249 547v26c41 10 62 44 66 103v1h-11v90h38v-54c0 -101 -30 -152 -93 -166zM253 -2c-104 0 -150 65 -150 170v295h-88v31h73c12 0 17 6 18 28l2 84h29v-112h196v-31h-196v-293c0 -89 36 -140 118 -140c31 0 63 6 75 10v-31c-14 -4 -46 -11 -77 -11z" />
    <glyph glyph-name="uni0163" unicode="&#x163;" horiz-adv-x="378" 
d="M253 -2c-104 0 -150 65 -150 170v295h-88v31h73c12 0 17 6 18 28l2 84h29v-112h196v-31h-196v-293c0 -89 36 -140 118 -140c31 0 63 6 75 10v-31c-14 -4 -46 -11 -77 -11zM154 -252v26c41 10 62 44 66 103v1h-11v90h38v-54c0 -101 -30 -152 -93 -166z" />
    <glyph glyph-name="uacute" unicode="&#xfa;" horiz-adv-x="600" 
d="M277 554l81 138h42l-92 -138h-31zM272 -8c-143 0 -208 82 -208 196v306h34v-302c0 -98 56 -168 179 -168c124 0 220 96 220 234v236h34v-494h-34c1 32 2 98 2 160h-1c-23 -98 -112 -168 -226 -168z" />
    <glyph glyph-name="ubreve" unicode="&#x16d;" horiz-adv-x="600" 
d="M300 564c-89 0 -124 60 -124 111v17h28v-14c0 -43 27 -87 96 -87c70 0 97 44 97 87v14h29v-17c0 -51 -36 -111 -126 -111zM272 -8c-143 0 -208 82 -208 196v306h34v-302c0 -98 56 -168 179 -168c124 0 220 96 220 234v236h34v-494h-34c1 32 2 98 2 160h-1
c-23 -98 -112 -168 -226 -168z" />
    <glyph glyph-name="ucircumflex" unicode="&#xfb;" horiz-adv-x="600" 
d="M169 561v36l131 98h2l131 -98v-36l-131 98h-2zM272 -8c-143 0 -208 82 -208 196v306h34v-302c0 -98 56 -168 179 -168c124 0 220 96 220 234v236h34v-494h-34c1 32 2 98 2 160h-1c-23 -98 -112 -168 -226 -168z" />
    <glyph glyph-name="uni0215" unicode="&#x215;" horiz-adv-x="600" 
d="M236 554l-89 138h40l80 -138h-31zM392 554l-89 138h40l79 -138h-30zM272 -8c-143 0 -208 82 -208 196v306h34v-302c0 -98 56 -168 179 -168c124 0 220 96 220 234v236h34v-494h-34c1 32 2 98 2 160h-1c-23 -98 -112 -168 -226 -168z" />
    <glyph glyph-name="udieresis" unicode="&#xfc;" horiz-adv-x="600" 
d="M209 564v87h35v-87h-35zM358 564v87h35v-87h-35zM272 -8c-143 0 -208 82 -208 196v306h34v-302c0 -98 56 -168 179 -168c124 0 220 96 220 234v236h34v-494h-34c1 32 2 98 2 160h-1c-23 -98 -112 -168 -226 -168z" />
    <glyph glyph-name="ugrave" unicode="&#xf9;" horiz-adv-x="600" 
d="M313 554l-93 138h42l82 -138h-31zM272 -8c-143 0 -208 82 -208 196v306h34v-302c0 -98 56 -168 179 -168c124 0 220 96 220 234v236h34v-494h-34c1 32 2 98 2 160h-1c-23 -98 -112 -168 -226 -168z" />
    <glyph glyph-name="uhungarumlaut" unicode="&#x171;" horiz-adv-x="600" 
d="M171 555l78 137h41l-90 -137h-29zM326 555l79 137h41l-90 -137h-30zM272 -8c-143 0 -208 82 -208 196v306h34v-302c0 -98 56 -168 179 -168c124 0 220 96 220 234v236h34v-494h-34c1 32 2 98 2 160h-1c-23 -98 -112 -168 -226 -168z" />
    <glyph glyph-name="uni0217" unicode="&#x217;" horiz-adv-x="600" 
d="M176 564v17c0 52 36 111 125 111c90 0 125 -59 125 -111v-17h-28v14c0 43 -28 88 -97 88s-97 -45 -97 -88v-14h-28zM272 -8c-143 0 -208 82 -208 196v306h34v-302c0 -98 56 -168 179 -168c124 0 220 96 220 234v236h34v-494h-34c1 32 2 98 2 160h-1
c-23 -98 -112 -168 -226 -168z" />
    <glyph glyph-name="umacron" unicode="&#x16b;" horiz-adv-x="600" 
d="M174 610v29h254v-29h-254zM272 -8c-143 0 -208 82 -208 196v306h34v-302c0 -98 56 -168 179 -168c124 0 220 96 220 234v236h34v-494h-34c1 32 2 98 2 160h-1c-23 -98 -112 -168 -226 -168z" />
    <glyph glyph-name="uogonek" unicode="&#x173;" horiz-adv-x="600" 
d="M501 -165c22 0 37 5 47 9v-27c-10 -5 -29 -10 -50 -10c-52 0 -78 30 -78 70c0 41 34 88 78 123h-1c1 32 2 98 2 160h-1c-23 -98 -112 -168 -226 -168c-143 0 -208 82 -208 196v306h34v-302c0 -98 56 -168 179 -168c124 0 220 96 220 234v236h34v-494
c-47 -39 -79 -84 -79 -120c0 -27 16 -45 49 -45z" />
    <glyph glyph-name="uring" unicode="&#x16f;" horiz-adv-x="600" 
d="M301 554c-86 0 -129 43 -129 105s46 107 129 107c85 0 129 -45 129 -107s-43 -105 -129 -105zM301 580c68 0 101 32 101 79s-35 80 -101 80c-65 0 -101 -33 -101 -80s33 -79 101 -79zM272 -8c-143 0 -208 82 -208 196v306h34v-302c0 -98 56 -168 179 -168
c124 0 220 96 220 234v236h34v-494h-34c1 32 2 98 2 160h-1c-23 -98 -112 -168 -226 -168z" />
    <glyph glyph-name="utilde" unicode="&#x169;" horiz-adv-x="600" 
d="M135 573c9 93 44 138 93 138c35 0 54 -17 75 -49l14 -22c17 -27 30 -41 54 -41c33 0 59 36 67 111h28c-9 -93 -44 -138 -95 -138c-34 0 -54 19 -74 49l-14 22c-17 27 -30 41 -54 41c-34 0 -60 -36 -67 -111h-27zM272 -8c-143 0 -208 82 -208 196v306h34v-302
c0 -98 56 -168 179 -168c124 0 220 96 220 234v236h34v-494h-34c1 32 2 98 2 160h-1c-23 -98 -112 -168 -226 -168z" />
    <glyph glyph-name="wacute" unicode="&#x1e83;" horiz-adv-x="766" 
d="M359 554l81 138h42l-92 -138h-31zM184 0l-151 494h37l136 -457h2l160 457h33l158 -457h3l136 457h35l-151 -494h-42l-155 447h-3l-157 -447h-41z" />
    <glyph glyph-name="wcircumflex" unicode="&#x175;" horiz-adv-x="766" 
d="M251 561v36l131 98h2l131 -98v-36l-131 98h-2zM184 0l-151 494h37l136 -457h2l160 457h33l158 -457h3l136 457h35l-151 -494h-42l-155 447h-3l-157 -447h-41z" />
    <glyph glyph-name="wdieresis" unicode="&#x1e85;" horiz-adv-x="766" 
d="M291 564v87h35v-87h-35zM440 564v87h35v-87h-35zM184 0l-151 494h37l136 -457h2l160 457h33l158 -457h3l136 457h35l-151 -494h-42l-155 447h-3l-157 -447h-41z" />
    <glyph glyph-name="wgrave" unicode="&#x1e81;" horiz-adv-x="766" 
d="M395 554l-93 138h42l82 -138h-31zM184 0l-151 494h37l136 -457h2l160 457h33l158 -457h3l136 457h35l-151 -494h-42l-155 447h-3l-157 -447h-41z" />
    <glyph glyph-name="yacute" unicode="&#xfd;" horiz-adv-x="544" 
d="M248 554l81 138h42l-92 -138h-31zM134 -207c-21 0 -44 7 -55 12v31c11 -5 32 -11 52 -11c65 0 89 41 144 175h-14l-228 494h40l212 -463h2l188 463h36l-203 -500c-60 -153 -93 -201 -174 -201z" />
    <glyph glyph-name="ycircumflex" unicode="&#x177;" horiz-adv-x="544" 
d="M140 561v36l131 98h2l131 -98v-36l-131 98h-2zM134 -207c-21 0 -44 7 -55 12v31c11 -5 32 -11 52 -11c65 0 89 41 144 175h-14l-228 494h40l212 -463h2l188 463h36l-203 -500c-60 -153 -93 -201 -174 -201z" />
    <glyph glyph-name="ydieresis" unicode="&#xff;" horiz-adv-x="544" 
d="M180 564v87h35v-87h-35zM329 564v87h35v-87h-35zM134 -207c-21 0 -44 7 -55 12v31c11 -5 32 -11 52 -11c65 0 89 41 144 175h-14l-228 494h40l212 -463h2l188 463h36l-203 -500c-60 -153 -93 -201 -174 -201z" />
    <glyph glyph-name="ygrave" unicode="&#x1ef3;" horiz-adv-x="544" 
d="M284 554l-93 138h42l82 -138h-31zM134 -207c-21 0 -44 7 -55 12v31c11 -5 32 -11 52 -11c65 0 89 41 144 175h-14l-228 494h40l212 -463h2l188 463h36l-203 -500c-60 -153 -93 -201 -174 -201z" />
    <glyph glyph-name="zacute" unicode="&#x17a;" horiz-adv-x="479" 
d="M220 554l81 138h42l-92 -138h-31zM54 0v25l326 436v2h-319v31h365v-25l-327 -437v-1h327v-31h-372z" />
    <glyph glyph-name="zcaron" unicode="&#x17e;" horiz-adv-x="479" 
d="M224 554l-109 138h40l88 -115h2l88 115h40l-109 -138h-40zM54 0v25l326 436v2h-319v31h365v-25l-327 -437v-1h327v-31h-372z" />
    <glyph glyph-name="zdotaccent" unicode="&#x17c;" horiz-adv-x="479" 
d="M226 564v87h36v-87h-36zM54 0v25l326 436v2h-319v31h365v-25l-327 -437v-1h327v-31h-372z" />
    <glyph glyph-name="uni1E9E" unicode="&#x1e9e;" horiz-adv-x="671" 
d="M405 -9c-49 0 -92 5 -112 9v32c20 -3 60 -8 112 -8c112 0 175 65 175 173c0 92 -81 143 -230 143l195 254c-44 20 -105 41 -198 41c-154 0 -242 -82 -242 -234v-401h-36v401c0 173 103 267 278 267c117 0 196 -32 248 -59l-186 -245c132 -7 206 -70 206 -167
c0 -128 -75 -206 -210 -206z" />
    <glyph glyph-name="germandbls.calt" horiz-adv-x="671" 
d="M405 -9c-49 0 -92 5 -112 9v32c20 -3 60 -8 112 -8c112 0 175 65 175 173c0 92 -81 143 -230 143l195 254c-44 20 -105 41 -198 41c-154 0 -242 -82 -242 -234v-401h-36v401c0 173 103 267 278 267c117 0 196 -32 248 -59l-186 -245c132 -7 206 -70 206 -167
c0 -128 -75 -206 -210 -206z" />
    <glyph glyph-name="r.ss01" horiz-adv-x="410" 
d="M375 452c-17 7 -45 15 -78 15c-107 0 -194 -78 -194 -276v-191h-34v494h34l-2 -175h2c21 128 98 181 194 181c37 0 64 -8 78 -13v-35z" />
    <glyph glyph-name="racute.ss01" horiz-adv-x="410" 
d="M192 554l81 138h42l-92 -138h-31zM375 452c-17 7 -45 15 -78 15c-107 0 -194 -78 -194 -276v-191h-34v494h34l-2 -175h2c21 128 98 181 194 181c37 0 64 -8 78 -13v-35z" />
    <glyph glyph-name="rcaron.ss01" horiz-adv-x="410" 
d="M196 554l-109 138h40l88 -115h2l88 115h40l-109 -138h-40zM375 452c-17 7 -45 15 -78 15c-107 0 -194 -78 -194 -276v-191h-34v494h34l-2 -175h2c21 128 98 181 194 181c37 0 64 -8 78 -13v-35z" />
    <glyph glyph-name="rcommaaccent.ss01" horiz-adv-x="410" 
d="M375 452c-17 7 -45 15 -78 15c-107 0 -194 -78 -194 -276v-191h-34v494h34l-2 -175h2c21 128 98 181 194 181c37 0 64 -8 78 -13v-35zM14 -252v26c41 10 62 44 66 103v1h-11v90h38v-54c0 -101 -30 -152 -93 -166z" />
    <glyph glyph-name="uni0211.ss01" horiz-adv-x="410" 
d="M151 554l-89 138h40l80 -138h-31zM307 554l-89 138h40l79 -138h-30zM375 452c-17 7 -45 15 -78 15c-107 0 -194 -78 -194 -276v-191h-34v494h34l-2 -175h2c21 128 98 181 194 181c37 0 64 -8 78 -13v-35z" />
    <glyph glyph-name="uni0213.ss01" horiz-adv-x="410" 
d="M91 564v17c0 52 36 111 125 111c90 0 125 -59 125 -111v-17h-28v14c0 43 -28 88 -97 88s-97 -45 -97 -88v-14h-28zM375 452c-17 7 -45 15 -78 15c-107 0 -194 -78 -194 -276v-191h-34v494h34l-2 -175h2c21 128 98 181 194 181c37 0 64 -8 78 -13v-35z" />
    <glyph glyph-name="g.ss02" horiz-adv-x="608" 
d="M49 255c0 149 96 247 237 247c119 0 191 -57 211 -133h1v125h34v-473c0 -157 -91 -232 -237 -232c-117 0 -208 55 -208 143c0 8 0 19 1 27h33c-1 -8 -2 -16 -2 -25c0 -69 78 -113 176 -113c128 0 203 61 203 199v128h-2c-20 -91 -105 -156 -214 -156
c-138 0 -233 98 -233 263zM83 255c0 -145 84 -231 203 -231c140 0 212 110 212 220v22c0 119 -70 204 -209 204c-122 0 -206 -85 -206 -215z" />
    <glyph glyph-name="gbreve.ss02" horiz-adv-x="608" 
d="M295 564c-89 0 -124 60 -124 111v17h28v-14c0 -43 27 -87 96 -87c70 0 97 44 97 87v14h29v-17c0 -51 -36 -111 -126 -111zM49 255c0 149 96 247 237 247c119 0 191 -57 211 -133h1v125h34v-473c0 -157 -91 -232 -237 -232c-117 0 -208 55 -208 143c0 8 0 19 1 27h33
c-1 -8 -2 -16 -2 -25c0 -69 78 -113 176 -113c128 0 203 61 203 199v128h-2c-20 -91 -105 -156 -214 -156c-138 0 -233 98 -233 263zM83 255c0 -145 84 -231 203 -231c140 0 212 110 212 220v22c0 119 -70 204 -209 204c-122 0 -206 -85 -206 -215z" />
    <glyph glyph-name="gcircumflex.ss02" horiz-adv-x="608" 
d="M164 561v36l131 98h2l131 -98v-36l-131 98h-2zM49 255c0 149 96 247 237 247c119 0 191 -57 211 -133h1v125h34v-473c0 -157 -91 -232 -237 -232c-117 0 -208 55 -208 143c0 8 0 19 1 27h33c-1 -8 -2 -16 -2 -25c0 -69 78 -113 176 -113c128 0 203 61 203 199v128h-2
c-20 -91 -105 -156 -214 -156c-138 0 -233 98 -233 263zM83 255c0 -145 84 -231 203 -231c140 0 212 110 212 220v22c0 119 -70 204 -209 204c-122 0 -206 -85 -206 -215z" />
    <glyph glyph-name="gcommaaccent.ss02" horiz-adv-x="608" 
d="M369 774v-26c-41 -10 -62 -44 -66 -103v-1h11v-90h-38v54c0 101 30 152 93 166zM49 255c0 149 96 247 237 247c119 0 191 -57 211 -133h1v125h34v-473c0 -157 -91 -232 -237 -232c-117 0 -208 55 -208 143c0 8 0 19 1 27h33c-1 -8 -2 -16 -2 -25c0 -69 78 -113 176 -113
c128 0 203 61 203 199v128h-2c-20 -91 -105 -156 -214 -156c-138 0 -233 98 -233 263zM83 255c0 -145 84 -231 203 -231c140 0 212 110 212 220v22c0 119 -70 204 -209 204c-122 0 -206 -85 -206 -215z" />
    <glyph glyph-name="gdotaccent.ss02" horiz-adv-x="608" 
d="M278 564v87h36v-87h-36zM49 255c0 149 96 247 237 247c119 0 191 -57 211 -133h1v125h34v-473c0 -157 -91 -232 -237 -232c-117 0 -208 55 -208 143c0 8 0 19 1 27h33c-1 -8 -2 -16 -2 -25c0 -69 78 -113 176 -113c128 0 203 61 203 199v128h-2
c-20 -91 -105 -156 -214 -156c-138 0 -233 98 -233 263zM83 255c0 -145 84 -231 203 -231c140 0 212 110 212 220v22c0 119 -70 204 -209 204c-122 0 -206 -85 -206 -215z" />
    <glyph glyph-name="g.ss03" horiz-adv-x="572" 
d="M380 55c92 0 144 -41 144 -113c0 -95 -85 -153 -230 -153c-153 0 -243 52 -243 142c0 63 49 106 113 107c-26 15 -40 42 -40 76c0 32 11 53 24 64v3c-47 30 -73 81 -73 145c0 107 72 176 193 176c16 0 30 -1 44 -3c30 -2 84 -5 137 -5c24 0 46 1 57 2v-29
c-10 -1 -29 -2 -46 -2c-30 0 -57 2 -71 6c47 -30 73 -81 73 -145c0 -107 -73 -176 -194 -176c-37 0 -69 6 -96 18c-9 -7 -17 -27 -17 -50c0 -39 24 -63 68 -63h157zM108 326c0 -88 60 -145 160 -145s160 57 160 145s-60 145 -160 145s-160 -57 -160 -145zM294 -180
c129 0 196 46 196 120c0 53 -41 84 -113 84h-154h-1c-90 0 -137 -33 -137 -93c0 -71 78 -111 209 -111z" />
    <glyph glyph-name="g.ss04" horiz-adv-x="572" 
d="M380 55c92 0 144 -41 144 -113c0 -95 -85 -153 -230 -153c-153 0 -243 52 -243 142c0 63 49 106 113 107c-26 15 -40 42 -40 76c0 32 11 53 24 64v3c-47 30 -73 81 -73 145c0 107 72 176 193 176c38 0 72 -7 100 -20c18 -6 49 -12 71 -12c33 0 58 17 58 53
c0 14 -4 29 -7 39h31c3 -8 6 -23 6 -41c0 -51 -33 -76 -74 -76c-19 0 -33 4 -38 6l-1 -1c31 -30 48 -73 48 -124c0 -107 -73 -176 -194 -176c-37 0 -69 6 -96 18c-9 -7 -17 -27 -17 -50c0 -39 24 -63 68 -63h157zM108 326c0 -88 60 -145 160 -145s160 57 160 145
s-60 145 -160 145s-160 -57 -160 -145zM294 -180c129 0 196 46 196 120c0 53 -41 84 -113 84h-154h-1c-90 0 -137 -33 -137 -93c0 -71 78 -111 209 -111z" />
    <glyph glyph-name="t_t" horiz-adv-x="696" 
d="M651 463h-196v-293c0 -89 36 -140 118 -140c31 0 63 6 75 10v-31c-14 -4 -46 -11 -77 -11c-104 0 -150 65 -150 170v295h-284v-293c0 -89 36 -140 118 -140c31 0 63 6 75 10v-31c-14 -4 -46 -11 -77 -11c-104 0 -150 65 -150 170v295h-88v31h73c12 0 17 6 18 28l2 84h29
v-112h269c12 0 17 6 18 28l2 84h29v-112h196v-31z" />
    <glyph glyph-name="ordfeminine" unicode="&#xaa;" horiz-adv-x="369" 
d="M37 387c0 53 46 79 114 79h138v29c0 55 -38 88 -110 88c-67 0 -105 -25 -105 -70c0 -3 0 -9 1 -19h-28c-1 10 -1 16 -1 19c0 62 47 95 133 95c93 0 139 -43 139 -114v-188h-29c1 15 2 45 2 74h-1c-15 -47 -61 -79 -135 -79c-88 0 -118 42 -118 86zM65 388
c0 -34 25 -62 92 -62c103 0 132 65 132 111v5h-136c-53 0 -88 -14 -88 -54zM37 205v27h281v-27h-281z" />
    <glyph glyph-name="ordmasculine" unicode="&#xba;" horiz-adv-x="379" 
d="M190 300c-88 0 -152 58 -152 154s64 154 152 154c87 0 151 -58 151 -154s-64 -154 -151 -154zM190 326c70 0 122 48 122 128s-52 128 -122 128c-71 0 -123 -48 -123 -128s52 -128 123 -128zM38 205v27h303v-27h-303z" />
    <glyph glyph-name="zero.lf" 
d="M301 -9c-151 0 -250 127 -250 341c0 210 99 335 250 335c153 0 252 -125 252 -335c0 -214 -99 -341 -252 -341zM301 24c131 0 218 115 218 308c0 190 -87 303 -218 303c-130 0 -216 -113 -216 -303c0 -193 86 -308 216 -308z" />
    <glyph glyph-name="one.lf" horiz-adv-x="327" 
d="M174 0v449h-154v29l102 1c52 0 54 9 55 188h31v-667h-34z" />
    <glyph glyph-name="two.lf" horiz-adv-x="586" 
d="M69 0c0 111 22 140 205 226c157 74 216 120 216 239c0 104 -74 170 -188 170c-123 0 -196 -77 -196 -197c0 -38 4 -72 7 -87h-33c-3 14 -7 48 -7 88c0 140 86 228 230 228c135 0 221 -78 221 -202c0 -125 -58 -183 -232 -265c-164 -77 -187 -102 -188 -168h431v-32h-466z
" />
    <glyph glyph-name="three.lf" horiz-adv-x="601" 
d="M295 -9c-141 0 -241 74 -241 196c0 10 0 26 1 46h33c-1 -21 -1 -35 -1 -42c0 -106 84 -167 208 -167c131 0 220 66 220 173c0 83 -73 129 -181 129h-83v29h76c95 0 159 48 159 129c0 94 -80 151 -186 151c-120 0 -198 -63 -198 -168c0 -16 1 -34 2 -46h-33
c-2 11 -3 30 -3 49c0 123 92 197 232 197c128 0 220 -69 220 -181c0 -72 -49 -128 -120 -140v-1c86 -8 150 -67 150 -150c0 -124 -104 -204 -255 -204z" />
    <glyph glyph-name="four.lf" horiz-adv-x="595" 
d="M433 0v176h-391v35l380 447h46v-450h117v-32h-117v-176h-35zM80 208h353v413h-1l-352 -412v-1z" />
    <glyph glyph-name="five.lf" horiz-adv-x="591" 
d="M294 -9c-128 0 -234 64 -234 173c0 6 0 14 1 23h34c-1 -10 -1 -17 -1 -22c0 -89 91 -142 200 -142c130 0 212 80 212 197c0 113 -79 180 -203 180c-91 0 -165 -40 -194 -109l-37 4l26 363h404v-32h-374l-22 -298h1c27 60 106 102 201 102c142 0 232 -80 232 -210
c0 -138 -99 -229 -246 -229z" />
    <glyph glyph-name="six.lf" horiz-adv-x="601" 
d="M316 -9c-179 0 -265 104 -265 333c0 228 94 343 258 343c135 0 222 -70 222 -197c0 -12 -1 -26 -2 -34h-34c1 8 2 21 2 33c0 108 -73 166 -188 166c-143 0 -223 -101 -223 -311c0 -34 1 -71 4 -94h2c6 84 91 147 226 147c147 0 232 -67 232 -179
c0 -131 -93 -207 -234 -207zM316 23c121 0 200 63 200 175c0 94 -73 149 -201 149c-136 0 -214 -66 -215 -165c23 -102 94 -159 216 -159z" />
    <glyph glyph-name="seven.lf" horiz-adv-x="495" 
d="M116 0c65 234 206 483 329 624v1h-437v33h479v-30c-150 -171 -268 -402 -331 -628h-40z" />
    <glyph glyph-name="eight.lf" horiz-adv-x="598" 
d="M300 -9c-150 0 -249 72 -249 189c0 85 64 147 163 162v1c-80 13 -133 71 -133 148c0 109 86 176 219 176s219 -67 219 -176c0 -77 -53 -135 -134 -148v-1c99 -15 164 -77 164 -162c0 -117 -99 -189 -249 -189zM300 355c111 0 186 52 186 136c0 90 -75 144 -186 144
s-186 -54 -186 -144c0 -84 75 -136 186 -136zM300 23c129 0 214 59 214 157c0 90 -85 145 -214 145s-214 -55 -214 -145c0 -98 85 -157 214 -157z" />
    <glyph glyph-name="nine.lf" 
d="M303 -9c-141 0 -237 66 -237 186v33h34c-1 -11 -1 -22 -1 -31c0 -103 83 -156 204 -156c142 0 215 106 215 310c0 35 -1 67 -5 95h-2c-12 -100 -101 -171 -223 -171c-142 0 -237 75 -237 195c0 132 97 215 240 215c168 0 262 -91 262 -331c0 -226 -87 -345 -250 -345z
M289 288c125 0 212 78 213 196c-27 106 -101 151 -211 151c-123 0 -206 -70 -206 -183c0 -102 83 -164 204 -164z" />
    <glyph glyph-name="one.lf.ss05" horiz-adv-x="272" 
d="M119 0v627c8 9 14 22 19 40h15v-667h-34z" />
    <glyph glyph-name="zero.subs" horiz-adv-x="417" 
d="M209 -125c-103 0 -163 76 -163 203c0 126 60 201 163 201s163 -75 163 -201c0 -127 -60 -203 -163 -203zM209 -98c84 0 133 65 133 176c0 109 -49 174 -133 174c-85 0 -134 -65 -134 -174c0 -111 49 -176 134 -176z" />
    <glyph glyph-name="one.subs" horiz-adv-x="237" 
d="M120 -120v256h-94v25h45c50 0 51 5 51 113h27v-394h-29z" />
    <glyph glyph-name="two.subs" horiz-adv-x="387" 
d="M41 -120c0 71 15 89 130 140c113 51 131 83 131 137c0 52 -36 95 -110 95c-78 0 -120 -43 -120 -117c0 -21 3 -40 5 -51h-29c-2 9 -4 29 -4 52c0 90 52 143 149 143c94 0 138 -54 138 -121c0 -63 -23 -104 -144 -157c-94 -42 -111 -57 -114 -94h262v-27h-294z" />
    <glyph glyph-name="three.subs" horiz-adv-x="404" 
d="M199 -125c-98 0 -155 44 -155 118c0 6 0 16 1 28h28c-1 -13 -1 -21 -1 -26c0 -58 47 -93 127 -93c83 0 133 37 133 96c0 46 -40 74 -94 74h-68v24h55c51 0 88 28 88 73c0 50 -40 83 -110 83c-77 0 -121 -35 -121 -93c0 -8 1 -20 2 -28h-28c-1 8 -2 19 -2 29
c0 74 56 119 149 119c87 0 139 -42 139 -108c0 -43 -27 -77 -70 -82v-1c55 -5 89 -41 89 -91c0 -76 -60 -122 -162 -122z" />
    <glyph glyph-name="four.subs" horiz-adv-x="405" 
d="M272 -120v101h-243v28l234 265h38v-266h69v-27h-69v-101h-29zM64 8h208v234h-2l-206 -232v-2z" />
    <glyph glyph-name="five.subs" horiz-adv-x="394" 
d="M203 -125c-100 0 -159 40 -159 103v16h29v-15c0 -48 47 -77 130 -77c70 0 117 43 117 110c0 63 -45 103 -118 103c-72 0 -108 -31 -121 -64l-30 3l17 220h251v-27h-225l-13 -164h1c16 32 56 57 123 57c89 0 145 -50 145 -129c0 -83 -59 -136 -147 -136z" />
    <glyph glyph-name="six.subs" horiz-adv-x="404" 
d="M209 -125c-122 0 -164 76 -164 198c0 142 59 206 164 206c93 0 140 -47 140 -120c0 -2 0 -9 -1 -19h-27c1 7 1 14 1 18c0 57 -38 94 -113 94c-86 0 -134 -56 -134 -177v-40h2c11 45 65 74 137 74c104 0 148 -48 148 -108c0 -74 -48 -126 -153 -126zM209 -98
c85 0 124 43 124 99c0 44 -37 83 -122 83c-94 0 -126 -47 -126 -92c7 -33 27 -90 124 -90z" />
    <glyph glyph-name="seven.subs" horiz-adv-x="366" 
d="M89 -120c41 139 142 283 222 364v2h-288v28h327v-23c-108 -112 -185 -236 -227 -371h-34z" />
    <glyph glyph-name="eight.subs" horiz-adv-x="405" 
d="M203 -125c-100 0 -159 44 -159 114c0 49 37 88 98 95v1c-52 9 -79 43 -79 88c0 66 53 106 140 106c86 0 139 -40 139 -106c0 -44 -27 -79 -79 -88v-1c61 -7 98 -46 98 -95c0 -70 -59 -114 -158 -114zM203 96c69 0 111 29 111 77s-43 80 -111 80c-69 0 -112 -32 -112 -80
s42 -77 112 -77zM203 -99c80 0 129 34 129 89c0 48 -49 81 -129 81c-81 0 -130 -33 -130 -81c0 -55 49 -89 130 -89z" />
    <glyph glyph-name="nine.subs" horiz-adv-x="404" 
d="M202 -125c-91 0 -146 40 -146 106c0 2 0 12 1 22h28c-1 -9 -1 -16 -1 -19c0 -51 43 -82 118 -82c92 0 131 58 131 177v47h-2c-8 -54 -63 -94 -141 -94c-91 0 -144 48 -144 117c0 81 58 130 155 130c111 0 162 -58 162 -198c0 -137 -52 -206 -161 -206zM191 57
c84 0 133 46 133 111c-12 54 -50 84 -124 84c-80 0 -125 -39 -125 -103c0 -54 43 -92 116 -92z" />
    <glyph glyph-name="zero.dnom" horiz-adv-x="417" 
d="M209 -5c-103 0 -163 76 -163 203c0 126 60 201 163 201s163 -75 163 -201c0 -127 -60 -203 -163 -203zM209 22c84 0 133 65 133 176c0 109 -49 174 -133 174c-85 0 -134 -65 -134 -174c0 -111 49 -176 134 -176z" />
    <glyph glyph-name="one.dnom" horiz-adv-x="237" 
d="M120 0v256h-94v25h45c50 0 51 5 51 113h27v-394h-29z" />
    <glyph glyph-name="two.dnom" horiz-adv-x="387" 
d="M41 0c0 71 15 89 130 140c113 51 131 83 131 137c0 52 -36 95 -110 95c-78 0 -120 -43 -120 -117c0 -21 3 -40 5 -51h-29c-2 9 -4 29 -4 52c0 90 52 143 149 143c94 0 138 -54 138 -121c0 -63 -23 -104 -144 -157c-94 -42 -111 -57 -114 -94h262v-27h-294z" />
    <glyph glyph-name="three.dnom" horiz-adv-x="404" 
d="M199 -5c-98 0 -155 44 -155 118c0 6 0 16 1 28h28c-1 -13 -1 -21 -1 -26c0 -58 47 -93 127 -93c83 0 133 37 133 96c0 46 -40 74 -94 74h-68v24h55c51 0 88 28 88 73c0 50 -40 83 -110 83c-77 0 -121 -35 -121 -93c0 -8 1 -20 2 -28h-28c-1 8 -2 19 -2 29
c0 74 56 119 149 119c87 0 139 -42 139 -108c0 -43 -27 -77 -70 -82v-1c55 -5 89 -41 89 -91c0 -76 -60 -122 -162 -122z" />
    <glyph glyph-name="four.dnom" horiz-adv-x="405" 
d="M272 0v101h-243v28l234 265h38v-266h69v-27h-69v-101h-29zM64 128h208v234h-2l-206 -232v-2z" />
    <glyph glyph-name="five.dnom" horiz-adv-x="394" 
d="M203 -5c-100 0 -159 40 -159 103v16h29v-15c0 -48 47 -77 130 -77c70 0 117 43 117 110c0 63 -45 103 -118 103c-72 0 -108 -31 -121 -64l-30 3l17 220h251v-27h-225l-13 -164h1c16 32 56 57 123 57c89 0 145 -50 145 -129c0 -83 -59 -136 -147 -136z" />
    <glyph glyph-name="six.dnom" horiz-adv-x="404" 
d="M209 -5c-122 0 -164 76 -164 198c0 142 59 206 164 206c93 0 140 -47 140 -120c0 -2 0 -9 -1 -19h-27c1 7 1 14 1 18c0 57 -38 94 -113 94c-86 0 -134 -56 -134 -177v-40h2c11 45 65 74 137 74c104 0 148 -48 148 -108c0 -74 -48 -126 -153 -126zM209 22
c85 0 124 43 124 99c0 44 -37 83 -122 83c-94 0 -126 -47 -126 -92c7 -33 27 -90 124 -90z" />
    <glyph glyph-name="seven.dnom" horiz-adv-x="366" 
d="M89 0c41 139 142 283 222 364v2h-288v28h327v-23c-108 -112 -185 -236 -227 -371h-34z" />
    <glyph glyph-name="eight.dnom" horiz-adv-x="405" 
d="M203 -5c-100 0 -159 44 -159 114c0 49 37 88 98 95v1c-52 9 -79 43 -79 88c0 66 53 106 140 106c86 0 139 -40 139 -106c0 -44 -27 -79 -79 -88v-1c61 -7 98 -46 98 -95c0 -70 -59 -114 -158 -114zM203 216c69 0 111 29 111 77s-43 80 -111 80c-69 0 -112 -32 -112 -80
s42 -77 112 -77zM203 21c80 0 129 34 129 89c0 48 -49 81 -129 81c-81 0 -130 -33 -130 -81c0 -55 49 -89 130 -89z" />
    <glyph glyph-name="nine.dnom" horiz-adv-x="404" 
d="M202 -5c-91 0 -146 40 -146 106c0 2 0 12 1 22h28c-1 -9 -1 -16 -1 -19c0 -51 43 -82 118 -82c92 0 131 58 131 177v47h-2c-8 -54 -63 -94 -141 -94c-91 0 -144 48 -144 117c0 81 58 130 155 130c111 0 162 -58 162 -198c0 -137 -52 -206 -161 -206zM191 177
c84 0 133 46 133 111c-12 54 -50 84 -124 84c-80 0 -125 -39 -125 -103c0 -54 43 -92 116 -92z" />
    <glyph glyph-name="zero.numr" horiz-adv-x="417" 
d="M209 259c-103 0 -163 76 -163 203c0 126 60 201 163 201s163 -75 163 -201c0 -127 -60 -203 -163 -203zM209 286c84 0 133 65 133 176c0 109 -49 174 -133 174c-85 0 -134 -65 -134 -174c0 -111 49 -176 134 -176z" />
    <glyph glyph-name="one.numr" horiz-adv-x="237" 
d="M120 264v256h-94v25h45c50 0 51 5 51 113h27v-394h-29z" />
    <glyph glyph-name="two.numr" horiz-adv-x="387" 
d="M41 264c0 71 15 89 130 140c113 51 131 83 131 137c0 52 -36 95 -110 95c-78 0 -120 -43 -120 -117c0 -21 3 -40 5 -51h-29c-2 9 -4 29 -4 52c0 90 52 143 149 143c94 0 138 -54 138 -121c0 -63 -23 -104 -144 -157c-94 -42 -111 -57 -114 -94h262v-27h-294z" />
    <glyph glyph-name="three.numr" horiz-adv-x="404" 
d="M199 259c-98 0 -155 44 -155 118c0 6 0 16 1 28h28c-1 -13 -1 -21 -1 -26c0 -58 47 -93 127 -93c83 0 133 37 133 96c0 46 -40 74 -94 74h-68v24h55c51 0 88 28 88 73c0 50 -40 83 -110 83c-77 0 -121 -35 -121 -93c0 -8 1 -20 2 -28h-28c-1 8 -2 19 -2 29
c0 74 56 119 149 119c87 0 139 -42 139 -108c0 -43 -27 -77 -70 -82v-1c55 -5 89 -41 89 -91c0 -76 -60 -122 -162 -122z" />
    <glyph glyph-name="four.numr" horiz-adv-x="405" 
d="M272 264v101h-243v28l234 265h38v-266h69v-27h-69v-101h-29zM64 392h208v234h-2l-206 -232v-2z" />
    <glyph glyph-name="five.numr" horiz-adv-x="394" 
d="M203 259c-100 0 -159 40 -159 103v16h29v-15c0 -48 47 -77 130 -77c70 0 117 43 117 110c0 63 -45 103 -118 103c-72 0 -108 -31 -121 -64l-30 3l17 220h251v-27h-225l-13 -164h1c16 32 56 57 123 57c89 0 145 -50 145 -129c0 -83 -59 -136 -147 -136z" />
    <glyph glyph-name="six.numr" horiz-adv-x="404" 
d="M209 259c-122 0 -164 76 -164 198c0 142 59 206 164 206c93 0 140 -47 140 -120c0 -2 0 -9 -1 -19h-27c1 7 1 14 1 18c0 57 -38 94 -113 94c-86 0 -134 -56 -134 -177v-40h2c11 45 65 74 137 74c104 0 148 -48 148 -108c0 -74 -48 -126 -153 -126zM209 286
c85 0 124 43 124 99c0 44 -37 83 -122 83c-94 0 -126 -47 -126 -92c7 -33 27 -90 124 -90z" />
    <glyph glyph-name="seven.numr" horiz-adv-x="366" 
d="M89 264c41 139 142 283 222 364v2h-288v28h327v-23c-108 -112 -185 -236 -227 -371h-34z" />
    <glyph glyph-name="eight.numr" horiz-adv-x="405" 
d="M203 259c-100 0 -159 44 -159 114c0 49 37 88 98 95v1c-52 9 -79 43 -79 88c0 66 53 106 140 106c86 0 139 -40 139 -106c0 -44 -27 -79 -79 -88v-1c61 -7 98 -46 98 -95c0 -70 -59 -114 -158 -114zM203 480c69 0 111 29 111 77s-43 80 -111 80c-69 0 -112 -32 -112 -80
s42 -77 112 -77zM203 285c80 0 129 34 129 89c0 48 -49 81 -129 81c-81 0 -130 -33 -130 -81c0 -55 49 -89 130 -89z" />
    <glyph glyph-name="nine.numr" horiz-adv-x="404" 
d="M202 259c-91 0 -146 40 -146 106c0 2 0 12 1 22h28c-1 -9 -1 -16 -1 -19c0 -51 43 -82 118 -82c92 0 131 58 131 177v47h-2c-8 -54 -63 -94 -141 -94c-91 0 -144 48 -144 117c0 81 58 130 155 130c111 0 162 -58 162 -198c0 -137 -52 -206 -161 -206zM191 441
c84 0 133 46 133 111c-12 54 -50 84 -124 84c-80 0 -125 -39 -125 -103c0 -54 43 -92 116 -92z" />
    <glyph glyph-name="zero.sups" horiz-adv-x="417" 
d="M209 301c-103 0 -163 76 -163 203c0 126 60 201 163 201s163 -75 163 -201c0 -127 -60 -203 -163 -203zM209 328c84 0 133 65 133 176c0 109 -49 174 -133 174c-85 0 -134 -65 -134 -174c0 -111 49 -176 134 -176z" />
    <glyph glyph-name="one.sups" horiz-adv-x="237" 
d="M120 306v256h-94v25h45c50 0 51 5 51 113h27v-394h-29z" />
    <glyph glyph-name="two.sups" horiz-adv-x="387" 
d="M41 306c0 71 15 89 130 140c113 51 131 83 131 137c0 52 -36 95 -110 95c-78 0 -120 -43 -120 -117c0 -21 3 -40 5 -51h-29c-2 9 -4 29 -4 52c0 90 52 143 149 143c94 0 138 -54 138 -121c0 -63 -23 -104 -144 -157c-94 -42 -111 -57 -114 -94h262v-27h-294z" />
    <glyph glyph-name="three.sups" horiz-adv-x="404" 
d="M199 301c-98 0 -155 44 -155 118c0 6 0 16 1 28h28c-1 -13 -1 -21 -1 -26c0 -58 47 -93 127 -93c83 0 133 37 133 96c0 46 -40 74 -94 74h-68v24h55c51 0 88 28 88 73c0 50 -40 83 -110 83c-77 0 -121 -35 -121 -93c0 -8 1 -20 2 -28h-28c-1 8 -2 19 -2 29
c0 74 56 119 149 119c87 0 139 -42 139 -108c0 -43 -27 -77 -70 -82v-1c55 -5 89 -41 89 -91c0 -76 -60 -122 -162 -122z" />
    <glyph glyph-name="four.sups" horiz-adv-x="405" 
d="M272 306v101h-243v28l234 265h38v-266h69v-27h-69v-101h-29zM64 434h208v234h-2l-206 -232v-2z" />
    <glyph glyph-name="five.sups" horiz-adv-x="394" 
d="M203 301c-100 0 -159 40 -159 103v16h29v-15c0 -48 47 -77 130 -77c70 0 117 43 117 110c0 63 -45 103 -118 103c-72 0 -108 -31 -121 -64l-30 3l17 220h251v-27h-225l-13 -164h1c16 32 56 57 123 57c89 0 145 -50 145 -129c0 -83 -59 -136 -147 -136z" />
    <glyph glyph-name="six.sups" horiz-adv-x="404" 
d="M209 301c-122 0 -164 76 -164 198c0 142 59 206 164 206c93 0 140 -47 140 -120c0 -2 0 -9 -1 -19h-27c1 7 1 14 1 18c0 57 -38 94 -113 94c-86 0 -134 -56 -134 -177v-40h2c11 45 65 74 137 74c104 0 148 -48 148 -108c0 -74 -48 -126 -153 -126zM209 328
c85 0 124 43 124 99c0 44 -37 83 -122 83c-94 0 -126 -47 -126 -92c7 -33 27 -90 124 -90z" />
    <glyph glyph-name="seven.sups" horiz-adv-x="366" 
d="M89 306c41 139 142 283 222 364v2h-288v28h327v-23c-108 -112 -185 -236 -227 -371h-34z" />
    <glyph glyph-name="eight.sups" horiz-adv-x="405" 
d="M203 301c-100 0 -159 44 -159 114c0 49 37 88 98 95v1c-52 9 -79 43 -79 88c0 66 53 106 140 106c86 0 139 -40 139 -106c0 -44 -27 -79 -79 -88v-1c61 -7 98 -46 98 -95c0 -70 -59 -114 -158 -114zM203 522c69 0 111 29 111 77s-43 80 -111 80c-69 0 -112 -32 -112 -80
s42 -77 112 -77zM203 327c80 0 129 34 129 89c0 48 -49 81 -129 81c-81 0 -130 -33 -130 -81c0 -55 49 -89 130 -89z" />
    <glyph glyph-name="nine.sups" horiz-adv-x="404" 
d="M202 301c-91 0 -146 40 -146 106c0 2 0 12 1 22h28c-1 -9 -1 -16 -1 -19c0 -51 43 -82 118 -82c92 0 131 58 131 177v47h-2c-8 -54 -63 -94 -141 -94c-91 0 -144 48 -144 117c0 81 58 130 155 130c111 0 162 -58 162 -198c0 -137 -52 -206 -161 -206zM191 483
c84 0 133 46 133 111c-12 54 -50 84 -124 84c-80 0 -125 -39 -125 -103c0 -54 43 -92 116 -92z" />
    <glyph glyph-name="onehalf" unicode="&#xbd;" horiz-adv-x="732" 
d="M139 -46l-22 10l326 740l22 -10zM120 264v256h-94v25h45c50 0 51 5 51 113h27v-394h-29zM386 0c0 71 15 89 130 140c113 51 131 83 131 137c0 52 -36 95 -110 95c-78 0 -120 -43 -120 -117c0 -21 3 -40 5 -51h-29c-2 9 -4 29 -4 52c0 90 52 143 149 143
c94 0 138 -54 138 -121c0 -63 -23 -104 -144 -157c-94 -42 -111 -57 -114 -94h262v-27h-294z" />
    <glyph glyph-name="uni2153" unicode="&#x2153;" horiz-adv-x="749" 
d="M139 -46l-22 10l326 740l22 -10zM120 264v256h-94v25h45c50 0 51 5 51 113h27v-394h-29zM544 -5c-98 0 -155 44 -155 118c0 6 0 16 1 28h28c-1 -13 -1 -21 -1 -26c0 -58 47 -93 127 -93c83 0 133 37 133 96c0 46 -40 74 -94 74h-68v24h55c51 0 88 28 88 73
c0 50 -40 83 -110 83c-77 0 -121 -35 -121 -93c0 -8 1 -20 2 -28h-28c-1 8 -2 19 -2 29c0 74 56 119 149 119c87 0 139 -42 139 -108c0 -43 -27 -77 -70 -82v-1c55 -5 89 -41 89 -91c0 -76 -60 -122 -162 -122z" />
    <glyph glyph-name="uni2154" unicode="&#x2154;" horiz-adv-x="900" 
d="M290 -46l-22 10l326 740l22 -10zM41 264c0 71 15 89 130 140c113 51 131 83 131 137c0 52 -36 95 -110 95c-78 0 -120 -43 -120 -117c0 -21 3 -40 5 -51h-29c-2 9 -4 29 -4 52c0 90 52 143 149 143c94 0 138 -54 138 -121c0 -63 -23 -104 -144 -157
c-94 -42 -111 -57 -114 -94h262v-27h-294zM695 -5c-98 0 -155 44 -155 118c0 6 0 16 1 28h28c-1 -13 -1 -21 -1 -26c0 -58 47 -93 127 -93c83 0 133 37 133 96c0 46 -40 74 -94 74h-68v24h55c51 0 88 28 88 73c0 50 -40 83 -110 83c-77 0 -121 -35 -121 -93
c0 -8 1 -20 2 -28h-28c-1 8 -2 19 -2 29c0 74 56 119 149 119c87 0 139 -42 139 -108c0 -43 -27 -77 -70 -82v-1c55 -5 89 -41 89 -91c0 -76 -60 -122 -162 -122z" />
    <glyph glyph-name="onequarter" unicode="&#xbc;" horiz-adv-x="720" 
d="M139 -46l-22 10l326 740l22 -10zM120 264v256h-94v25h45c50 0 51 5 51 113h27v-394h-29zM587 0v101h-243v28l234 265h38v-266h69v-27h-69v-101h-29zM379 128h208v234h-2l-206 -232v-2z" />
    <glyph glyph-name="threequarters" unicode="&#xbe;" horiz-adv-x="887" 
d="M306 -46l-22 10l326 740l22 -10zM199 259c-98 0 -155 44 -155 118c0 6 0 16 1 28h28c-1 -13 -1 -21 -1 -26c0 -58 47 -93 127 -93c83 0 133 37 133 96c0 46 -40 74 -94 74h-68v24h55c51 0 88 28 88 73c0 50 -40 83 -110 83c-77 0 -121 -35 -121 -93c0 -8 1 -20 2 -28h-28
c-1 8 -2 19 -2 29c0 74 56 119 149 119c87 0 139 -42 139 -108c0 -43 -27 -77 -70 -82v-1c55 -5 89 -41 89 -91c0 -76 -60 -122 -162 -122zM754 0v101h-243v28l234 265h38v-266h69v-27h-69v-101h-29zM546 128h208v234h-2l-206 -232v-2z" />
    <glyph glyph-name="oneeighth" unicode="&#x215b;" horiz-adv-x="750" 
d="M139 -46l-22 10l326 740l22 -10zM120 264v256h-94v25h45c50 0 51 5 51 113h27v-394h-29zM548 -5c-100 0 -159 44 -159 114c0 49 37 88 98 95v1c-52 9 -79 43 -79 88c0 66 53 106 140 106c86 0 139 -40 139 -106c0 -44 -27 -79 -79 -88v-1c61 -7 98 -46 98 -95
c0 -70 -59 -114 -158 -114zM548 216c69 0 111 29 111 77s-43 80 -111 80c-69 0 -112 -32 -112 -80s42 -77 112 -77zM548 21c80 0 129 34 129 89c0 48 -49 81 -129 81c-81 0 -130 -33 -130 -81c0 -55 49 -89 130 -89z" />
    <glyph glyph-name="threeeighths" unicode="&#x215c;" horiz-adv-x="917" 
d="M306 -46l-22 10l326 740l22 -10zM199 259c-98 0 -155 44 -155 118c0 6 0 16 1 28h28c-1 -13 -1 -21 -1 -26c0 -58 47 -93 127 -93c83 0 133 37 133 96c0 46 -40 74 -94 74h-68v24h55c51 0 88 28 88 73c0 50 -40 83 -110 83c-77 0 -121 -35 -121 -93c0 -8 1 -20 2 -28h-28
c-1 8 -2 19 -2 29c0 74 56 119 149 119c87 0 139 -42 139 -108c0 -43 -27 -77 -70 -82v-1c55 -5 89 -41 89 -91c0 -76 -60 -122 -162 -122zM715 -5c-100 0 -159 44 -159 114c0 49 37 88 98 95v1c-52 9 -79 43 -79 88c0 66 53 106 140 106c86 0 139 -40 139 -106
c0 -44 -27 -79 -79 -88v-1c61 -7 98 -46 98 -95c0 -70 -59 -114 -158 -114zM715 216c69 0 111 29 111 77s-43 80 -111 80c-69 0 -112 -32 -112 -80s42 -77 112 -77zM715 21c80 0 129 34 129 89c0 48 -49 81 -129 81c-81 0 -130 -33 -130 -81c0 -55 49 -89 130 -89z" />
    <glyph glyph-name="fiveeighths" unicode="&#x215d;" horiz-adv-x="907" 
d="M296 -46l-22 10l326 740l22 -10zM203 259c-100 0 -159 40 -159 103v16h29v-15c0 -48 47 -77 130 -77c70 0 117 43 117 110c0 63 -45 103 -118 103c-72 0 -108 -31 -121 -64l-30 3l17 220h251v-27h-225l-13 -164h1c16 32 56 57 123 57c89 0 145 -50 145 -129
c0 -83 -59 -136 -147 -136zM705 -5c-100 0 -159 44 -159 114c0 49 37 88 98 95v1c-52 9 -79 43 -79 88c0 66 53 106 140 106c86 0 139 -40 139 -106c0 -44 -27 -79 -79 -88v-1c61 -7 98 -46 98 -95c0 -70 -59 -114 -158 -114zM705 216c69 0 111 29 111 77s-43 80 -111 80
c-69 0 -112 -32 -112 -80s42 -77 112 -77zM705 21c80 0 129 34 129 89c0 48 -49 81 -129 81c-81 0 -130 -33 -130 -81c0 -55 49 -89 130 -89z" />
    <glyph glyph-name="seveneighths" unicode="&#x215e;" horiz-adv-x="821" 
d="M210 -46l-22 10l326 740l22 -10zM89 264c41 139 142 283 222 364v2h-288v28h327v-23c-108 -112 -185 -236 -227 -371h-34zM619 -5c-100 0 -159 44 -159 114c0 49 37 88 98 95v1c-52 9 -79 43 -79 88c0 66 53 106 140 106c86 0 139 -40 139 -106c0 -44 -27 -79 -79 -88v-1
c61 -7 98 -46 98 -95c0 -70 -59 -114 -158 -114zM619 216c69 0 111 29 111 77s-43 80 -111 80c-69 0 -112 -32 -112 -80s42 -77 112 -77zM619 21c80 0 129 34 129 89c0 48 -49 81 -129 81c-81 0 -130 -33 -130 -81c0 -55 49 -89 130 -89z" />
    <glyph glyph-name="periodcentered.loclCAT.case" horiz-adv-x="10" 
d="M-164 298v89h38v-89h-38z" />
    <glyph glyph-name="periodcentered.loclCAT" horiz-adv-x="35" 
d="M-1 263v89h37v-89h-37z" />
    <glyph glyph-name="comma.dnom" horiz-adv-x="115" 
d="M20 -78v19c26 6 37 26 39 58v1h-8v54h28v-33c0 -60 -17 -90 -59 -99z" />
    <glyph glyph-name="period.dnom" horiz-adv-x="105" 
d="M34 0v54h34v-54h-34z" />
    <glyph glyph-name="comma.numr" horiz-adv-x="115" 
d="M20 186v19c26 6 37 26 39 58v1h-8v54h28v-33c0 -60 -17 -90 -59 -99z" />
    <glyph glyph-name="period.numr" horiz-adv-x="105" 
d="M34 264v54h34v-54h-34z" />
    <glyph glyph-name="comma.subs" horiz-adv-x="115" 
d="M20 -198v19c26 6 37 26 39 58v1h-8v54h28v-33c0 -60 -17 -90 -59 -99z" />
    <glyph glyph-name="period.subs" horiz-adv-x="105" 
d="M34 -120v54h34v-54h-34z" />
    <glyph glyph-name="comma.sups" horiz-adv-x="115" 
d="M20 228v19c26 6 37 26 39 58v1h-8v54h28v-33c0 -60 -17 -90 -59 -99z" />
    <glyph glyph-name="period.sups" horiz-adv-x="105" 
d="M34 306v54h34v-54h-34z" />
    <glyph glyph-name="uni00A0" unicode="&#xa0;" horiz-adv-x="211" 
 />
    <glyph glyph-name="CR" unicode="&#xd;" horiz-adv-x="204" 
 />
    <glyph glyph-name="uni2116" unicode="&#x2116;" horiz-adv-x="1063" 
d="M76 0v658h58l438 -610h2v610h34v-658h-43l-453 632h-2v-632h-34zM874 300c-88 0 -152 58 -152 154s64 154 152 154c87 0 151 -58 151 -154s-64 -154 -151 -154zM874 326c70 0 122 48 122 128s-52 128 -122 128c-71 0 -123 -48 -123 -128s52 -128 123 -128zM722 205v27
h303v-27h-303z" />
    <glyph glyph-name="uni0308" unicode="&#x308;" horiz-adv-x="0" 
d="M-313 564v87h35v-87h-35zM-164 564v87h35v-87h-35z" />
    <glyph glyph-name="uni0307" unicode="&#x307;" horiz-adv-x="0" 
d="M-239 564v87h36v-87h-36z" />
    <glyph glyph-name="gravecomb" unicode="&#x300;" horiz-adv-x="0" 
d="M-172 554l-93 138h42l82 -138h-31z" />
    <glyph glyph-name="acutecomb" unicode="&#x301;" horiz-adv-x="0" 
d="M-285 554l81 138h42l-92 -138h-31z" />
    <glyph glyph-name="uni030B" unicode="&#x30b;" horiz-adv-x="0" 
d="M-370 555l78 137h41l-90 -137h-29zM-215 555l79 137h41l-90 -137h-30z" />
    <glyph glyph-name="uni0302" unicode="&#x302;" horiz-adv-x="0" 
d="M-353 561v36l131 98h2l131 -98v-36l-131 98h-2z" />
    <glyph glyph-name="uni030C" unicode="&#x30c;" horiz-adv-x="0" 
d="M-241 554l-109 138h40l88 -115h2l88 115h40l-109 -138h-40z" />
    <glyph glyph-name="uni0306" unicode="&#x306;" horiz-adv-x="0" 
d="M-221 564c-89 0 -124 60 -124 111v17h28v-14c0 -43 27 -87 96 -87c70 0 97 44 97 87v14h29v-17c0 -51 -36 -111 -126 -111z" />
    <glyph glyph-name="uni030A" unicode="&#x30a;" horiz-adv-x="0" 
d="M-221 554c-86 0 -129 43 -129 105s46 107 129 107c85 0 129 -45 129 -107s-43 -105 -129 -105zM-221 580c68 0 101 32 101 79s-35 80 -101 80c-65 0 -101 -33 -101 -80s33 -79 101 -79z" />
    <glyph glyph-name="tildecomb" unicode="&#x303;" horiz-adv-x="0" 
d="M-379 573c9 93 44 138 93 138c35 0 54 -17 75 -49l14 -22c17 -27 30 -41 54 -41c33 0 59 36 67 111h28c-9 -93 -44 -138 -95 -138c-34 0 -54 19 -74 49l-14 22c-17 27 -30 41 -54 41c-34 0 -60 -36 -67 -111h-27z" />
    <glyph glyph-name="uni0304" unicode="&#x304;" horiz-adv-x="0" 
d="M-348 610v29h254v-29h-254z" />
    <glyph glyph-name="uni030F" unicode="&#x30f;" horiz-adv-x="0" 
d="M-267 554l-89 138h40l80 -138h-31zM-111 554l-89 138h40l79 -138h-30z" />
    <glyph glyph-name="uni0311" unicode="&#x311;" horiz-adv-x="0" 
d="M-250 564v17c0 52 36 111 125 111c90 0 125 -59 125 -111v-17h-28v14c0 43 -28 88 -97 88s-97 -45 -97 -88v-14h-28z" />
    <glyph glyph-name="uni0312" unicode="&#x312;" horiz-adv-x="0" 
d="M-11 774v-26c-41 -10 -62 -44 -66 -103v-1h11v-90h-38v54c0 101 30 152 93 166z" />
    <glyph glyph-name="uni0326" unicode="&#x326;" horiz-adv-x="0" 
d="M-216 -252v26c41 10 62 44 66 103v1h-11v90h38v-54c0 -101 -30 -152 -93 -166z" />
    <glyph glyph-name="uni0327" unicode="&#x327;" horiz-adv-x="0" 
d="M-211 -218c-73 0 -111 32 -116 80h29c6 -35 35 -55 87 -55c56 0 79 30 79 62c0 30 -22 50 -65 50c-29 0 -54 -8 -63 -11l36 95h26l-25 -67l1 -1c7 3 21 7 36 7c55 0 82 -31 82 -72c0 -46 -30 -88 -107 -88z" />
    <glyph glyph-name="uni0328" unicode="&#x328;" horiz-adv-x="0" 
d="M-176 -193c-52 0 -78 30 -78 70c0 41 34 88 78 123h33c-47 -39 -79 -84 -79 -120c0 -27 16 -45 49 -45c22 0 37 5 47 9v-27c-10 -5 -29 -10 -50 -10z" />
    <glyph glyph-name="NULL" horiz-adv-x="0" 
 />
    <glyph glyph-name="NULL" horiz-adv-x="0" 
 />
    </font>
</defs>
</svg>
