<?xml version="1.0" standalone="no"?>
<!DOCTYPE svg PUBLIC "-//W3C//DTD SVG 1.1//EN" "http://www.w3.org/Graphics/SVG/1.1/DTD/svg11.dtd" >
<svg xmlns="http://www.w3.org/2000/svg" xmlns:xlink="http://www.w3.org/1999/xlink" version="1.1">
<metadata>
Created by FontForge 20170812 at Thu Mar 27 06:12:39 2025
 By www-data
Copyright \(c\) 2018 by Nikola &#38; Zoran Kostic. All rights reserved.
</metadata>
<defs>
<font id="RocGrotesk-Light" horiz-adv-x="604" >
  <font-face 
    font-family="Roc Grotesk Light"
    font-weight="350"
    font-stretch="normal"
    units-per-em="1000"
    panose-1="0 0 4 0 0 0 0 0 0 0"
    ascent="760"
    descent="-240"
    x-height="494"
    cap-height="658"
    bbox="-386 -263 1055 931"
    underline-thickness="50"
    underline-position="-80"
    stemh="51"
    stemv="55"
    unicode-range="U+000D-FB02"
  />
<missing-glyph horiz-adv-x="436" 
d="M68 0v658h300v-658h-300zM117 59h200v541h-200v-541z" />
    <glyph glyph-name="f_f" unicode="ff" horiz-adv-x="733" 
d="M101 0v446h-87v48h87v52c0 109 60 166 159 166c35 0 65 -7 82 -13v-49c-17 6 -44 13 -77 13c-71 0 -110 -39 -110 -117v-52h293v52c0 109 60 166 159 166c36 0 66 -7 83 -13v-49c-18 6 -45 13 -77 13c-71 0 -111 -39 -111 -117v-52h196v-48h-196v-446h-54v446h-293v-446
h-54z" />
    <glyph glyph-name="fi" unicode="fi" horiz-adv-x="592" 
d="M101 0v446h-87v48h87v52c0 109 60 166 159 166c35 0 65 -7 82 -13v-49c-17 6 -44 13 -77 13c-71 0 -110 -39 -110 -117v-52h195v-48h-195v-446h-54zM459 561v93h59v-93h-59zM462 0v494h54v-494h-54z" />
    <glyph glyph-name="fl" unicode="fl" horiz-adv-x="592" 
d="M101 0v446h-87v48h87v52c0 109 60 166 159 166c35 0 65 -7 82 -13v-49c-17 6 -44 13 -77 13c-71 0 -110 -39 -110 -117v-52h195v-48h-195v-446h-54zM462 0v693h54v-693h-54z" />
    <glyph glyph-name=".notdef" horiz-adv-x="436" 
d="M68 0v658h300v-658h-300zM117 59h200v541h-200v-541z" />
    <glyph glyph-name="space" unicode=" " horiz-adv-x="234" 
 />
    <glyph glyph-name="quotesingle" unicode="'" horiz-adv-x="203" 
d="M91 432l-18 212v14h58v-14l-19 -212h-21z" />
    <glyph glyph-name="quotedbl" unicode="&#x22;" horiz-adv-x="349" 
d="M91 432l-18 212v14h58v-14l-19 -212h-21zM237 432l-18 212v14h58v-14l-19 -212h-21z" />
    <glyph glyph-name="quotesinglbase" unicode="&#x201a;" horiz-adv-x="211" 
d="M46 -131v35c41 9 60 39 63 94v2h-22v100h59v-67c0 -101 -31 -151 -100 -164z" />
    <glyph glyph-name="quoteleft" unicode="&#x2018;" horiz-adv-x="215" 
d="M169 668v-35c-41 -9 -60 -39 -63 -94v-2h22v-100h-59v67c0 101 31 151 100 164z" />
    <glyph glyph-name="quoteright" unicode="&#x2019;" horiz-adv-x="211" 
d="M46 427v35c41 9 60 39 63 94v2h-22v100h59v-67c0 -101 -31 -151 -100 -164z" />
    <glyph glyph-name="quotedblbase" unicode="&#x201e;" horiz-adv-x="359" 
d="M46 -131v35c41 9 60 39 63 94v2h-22v100h59v-67c0 -101 -31 -151 -100 -164zM195 -131v35c41 9 60 39 63 94v2h-22v100h59v-67c0 -101 -31 -151 -100 -164z" />
    <glyph glyph-name="quotedblleft" unicode="&#x201c;" horiz-adv-x="359" 
d="M165 668v-35c-41 -9 -60 -39 -63 -94v-2h22v-100h-59v67c0 101 31 151 100 164zM313 668v-35c-41 -9 -60 -39 -63 -94v-2h22v-100h-59v67c0 101 31 151 100 164z" />
    <glyph glyph-name="quotedblright" unicode="&#x201d;" horiz-adv-x="359" 
d="M46 427v35c41 9 60 39 63 94v2h-22v100h59v-67c0 -101 -31 -151 -100 -164zM195 427v35c41 9 60 39 63 94v2h-22v100h59v-67c0 -101 -31 -151 -100 -164z" />
    <glyph glyph-name="exclam" unicode="!" horiz-adv-x="197" 
d="M87 217l-16 350v105h55v-105l-16 -350h-23zM69 0v100h59v-100h-59z" />
    <glyph glyph-name="exclamdown" unicode="&#xa1;" horiz-adv-x="197" 
d="M69 364v100h59v-100h-59zM71 -208v105l16 350h23l16 -350v-105h-55z" />
    <glyph glyph-name="question" unicode="?" horiz-adv-x="512" 
d="M97 165v169h43c16 -43 61 -76 134 -76c85 0 152 77 152 193c0 113 -74 175 -164 175c-93 0 -150 -54 -150 -145c0 -6 0 -17 1 -28h-48c-2 12 -2 26 -2 32c0 117 78 187 199 187s212 -79 212 -219c0 -141 -83 -239 -199 -239c-70 0 -120 34 -136 69h-1v-118h-41zM89 0v100
h59v-100h-59z" />
    <glyph glyph-name="questiondown" unicode="&#xbf;" horiz-adv-x="512" 
d="M364 364v100h58v-100h-58zM251 -208c-122 0 -213 79 -213 219c0 141 83 239 200 239c68 0 119 -34 135 -69h1l-1 118h42v-169h-44c-16 43 -61 76 -132 76c-86 0 -153 -77 -153 -193c0 -113 74 -175 165 -175s149 54 149 145c0 6 0 17 -1 28h48c1 -12 1 -26 1 -32
c0 -117 -77 -187 -197 -187z" />
    <glyph glyph-name="period" unicode="." horiz-adv-x="259" 
d="M100 0v100h59v-100h-59z" />
    <glyph glyph-name="colon" unicode=":" horiz-adv-x="259" 
d="M100 357v99h59v-99h-59zM100 0v100h59v-100h-59z" />
    <glyph glyph-name="comma" unicode="," horiz-adv-x="259" 
d="M56 -131v35c41 9 60 39 63 94v2h-22v100h59v-67c0 -101 -31 -151 -100 -164z" />
    <glyph glyph-name="semicolon" unicode=";" horiz-adv-x="259" 
d="M101 357v99h58v-99h-58zM58 -131v35c42 8 62 39 64 94v2h-21v100h58v-67c0 -101 -31 -151 -101 -164z" />
    <glyph glyph-name="periodcentered" unicode="&#xb7;" horiz-adv-x="268" 
d="M105 257v100h58v-100h-58z" />
    <glyph glyph-name="bullet" unicode="&#x2022;" horiz-adv-x="377" 
d="M189 230c-25 0 -46 23 -46 79s21 79 46 79s46 -23 46 -79s-21 -79 -46 -79z" />
    <glyph glyph-name="ellipsis" unicode="&#x2026;" horiz-adv-x="765" 
d="M105 0v100h58v-100h-58zM353 0v100h59v-100h-59zM601 0v100h58v-100h-58z" />
    <glyph glyph-name="numbersign" unicode="#" 
d="M578 431h-133l-35 -209h168v-49h-177l-29 -173h-38l29 173h-175l-29 -173h-39l29 173h-123v49h131l36 209h-167v49h175l30 178h38l-30 -178h176l30 178h39l-30 -178h124v-49zM371 222l36 209h-176l-35 -209h175z" />
    <glyph glyph-name="ampersand" unicode="&#x26;" horiz-adv-x="690" 
d="M648 44c3 0 8 0 14 1v-49c-5 -1 -12 -2 -19 -2c-55 0 -114 25 -171 71c-53 -47 -118 -75 -197 -75c-134 0 -218 83 -218 197c0 101 66 174 175 198c-23 51 -34 96 -34 133c0 94 58 150 150 150c89 0 144 -56 144 -139c0 -90 -65 -152 -188 -174l-1 -1
c44 -78 110 -160 169 -218c49 62 81 146 99 235h51c-19 -96 -57 -195 -114 -267c49 -40 97 -60 140 -60zM348 619c-58 0 -97 -38 -97 -101c0 -40 12 -79 32 -123c109 21 158 65 158 133c0 54 -35 91 -93 91zM111 187c0 -84 65 -148 166 -148c64 0 117 22 159 59
c-71 70 -140 161 -184 245h-2c-88 -19 -139 -76 -139 -156z" />
    <glyph glyph-name="at" unicode="@" horiz-adv-x="845" 
d="M421 -160c-233 0 -383 125 -383 367c0 277 182 463 409 463c246 0 360 -120 360 -310c0 -196 -88 -340 -191 -340c-72 0 -106 50 -86 150h-1c-28 -89 -83 -150 -175 -150c-94 0 -143 73 -143 170c0 136 85 300 228 300c65 0 109 -31 131 -70h1l16 62h48l-48 -257
c-8 -42 -13 -77 -13 -104c0 -40 15 -65 54 -65c74 0 145 141 145 304c0 175 -103 278 -326 278c-206 0 -375 -172 -375 -431c0 -220 131 -335 349 -335c101 0 200 17 257 40l2 -32c-62 -24 -162 -40 -259 -40zM363 66c89 0 158 92 184 232l14 77c-17 38 -62 69 -117 69
c-114 0 -181 -142 -181 -252c0 -75 35 -126 100 -126z" />
    <glyph glyph-name="asterisk" unicode="*" horiz-adv-x="474" 
d="M149 278l-32 18l89 162l-1 2l-145 43l10 37l146 -45l2 1v184h37v-184l2 -1l147 45l9 -37l-144 -43l-1 -2l89 -162l-32 -18l-87 157h-3z" />
    <glyph glyph-name="percent" unicode="%" 
d="M170 376c-82 0 -131 51 -131 146c0 89 49 145 131 145c81 0 131 -56 131 -145c0 -95 -50 -146 -131 -146zM39 0l484 658h42l-485 -658h-41zM170 411c57 0 93 36 93 111c0 71 -37 110 -93 110c-57 0 -93 -39 -93 -110c0 -75 35 -111 93 -111zM434 -9
c-81 0 -130 51 -130 146c0 89 49 145 130 145c83 0 132 -56 132 -145c0 -95 -50 -146 -132 -146zM434 26c58 0 93 37 93 111c0 71 -36 111 -93 111s-92 -40 -92 -111c0 -74 35 -111 92 -111z" />
    <glyph glyph-name="perthousand" unicode="&#x2030;" horiz-adv-x="913" 
d="M168 376c-81 0 -131 51 -131 146c0 89 49 145 131 145s131 -56 131 -145c0 -95 -49 -146 -131 -146zM37 0l485 658h41l-485 -658h-41zM168 411c57 0 93 36 93 111c0 71 -36 110 -93 110s-93 -39 -93 -110c0 -75 35 -111 93 -111zM433 -9c-82 0 -131 51 -131 146
c0 89 49 145 131 145s131 -56 131 -145c0 -95 -50 -146 -131 -146zM750 -9c-81 0 -130 51 -130 146c0 89 49 145 130 145c83 0 132 -56 132 -145c0 -95 -49 -146 -132 -146zM433 26c57 0 92 37 92 111c0 71 -36 111 -92 111c-57 0 -93 -40 -93 -111c0 -74 35 -111 93 -111z
M750 26c58 0 93 37 93 111c0 71 -35 111 -93 111c-56 0 -91 -40 -91 -111c0 -74 35 -111 91 -111z" />
    <glyph glyph-name="currency" unicode="&#xa4;" 
d="M95 55l-27 21l97 114c-37 32 -59 82 -59 141c0 58 21 106 57 138l-95 111l26 22l100 -113c29 18 67 28 109 28c41 0 78 -10 107 -28l99 113l26 -22l-94 -110c37 -33 58 -81 58 -139c0 -59 -22 -110 -60 -142l96 -113l-26 -21l-101 115c-29 -18 -65 -27 -105 -27
c-42 0 -79 9 -108 27zM303 185c89 0 149 58 149 146c0 87 -60 144 -149 144c-90 0 -150 -57 -150 -144c0 -88 60 -146 150 -146z" />
    <glyph glyph-name="Euro" unicode="&#x20ac;" 
d="M406 580c-122 0 -208 -67 -235 -181h317l-9 -32h-313c-2 -15 -3 -30 -3 -46c0 -12 1 -24 2 -36h287l-9 -32h-273c22 -111 104 -175 220 -175c46 0 98 9 126 24v-49c-33 -15 -88 -24 -134 -24c-144 0 -244 83 -268 224h-76l12 32h60c-1 11 -1 23 -1 35c0 16 1 32 2 47h-73
l12 32h66c28 144 135 230 290 230c51 0 104 -10 139 -26l-14 -47c-32 13 -79 24 -125 24z" />
    <glyph glyph-name="dollar" unicode="$" 
d="M549 203c0 -87 -56 -152 -180 -169v-107h-28v104c-13 -1 -27 -2 -42 -2c-13 0 -26 0 -38 1v-103h-29v106c-142 21 -177 109 -177 191h52c0 -60 25 -124 125 -142v233c-49 8 -96 20 -122 37c-33 20 -52 56 -52 106c0 84 64 148 174 166v107h29v-103c11 1 23 1 35 1
c16 0 31 -1 45 -2v104h28v-108c106 -18 157 -81 157 -194h-51c0 86 -36 130 -106 146v-231c45 -7 89 -16 118 -31c42 -21 62 -61 62 -110zM297 582c-13 0 -25 -1 -36 -2v-222c18 -3 37 -5 54 -7l26 -3v232c-14 1 -28 2 -44 2zM151 386c18 -9 48 -17 81 -23v213
c-75 -15 -120 -56 -120 -115c0 -37 13 -61 39 -75zM298 76c15 0 30 1 43 2v223l-55 6c-8 1 -17 2 -25 3v-232c12 -1 24 -2 37 -2zM369 81c85 15 126 57 126 119c0 36 -12 62 -45 77c-19 9 -49 15 -81 20v-216z" />
    <glyph glyph-name="dollar.ss06" 
d="M549 203c0 -99 -72 -169 -233 -174v-102h-28v102c-190 4 -233 103 -233 195h52c0 -70 33 -145 181 -148v231h-2c-66 8 -140 22 -176 45c-33 20 -52 56 -52 106c0 97 86 168 230 171v102h28v-102c142 -6 210 -70 210 -200h-51c0 105 -54 148 -159 153v-231
c60 -7 130 -17 171 -38c42 -21 62 -61 62 -110zM151 386c27 -14 85 -25 137 -32v228c-109 -3 -176 -49 -176 -121c0 -37 13 -61 39 -75zM316 76c122 4 179 51 179 124c0 36 -12 62 -45 77c-29 13 -85 21 -134 27v-228z" />
    <glyph glyph-name="cent" unicode="&#xa2;" 
d="M310 121c111 0 188 60 189 158h50c0 -128 -97 -207 -241 -207c-13 0 -26 1 -39 2l-25 -104h-33l26 110c-112 26 -183 116 -183 249c0 159 102 257 259 257c16 0 31 -1 46 -3l25 105h32l-27 -111c98 -23 160 -95 160 -198h-50c-1 77 -48 131 -121 150l-97 -406
c9 -1 19 -2 29 -2zM108 329c0 -106 55 -178 141 -201l98 407c-10 1 -22 2 -33 2c-124 0 -206 -79 -206 -208z" />
    <glyph glyph-name="sterling" unicode="&#xa3;" 
d="M551 219c2 -9 4 -29 4 -48c0 -88 -55 -142 -135 -142c-57 0 -115 27 -169 59l-7 4c-21 -39 -57 -63 -104 -63c-60 0 -93 31 -93 75c0 41 29 71 82 71c29 0 59 -9 91 -23c1 8 1 15 1 23c0 31 -13 70 -36 112h-124v32h105c0 1 -1 1 -1 2c-40 62 -64 111 -64 158
c0 86 81 150 217 150c135 0 215 -63 215 -174c0 -24 -2 -49 -4 -61h-51c2 16 5 36 5 57c0 84 -62 129 -164 129c-103 0 -164 -45 -164 -105c0 -41 22 -82 56 -140l9 -16h216v-32h-199c17 -38 27 -74 27 -105c0 -17 -2 -33 -5 -48l3 -2c55 -30 109 -54 153 -54
c53 0 90 35 90 97c0 16 -3 33 -5 44h51zM138 61c32 0 57 19 71 49c-30 14 -59 22 -81 22c-30 0 -46 -15 -46 -34c0 -21 20 -37 56 -37z" />
    <glyph glyph-name="yen" unicode="&#xa5;" 
d="M559 619l-197 -295h180v-32h-201l-12 -18v-63h213v-32h-213v-140h-54v140h-213v32h213v63l-12 18h-201v32h180l-197 295h66l193 -296h2l193 296h60z" />
    <glyph glyph-name="florin" unicode="&#x192;" 
d="M547 395v-48h-212l-29 -264c-13 -118 -66 -177 -162 -177c-40 0 -75 8 -90 14v47c15 -5 48 -12 84 -12c68 0 104 43 114 133l29 259h-143v48h148l5 47c14 117 65 177 166 177c37 0 72 -8 87 -13v-48c-15 5 -47 12 -83 12c-71 0 -107 -45 -116 -133l-5 -42h207z" />
    <glyph glyph-name="franc" unicode="&#x20a3;" 
d="M511 570h-340v-187h287v-42h-287v-144h165v-32h-165v-126h-54v126h-86v32h86v422h394v-49z" />
    <glyph glyph-name="peseta" unicode="&#x20a7;" 
d="M591 391v-33h-71c-10 -126 -94 -195 -237 -195h-128v-124h-54v319h-87v33h87v228h175c152 0 242 -82 245 -228h70zM155 571v-180h317c-4 117 -77 180 -197 180h-120zM283 203c113 0 180 53 188 155h-316v-155h128z" />
    <glyph glyph-name="uni20AA" unicode="&#x20aa;" 
d="M58 39v494h246c66 0 93 -30 93 -87v-297h-40v289c0 38 -17 57 -65 57h-194v-456h-40zM207 39v384h40v-346h195c47 0 64 24 64 65v391h40v-396c0 -61 -28 -98 -94 -98h-245z" />
    <glyph glyph-name="uni20BD" unicode="&#x20bd;" 
d="M309 245h-143v-65h266v-32h-266v-109h-54v109h-72v32h72v65h-72v32h72v342h189c144 0 227 -72 227 -199c0 -113 -69 -175 -219 -175zM166 570v-293h143c112 0 167 48 167 139c0 97 -64 154 -174 154h-136z" />
    <glyph glyph-name="lira.turk" unicode="&#x20ba;" 
d="M536 316c1 -18 1 -35 1 -40c0 -153 -88 -237 -281 -237h-104v282l-114 -31v34l114 31v80l-114 -31v34l114 31v150h54v-136l202 55v-33l-202 -55v-81l202 55v-34l-202 -55v-247h54c158 0 226 66 226 187c0 8 0 20 -1 41h51z" />
    <glyph glyph-name="registered" unicode="&#xae;" horiz-adv-x="806" 
d="M403 -126c-197 0 -369 159 -369 399s172 399 369 399s369 -159 369 -399s-172 -399 -369 -399zM403 -74c168 0 317 135 317 347s-149 347 -317 347s-316 -135 -316 -347s148 -347 316 -347zM260 71v413h145c96 0 144 -45 144 -114c0 -45 -12 -75 -48 -93v-2
c37 -15 48 -43 48 -79v-125h-73v121c0 32 -13 49 -51 49h-92v-170h-73zM333 301h77c49 0 66 20 66 59c0 36 -15 58 -71 58h-72v-117z" />
    <glyph glyph-name="copyright" unicode="&#xa9;" horiz-adv-x="806" 
d="M403 -126c-197 0 -369 159 -369 399s172 399 369 399s369 -159 369 -399s-172 -399 -369 -399zM403 -74c168 0 317 135 317 347s-149 347 -317 347s-316 -135 -316 -347s148 -347 316 -347zM410 61c-119 0 -190 85 -190 217c0 142 89 216 185 216c111 0 170 -66 170 -157
h-71c-5 56 -42 91 -99 91c-70 0 -112 -63 -112 -150c0 -90 47 -150 117 -150c51 0 89 26 95 86h71c-3 -89 -65 -153 -166 -153z" />
    <glyph glyph-name="trademark" unicode="&#x2122;" horiz-adv-x="792" 
d="M151 318v286h-109v54h279v-54h-110v-286h-60zM375 318v340h94l71 -173h2l70 173h95v-340h-61v262l-6 1l-91 -221h-17l-91 221l-5 -1v-262h-61z" />
    <glyph glyph-name="dagger" unicode="&#x2020;" 
d="M285 -40l-12 275l8 179h-2l-90 -7h-92v47h92l89 -8h3v15l-5 150v61h52v-61l-5 -150v-15h3l89 8h92v-47h-92l-91 7h-1l8 -179l-12 -275h-34z" />
    <glyph glyph-name="daggerdbl" unicode="&#x2021;" 
d="M276 -40v61l5 120v14h-3l-89 -7h-92v47h92l90 -8h2l-8 129l8 129h-2l-90 -8h-92v47h92l89 -7h3v14l-5 120v61h52v-61l-5 -120v-14h3l89 7h92v-47h-92l-91 8h-1l8 -129l-8 -129h1l91 8h92v-47h-92l-89 7h-3v-14l5 -120v-61h-52z" />
    <glyph glyph-name="paragraph" unicode="&#xb6;" 
d="M336 -96v276h-80c-118 0 -190 73 -190 192c0 129 83 208 219 208h256v-676h-43v634h-119v-634h-43zM265 222h71v316h-50c-107 0 -170 -63 -170 -165c0 -93 54 -151 149 -151z" />
    <glyph glyph-name="section" unicode="&#xa7;" 
d="M300 -126c-126 0 -184 59 -184 160h50c0 -71 38 -111 134 -111c90 0 144 34 144 96c0 33 -14 54 -40 65c-49 21 -180 35 -229 55c-45 18 -72 55 -72 99c0 51 32 90 80 98v2c-9 3 -17 7 -25 12c-35 20 -52 59 -52 99c0 89 76 145 197 145c125 0 184 -59 184 -160h-50
c0 71 -38 111 -134 111c-88 0 -143 -35 -143 -92c0 -29 14 -56 39 -69c48 -22 172 -34 229 -55c44 -17 73 -50 73 -98c0 -50 -32 -88 -80 -98v-1c12 -4 20 -8 27 -12c34 -22 50 -57 50 -98c0 -91 -77 -148 -198 -148zM361 148c52 2 86 30 86 73c0 35 -20 58 -57 69
c-29 9 -104 23 -149 31c-51 -3 -84 -31 -84 -73c0 -32 18 -58 56 -70c26 -9 91 -20 148 -30z" />
    <glyph glyph-name="estimated" unicode="&#x212e;" horiz-adv-x="855" 
d="M428 -14c-211 0 -383 152 -383 343c0 190 172 343 383 343s382 -153 382 -343v-22h-619c-3 0 -5 -1 -5 -4v-153c0 -8 3 -16 8 -22c59 -63 143 -100 235 -100c88 0 167 34 226 91h76c-69 -82 -180 -133 -303 -133zM191 349h475c3 0 5 2 5 5v157c0 9 -4 17 -10 23
c-60 60 -142 96 -232 96c-92 0 -174 -37 -234 -99c-5 -6 -9 -15 -9 -24v-153c0 -3 2 -5 5 -5z" />
    <glyph glyph-name="uni2113" unicode="&#x2113;" 
d="M365 40c43 0 77 14 88 20v-50c-15 -8 -51 -19 -91 -19c-89 0 -146 44 -172 142c-36 -13 -75 -24 -118 -30v44c39 7 75 17 109 31c-5 33 -8 72 -8 115v179c0 159 32 246 141 246c87 0 137 -68 137 -214c0 -145 -70 -276 -211 -349c19 -82 62 -115 125 -115zM227 289
c0 -32 1 -61 4 -86c105 61 169 164 169 299c0 115 -35 167 -85 167c-68 0 -88 -67 -88 -193v-187z" />
    <glyph glyph-name="parenleft" unicode="(" horiz-adv-x="247" 
d="M186 -146c-86 97 -146 251 -146 430c0 178 60 342 147 440h49c-87 -100 -151 -267 -151 -440s64 -330 151 -430h-50z" />
    <glyph glyph-name="parenright" unicode=")" horiz-adv-x="247" 
d="M10 -146c87 100 151 257 151 430s-64 340 -151 440h49c87 -98 148 -262 148 -440c0 -179 -60 -333 -147 -430h-50z" />
    <glyph glyph-name="bracketleft" unicode="[" horiz-adv-x="327" 
d="M70 -184v971h246v-34h-195v-903h195v-34h-246z" />
    <glyph glyph-name="bracketright" unicode="]" horiz-adv-x="327" 
d="M12 -184v34h194v903h-194v34h246v-971h-246z" />
    <glyph glyph-name="braceleft" unicode="{" horiz-adv-x="359" 
d="M335 -181c-149 0 -227 29 -227 133c0 82 60 157 60 230c0 48 -31 84 -79 84h-63v36h63c48 0 79 36 79 84c0 74 -60 147 -60 230c0 104 78 133 227 133v-35c-121 0 -178 -23 -178 -98c0 -71 59 -149 59 -225c0 -48 -29 -92 -78 -106v-3c49 -13 78 -57 78 -105
c0 -77 -59 -150 -59 -225s57 -98 178 -98v-35z" />
    <glyph glyph-name="braceright" unicode="}" horiz-adv-x="359" 
d="M23 -181v35c122 0 179 23 179 98s-59 148 -59 225c0 48 28 92 78 105v3c-50 14 -78 58 -78 106c0 76 59 154 59 225c0 75 -57 98 -179 98v35c150 0 228 -29 228 -133c0 -83 -61 -156 -61 -230c0 -48 32 -84 80 -84h63v-36h-63c-48 0 -80 -36 -80 -84
c0 -73 61 -148 61 -230c0 -104 -78 -133 -228 -133z" />
    <glyph glyph-name="less" unicode="&#x3c;" 
d="M497 40l-390 232v32l390 232v-51l-333 -196v-2l333 -196v-51z" />
    <glyph glyph-name="greater" unicode="&#x3e;" 
d="M107 40v51l333 196v2l-333 196v51l390 -232v-32z" />
    <glyph glyph-name="lessequal" unicode="&#x2264;" 
d="M497 149l-390 193v32l390 192v-49l-329 -158v-2l329 -159v-49zM109 51v41h388v-41h-388z" />
    <glyph glyph-name="greaterequal" unicode="&#x2265;" 
d="M107 149v49l329 159v2l-329 158v49l390 -192v-32zM107 51v41h388v-41h-388z" />
    <glyph glyph-name="guilsinglleft" unicode="&#x2039;" horiz-adv-x="365" 
d="M233 59l-157 221l157 221h51l-158 -221l158 -221h-51z" />
    <glyph glyph-name="guilsinglright" unicode="&#x203a;" horiz-adv-x="365" 
d="M81 59l158 221l-158 221h51l157 -221l-157 -221h-51z" />
    <glyph glyph-name="guillemotleft" unicode="&#xab;" horiz-adv-x="593" 
d="M232 59l-158 221l158 221h50l-158 -221l158 -221h-50zM429 59l-157 221l157 221h51l-158 -221l158 -221h-51z" />
    <glyph glyph-name="guillemotright" unicode="&#xbb;" horiz-adv-x="593" 
d="M113 59l158 221l-158 221h51l158 -221l-158 -221h-51zM311 59l158 221l-158 221h50l159 -221l-159 -221h-50z" />
    <glyph glyph-name="plus" unicode="+" 
d="M281 55v207h-204v42h204v207h42v-207h204v-42h-204v-207h-42z" />
    <glyph glyph-name="plusminus" unicode="&#xb1;" 
d="M281 161v191h-204v42h204v190h42v-190h204v-42h-204v-191h-42zM77 55v41h450v-41h-450z" />
    <glyph glyph-name="hyphen" unicode="-" horiz-adv-x="289" 
d="M37 262v42h215v-42h-215z" />
    <glyph glyph-name="endash" unicode="&#x2013;" horiz-adv-x="585" 
d="M40 262v42h506v-42h-506z" />
    <glyph glyph-name="emdash" unicode="&#x2014;" horiz-adv-x="750" 
d="M40 262v42h671v-42h-671z" />
    <glyph glyph-name="equal" unicode="=" 
d="M76 333v42h452v-42h-452zM76 182v41h452v-41h-452z" />
    <glyph glyph-name="notequal" unicode="&#x2260;" 
d="M119 123l27 92h38l26 66h-60l25 86h48l32 82h126l-4 -16h107l-28 -92h-39l-27 -66h63l-26 -86h-50l-30 -79h-128l3 13h-103z" />
    <glyph glyph-name="minus" unicode="&#x2212;" 
d="M76 262v42h452v-42h-452z" />
    <glyph glyph-name="multiply" unicode="&#xd7;" 
d="M100 102l-25 32l193 149l-193 149l25 32l202 -154l201 154l26 -32l-194 -149l194 -149l-26 -32l-201 153z" />
    <glyph glyph-name="divide" unicode="&#xf7;" 
d="M274 400v98h55v-98h-55zM76 262v42h452v-42h-452zM274 68v98h55v-98h-55z" />
    <glyph glyph-name="logicalnot" unicode="&#xac;" 
d="M489 87v175h-413v42h455v-217h-42z" />
    <glyph glyph-name="approxequal" unicode="&#x2248;" 
d="M416 283c63 0 111 39 134 55v-75c-24 -19 -72 -53 -131 -53c-82 0 -150 78 -232 78c-68 0 -119 -44 -133 -56v76c15 14 66 53 130 53c89 0 158 -78 232 -78z" />
    <glyph glyph-name="infinity" unicode="&#x221e;" horiz-adv-x="650" 
d="M172 58c-79 0 -124 68 -124 229c0 160 44 229 124 229c57 0 90 -49 116 -109l35 -78h2l36 78c27 60 60 109 116 109c81 0 126 -69 126 -229c0 -161 -46 -229 -126 -229c-55 0 -90 50 -116 111l-36 75h-2l-35 -75c-26 -60 -61 -111 -116 -111zM174 101c38 0 62 43 84 94
l44 92l-44 95c-21 49 -45 91 -84 91c-55 0 -86 -55 -86 -186s32 -186 86 -186zM476 101c54 0 87 55 87 186s-32 186 -87 186c-40 0 -63 -40 -85 -91l-44 -95l43 -92c24 -52 47 -94 86 -94z" />
    <glyph glyph-name="backslash" unicode="\" horiz-adv-x="297" 
d="M257 -200l-257 940h39l256 -940h-38z" />
    <glyph glyph-name="bar" unicode="|" horiz-adv-x="204" 
d="M84 -200v940h36v-940h-36z" />
    <glyph glyph-name="slash" unicode="/" horiz-adv-x="296" 
d="M-25 -200l307 940h40l-308 -940h-39z" />
    <glyph glyph-name="brokenbar" unicode="&#xa6;" horiz-adv-x="204" 
d="M84 363v377h36v-377h-36zM84 -200v378h36v-378h-36z" />
    <glyph glyph-name="degree" unicode="&#xb0;" horiz-adv-x="431" 
d="M215 321c-109 0 -177 72 -177 175c0 100 68 176 177 176s179 -76 179 -176c0 -103 -70 -175 -179 -175zM215 362c80 0 135 56 135 134c0 76 -55 133 -135 133c-81 0 -134 -57 -134 -133c0 -78 53 -134 134 -134z" />
    <glyph glyph-name="fraction" unicode="&#x2044;" horiz-adv-x="115" 
d="M-92 -47l-29 14l328 738l30 -14z" />
    <glyph glyph-name="underscore" unicode="_" horiz-adv-x="593" 
d="M0 -144v41h593v-41h-593z" />
    <glyph glyph-name="zero" unicode="0" 
d="M302 -9c-157 0 -254 129 -254 341c0 208 97 335 254 335s254 -127 254 -335c0 -212 -97 -341 -254 -341zM302 42c123 0 198 109 198 290c0 177 -75 284 -198 284s-198 -107 -198 -284c0 -181 75 -290 198 -290z" />
    <glyph glyph-name="one" unicode="1" 
d="M61 0v51h234v388h-159v43l104 1c56 1 60 12 60 183h50v-615h193v-51h-482z" />
    <glyph glyph-name="two" unicode="2" 
d="M65 0c0 121 23 155 202 239c160 76 204 118 204 224c0 93 -65 153 -169 153c-115 0 -181 -71 -181 -183c0 -35 4 -68 7 -83h-52c-3 15 -7 48 -7 85c0 142 87 232 234 232c137 0 224 -81 224 -204c0 -114 -50 -177 -231 -262c-154 -73 -174 -96 -175 -150h417v-51h-473z
" />
    <glyph glyph-name="three" unicode="3" 
d="M295 -9c-146 0 -245 76 -245 201c0 11 1 29 2 45h52c-1 -20 -1 -32 -1 -38c0 -101 74 -157 192 -157c122 0 203 59 203 159c0 76 -61 117 -157 117h-92v42h81c86 0 139 45 139 119c0 86 -70 137 -168 137c-114 0 -184 -58 -184 -154c0 -17 1 -33 2 -44h-51
c-2 11 -3 31 -3 51c0 122 90 198 236 198c132 0 222 -69 222 -183c0 -69 -43 -124 -108 -136v-2c82 -9 138 -67 138 -148c0 -126 -102 -207 -258 -207z" />
    <glyph glyph-name="four" unicode="4" 
d="M418 0v167h-379v52l368 439h66v-441h113v-50h-113v-167h-55zM99 217h319v378h-2l-317 -377v-1z" />
    <glyph glyph-name="five" unicode="5" 
d="M301 -9c-137 0 -240 67 -240 176c0 7 1 16 2 23h52c-1 -10 -1 -16 -1 -21c0 -79 81 -127 187 -127c117 0 191 74 191 180c0 101 -73 162 -186 162c-84 0 -153 -37 -179 -99l-55 6l26 367h410v-51h-363l-21 -275h2c24 59 97 98 190 98c142 0 231 -81 231 -208
c0 -137 -97 -231 -246 -231z" />
    <glyph glyph-name="six" unicode="6" 
d="M316 -9c-184 0 -266 111 -266 334c0 220 94 342 262 342c139 0 222 -73 222 -198c0 -12 -1 -26 -2 -34h-52c1 8 2 20 2 34c0 93 -63 147 -170 147c-135 0 -207 -99 -207 -289c0 -33 1 -64 2 -82h2c9 79 89 135 212 135c152 0 234 -68 234 -180c0 -130 -95 -209 -239 -209
zM317 40c111 0 183 60 183 159c0 85 -65 135 -183 135c-124 0 -199 -62 -199 -146c16 -91 87 -148 199 -148z" />
    <glyph glyph-name="seven" unicode="7" 
d="M157 0c61 234 196 456 345 605v1h-459v52h524v-47c-181 -186 -286 -379 -348 -611h-62z" />
    <glyph glyph-name="eight" unicode="8" 
d="M302 -9c-153 0 -252 73 -252 192c0 83 59 145 150 159v1c-75 13 -122 71 -122 143c0 113 88 181 224 181s224 -68 224 -181c0 -72 -47 -130 -122 -143v-1c90 -14 150 -76 150 -159c0 -119 -99 -192 -252 -192zM302 360c103 0 171 49 171 126c0 82 -68 132 -171 132
s-171 -50 -171 -132c0 -77 68 -126 171 -126zM302 40c120 0 197 55 197 143c0 82 -77 134 -197 134s-197 -52 -197 -134c0 -88 77 -143 197 -143z" />
    <glyph glyph-name="nine" unicode="9" 
d="M301 -9c-145 0 -238 70 -238 185c0 8 0 20 1 32h53c-1 -11 -1 -21 -1 -28c0 -88 71 -139 184 -139c132 0 200 99 200 289c0 28 -1 57 -4 81h-2c-11 -91 -92 -155 -209 -155c-145 0 -237 76 -237 195c0 131 95 216 244 216c165 0 264 -90 264 -331
c0 -227 -90 -345 -255 -345zM287 302c118 0 197 71 198 175c-18 91 -87 140 -193 140c-115 0 -188 -65 -188 -166c0 -92 73 -149 183 -149z" />
    <glyph glyph-name="summation" unicode="&#x2211;" 
d="M52 -112v48l298 345v1l-298 329v47h502v-52h-421v-1l289 -320v-1l-296 -343v-1h431v-52h-505z" />
    <glyph glyph-name="uni2206" unicode="&#x2206;" horiz-adv-x="712" 
d="M45 0l278 658h66l278 -658h-622zM126 52h455l-227 546h-2z" />
    <glyph glyph-name="product" unicode="&#x220f;" horiz-adv-x="676" 
d="M146 -106v712h-117v52h618v-52h-118v-712h-56v712h-270v-712h-57z" />
    <glyph glyph-name="uni2126" unicode="&#x2126;" horiz-adv-x="733" 
d="M47 0v52h216v27c-114 27 -215 129 -215 276c0 192 143 313 318 313c176 0 319 -121 319 -313c0 -147 -101 -249 -215 -276v-27h216v-52h-262v97c103 25 205 119 205 258c0 161 -122 261 -263 261s-262 -100 -262 -261c0 -139 102 -233 205 -258v-97h-262z" />
    <glyph glyph-name="uni00B5" unicode="&#xb5;" 
d="M48 -198v692h54v-285c0 -105 55 -167 158 -167c108 0 197 80 197 218v234h54v-335c0 -84 17 -118 56 -118c10 0 19 2 22 3v-47c-4 -2 -17 -5 -33 -5c-56 0 -91 36 -96 146h-1c-26 -96 -108 -145 -199 -145c-83 0 -139 37 -157 87h-1v-278h-54z" />
    <glyph glyph-name="partialdiff" unicode="&#x2202;" 
d="M136 707c257 -32 411 -188 411 -422c0 -181 -95 -293 -245 -293c-149 0 -245 97 -245 254c0 156 92 256 231 256c83 0 150 -38 189 -103c-43 148 -170 239 -360 269zM302 41c116 0 191 91 191 238v9c-20 102 -100 165 -203 165c-106 0 -179 -81 -179 -207
c0 -127 75 -205 191 -205z" />
    <glyph glyph-name="pi" unicode="&#x3c0;" 
d="M520 -8c-92 0 -125 51 -125 154v299h-213v-445h-54v445h-111v49h567v-49h-135v-298c0 -76 23 -106 80 -106c22 0 40 6 48 9v-47c-10 -5 -30 -11 -57 -11z" />
    <glyph glyph-name="integral" unicode="&#x222b;" 
d="M177 -240c-41 0 -80 7 -98 13v39c19 -6 57 -14 92 -14c81 0 135 35 135 129c0 32 -3 87 -11 159l-33 341c-6 61 -11 135 -11 165c0 114 68 168 176 168c39 0 79 -6 97 -10v-39c-19 5 -58 11 -92 11c-82 0 -135 -37 -135 -129c0 -32 6 -104 11 -163l34 -341
c7 -70 11 -132 11 -161c0 -114 -68 -168 -176 -168z" />
    <glyph glyph-name="lozenge" unicode="&#x25ca;" 
d="M281 -54l-221 322l221 322h42l221 -322l-221 -322h-42zM301 -2h2l186 270l-186 270h-2l-186 -270z" />
    <glyph glyph-name="radical" unicode="&#x221a;" 
d="M297 -98l-121 425h-136v39h170l116 -411h3l203 795h46l-218 -848h-63z" />
    <glyph glyph-name="asciitilde" unicode="~" 
d="M426 176c-49 0 -85 24 -113 61l-50 67c-24 31 -46 53 -84 53c-42 0 -72 -27 -72 -95v-79h-42v83c0 93 48 132 113 132c49 0 83 -24 113 -61l50 -67c24 -31 46 -53 84 -53c39 0 72 22 72 95v79h42v-82c0 -100 -52 -133 -113 -133z" />
    <glyph glyph-name="asciicircum" unicode="^" 
d="M60 354l224 318h36l224 -318h-52l-189 270h-2l-189 -270h-52z" />
    <glyph glyph-name="A" unicode="A" horiz-adv-x="698" 
d="M600 0l-70 167h-368l-70 -167h-60l284 658h67l283 -658h-66zM181 211h331l-164 393h-2z" />
    <glyph glyph-name="B" unicode="B" horiz-adv-x="628" 
d="M78 0v658h256c145 0 215 -65 215 -171c0 -76 -36 -132 -116 -142v-1c94 -10 140 -70 140 -155c0 -118 -64 -189 -211 -189h-284zM134 361h218c100 0 144 45 144 119c0 79 -50 127 -162 127h-200v-246zM134 51h226c115 0 158 53 158 142c0 76 -52 125 -159 125h-225v-267z
" />
    <glyph glyph-name="C" unicode="C" horiz-adv-x="720" 
d="M380 -10c-185 0 -325 129 -325 338c0 210 137 340 324 340c163 0 284 -100 284 -252v-24h-53v21c0 123 -101 203 -231 203c-152 0 -268 -109 -268 -288c0 -177 119 -286 269 -286c131 0 233 78 233 197v11h53v-13c0 -149 -123 -247 -286 -247z" />
    <glyph glyph-name="D" unicode="D" horiz-adv-x="686" 
d="M78 0v658h232c195 0 322 -119 322 -328c0 -210 -120 -330 -302 -330h-252zM134 52h195c148 0 246 100 246 278c0 176 -105 276 -264 276h-177v-554z" />
    <glyph glyph-name="E" unicode="E" horiz-adv-x="547" 
d="M78 0v658h421v-52h-365v-253h299v-44h-299v-257h374v-52h-430z" />
    <glyph glyph-name="F" unicode="F" horiz-adv-x="524" 
d="M78 0v658h413v-52h-357v-266h308v-45h-308v-295h-56z" />
    <glyph glyph-name="G" unicode="G" horiz-adv-x="731" 
d="M380 -10c-183 0 -325 126 -325 332c0 212 143 346 325 346c159 0 278 -87 278 -234c0 -14 0 -32 -1 -46h-53c1 12 2 28 2 43c0 117 -100 185 -226 185c-149 0 -269 -112 -269 -294c0 -175 123 -283 269 -283c133 0 228 80 228 200v23h-258v44h314v-306h-53
c1 21 4 72 6 141h-1c-22 -93 -113 -151 -236 -151z" />
    <glyph glyph-name="H" unicode="H" horiz-adv-x="709" 
d="M78 0v658h56v-290h441v290h56v-658h-56v320h-441v-320h-56z" />
    <glyph glyph-name="I" unicode="I" horiz-adv-x="221" 
d="M82 0v658h57v-658h-57z" />
    <glyph glyph-name="J" unicode="J" horiz-adv-x="599" 
d="M289 -10c-146 0 -230 86 -230 239c0 35 2 79 3 102h53c-1 -25 -3 -64 -3 -102c0 -121 63 -187 176 -187s181 69 181 235v381h57v-379c0 -198 -90 -289 -237 -289z" />
    <glyph glyph-name="K" unicode="K" horiz-adv-x="695" 
d="M78 0v658h56v-422h2l438 422h76l-321 -308l337 -350h-79l-300 312l-153 -142v-170h-56z" />
    <glyph glyph-name="L" unicode="L" horiz-adv-x="528" 
d="M78 0v658h56v-606h363v-52h-419z" />
    <glyph glyph-name="M" unicode="M" horiz-adv-x="807" 
d="M78 0v658h95l230 -582h1l232 582h94v-658h-57l1 619h-2l-246 -619h-48l-246 619h-1l1 -619h-54z" />
    <glyph glyph-name="N" unicode="N" horiz-adv-x="706" 
d="M78 0v658h91l403 -582h2v582h54v-658h-67l-428 617h-1v-617h-54z" />
    <glyph glyph-name="O" unicode="O" horiz-adv-x="764" 
d="M382 -10c-181 0 -327 129 -327 342c0 209 146 336 327 336s328 -127 328 -336c0 -213 -147 -342 -328 -342zM382 42c147 0 271 109 271 290c0 177 -124 284 -271 284s-271 -107 -271 -284c0 -181 124 -290 271 -290z" />
    <glyph glyph-name="P" unicode="P" horiz-adv-x="626" 
d="M78 0v658h254c150 0 240 -83 240 -217c0 -137 -87 -213 -230 -213h-208v-228h-56zM134 273h204c111 0 179 57 179 165c0 106 -69 168 -187 168h-196v-333z" />
    <glyph glyph-name="Q" unicode="Q" horiz-adv-x="766" 
d="M382 -10c-181 0 -327 129 -327 342c0 209 146 336 327 336c183 0 328 -129 328 -336c0 -160 -93 -265 -202 -295v-2c60 2 136 3 191 5v-50h-317zM382 42c147 0 271 109 271 290c0 177 -124 284 -271 284s-271 -107 -271 -284c0 -181 124 -290 271 -290z" />
    <glyph glyph-name="R" unicode="R" horiz-adv-x="645" 
d="M78 0v658h271c155 0 231 -68 231 -185c0 -84 -37 -148 -127 -158v-2c93 -10 123 -72 123 -155v-158h-57v158c0 78 -35 129 -149 129h-236v-287h-56zM134 330h216c128 0 175 55 175 139c0 89 -58 137 -176 137h-215v-276z" />
    <glyph glyph-name="S" unicode="S" horiz-adv-x="635" 
d="M314 -10c-210 0 -257 117 -257 234h53c0 -100 42 -185 204 -185c166 0 210 69 210 141c0 46 -20 74 -57 90s-113 26 -171 34c-62 7 -141 23 -178 45c-37 23 -63 65 -63 125c0 113 100 194 255 194c184 0 247 -86 247 -239h-53c0 126 -56 190 -193 190
c-121 0 -200 -58 -200 -141c0 -46 18 -74 48 -91c33 -18 116 -30 171 -38c64 -9 136 -20 179 -42c44 -21 71 -65 71 -124c0 -97 -58 -193 -266 -193z" />
    <glyph glyph-name="T" unicode="T" horiz-adv-x="563" 
d="M253 0v607h-226v51h510v-51h-227v-607h-57z" />
    <glyph glyph-name="U" unicode="U" horiz-adv-x="684" 
d="M343 -10c-167 0 -269 97 -269 245v423h56v-423c0 -119 81 -193 215 -193c133 0 214 74 214 193v423h51v-423c0 -148 -101 -245 -267 -245z" />
    <glyph glyph-name="V" unicode="V" horiz-adv-x="682" 
d="M307 0l-279 658h63l250 -601h3l249 601h61l-280 -658h-67z" />
    <glyph glyph-name="W" unicode="W" horiz-adv-x="989" 
d="M251 0l-223 658h61l194 -585h3l181 576h59l180 -576h3l195 585h57l-224 -658h-62l-178 567h-3l-180 -567h-63z" />
    <glyph glyph-name="X" unicode="X" horiz-adv-x="635" 
d="M29 0l254 334l-247 324h71l214 -286l212 286h66l-246 -322l253 -336h-70l-221 296l-219 -296h-67z" />
    <glyph glyph-name="Y" unicode="Y" horiz-adv-x="652" 
d="M297 0v269l-269 389h69l231 -340h2l231 340h63l-270 -389v-269h-57z" />
    <glyph glyph-name="Z" unicode="Z" horiz-adv-x="595" 
d="M51 0v41l420 564v1h-411v52h484v-43l-419 -562v-1h414v-52h-488z" />
    <glyph glyph-name="Aacute" unicode="&#xc1;" horiz-adv-x="698" 
d="M461 853l-98 -139h-47l83 139h62zM600 0l-70 167h-368l-70 -167h-60l284 658h67l283 -658h-66zM181 211h331l-164 393h-2z" />
    <glyph glyph-name="Abreve" unicode="&#x102;" horiz-adv-x="698" 
d="M349 724c-94 0 -128 63 -128 114v15h41v-12c0 -39 24 -79 87 -79s87 40 87 79v12h41v-15c0 -51 -35 -114 -128 -114zM600 0l-70 167h-368l-70 -167h-60l284 658h67l283 -658h-66zM181 211h331l-164 393h-2z" />
    <glyph glyph-name="Acircumflex" unicode="&#xc2;" horiz-adv-x="698" 
d="M350 808h-2l-135 -90v50l135 90h2l135 -90v-50zM600 0l-70 167h-368l-70 -167h-60l284 658h67l283 -658h-66zM181 211h331l-164 393h-2z" />
    <glyph glyph-name="uni0200" unicode="&#x200;" horiz-adv-x="698" 
d="M317 714h-45l-91 139h57zM476 714h-46l-92 139h58zM600 0l-70 167h-368l-70 -167h-60l284 658h67l283 -658h-66zM181 211h331l-164 393h-2z" />
    <glyph glyph-name="Adieresis" unicode="&#xc4;" horiz-adv-x="698" 
d="M297 818v-93h-53v93h53zM454 818v-93h-53v93h53zM600 0l-70 167h-368l-70 -167h-60l284 658h67l283 -658h-66zM181 211h331l-164 393h-2z" />
    <glyph glyph-name="Agrave" unicode="&#xc0;" horiz-adv-x="698" 
d="M399 714h-47l-99 139h63zM600 0l-70 167h-368l-70 -167h-60l284 658h67l283 -658h-66zM181 211h331l-164 393h-2z" />
    <glyph glyph-name="uni0202" unicode="&#x202;" horiz-adv-x="698" 
d="M262 737v-13h-41v16c0 50 35 113 128 113c94 0 128 -63 128 -113v-16h-41v13c0 38 -24 78 -87 78s-87 -40 -87 -78zM600 0l-70 167h-368l-70 -167h-60l284 658h67l283 -658h-66zM181 211h331l-164 393h-2z" />
    <glyph glyph-name="Amacron" unicode="&#x100;" horiz-adv-x="698" 
d="M481 808v-41h-263v41h263zM600 0l-70 167h-368l-70 -167h-60l284 658h67l283 -658h-66zM181 211h331l-164 393h-2z" />
    <glyph glyph-name="Aogonek" unicode="&#x104;" horiz-adv-x="698" 
d="M624 -157c23 0 38 6 48 9v-38c-11 -5 -30 -10 -54 -10c-62 0 -90 34 -90 75c0 42 30 87 72 121l-70 167h-368l-70 -167h-60l284 658h67l283 -658h-12c-47 -37 -79 -81 -79 -113c0 -26 15 -44 49 -44zM181 211h331l-164 393h-2z" />
    <glyph glyph-name="Aring" unicode="&#xc5;" horiz-adv-x="698" 
d="M600 0l-70 167h-368l-70 -167h-60l271 627c-58 13 -87 52 -87 103c0 64 47 109 133 109c88 0 133 -45 133 -109c0 -51 -28 -90 -86 -103l270 -627h-66zM256 730c0 -43 31 -72 93 -72s93 29 93 72c0 44 -32 73 -93 73c-60 0 -93 -29 -93 -73zM181 211h331l-164 393h-2z
" />
    <glyph glyph-name="Atilde" unicode="&#xc3;" horiz-adv-x="698" 
d="M276 830c-29 0 -51 -32 -58 -101h-41c9 95 48 139 99 139c35 0 56 -16 77 -45l14 -20c17 -23 30 -37 53 -37c30 0 51 32 58 101h40c-8 -95 -46 -138 -98 -138c-36 0 -57 17 -77 45l-14 19c-18 24 -29 37 -53 37zM600 0l-70 167h-368l-70 -167h-60l284 658h67l283 -658
h-66zM181 211h331l-164 393h-2z" />
    <glyph glyph-name="AE" unicode="&#xc6;" horiz-adv-x="831" 
d="M32 0l321 658h431v-52h-343v-253h276v-44h-276v-257h352v-52h-408v167h-211l-79 -167h-63zM194 211h191v395h-3z" />
    <glyph glyph-name="AEacute" unicode="&#x1fc;" horiz-adv-x="831" 
d="M534 714l83 139h62l-98 -139h-47zM32 0l321 658h431v-52h-343v-253h276v-44h-276v-257h352v-52h-408v167h-211l-79 -167h-63zM194 211h191v395h-3z" />
    <glyph glyph-name="Cacute" unicode="&#x106;" horiz-adv-x="720" 
d="M339 714l83 139h62l-98 -139h-47zM380 -10c-185 0 -325 129 -325 338c0 210 137 340 324 340c163 0 284 -100 284 -252v-24h-53v21c0 123 -101 203 -231 203c-152 0 -268 -109 -268 -288c0 -177 119 -286 269 -286c131 0 233 78 233 197v11h53v-13
c0 -149 -123 -247 -286 -247z" />
    <glyph glyph-name="Ccaron" unicode="&#x10c;" horiz-adv-x="720" 
d="M341 714l-107 139h60l77 -106h2l77 106h60l-107 -139h-62zM380 -10c-185 0 -325 129 -325 338c0 210 137 340 324 340c163 0 284 -100 284 -252v-24h-53v21c0 123 -101 203 -231 203c-152 0 -268 -109 -268 -288c0 -177 119 -286 269 -286c131 0 233 78 233 197v11h53
v-13c0 -149 -123 -247 -286 -247z" />
    <glyph glyph-name="Ccedilla" unicode="&#xc7;" horiz-adv-x="720" 
d="M613 250h53v-13c0 -146 -118 -243 -276 -247l-20 -51l1 -1c8 4 21 9 41 9c54 0 81 -30 81 -72c0 -50 -34 -93 -116 -93c-80 0 -118 33 -123 83h44c5 -33 30 -49 79 -49c53 0 75 26 75 58c0 26 -19 43 -63 43c-31 0 -57 -7 -67 -9l31 83c-172 12 -298 138 -298 337
c0 210 137 340 324 340c163 0 284 -100 284 -252v-24h-53v21c0 123 -101 203 -231 203c-152 0 -268 -109 -268 -288c0 -177 119 -286 269 -286c131 0 233 78 233 197v11z" />
    <glyph glyph-name="Ccircumflex" unicode="&#x108;" horiz-adv-x="720" 
d="M236 718v50l135 90h2l135 -90v-50l-135 90h-2zM380 -10c-185 0 -325 129 -325 338c0 210 137 340 324 340c163 0 284 -100 284 -252v-24h-53v21c0 123 -101 203 -231 203c-152 0 -268 -109 -268 -288c0 -177 119 -286 269 -286c131 0 233 78 233 197v11h53v-13
c0 -149 -123 -247 -286 -247z" />
    <glyph glyph-name="Cdotaccent" unicode="&#x10a;" horiz-adv-x="720" 
d="M345 725v93h54v-93h-54zM380 -10c-185 0 -325 129 -325 338c0 210 137 340 324 340c163 0 284 -100 284 -252v-24h-53v21c0 123 -101 203 -231 203c-152 0 -268 -109 -268 -288c0 -177 119 -286 269 -286c131 0 233 78 233 197v11h53v-13c0 -149 -123 -247 -286 -247z
" />
    <glyph glyph-name="Eth" unicode="&#xd0;" horiz-adv-x="695" 
d="M318 658c195 0 322 -119 322 -328c0 -210 -120 -330 -302 -330h-252v310h-86v38h86v310h232zM337 52c148 0 246 100 246 278c0 176 -105 276 -264 276h-177v-258h183v-38h-183v-258h195z" />
    <glyph glyph-name="Dcaron" unicode="&#x10e;" horiz-adv-x="686" 
d="M267 714l-107 139h60l77 -106h2l77 106h60l-107 -139h-62zM78 0v658h232c195 0 322 -119 322 -328c0 -210 -120 -330 -302 -330h-252zM134 52h195c148 0 246 100 246 278c0 176 -105 276 -264 276h-177v-554z" />
    <glyph glyph-name="Dmacron" unicode="&#x110;" horiz-adv-x="695" 
d="M318 658c195 0 322 -119 322 -328c0 -210 -120 -330 -302 -330h-252v310h-86v38h86v310h232zM337 52c148 0 246 100 246 278c0 176 -105 276 -264 276h-177v-258h183v-38h-183v-258h195z" />
    <glyph glyph-name="Eacute" unicode="&#xc9;" horiz-adv-x="547" 
d="M258 714l83 139h62l-98 -139h-47zM78 0v658h421v-52h-365v-253h299v-44h-299v-257h374v-52h-430z" />
    <glyph glyph-name="Ebreve" unicode="&#x114;" horiz-adv-x="547" 
d="M291 724c-94 0 -128 63 -128 114v15h41v-12c0 -39 24 -79 87 -79s87 40 87 79v12h41v-15c0 -51 -35 -114 -128 -114zM78 0v658h421v-52h-365v-253h299v-44h-299v-257h374v-52h-430z" />
    <glyph glyph-name="Ecaron" unicode="&#x11a;" horiz-adv-x="547" 
d="M260 714l-107 139h60l77 -106h2l77 106h60l-107 -139h-62zM78 0v658h421v-52h-365v-253h299v-44h-299v-257h374v-52h-430z" />
    <glyph glyph-name="Ecircumflex" unicode="&#xca;" horiz-adv-x="547" 
d="M155 718v50l135 90h2l135 -90v-50l-135 90h-2zM78 0v658h421v-52h-365v-253h299v-44h-299v-257h374v-52h-430z" />
    <glyph glyph-name="uni0204" unicode="&#x204;" horiz-adv-x="547" 
d="M214 714l-91 139h57l79 -139h-45zM372 714l-92 139h58l80 -139h-46zM78 0v658h421v-52h-365v-253h299v-44h-299v-257h374v-52h-430z" />
    <glyph glyph-name="Edieresis" unicode="&#xcb;" horiz-adv-x="547" 
d="M186 725v93h53v-93h-53zM343 725v93h53v-93h-53zM78 0v658h421v-52h-365v-253h299v-44h-299v-257h374v-52h-430z" />
    <glyph glyph-name="Edotaccent" unicode="&#x116;" horiz-adv-x="547" 
d="M264 725v93h54v-93h-54zM78 0v658h421v-52h-365v-253h299v-44h-299v-257h374v-52h-430z" />
    <glyph glyph-name="Egrave" unicode="&#xc8;" horiz-adv-x="547" 
d="M294 714l-99 139h63l83 -139h-47zM78 0v658h421v-52h-365v-253h299v-44h-299v-257h374v-52h-430z" />
    <glyph glyph-name="uni0206" unicode="&#x206;" horiz-adv-x="547" 
d="M163 724v16c0 50 35 113 128 113c94 0 128 -63 128 -113v-16h-41v13c0 38 -24 78 -87 78s-87 -40 -87 -78v-13h-41zM78 0v658h421v-52h-365v-253h299v-44h-299v-257h374v-52h-430z" />
    <glyph glyph-name="Emacron" unicode="&#x112;" horiz-adv-x="547" 
d="M160 767v41h263v-41h-263zM78 0v658h421v-52h-365v-253h299v-44h-299v-257h374v-52h-430z" />
    <glyph glyph-name="Eogonek" unicode="&#x118;" horiz-adv-x="547" 
d="M470 -157c23 0 38 6 48 9v-38c-11 -5 -30 -10 -54 -10c-62 0 -90 34 -90 75c0 42 30 87 72 121h-368v658h421v-52h-365v-253h299v-44h-299v-257h374v-52h-8c-47 -37 -79 -81 -79 -113c0 -26 15 -44 49 -44z" />
    <glyph glyph-name="Gbreve" unicode="&#x11e;" horiz-adv-x="731" 
d="M373 724c-94 0 -128 63 -128 114v15h41v-12c0 -39 24 -79 87 -79s87 40 87 79v12h41v-15c0 -51 -35 -114 -128 -114zM380 -10c-183 0 -325 126 -325 332c0 212 143 346 325 346c159 0 278 -87 278 -234c0 -14 0 -32 -1 -46h-53c1 12 2 28 2 43c0 117 -100 185 -226 185
c-149 0 -269 -112 -269 -294c0 -175 123 -283 269 -283c133 0 228 80 228 200v23h-258v44h314v-306h-53c1 21 4 72 6 141h-1c-22 -93 -113 -151 -236 -151z" />
    <glyph glyph-name="Gcircumflex" unicode="&#x11c;" horiz-adv-x="731" 
d="M237 718v50l135 90h2l135 -90v-50l-135 90h-2zM380 -10c-183 0 -325 126 -325 332c0 212 143 346 325 346c159 0 278 -87 278 -234c0 -14 0 -32 -1 -46h-53c1 12 2 28 2 43c0 117 -100 185 -226 185c-149 0 -269 -112 -269 -294c0 -175 123 -283 269 -283
c133 0 228 80 228 200v23h-258v44h314v-306h-53c1 21 4 72 6 141h-1c-22 -93 -113 -151 -236 -151z" />
    <glyph glyph-name="Gcommaaccent" unicode="&#x122;" horiz-adv-x="731" 
d="M380 -10c-183 0 -325 126 -325 332c0 212 143 346 325 346c159 0 278 -87 278 -234c0 -14 0 -32 -1 -46h-53c1 12 2 28 2 43c0 117 -100 185 -226 185c-149 0 -269 -112 -269 -294c0 -175 123 -283 269 -283c133 0 228 80 228 200v23h-258v44h314v-306h-53
c1 21 4 72 6 141h-1c-22 -93 -113 -151 -236 -151zM305 -263v35c41 9 60 39 63 94v2h-22v100h59v-67c0 -101 -31 -151 -100 -164z" />
    <glyph glyph-name="Gdotaccent" unicode="&#x120;" horiz-adv-x="731" 
d="M346 725v93h54v-93h-54zM380 -10c-183 0 -325 126 -325 332c0 212 143 346 325 346c159 0 278 -87 278 -234c0 -14 0 -32 -1 -46h-53c1 12 2 28 2 43c0 117 -100 185 -226 185c-149 0 -269 -112 -269 -294c0 -175 123 -283 269 -283c133 0 228 80 228 200v23h-258v44h314
v-306h-53c1 21 4 72 6 141h-1c-22 -93 -113 -151 -236 -151z" />
    <glyph glyph-name="Hcircumflex" unicode="&#x124;" horiz-adv-x="709" 
d="M219 718v50l135 90h2l135 -90v-50l-135 90h-2zM78 0v658h56v-290h441v290h56v-658h-56v320h-441v-320h-56z" />
    <glyph glyph-name="Iacute" unicode="&#xcd;" horiz-adv-x="221" 
d="M77 714l83 139h62l-98 -139h-47zM82 0v658h57v-658h-57z" />
    <glyph glyph-name="Icircumflex" unicode="&#xce;" horiz-adv-x="221" 
d="M-26 718v50l135 90h2l135 -90v-50l-135 90h-2zM82 0v658h57v-658h-57z" />
    <glyph glyph-name="uni0208" unicode="&#x208;" horiz-adv-x="221" 
d="M33 714l-91 139h57l79 -139h-45zM191 714l-92 139h58l80 -139h-46zM82 0v658h57v-658h-57z" />
    <glyph glyph-name="Idieresis" unicode="&#xcf;" horiz-adv-x="221" 
d="M5 725v93h53v-93h-53zM162 725v93h53v-93h-53zM82 0v658h57v-658h-57z" />
    <glyph glyph-name="Idotaccent" unicode="&#x130;" horiz-adv-x="221" 
d="M83 725v93h54v-93h-54zM82 0v658h57v-658h-57z" />
    <glyph glyph-name="Igrave" unicode="&#xcc;" horiz-adv-x="221" 
d="M113 714l-99 139h63l83 -139h-47zM82 0v658h57v-658h-57z" />
    <glyph glyph-name="uni020A" unicode="&#x20a;" horiz-adv-x="221" 
d="M-18 724v16c0 50 35 113 128 113c94 0 128 -63 128 -113v-16h-41v13c0 38 -24 78 -87 78s-87 -40 -87 -78v-13h-41zM82 0v658h57v-658h-57z" />
    <glyph glyph-name="Imacron" unicode="&#x12a;" horiz-adv-x="221" 
d="M-21 767v41h263v-41h-263zM82 0v658h57v-658h-57z" />
    <glyph glyph-name="Iogonek" unicode="&#x12e;" horiz-adv-x="221" 
d="M106 -157c23 0 38 6 48 9v-38c-11 -5 -30 -10 -54 -10c-62 0 -90 34 -90 75c0 42 30 87 72 121v658h57v-658h-3c-47 -37 -79 -81 -79 -113c0 -26 15 -44 49 -44z" />
    <glyph glyph-name="uni00A40301" horiz-adv-x="599" 
d="M451 714l83 139h62l-98 -139h-47zM289 -10c-146 0 -230 86 -230 239c0 35 2 79 3 102h53c-1 -25 -3 -64 -3 -102c0 -121 63 -187 176 -187s181 69 181 235v381h57v-379c0 -198 -90 -289 -237 -289z" />
    <glyph glyph-name="Jcircumflex" unicode="&#x134;" horiz-adv-x="599" 
d="M348 718v50l135 90h2l135 -90v-50l-135 90h-2zM289 -10c-146 0 -230 86 -230 239c0 35 2 79 3 102h53c-1 -25 -3 -64 -3 -102c0 -121 63 -187 176 -187s181 69 181 235v381h57v-379c0 -198 -90 -289 -237 -289z" />
    <glyph glyph-name="Kcommaaccent" unicode="&#x136;" horiz-adv-x="695" 
d="M78 0v658h56v-422h2l438 422h76l-321 -308l337 -350h-79l-300 312l-153 -142v-170h-56zM281 -263v35c41 9 60 39 63 94v2h-22v100h59v-67c0 -101 -31 -151 -100 -164z" />
    <glyph glyph-name="Lacute" unicode="&#x139;" horiz-adv-x="528" 
d="M82 714l83 139h62l-98 -139h-47zM78 0v658h56v-606h363v-52h-419z" />
    <glyph glyph-name="Lcaron" unicode="&#x13d;" horiz-adv-x="528" 
d="M78 0v658h56v-606h363v-52h-419zM309 427v35c41 9 60 39 63 94v2h-22v100h59v-67c0 -101 -31 -151 -100 -164z" />
    <glyph glyph-name="Lcommaaccent" unicode="&#x13b;" horiz-adv-x="528" 
d="M78 0v658h56v-606h363v-52h-419zM202 -263v35c41 9 60 39 63 94v2h-22v100h59v-67c0 -101 -31 -151 -100 -164z" />
    <glyph glyph-name="Ldot" unicode="&#x13f;" horiz-adv-x="538" 
d="M78 0v658h56v-606h363v-52h-419zM356 299v100h59v-100h-59z" />
    <glyph glyph-name="Lslash" unicode="&#x141;" horiz-adv-x="532" 
d="M138 52h363v-52h-419v284l-85 -35v38l85 35v336h56v-314l134 55v-38l-134 -55v-254z" />
    <glyph glyph-name="Nacute" unicode="&#x143;" horiz-adv-x="706" 
d="M320 714l83 139h62l-98 -139h-47zM78 0v658h91l403 -582h2v582h54v-658h-67l-428 617h-1v-617h-54z" />
    <glyph glyph-name="Ncaron" unicode="&#x147;" horiz-adv-x="706" 
d="M322 714l-107 139h60l77 -106h2l77 106h60l-107 -139h-62zM78 0v658h91l403 -582h2v582h54v-658h-67l-428 617h-1v-617h-54z" />
    <glyph glyph-name="Ncommaaccent" unicode="&#x145;" horiz-adv-x="706" 
d="M78 0v658h91l403 -582h2v582h54v-658h-67l-428 617h-1v-617h-54zM283 -263v35c41 9 60 39 63 94v2h-22v100h59v-67c0 -101 -31 -151 -100 -164z" />
    <glyph glyph-name="Ntilde" unicode="&#xd1;" horiz-adv-x="706" 
d="M181 729c9 95 48 139 99 139c35 0 56 -16 77 -45l14 -20c17 -23 30 -37 53 -37c30 0 51 32 58 101h40c-8 -95 -46 -138 -98 -138c-36 0 -57 17 -77 45l-14 19c-18 24 -29 37 -53 37c-29 0 -51 -32 -58 -101h-41zM78 0v658h91l403 -582h2v582h54v-658h-67l-428 617h-1
v-617h-54z" />
    <glyph glyph-name="Oacute" unicode="&#xd3;" horiz-adv-x="764" 
d="M349 714l83 139h62l-98 -139h-47zM382 -10c-181 0 -327 129 -327 342c0 209 146 336 327 336s328 -127 328 -336c0 -213 -147 -342 -328 -342zM382 42c147 0 271 109 271 290c0 177 -124 284 -271 284s-271 -107 -271 -284c0 -181 124 -290 271 -290z" />
    <glyph glyph-name="Obreve" unicode="&#x14e;" horiz-adv-x="764" 
d="M382 724c-94 0 -128 63 -128 114v15h41v-12c0 -39 24 -79 87 -79s87 40 87 79v12h41v-15c0 -51 -35 -114 -128 -114zM382 -10c-181 0 -327 129 -327 342c0 209 146 336 327 336s328 -127 328 -336c0 -213 -147 -342 -328 -342zM382 42c147 0 271 109 271 290
c0 177 -124 284 -271 284s-271 -107 -271 -284c0 -181 124 -290 271 -290z" />
    <glyph glyph-name="Ocircumflex" unicode="&#xd4;" horiz-adv-x="764" 
d="M246 718v50l135 90h2l135 -90v-50l-135 90h-2zM382 -10c-181 0 -327 129 -327 342c0 209 146 336 327 336s328 -127 328 -336c0 -213 -147 -342 -328 -342zM382 42c147 0 271 109 271 290c0 177 -124 284 -271 284s-271 -107 -271 -284c0 -181 124 -290 271 -290z" />
    <glyph glyph-name="uni020C" unicode="&#x20c;" horiz-adv-x="764" 
d="M305 714l-91 139h57l79 -139h-45zM463 714l-92 139h58l80 -139h-46zM382 -10c-181 0 -327 129 -327 342c0 209 146 336 327 336s328 -127 328 -336c0 -213 -147 -342 -328 -342zM382 42c147 0 271 109 271 290c0 177 -124 284 -271 284s-271 -107 -271 -284
c0 -181 124 -290 271 -290z" />
    <glyph glyph-name="Odieresis" unicode="&#xd6;" horiz-adv-x="764" 
d="M277 725v93h53v-93h-53zM434 725v93h53v-93h-53zM382 -10c-181 0 -327 129 -327 342c0 209 146 336 327 336s328 -127 328 -336c0 -213 -147 -342 -328 -342zM382 42c147 0 271 109 271 290c0 177 -124 284 -271 284s-271 -107 -271 -284c0 -181 124 -290 271 -290z" />
    <glyph glyph-name="Ograve" unicode="&#xd2;" horiz-adv-x="764" 
d="M385 714l-99 139h63l83 -139h-47zM382 -10c-181 0 -327 129 -327 342c0 209 146 336 327 336s328 -127 328 -336c0 -213 -147 -342 -328 -342zM382 42c147 0 271 109 271 290c0 177 -124 284 -271 284s-271 -107 -271 -284c0 -181 124 -290 271 -290z" />
    <glyph glyph-name="Ohungarumlaut" unicode="&#x150;" horiz-adv-x="764" 
d="M247 716l78 137h59l-92 -137h-45zM406 716l77 137h59l-92 -137h-44zM382 -10c-181 0 -327 129 -327 342c0 209 146 336 327 336s328 -127 328 -336c0 -213 -147 -342 -328 -342zM382 42c147 0 271 109 271 290c0 177 -124 284 -271 284s-271 -107 -271 -284
c0 -181 124 -290 271 -290z" />
    <glyph glyph-name="uni020E" unicode="&#x20e;" horiz-adv-x="764" 
d="M254 724v16c0 50 35 113 128 113c94 0 128 -63 128 -113v-16h-41v13c0 38 -24 78 -87 78s-87 -40 -87 -78v-13h-41zM382 -10c-181 0 -327 129 -327 342c0 209 146 336 327 336s328 -127 328 -336c0 -213 -147 -342 -328 -342zM382 42c147 0 271 109 271 290
c0 177 -124 284 -271 284s-271 -107 -271 -284c0 -181 124 -290 271 -290z" />
    <glyph glyph-name="Omacron" unicode="&#x14c;" horiz-adv-x="764" 
d="M251 767v41h263v-41h-263zM382 -10c-181 0 -327 129 -327 342c0 209 146 336 327 336s328 -127 328 -336c0 -213 -147 -342 -328 -342zM382 42c147 0 271 109 271 290c0 177 -124 284 -271 284s-271 -107 -271 -284c0 -181 124 -290 271 -290z" />
    <glyph glyph-name="Oslash" unicode="&#xd8;" horiz-adv-x="764" 
d="M615 577c59 -58 95 -141 95 -245c0 -213 -147 -342 -328 -342c-80 0 -153 25 -209 71l-36 -41l-23 20l36 42c-59 59 -95 144 -95 250c0 209 146 336 327 336c80 0 153 -25 210 -70l34 39l23 -21zM111 332c0 -87 29 -158 75 -208l370 431c-47 40 -108 61 -174 61
c-147 0 -271 -107 -271 -284zM382 42c147 0 271 109 271 290c0 85 -28 154 -74 202l-370 -431c47 -39 108 -61 173 -61z" />
    <glyph glyph-name="Oslashacute" unicode="&#x1fe;" horiz-adv-x="764" 
d="M494 853l-98 -139h-47l83 139h62zM615 577c59 -58 95 -141 95 -245c0 -213 -147 -342 -328 -342c-80 0 -153 25 -209 71l-36 -41l-23 20l36 42c-59 59 -95 144 -95 250c0 209 146 336 327 336c80 0 153 -25 210 -70l34 39l23 -21zM111 332c0 -87 29 -158 75 -208l370 431
c-47 40 -108 61 -174 61c-147 0 -271 -107 -271 -284zM382 42c147 0 271 109 271 290c0 85 -28 154 -74 202l-370 -431c47 -39 108 -61 173 -61z" />
    <glyph glyph-name="Otilde" unicode="&#xd5;" horiz-adv-x="764" 
d="M210 729c9 95 48 139 99 139c35 0 56 -16 77 -45l14 -20c17 -23 30 -37 53 -37c30 0 51 32 58 101h40c-8 -95 -46 -138 -98 -138c-36 0 -57 17 -77 45l-14 19c-18 24 -29 37 -53 37c-29 0 -51 -32 -58 -101h-41zM382 -10c-181 0 -327 129 -327 342c0 209 146 336 327 336
s328 -127 328 -336c0 -213 -147 -342 -328 -342zM382 42c147 0 271 109 271 290c0 177 -124 284 -271 284s-271 -107 -271 -284c0 -181 124 -290 271 -290z" />
    <glyph glyph-name="OE" unicode="&#x152;" horiz-adv-x="920" 
d="M386 -10c-184 0 -331 129 -331 342c0 209 147 336 331 336c35 0 73 -5 92 -10h395v-52h-340v-253h273v-44h-273v-257h348v-52h-403c-20 -5 -59 -10 -92 -10zM386 42c33 0 69 4 91 13v548c-23 9 -62 14 -91 14c-150 0 -275 -108 -275 -285c0 -181 125 -290 275 -290z" />
    <glyph glyph-name="Thorn" unicode="&#xde;" horiz-adv-x="608" 
d="M78 0v658h56v-108h199c145 0 227 -81 227 -220c0 -136 -79 -215 -216 -215h-210v-115h-56zM134 159h206c105 0 165 60 165 168c0 111 -61 172 -174 172h-197v-340z" />
    <glyph glyph-name="Racute" unicode="&#x154;" horiz-adv-x="645" 
d="M292 714l83 139h62l-98 -139h-47zM78 0v658h271c155 0 231 -68 231 -185c0 -84 -37 -148 -127 -158v-2c93 -10 123 -72 123 -155v-158h-57v158c0 78 -35 129 -149 129h-236v-287h-56zM134 330h216c128 0 175 55 175 139c0 89 -58 137 -176 137h-215v-276z" />
    <glyph glyph-name="Rcaron" unicode="&#x158;" horiz-adv-x="645" 
d="M294 714l-107 139h60l77 -106h2l77 106h60l-107 -139h-62zM78 0v658h271c155 0 231 -68 231 -185c0 -84 -37 -148 -127 -158v-2c93 -10 123 -72 123 -155v-158h-57v158c0 78 -35 129 -149 129h-236v-287h-56zM134 330h216c128 0 175 55 175 139c0 89 -58 137 -176 137
h-215v-276z" />
    <glyph glyph-name="Rcommaaccent" unicode="&#x156;" horiz-adv-x="645" 
d="M78 0v658h271c155 0 231 -68 231 -185c0 -84 -37 -148 -127 -158v-2c93 -10 123 -72 123 -155v-158h-57v158c0 78 -35 129 -149 129h-236v-287h-56zM134 330h216c128 0 175 55 175 139c0 89 -58 137 -176 137h-215v-276zM264 -263v35c41 9 60 39 63 94v2h-22v100h59v-67
c0 -101 -31 -151 -100 -164z" />
    <glyph glyph-name="uni0210" unicode="&#x210;" horiz-adv-x="645" 
d="M248 714l-91 139h57l79 -139h-45zM406 714l-92 139h58l80 -139h-46zM78 0v658h271c155 0 231 -68 231 -185c0 -84 -37 -148 -127 -158v-2c93 -10 123 -72 123 -155v-158h-57v158c0 78 -35 129 -149 129h-236v-287h-56zM134 330h216c128 0 175 55 175 139
c0 89 -58 137 -176 137h-215v-276z" />
    <glyph glyph-name="uni0212" unicode="&#x212;" horiz-adv-x="645" 
d="M197 724v16c0 50 35 113 128 113c94 0 128 -63 128 -113v-16h-41v13c0 38 -24 78 -87 78s-87 -40 -87 -78v-13h-41zM78 0v658h271c155 0 231 -68 231 -185c0 -84 -37 -148 -127 -158v-2c93 -10 123 -72 123 -155v-158h-57v158c0 78 -35 129 -149 129h-236v-287h-56z
M134 330h216c128 0 175 55 175 139c0 89 -58 137 -176 137h-215v-276z" />
    <glyph glyph-name="Sacute" unicode="&#x15a;" horiz-adv-x="635" 
d="M277 714l83 139h62l-98 -139h-47zM314 -10c-210 0 -257 117 -257 234h53c0 -100 42 -185 204 -185c166 0 210 69 210 141c0 46 -20 74 -57 90s-113 26 -171 34c-62 7 -141 23 -178 45c-37 23 -63 65 -63 125c0 113 100 194 255 194c184 0 247 -86 247 -239h-53
c0 126 -56 190 -193 190c-121 0 -200 -58 -200 -141c0 -46 18 -74 48 -91c33 -18 116 -30 171 -38c64 -9 136 -20 179 -42c44 -21 71 -65 71 -124c0 -97 -58 -193 -266 -193z" />
    <glyph glyph-name="Scaron" unicode="&#x160;" horiz-adv-x="635" 
d="M279 714l-107 139h60l77 -106h2l77 106h60l-107 -139h-62zM314 -10c-210 0 -257 117 -257 234h53c0 -100 42 -185 204 -185c166 0 210 69 210 141c0 46 -20 74 -57 90s-113 26 -171 34c-62 7 -141 23 -178 45c-37 23 -63 65 -63 125c0 113 100 194 255 194
c184 0 247 -86 247 -239h-53c0 126 -56 190 -193 190c-121 0 -200 -58 -200 -141c0 -46 18 -74 48 -91c33 -18 116 -30 171 -38c64 -9 136 -20 179 -42c44 -21 71 -65 71 -124c0 -97 -58 -193 -266 -193z" />
    <glyph glyph-name="Scedilla" unicode="&#x15e;" horiz-adv-x="635" 
d="M580 183c0 -95 -55 -188 -251 -193l-20 -51l1 -1c8 4 21 9 41 9c54 0 81 -30 81 -72c0 -50 -34 -93 -116 -93c-80 0 -118 33 -123 83h44c5 -33 30 -49 79 -49c53 0 75 26 75 58c0 26 -19 43 -63 43c-31 0 -57 -7 -67 -9l31 82c-191 9 -235 121 -235 234h53
c0 -100 42 -185 204 -185c166 0 210 69 210 141c0 46 -20 74 -57 90s-113 26 -171 34c-62 7 -141 23 -178 45c-37 23 -63 65 -63 125c0 113 100 194 255 194c184 0 247 -86 247 -239h-53c0 126 -56 190 -193 190c-121 0 -200 -58 -200 -141c0 -46 18 -74 48 -91
c33 -18 116 -30 171 -38c64 -9 136 -20 179 -42c44 -21 71 -65 71 -124z" />
    <glyph glyph-name="Scircumflex" unicode="&#x15c;" horiz-adv-x="635" 
d="M174 718v50l135 90h2l135 -90v-50l-135 90h-2zM314 -10c-210 0 -257 117 -257 234h53c0 -100 42 -185 204 -185c166 0 210 69 210 141c0 46 -20 74 -57 90s-113 26 -171 34c-62 7 -141 23 -178 45c-37 23 -63 65 -63 125c0 113 100 194 255 194c184 0 247 -86 247 -239
h-53c0 126 -56 190 -193 190c-121 0 -200 -58 -200 -141c0 -46 18 -74 48 -91c33 -18 116 -30 171 -38c64 -9 136 -20 179 -42c44 -21 71 -65 71 -124c0 -97 -58 -193 -266 -193z" />
    <glyph glyph-name="Scommaaccent" unicode="&#x218;" horiz-adv-x="635" 
d="M314 -10c-210 0 -257 117 -257 234h53c0 -100 42 -185 204 -185c166 0 210 69 210 141c0 46 -20 74 -57 90s-113 26 -171 34c-62 7 -141 23 -178 45c-37 23 -63 65 -63 125c0 113 100 194 255 194c184 0 247 -86 247 -239h-53c0 126 -56 190 -193 190
c-121 0 -200 -58 -200 -141c0 -46 18 -74 48 -91c33 -18 116 -30 171 -38c64 -9 136 -20 179 -42c44 -21 71 -65 71 -124c0 -97 -58 -193 -266 -193zM243 -263v35c41 9 60 39 63 94v2h-22v100h59v-67c0 -101 -31 -151 -100 -164z" />
    <glyph glyph-name="Tcaron" unicode="&#x164;" horiz-adv-x="563" 
d="M251 714l-107 139h60l77 -106h2l77 106h60l-107 -139h-62zM253 0v607h-226v51h510v-51h-227v-607h-57z" />
    <glyph glyph-name="uni0162" unicode="&#x162;" horiz-adv-x="563" 
d="M253 0v607h-226v51h510v-51h-227v-607h-57zM212 -263v35c41 9 60 39 63 94v2h-22v100h59v-67c0 -101 -31 -151 -100 -164z" />
    <glyph glyph-name="Uacute" unicode="&#xda;" horiz-adv-x="684" 
d="M311 714l83 139h62l-98 -139h-47zM343 -10c-167 0 -269 97 -269 245v423h56v-423c0 -119 81 -193 215 -193c133 0 214 74 214 193v423h51v-423c0 -148 -101 -245 -267 -245z" />
    <glyph glyph-name="Ubreve" unicode="&#x16c;" horiz-adv-x="684" 
d="M344 724c-94 0 -128 63 -128 114v15h41v-12c0 -39 24 -79 87 -79s87 40 87 79v12h41v-15c0 -51 -35 -114 -128 -114zM343 -10c-167 0 -269 97 -269 245v423h56v-423c0 -119 81 -193 215 -193c133 0 214 74 214 193v423h51v-423c0 -148 -101 -245 -267 -245z" />
    <glyph glyph-name="Ucircumflex" unicode="&#xdb;" horiz-adv-x="684" 
d="M208 718v50l135 90h2l135 -90v-50l-135 90h-2zM343 -10c-167 0 -269 97 -269 245v423h56v-423c0 -119 81 -193 215 -193c133 0 214 74 214 193v423h51v-423c0 -148 -101 -245 -267 -245z" />
    <glyph glyph-name="uni0214" unicode="&#x214;" horiz-adv-x="684" 
d="M267 714l-91 139h57l79 -139h-45zM425 714l-92 139h58l80 -139h-46zM343 -10c-167 0 -269 97 -269 245v423h56v-423c0 -119 81 -193 215 -193c133 0 214 74 214 193v423h51v-423c0 -148 -101 -245 -267 -245z" />
    <glyph glyph-name="Udieresis" unicode="&#xdc;" horiz-adv-x="684" 
d="M239 725v93h53v-93h-53zM396 725v93h53v-93h-53zM343 -10c-167 0 -269 97 -269 245v423h56v-423c0 -119 81 -193 215 -193c133 0 214 74 214 193v423h51v-423c0 -148 -101 -245 -267 -245z" />
    <glyph glyph-name="Ugrave" unicode="&#xd9;" horiz-adv-x="684" 
d="M347 714l-99 139h63l83 -139h-47zM343 -10c-167 0 -269 97 -269 245v423h56v-423c0 -119 81 -193 215 -193c133 0 214 74 214 193v423h51v-423c0 -148 -101 -245 -267 -245z" />
    <glyph glyph-name="Uhungarumlaut" unicode="&#x170;" horiz-adv-x="684" 
d="M209 716l78 137h59l-92 -137h-45zM368 716l77 137h59l-92 -137h-44zM343 -10c-167 0 -269 97 -269 245v423h56v-423c0 -119 81 -193 215 -193c133 0 214 74 214 193v423h51v-423c0 -148 -101 -245 -267 -245z" />
    <glyph glyph-name="uni0216" unicode="&#x216;" horiz-adv-x="684" 
d="M216 724v16c0 50 35 113 128 113c94 0 128 -63 128 -113v-16h-41v13c0 38 -24 78 -87 78s-87 -40 -87 -78v-13h-41zM343 -10c-167 0 -269 97 -269 245v423h56v-423c0 -119 81 -193 215 -193c133 0 214 74 214 193v423h51v-423c0 -148 -101 -245 -267 -245z" />
    <glyph glyph-name="Umacron" unicode="&#x16a;" horiz-adv-x="684" 
d="M213 767v41h263v-41h-263zM343 -10c-167 0 -269 97 -269 245v423h56v-423c0 -119 81 -193 215 -193c133 0 214 74 214 193v423h51v-423c0 -148 -101 -245 -267 -245z" />
    <glyph glyph-name="Uogonek" unicode="&#x172;" horiz-adv-x="684" 
d="M74 235v423h56v-423c0 -119 81 -193 215 -193c133 0 214 74 214 193v423h51v-423c0 -106 -52 -186 -144 -224c-18 -8 -36 -18 -56 -33c-28 -22 -55 -59 -55 -91c0 -26 15 -44 49 -44c23 0 38 6 48 9v-38c-11 -5 -30 -10 -54 -10c-62 0 -91 34 -91 75c0 40 27 81 65 112v1
c-9 -1 -19 -2 -29 -2c-167 0 -269 97 -269 245z" />
    <glyph glyph-name="Uring" unicode="&#x16e;" horiz-adv-x="684" 
d="M344 714c-89 0 -133 45 -133 108c0 64 47 109 133 109c88 0 133 -45 133 -109c0 -63 -44 -108 -133 -108zM344 750c62 0 93 29 93 72c0 44 -32 73 -93 73c-60 0 -93 -29 -93 -73c0 -43 31 -72 93 -72zM343 -10c-167 0 -269 97 -269 245v423h56v-423
c0 -119 81 -193 215 -193c133 0 214 74 214 193v423h51v-423c0 -148 -101 -245 -267 -245z" />
    <glyph glyph-name="Utilde" unicode="&#x168;" horiz-adv-x="684" 
d="M172 729c9 95 48 139 99 139c35 0 56 -16 77 -45l14 -20c17 -23 30 -37 53 -37c30 0 51 32 58 101h40c-8 -95 -46 -138 -98 -138c-36 0 -57 17 -77 45l-14 19c-18 24 -29 37 -53 37c-29 0 -51 -32 -58 -101h-41zM343 -10c-167 0 -269 97 -269 245v423h56v-423
c0 -119 81 -193 215 -193c133 0 214 74 214 193v423h51v-423c0 -148 -101 -245 -267 -245z" />
    <glyph glyph-name="Wacute" unicode="&#x1e82;" horiz-adv-x="989" 
d="M461 714l83 139h62l-98 -139h-47zM251 0l-223 658h61l194 -585h3l181 576h59l180 -576h3l195 585h57l-224 -658h-62l-178 567h-3l-180 -567h-63z" />
    <glyph glyph-name="Wcircumflex" unicode="&#x174;" horiz-adv-x="989" 
d="M358 718v50l135 90h2l135 -90v-50l-135 90h-2zM251 0l-223 658h61l194 -585h3l181 576h59l180 -576h3l195 585h57l-224 -658h-62l-178 567h-3l-180 -567h-63z" />
    <glyph glyph-name="Wdieresis" unicode="&#x1e84;" horiz-adv-x="989" 
d="M389 725v93h53v-93h-53zM546 725v93h53v-93h-53zM251 0l-223 658h61l194 -585h3l181 576h59l180 -576h3l195 585h57l-224 -658h-62l-178 567h-3l-180 -567h-63z" />
    <glyph glyph-name="Wgrave" unicode="&#x1e80;" horiz-adv-x="989" 
d="M497 714l-99 139h63l83 -139h-47zM251 0l-223 658h61l194 -585h3l181 576h59l180 -576h3l195 585h57l-224 -658h-62l-178 567h-3l-180 -567h-63z" />
    <glyph glyph-name="Yacute" unicode="&#xdd;" horiz-adv-x="652" 
d="M291 714l83 139h62l-98 -139h-47zM297 0v269l-269 389h69l231 -340h2l231 340h63l-270 -389v-269h-57z" />
    <glyph glyph-name="Ycircumflex" unicode="&#x176;" horiz-adv-x="652" 
d="M188 718v50l135 90h2l135 -90v-50l-135 90h-2zM297 0v269l-269 389h69l231 -340h2l231 340h63l-270 -389v-269h-57z" />
    <glyph glyph-name="Ydieresis" unicode="&#x178;" horiz-adv-x="652" 
d="M219 725v93h53v-93h-53zM376 725v93h53v-93h-53zM297 0v269l-269 389h69l231 -340h2l231 340h63l-270 -389v-269h-57z" />
    <glyph glyph-name="Ygrave" unicode="&#x1ef2;" horiz-adv-x="652" 
d="M327 714l-99 139h63l83 -139h-47zM297 0v269l-269 389h69l231 -340h2l231 340h63l-270 -389v-269h-57z" />
    <glyph glyph-name="Zacute" unicode="&#x179;" horiz-adv-x="595" 
d="M263 714l83 139h62l-98 -139h-47zM51 0v41l420 564v1h-411v52h484v-43l-419 -562v-1h414v-52h-488z" />
    <glyph glyph-name="Zcaron" unicode="&#x17d;" horiz-adv-x="595" 
d="M265 714l-107 139h60l77 -106h2l77 106h60l-107 -139h-62zM51 0v41l420 564v1h-411v52h484v-43l-419 -562v-1h414v-52h-488z" />
    <glyph glyph-name="Zdotaccent" unicode="&#x17b;" horiz-adv-x="595" 
d="M269 725v93h54v-93h-54zM51 0v41l420 564v1h-411v52h484v-43l-419 -562v-1h414v-52h-488z" />
    <glyph glyph-name="a" unicode="a" horiz-adv-x="571" 
d="M238 -8c-109 0 -183 56 -183 147c0 70 48 128 178 128h220v46c0 93 -63 142 -171 142c-100 0 -161 -41 -161 -115c0 -7 0 -16 1 -23h-50c-1 6 -2 20 -2 30c0 97 83 155 213 155c139 0 224 -70 224 -193v-309h-54c0 28 2 81 2 128h-1c-20 -83 -95 -136 -216 -136zM248 39
c124 0 205 68 205 180v7h-215c-97 0 -132 -34 -132 -87c0 -62 57 -100 142 -100z" />
    <glyph glyph-name="b" unicode="b" horiz-adv-x="623" 
d="M339 -8c-113 0 -188 55 -211 131h-1c0 -46 1 -97 3 -123h-54v693h54v-248c0 -18 -1 -58 -2 -87h1c22 90 102 144 211 144c140 0 230 -95 230 -246c0 -163 -94 -264 -231 -264zM328 41c110 0 188 81 188 214c0 122 -73 198 -185 198c-121 0 -201 -78 -201 -209v-27
c0 -98 76 -176 198 -176z" />
    <glyph glyph-name="c" unicode="c" horiz-adv-x="566" 
d="M289 -8c-141 0 -235 97 -235 255s96 255 241 255c124 0 212 -77 212 -201h-51c0 94 -68 152 -160 152c-112 0 -188 -78 -188 -206s74 -206 182 -206c97 0 168 57 169 150h50c0 -123 -91 -199 -220 -199z" />
    <glyph glyph-name="d" unicode="d" horiz-adv-x="623" 
d="M290 -8c-143 0 -236 101 -236 261c0 146 94 249 241 249c106 0 175 -42 197 -118h1v309h54v-693h-54c2 48 3 96 4 144h-2c-19 -88 -92 -152 -205 -152zM297 41c124 0 196 92 196 200v24c0 122 -77 188 -194 188c-115 0 -191 -84 -191 -200c0 -129 75 -212 189 -212z" />
    <glyph glyph-name="e" unicode="e" horiz-adv-x="566" 
d="M512 271v-30h-404c1 -126 74 -202 187 -202c93 0 159 48 166 125h51c-5 -106 -92 -172 -217 -172c-147 0 -241 96 -241 251c0 160 93 259 239 259c136 0 219 -82 219 -231zM461 282v5c0 109 -64 168 -166 168c-103 0 -172 -62 -185 -173h351z" />
    <glyph glyph-name="f" unicode="f" horiz-adv-x="386" 
d="M101 0v446h-87v48h87v52c0 109 60 166 159 166c35 0 65 -7 82 -13v-49c-17 6 -44 13 -77 13c-71 0 -110 -39 -110 -117v-52h195v-48h-195v-446h-54z" />
    <glyph glyph-name="g" unicode="g" horiz-adv-x="585" 
d="M390 61c95 0 149 -43 149 -116c0 -97 -89 -156 -238 -156c-157 0 -251 52 -251 143c0 58 45 100 108 100v1c-25 17 -40 44 -40 78c0 35 14 59 29 70v2c-47 31 -73 80 -73 143c0 107 77 176 201 176c53 0 98 -13 132 -36v1c-10 13 -18 33 -18 55c0 41 31 66 83 66
c22 0 36 -4 43 -7v-45c-6 3 -19 7 -37 7c-33 0 -53 -15 -53 -45c0 -19 7 -42 17 -65c22 -29 34 -65 34 -107c0 -107 -77 -176 -201 -176c-36 0 -67 6 -94 16c-9 -8 -16 -26 -16 -47c0 -36 23 -58 66 -58h159zM275 455c-92 0 -148 -50 -148 -129s56 -129 148 -129
s148 50 148 129s-56 129 -148 129zM301 -164c127 0 184 42 184 104c0 48 -35 74 -102 74h-152c-80 0 -127 -27 -127 -80c0 -65 75 -98 197 -98z" />
    <glyph glyph-name="h" unicode="h" horiz-adv-x="622" 
d="M76 0v693h54v-232c0 -26 -2 -82 -2 -106h1c27 91 101 147 219 147c132 0 209 -72 209 -196v-306h-54v296c0 100 -58 157 -170 157c-121 0 -203 -74 -203 -206v-247h-54z" />
    <glyph glyph-name="i" unicode="i" horiz-adv-x="206" 
d="M73 561v93h59v-93h-59zM76 0v494h54v-494h-54z" />
    <glyph glyph-name="j" unicode="j" horiz-adv-x="206" 
d="M73 561v93h59v-93h-59zM-25 -207c-30 0 -63 5 -80 10v49c18 -4 47 -10 72 -10c73 0 109 51 109 144v508h54v-508c0 -118 -49 -193 -155 -193z" />
    <glyph glyph-name="k" unicode="k" horiz-adv-x="601" 
d="M76 0v693h54v-496h1l349 297h77l-265 -221l280 -273h-78l-243 238l-121 -101v-137h-54z" />
    <glyph glyph-name="l" unicode="l" horiz-adv-x="206" 
d="M76 0v693h54v-693h-54z" />
    <glyph glyph-name="m" unicode="m" horiz-adv-x="887" 
d="M70 0v494h54l-2 -134h1c21 90 89 142 177 142c96 0 158 -50 170 -134h1c18 83 88 134 178 134c110 0 174 -70 174 -192v-310h-54v300c0 98 -47 153 -133 153c-96 0 -163 -70 -163 -194v-259h-54v306c0 93 -47 147 -133 147c-95 0 -162 -72 -162 -198v-255h-54z" />
    <glyph glyph-name="n" unicode="n" horiz-adv-x="615" 
d="M70 0v494h54l-2 -137h1c27 90 101 145 219 145c132 0 209 -72 209 -196v-306h-54v296c0 100 -58 157 -171 157c-120 0 -202 -73 -202 -200v-253h-54z" />
    <glyph glyph-name="o" unicode="o" horiz-adv-x="597" 
d="M299 -8c-147 0 -245 97 -245 254c0 158 98 256 245 256c146 0 245 -98 245 -256c0 -157 -99 -254 -245 -254zM299 41c113 0 191 78 191 205c0 128 -78 207 -191 207s-191 -79 -191 -207c0 -127 78 -205 191 -205z" />
    <glyph glyph-name="p" unicode="p" horiz-adv-x="623" 
d="M76 -198v692h54l-2 -140h1c19 87 95 148 208 148c143 0 233 -95 233 -246c0 -163 -93 -264 -231 -264c-116 0 -187 55 -211 126h-1c1 -32 3 -84 3 -108v-208h-54zM332 41c108 0 184 81 184 214c0 122 -73 198 -188 198c-122 0 -196 -82 -198 -205v-32
c0 -98 72 -175 202 -175z" />
    <glyph glyph-name="q" unicode="q" horiz-adv-x="623" 
d="M493 -198v337h-1c-20 -88 -101 -147 -206 -147c-139 0 -232 99 -232 261c0 151 96 249 236 249c114 0 183 -52 203 -124h1v116h53v-692h-54zM295 41c127 0 198 93 198 202v24c0 110 -69 186 -195 186c-112 0 -190 -79 -190 -200c0 -132 76 -212 187 -212z" />
    <glyph glyph-name="r" unicode="r" horiz-adv-x="531" 
d="M70 0v494h54l-2 -147h1c22 90 83 155 186 155c110 0 169 -70 169 -195c0 -29 -2 -60 -4 -77h-50c2 15 4 41 4 67c0 104 -42 156 -130 156c-105 0 -174 -88 -174 -223v-230h-54z" />
    <glyph glyph-name="s" unicode="s" horiz-adv-x="538" 
d="M263 -8c-154 0 -209 72 -209 173h50c0 -79 46 -126 159 -126c109 0 167 38 167 101c0 26 -9 48 -33 61c-22 11 -66 18 -142 25c-83 8 -132 19 -161 39c-27 19 -40 52 -40 88c0 89 82 149 208 149c140 0 202 -63 202 -176h-51c0 87 -48 129 -149 129
c-94 0 -156 -40 -156 -99c0 -24 7 -49 32 -61c25 -13 73 -20 145 -28c85 -9 121 -16 152 -33c31 -18 47 -53 47 -92c0 -94 -79 -150 -221 -150z" />
    <glyph glyph-name="t" unicode="t" horiz-adv-x="385" 
d="M259 -3c-111 0 -159 70 -159 177v272h-86v48h70c14 0 20 7 21 31l2 81h47v-112h188v-48h-188v-269c0 -83 30 -132 109 -132c32 0 64 7 76 11v-47c-14 -5 -45 -12 -80 -12z" />
    <glyph glyph-name="u" unicode="u" horiz-adv-x="615" 
d="M272 -8c-136 0 -207 80 -207 197v305h54v-297c0 -92 56 -156 166 -156c120 0 207 88 207 223v230h54v-494h-54c1 33 2 97 2 153h-1c-22 -95 -103 -161 -221 -161z" />
    <glyph glyph-name="v" unicode="v" horiz-adv-x="579" 
d="M257 0l-228 494h63l198 -440h3l199 440h58l-228 -494h-65z" />
    <glyph glyph-name="w" unicode="w" horiz-adv-x="780" 
d="M179 0l-150 494h59l126 -436h2l151 436h53l147 -436h2l129 436h53l-149 -494h-67l-143 424h-3l-146 -424h-64z" />
    <glyph glyph-name="x" unicode="x" horiz-adv-x="540" 
d="M29 0l202 253l-194 241h71l165 -208l163 208h66l-194 -242l203 -252h-70l-174 217l-170 -217h-68z" />
    <glyph glyph-name="y" unicode="y" horiz-adv-x="553" 
d="M142 -207c-24 0 -49 6 -62 12v46c12 -4 34 -10 56 -10c60 0 84 34 136 159h-18l-225 494h64l198 -441h2l175 441h56l-200 -501c-60 -153 -95 -200 -182 -200z" />
    <glyph glyph-name="z" unicode="z" horiz-adv-x="489" 
d="M52 0v37l313 407v2h-305v48h377v-37l-313 -408v-1h313v-48h-385z" />
    <glyph glyph-name="aacute" unicode="&#xe1;" horiz-adv-x="571" 
d="M251 550l83 139h62l-98 -139h-47zM238 -8c-109 0 -183 56 -183 147c0 70 48 128 178 128h220v46c0 93 -63 142 -171 142c-100 0 -161 -41 -161 -115c0 -7 0 -16 1 -23h-50c-1 6 -2 20 -2 30c0 97 83 155 213 155c139 0 224 -70 224 -193v-309h-54c0 28 2 81 2 128h-1
c-20 -83 -95 -136 -216 -136zM248 39c124 0 205 68 205 180v7h-215c-97 0 -132 -34 -132 -87c0 -62 57 -100 142 -100z" />
    <glyph glyph-name="abreve" unicode="&#x103;" horiz-adv-x="571" 
d="M284 560c-94 0 -128 63 -128 114v15h41v-12c0 -39 24 -79 87 -79s87 40 87 79v12h41v-15c0 -51 -35 -114 -128 -114zM238 -8c-109 0 -183 56 -183 147c0 70 48 128 178 128h220v46c0 93 -63 142 -171 142c-100 0 -161 -41 -161 -115c0 -7 0 -16 1 -23h-50
c-1 6 -2 20 -2 30c0 97 83 155 213 155c139 0 224 -70 224 -193v-309h-54c0 28 2 81 2 128h-1c-20 -83 -95 -136 -216 -136zM248 39c124 0 205 68 205 180v7h-215c-97 0 -132 -34 -132 -87c0 -62 57 -100 142 -100z" />
    <glyph glyph-name="acircumflex" unicode="&#xe2;" horiz-adv-x="571" 
d="M148 554v50l135 90h2l135 -90v-50l-135 90h-2zM238 -8c-109 0 -183 56 -183 147c0 70 48 128 178 128h220v46c0 93 -63 142 -171 142c-100 0 -161 -41 -161 -115c0 -7 0 -16 1 -23h-50c-1 6 -2 20 -2 30c0 97 83 155 213 155c139 0 224 -70 224 -193v-309h-54
c0 28 2 81 2 128h-1c-20 -83 -95 -136 -216 -136zM248 39c124 0 205 68 205 180v7h-215c-97 0 -132 -34 -132 -87c0 -62 57 -100 142 -100z" />
    <glyph glyph-name="uni0201" unicode="&#x201;" horiz-adv-x="571" 
d="M207 550l-91 139h57l79 -139h-45zM365 550l-92 139h58l80 -139h-46zM238 -8c-109 0 -183 56 -183 147c0 70 48 128 178 128h220v46c0 93 -63 142 -171 142c-100 0 -161 -41 -161 -115c0 -7 0 -16 1 -23h-50c-1 6 -2 20 -2 30c0 97 83 155 213 155c139 0 224 -70 224 -193
v-309h-54c0 28 2 81 2 128h-1c-20 -83 -95 -136 -216 -136zM248 39c124 0 205 68 205 180v7h-215c-97 0 -132 -34 -132 -87c0 -62 57 -100 142 -100z" />
    <glyph glyph-name="adieresis" unicode="&#xe4;" horiz-adv-x="571" 
d="M179 561v93h53v-93h-53zM336 561v93h53v-93h-53zM238 -8c-109 0 -183 56 -183 147c0 70 48 128 178 128h220v46c0 93 -63 142 -171 142c-100 0 -161 -41 -161 -115c0 -7 0 -16 1 -23h-50c-1 6 -2 20 -2 30c0 97 83 155 213 155c139 0 224 -70 224 -193v-309h-54
c0 28 2 81 2 128h-1c-20 -83 -95 -136 -216 -136zM248 39c124 0 205 68 205 180v7h-215c-97 0 -132 -34 -132 -87c0 -62 57 -100 142 -100z" />
    <glyph glyph-name="agrave" unicode="&#xe0;" horiz-adv-x="571" 
d="M287 550l-99 139h63l83 -139h-47zM238 -8c-109 0 -183 56 -183 147c0 70 48 128 178 128h220v46c0 93 -63 142 -171 142c-100 0 -161 -41 -161 -115c0 -7 0 -16 1 -23h-50c-1 6 -2 20 -2 30c0 97 83 155 213 155c139 0 224 -70 224 -193v-309h-54c0 28 2 81 2 128h-1
c-20 -83 -95 -136 -216 -136zM248 39c124 0 205 68 205 180v7h-215c-97 0 -132 -34 -132 -87c0 -62 57 -100 142 -100z" />
    <glyph glyph-name="uni0203" unicode="&#x203;" horiz-adv-x="571" 
d="M156 560v16c0 50 35 113 128 113c94 0 128 -63 128 -113v-16h-41v13c0 38 -24 78 -87 78s-87 -40 -87 -78v-13h-41zM238 -8c-109 0 -183 56 -183 147c0 70 48 128 178 128h220v46c0 93 -63 142 -171 142c-100 0 -161 -41 -161 -115c0 -7 0 -16 1 -23h-50
c-1 6 -2 20 -2 30c0 97 83 155 213 155c139 0 224 -70 224 -193v-309h-54c0 28 2 81 2 128h-1c-20 -83 -95 -136 -216 -136zM248 39c124 0 205 68 205 180v7h-215c-97 0 -132 -34 -132 -87c0 -62 57 -100 142 -100z" />
    <glyph glyph-name="amacron" unicode="&#x101;" horiz-adv-x="571" 
d="M153 603v41h263v-41h-263zM238 -8c-109 0 -183 56 -183 147c0 70 48 128 178 128h220v46c0 93 -63 142 -171 142c-100 0 -161 -41 -161 -115c0 -7 0 -16 1 -23h-50c-1 6 -2 20 -2 30c0 97 83 155 213 155c139 0 224 -70 224 -193v-309h-54c0 28 2 81 2 128h-1
c-20 -83 -95 -136 -216 -136zM248 39c124 0 205 68 205 180v7h-215c-97 0 -132 -34 -132 -87c0 -62 57 -100 142 -100z" />
    <glyph glyph-name="aogonek" unicode="&#x105;" horiz-adv-x="571" 
d="M475 -157c23 0 38 6 48 9v-38c-11 -5 -30 -10 -54 -10c-62 0 -90 34 -90 75c0 42 30 87 72 121h2c0 28 2 81 2 128h-1c-20 -83 -95 -136 -216 -136c-109 0 -183 56 -183 147c0 70 48 128 178 128h220v46c0 93 -63 142 -171 142c-100 0 -161 -41 -161 -115
c0 -7 0 -16 1 -23h-50c-1 6 -2 20 -2 30c0 97 83 155 213 155c139 0 224 -70 224 -193v-309h-2c-47 -37 -79 -81 -79 -113c0 -26 15 -44 49 -44zM453 219v7h-215c-97 0 -132 -34 -132 -87c0 -62 57 -100 142 -100c124 0 205 68 205 180z" />
    <glyph glyph-name="aring" unicode="&#xe5;" horiz-adv-x="571" 
d="M284 550c-89 0 -133 45 -133 108c0 64 47 109 133 109c88 0 133 -45 133 -109c0 -63 -44 -108 -133 -108zM284 586c62 0 93 29 93 72c0 44 -32 73 -93 73c-60 0 -93 -29 -93 -73c0 -43 31 -72 93 -72zM238 -8c-109 0 -183 56 -183 147c0 70 48 128 178 128h220v46
c0 93 -63 142 -171 142c-100 0 -161 -41 -161 -115c0 -7 0 -16 1 -23h-50c-1 6 -2 20 -2 30c0 97 83 155 213 155c139 0 224 -70 224 -193v-309h-54c0 28 2 81 2 128h-1c-20 -83 -95 -136 -216 -136zM248 39c124 0 205 68 205 180v7h-215c-97 0 -132 -34 -132 -87
c0 -62 57 -100 142 -100z" />
    <glyph glyph-name="atilde" unicode="&#xe3;" horiz-adv-x="571" 
d="M112 565c9 95 48 139 99 139c35 0 56 -16 77 -45l14 -20c17 -23 30 -37 53 -37c30 0 51 32 58 101h40c-8 -95 -46 -138 -98 -138c-36 0 -57 17 -77 45l-14 19c-18 24 -29 37 -53 37c-29 0 -51 -32 -58 -101h-41zM238 -8c-109 0 -183 56 -183 147c0 70 48 128 178 128h220
v46c0 93 -63 142 -171 142c-100 0 -161 -41 -161 -115c0 -7 0 -16 1 -23h-50c-1 6 -2 20 -2 30c0 97 83 155 213 155c139 0 224 -70 224 -193v-309h-54c0 28 2 81 2 128h-1c-20 -83 -95 -136 -216 -136zM248 39c124 0 205 68 205 180v7h-215c-97 0 -132 -34 -132 -87
c0 -62 57 -100 142 -100z" />
    <glyph glyph-name="ae" unicode="&#xe6;" horiz-adv-x="957" 
d="M903 271v-39h-404c4 -120 76 -193 187 -193c93 0 159 48 166 125h51c-5 -106 -92 -172 -218 -172c-110 0 -192 56 -220 145h-2c-21 -92 -98 -145 -224 -145c-114 0 -184 56 -184 146c0 74 48 136 185 136h204v39c0 93 -57 142 -166 142c-99 0 -157 -41 -157 -110
c0 -8 0 -19 1 -28h-50c-1 8 -2 19 -2 30c0 97 80 155 209 155c112 0 182 -45 198 -124h1c30 75 103 124 206 124c136 0 219 -82 219 -231zM852 274v12c0 110 -64 169 -166 169c-105 0 -175 -65 -186 -181h352zM444 220v12h-199c-104 0 -139 -36 -139 -92
c0 -63 53 -101 138 -101c124 0 200 68 200 181z" />
    <glyph glyph-name="aeacute" unicode="&#x1fd;" horiz-adv-x="957" 
d="M585 689l-98 -139h-47l83 139h62zM903 271v-39h-404c4 -120 76 -193 187 -193c93 0 159 48 166 125h51c-5 -106 -92 -172 -218 -172c-110 0 -192 56 -220 145h-2c-21 -92 -98 -145 -224 -145c-114 0 -184 56 -184 146c0 74 48 136 185 136h204v39c0 93 -57 142 -166 142
c-99 0 -157 -41 -157 -110c0 -8 0 -19 1 -28h-50c-1 8 -2 19 -2 30c0 97 80 155 209 155c112 0 182 -45 198 -124h1c30 75 103 124 206 124c136 0 219 -82 219 -231zM852 274v12c0 110 -64 169 -166 169c-105 0 -175 -65 -186 -181h352zM444 220v12h-199
c-104 0 -139 -36 -139 -92c0 -63 53 -101 138 -101c124 0 200 68 200 181z" />
    <glyph glyph-name="cacute" unicode="&#x107;" horiz-adv-x="566" 
d="M257 550l83 139h62l-98 -139h-47zM289 -8c-141 0 -235 97 -235 255s96 255 241 255c124 0 212 -77 212 -201h-51c0 94 -68 152 -160 152c-112 0 -188 -78 -188 -206s74 -206 182 -206c97 0 168 57 169 150h50c0 -123 -91 -199 -220 -199z" />
    <glyph glyph-name="ccaron" unicode="&#x10d;" horiz-adv-x="566" 
d="M259 550l-107 139h60l77 -106h2l77 106h60l-107 -139h-62zM289 -8c-141 0 -235 97 -235 255s96 255 241 255c124 0 212 -77 212 -201h-51c0 94 -68 152 -160 152c-112 0 -188 -78 -188 -206s74 -206 182 -206c97 0 168 57 169 150h50c0 -123 -91 -199 -220 -199z" />
    <glyph glyph-name="ccedilla" unicode="&#xe7;" horiz-adv-x="566" 
d="M509 191c0 -120 -86 -195 -209 -199l-21 -53l1 -1c8 4 21 9 41 9c54 0 81 -30 81 -72c0 -50 -34 -93 -116 -93c-80 0 -118 33 -123 83h44c5 -33 30 -49 79 -49c53 0 75 26 75 58c0 26 -19 43 -63 43c-31 0 -57 -7 -67 -9l32 85c-127 12 -209 106 -209 254
c0 158 96 255 241 255c124 0 212 -77 212 -201h-51c0 94 -68 152 -160 152c-112 0 -188 -78 -188 -206s74 -206 182 -206c97 0 168 57 169 150h50z" />
    <glyph glyph-name="ccircumflex" unicode="&#x109;" horiz-adv-x="566" 
d="M154 554v50l135 90h2l135 -90v-50l-135 90h-2zM289 -8c-141 0 -235 97 -235 255s96 255 241 255c124 0 212 -77 212 -201h-51c0 94 -68 152 -160 152c-112 0 -188 -78 -188 -206s74 -206 182 -206c97 0 168 57 169 150h50c0 -123 -91 -199 -220 -199z" />
    <glyph glyph-name="cdotaccent" unicode="&#x10b;" horiz-adv-x="566" 
d="M263 561v93h54v-93h-54zM289 -8c-141 0 -235 97 -235 255s96 255 241 255c124 0 212 -77 212 -201h-51c0 94 -68 152 -160 152c-112 0 -188 -78 -188 -206s74 -206 182 -206c97 0 168 57 169 150h50c0 -123 -91 -199 -220 -199z" />
    <glyph glyph-name="eth" unicode="&#xf0;" horiz-adv-x="600" 
d="M369 626c112 -74 175 -191 175 -341c0 -181 -96 -293 -245 -293s-245 97 -245 254c0 156 91 256 231 256c83 0 150 -38 189 -104c-25 89 -80 157 -162 204l-198 -83l-12 28l175 74c-47 22 -102 37 -163 47l19 39c78 -10 146 -31 203 -61l146 61l13 -28zM299 41
c116 0 191 91 191 238v9c-20 102 -101 165 -203 165c-107 0 -179 -81 -179 -207c0 -127 75 -205 191 -205z" />
    <glyph glyph-name="dcaron" unicode="&#x10f;" horiz-adv-x="665" 
d="M290 -8c-143 0 -236 101 -236 261c0 146 94 249 241 249c106 0 175 -42 197 -118h1v309h54v-693h-54c2 48 3 96 4 144h-2c-19 -88 -92 -152 -205 -152zM588 427v35c41 9 60 39 63 94v2h-22v100h59v-67c0 -101 -31 -151 -100 -164zM297 41c124 0 196 92 196 200v24
c0 122 -77 188 -194 188c-115 0 -191 -84 -191 -200c0 -129 75 -212 189 -212z" />
    <glyph glyph-name="dmacron" unicode="&#x111;" horiz-adv-x="622" 
d="M626 612v-34h-79v-578h-54c2 48 3 96 4 144h-2c-19 -88 -92 -152 -205 -152c-143 0 -236 101 -236 261c0 146 94 249 241 249c106 0 175 -42 197 -118h1v194h-257v34h257v81h54v-81h79zM493 241v24c0 122 -77 188 -194 188c-115 0 -191 -84 -191 -200
c0 -129 75 -212 189 -212c124 0 196 92 196 200z" />
    <glyph glyph-name="eacute" unicode="&#xe9;" horiz-adv-x="566" 
d="M397 689l-98 -139h-47l83 139h62zM512 271v-30h-404c1 -126 74 -202 187 -202c93 0 159 48 166 125h51c-5 -106 -92 -172 -217 -172c-147 0 -241 96 -241 251c0 160 93 259 239 259c136 0 219 -82 219 -231zM461 282v5c0 109 -64 168 -166 168c-103 0 -172 -62 -185 -173
h351z" />
    <glyph glyph-name="ebreve" unicode="&#x115;" horiz-adv-x="566" 
d="M285 560c-94 0 -128 63 -128 114v15h41v-12c0 -39 24 -79 87 -79s87 40 87 79v12h41v-15c0 -51 -35 -114 -128 -114zM512 271v-30h-404c1 -126 74 -202 187 -202c93 0 159 48 166 125h51c-5 -106 -92 -172 -217 -172c-147 0 -241 96 -241 251c0 160 93 259 239 259
c136 0 219 -82 219 -231zM461 282v5c0 109 -64 168 -166 168c-103 0 -172 -62 -185 -173h351z" />
    <glyph glyph-name="ecaron" unicode="&#x11b;" horiz-adv-x="566" 
d="M316 550h-62l-107 139h60l77 -106h2l77 106h60zM512 271v-30h-404c1 -126 74 -202 187 -202c93 0 159 48 166 125h51c-5 -106 -92 -172 -217 -172c-147 0 -241 96 -241 251c0 160 93 259 239 259c136 0 219 -82 219 -231zM461 282v5c0 109 -64 168 -166 168
c-103 0 -172 -62 -185 -173h351z" />
    <glyph glyph-name="ecircumflex" unicode="&#xea;" horiz-adv-x="566" 
d="M286 644h-2l-135 -90v50l135 90h2l135 -90v-50zM512 271v-30h-404c1 -126 74 -202 187 -202c93 0 159 48 166 125h51c-5 -106 -92 -172 -217 -172c-147 0 -241 96 -241 251c0 160 93 259 239 259c136 0 219 -82 219 -231zM461 282v5c0 109 -64 168 -166 168
c-103 0 -172 -62 -185 -173h351z" />
    <glyph glyph-name="uni0205" unicode="&#x205;" horiz-adv-x="566" 
d="M253 550h-45l-91 139h57zM412 550h-46l-92 139h58zM512 271v-30h-404c1 -126 74 -202 187 -202c93 0 159 48 166 125h51c-5 -106 -92 -172 -217 -172c-147 0 -241 96 -241 251c0 160 93 259 239 259c136 0 219 -82 219 -231zM461 282v5c0 109 -64 168 -166 168
c-103 0 -172 -62 -185 -173h351z" />
    <glyph glyph-name="edieresis" unicode="&#xeb;" horiz-adv-x="566" 
d="M233 654v-93h-53v93h53zM390 654v-93h-53v93h53zM512 271v-30h-404c1 -126 74 -202 187 -202c93 0 159 48 166 125h51c-5 -106 -92 -172 -217 -172c-147 0 -241 96 -241 251c0 160 93 259 239 259c136 0 219 -82 219 -231zM461 282v5c0 109 -64 168 -166 168
c-103 0 -172 -62 -185 -173h351z" />
    <glyph glyph-name="edotaccent" unicode="&#x117;" horiz-adv-x="566" 
d="M312 654v-93h-54v93h54zM512 271v-30h-404c1 -126 74 -202 187 -202c93 0 159 48 166 125h51c-5 -106 -92 -172 -217 -172c-147 0 -241 96 -241 251c0 160 93 259 239 259c136 0 219 -82 219 -231zM461 282v5c0 109 -64 168 -166 168c-103 0 -172 -62 -185 -173h351z" />
    <glyph glyph-name="egrave" unicode="&#xe8;" horiz-adv-x="566" 
d="M335 550h-47l-99 139h63zM512 271v-30h-404c1 -126 74 -202 187 -202c93 0 159 48 166 125h51c-5 -106 -92 -172 -217 -172c-147 0 -241 96 -241 251c0 160 93 259 239 259c136 0 219 -82 219 -231zM461 282v5c0 109 -64 168 -166 168c-103 0 -172 -62 -185 -173h351z
" />
    <glyph glyph-name="uni0207" unicode="&#x207;" horiz-adv-x="566" 
d="M198 573v-13h-41v16c0 50 35 113 128 113c94 0 128 -63 128 -113v-16h-41v13c0 38 -24 78 -87 78s-87 -40 -87 -78zM512 271v-30h-404c1 -126 74 -202 187 -202c93 0 159 48 166 125h51c-5 -106 -92 -172 -217 -172c-147 0 -241 96 -241 251c0 160 93 259 239 259
c136 0 219 -82 219 -231zM461 282v5c0 109 -64 168 -166 168c-103 0 -172 -62 -185 -173h351z" />
    <glyph glyph-name="emacron" unicode="&#x113;" horiz-adv-x="566" 
d="M417 644v-41h-263v41h263zM512 271v-30h-404c1 -126 74 -202 187 -202c93 0 159 48 166 125h51c-5 -106 -92 -172 -217 -172c-147 0 -241 96 -241 251c0 160 93 259 239 259c136 0 219 -82 219 -231zM461 282v5c0 109 -64 168 -166 168c-103 0 -172 -62 -185 -173h351z
" />
    <glyph glyph-name="eogonek" unicode="&#x119;" horiz-adv-x="566" 
d="M512 271v-30h-404c1 -126 74 -202 187 -202c93 0 159 48 166 125h51c-2 -39 -15 -73 -38 -100c-13 -18 -37 -43 -53 -61c-41 -44 -66 -81 -66 -116c0 -26 16 -44 49 -44c24 0 39 6 48 9v-38c-11 -5 -30 -10 -54 -10c-61 0 -90 34 -90 75c0 40 24 87 64 122v2
c-24 -7 -49 -11 -77 -11c-147 0 -241 96 -241 251c0 160 93 259 239 259c136 0 219 -82 219 -231zM461 282v5c0 109 -64 168 -166 168c-103 0 -172 -62 -185 -173h351z" />
    <glyph glyph-name="gbreve" unicode="&#x11f;" horiz-adv-x="585" 
d="M275 560c-94 0 -128 63 -128 114v15h41v-12c0 -39 24 -79 87 -79s87 40 87 79v12h41v-15c0 -51 -35 -114 -128 -114zM390 61c95 0 149 -43 149 -116c0 -97 -89 -156 -238 -156c-157 0 -251 52 -251 143c0 58 45 100 108 100v1c-25 17 -40 44 -40 78c0 35 14 59 29 70v2
c-47 31 -73 80 -73 143c0 107 77 176 201 176c17 0 33 -1 48 -4c34 -2 88 -4 139 -4c26 0 48 1 60 2v-45c-9 -1 -24 -2 -39 -2c-26 0 -49 3 -62 6c35 -30 55 -75 55 -129c0 -107 -77 -176 -201 -176c-36 0 -67 6 -94 16c-9 -8 -16 -26 -16 -47c0 -36 23 -58 66 -58h159z
M275 455c-92 0 -148 -50 -148 -129s56 -129 148 -129s148 50 148 129s-56 129 -148 129zM301 -164c127 0 184 42 184 104c0 48 -35 74 -102 74h-152c-80 0 -127 -27 -127 -80c0 -65 75 -98 197 -98z" />
    <glyph glyph-name="gcircumflex" unicode="&#x11d;" horiz-adv-x="585" 
d="M276 644h-2l-135 -90v50l135 90h2l135 -90v-50zM390 61c95 0 149 -43 149 -116c0 -97 -89 -156 -238 -156c-157 0 -251 52 -251 143c0 58 45 100 108 100v1c-25 17 -40 44 -40 78c0 35 14 59 29 70v2c-47 31 -73 80 -73 143c0 107 77 176 201 176c17 0 33 -1 48 -4
c34 -2 88 -4 139 -4c26 0 48 1 60 2v-45c-9 -1 -24 -2 -39 -2c-26 0 -49 3 -62 6c35 -30 55 -75 55 -129c0 -107 -77 -176 -201 -176c-36 0 -67 6 -94 16c-9 -8 -16 -26 -16 -47c0 -36 23 -58 66 -58h159zM275 455c-92 0 -148 -50 -148 -129s56 -129 148 -129
s148 50 148 129s-56 129 -148 129zM301 -164c127 0 184 42 184 104c0 48 -35 74 -102 74h-152c-80 0 -127 -27 -127 -80c0 -65 75 -98 197 -98z" />
    <glyph glyph-name="gcommaaccent" unicode="&#x123;" horiz-adv-x="585" 
d="M304 650v-100h-59v67c0 101 31 151 100 164v-35c-41 -9 -60 -39 -63 -94v-2h22zM390 61c95 0 149 -43 149 -116c0 -97 -89 -156 -238 -156c-157 0 -251 52 -251 143c0 58 45 100 108 100v1c-25 17 -40 44 -40 78c0 35 14 59 29 70v2c-47 31 -73 80 -73 143
c0 107 77 176 201 176c17 0 33 -1 48 -4c34 -2 88 -4 139 -4c26 0 48 1 60 2v-45c-9 -1 -24 -2 -39 -2c-26 0 -49 3 -62 6c35 -30 55 -75 55 -129c0 -107 -77 -176 -201 -176c-36 0 -67 6 -94 16c-9 -8 -16 -26 -16 -47c0 -36 23 -58 66 -58h159zM275 455
c-92 0 -148 -50 -148 -129s56 -129 148 -129s148 50 148 129s-56 129 -148 129zM301 -164c127 0 184 42 184 104c0 48 -35 74 -102 74h-152c-80 0 -127 -27 -127 -80c0 -65 75 -98 197 -98z" />
    <glyph glyph-name="gdotaccent" unicode="&#x121;" horiz-adv-x="585" 
d="M302 654v-93h-54v93h54zM390 61c95 0 149 -43 149 -116c0 -97 -89 -156 -238 -156c-157 0 -251 52 -251 143c0 58 45 100 108 100v1c-25 17 -40 44 -40 78c0 35 14 59 29 70v2c-47 31 -73 80 -73 143c0 107 77 176 201 176c17 0 33 -1 48 -4c34 -2 88 -4 139 -4
c26 0 48 1 60 2v-45c-9 -1 -24 -2 -39 -2c-26 0 -49 3 -62 6c35 -30 55 -75 55 -129c0 -107 -77 -176 -201 -176c-36 0 -67 6 -94 16c-9 -8 -16 -26 -16 -47c0 -36 23 -58 66 -58h159zM275 455c-92 0 -148 -50 -148 -129s56 -129 148 -129s148 50 148 129s-56 129 -148 129z
M301 -164c127 0 184 42 184 104c0 48 -35 74 -102 74h-152c-80 0 -127 -27 -127 -80c0 -65 75 -98 197 -98z" />
    <glyph glyph-name="hcircumflex" unicode="&#x125;" horiz-adv-x="622" 
d="M-33 720v50l135 90h2l135 -90v-50l-135 90h-2zM76 0v693h54v-232c0 -26 -2 -82 -2 -106h1c27 91 101 147 219 147c132 0 209 -72 209 -196v-306h-54v296c0 100 -58 157 -170 157c-121 0 -203 -74 -203 -206v-247h-54z" />
    <glyph glyph-name="dotlessi" unicode="&#x131;" horiz-adv-x="206" 
d="M76 0v494h54v-494h-54z" />
    <glyph glyph-name="iacute" unicode="&#xed;" horiz-adv-x="206" 
d="M70 550l83 139h62l-98 -139h-47zM76 0v494h54v-494h-54z" />
    <glyph glyph-name="icircumflex" unicode="&#xee;" horiz-adv-x="206" 
d="M-33 554v50l135 90h2l135 -90v-50l-135 90h-2zM76 0v494h54v-494h-54z" />
    <glyph glyph-name="uni0209" unicode="&#x209;" horiz-adv-x="206" 
d="M26 550l-91 139h57l79 -139h-45zM184 550l-92 139h58l80 -139h-46zM76 0v494h54v-494h-54z" />
    <glyph glyph-name="idieresis" unicode="&#xef;" horiz-adv-x="206" 
d="M-2 561v93h53v-93h-53zM155 561v93h53v-93h-53zM76 0v494h54v-494h-54z" />
    <glyph glyph-name="igrave" unicode="&#xec;" horiz-adv-x="206" 
d="M106 550l-99 139h63l83 -139h-47zM76 0v494h54v-494h-54z" />
    <glyph glyph-name="uni020B" unicode="&#x20b;" horiz-adv-x="206" 
d="M-25 560v16c0 50 35 113 128 113c94 0 128 -63 128 -113v-16h-41v13c0 38 -24 78 -87 78s-87 -40 -87 -78v-13h-41zM76 0v494h54v-494h-54z" />
    <glyph glyph-name="imacron" unicode="&#x12b;" horiz-adv-x="206" 
d="M-28 603v41h263v-41h-263zM76 0v494h54v-494h-54z" />
    <glyph glyph-name="iogonek" unicode="&#x12f;" horiz-adv-x="206" 
d="M132 654v-93h-59v93h59zM99 -157c23 0 38 6 48 9v-38c-11 -5 -30 -10 -54 -10c-62 0 -90 34 -90 75c0 42 30 87 72 121h1v494h54v-494h-1c-47 -37 -79 -81 -79 -113c0 -26 15 -44 49 -44z" />
    <glyph glyph-name="uni006A0301" horiz-adv-x="203" 
d="M69 550l83 139h62l-98 -139h-47zM-25 -207c-30 0 -63 5 -80 10v49c18 -4 47 -10 72 -10c73 0 109 51 109 144v508h54v-508c0 -118 -49 -193 -155 -193z" />
    <glyph glyph-name="jcircumflex" unicode="&#x135;" horiz-adv-x="203" 
d="M-34 554v50l135 90h2l135 -90v-50l-135 90h-2zM-25 -207c-30 0 -63 5 -80 10v49c18 -4 47 -10 72 -10c73 0 109 51 109 144v508h54v-508c0 -118 -49 -193 -155 -193z" />
    <glyph glyph-name="uni0237" unicode="&#x237;" horiz-adv-x="203" 
d="M-25 -207c-30 0 -63 5 -80 10v49c18 -4 47 -10 72 -10c73 0 109 51 109 144v508h54v-508c0 -118 -49 -193 -155 -193z" />
    <glyph glyph-name="kcommaaccent" unicode="&#x137;" horiz-adv-x="601" 
d="M76 0v693h54v-496h1l349 297h77l-265 -221l280 -273h-78l-243 238l-121 -101v-137h-54zM243 -263v35c41 9 60 39 63 94v2h-22v100h59v-67c0 -101 -31 -151 -100 -164z" />
    <glyph glyph-name="lacute" unicode="&#x13a;" horiz-adv-x="206" 
d="M70 724l83 139h62l-98 -139h-47zM76 0v693h54v-693h-54z" />
    <glyph glyph-name="lcaron" unicode="&#x13e;" horiz-adv-x="248" 
d="M76 0v693h54v-693h-54zM171 427v35c41 9 60 39 63 94v2h-22v100h59v-67c0 -101 -31 -151 -100 -164z" />
    <glyph glyph-name="lcommaaccent" unicode="&#x13c;" horiz-adv-x="206" 
d="M76 0v693h54v-693h-54zM33 -263v35c41 9 60 39 63 94v2h-22v100h59v-67c0 -101 -31 -151 -100 -164z" />
    <glyph glyph-name="ldot" unicode="&#x140;" horiz-adv-x="259" 
d="M76 0v693h54v-693h-54zM203 257v100h59v-100h-59z" />
    <glyph glyph-name="lslash" unicode="&#x142;" horiz-adv-x="206" 
d="M190 340v-38l-60 -34v-268h-54v238l-60 -34v38l60 34v417h54v-387z" />
    <glyph glyph-name="nacute" unicode="&#x144;" horiz-adv-x="615" 
d="M277 550l83 139h62l-98 -139h-47zM70 0v494h54l-2 -137h1c27 90 101 145 219 145c132 0 209 -72 209 -196v-306h-54v296c0 100 -58 157 -171 157c-120 0 -202 -73 -202 -200v-253h-54z" />
    <glyph glyph-name="ncaron" unicode="&#x148;" horiz-adv-x="615" 
d="M279 550l-107 139h60l77 -106h2l77 106h60l-107 -139h-62zM70 0v494h54l-2 -137h1c27 90 101 145 219 145c132 0 209 -72 209 -196v-306h-54v296c0 100 -58 157 -171 157c-120 0 -202 -73 -202 -200v-253h-54z" />
    <glyph glyph-name="ncommaaccent" unicode="&#x146;" horiz-adv-x="615" 
d="M70 0v494h54l-2 -137h1c27 90 101 145 219 145c132 0 209 -72 209 -196v-306h-54v296c0 100 -58 157 -171 157c-120 0 -202 -73 -202 -200v-253h-54zM239 -263v35c41 9 60 39 63 94v2h-22v100h59v-67c0 -101 -31 -151 -100 -164z" />
    <glyph glyph-name="ntilde" unicode="&#xf1;" horiz-adv-x="615" 
d="M138 565c9 95 48 139 99 139c35 0 56 -16 77 -45l14 -20c17 -23 30 -37 53 -37c30 0 51 32 58 101h40c-8 -95 -46 -138 -98 -138c-36 0 -57 17 -77 45l-14 19c-18 24 -29 37 -53 37c-29 0 -51 -32 -58 -101h-41zM70 0v494h54l-2 -137h1c27 90 101 145 219 145
c132 0 209 -72 209 -196v-306h-54v296c0 100 -58 157 -171 157c-120 0 -202 -73 -202 -200v-253h-54z" />
    <glyph glyph-name="oacute" unicode="&#xf3;" horiz-adv-x="597" 
d="M266 550l83 139h62l-98 -139h-47zM299 -8c-147 0 -245 97 -245 254c0 158 98 256 245 256c146 0 245 -98 245 -256c0 -157 -99 -254 -245 -254zM299 41c113 0 191 78 191 205c0 128 -78 207 -191 207s-191 -79 -191 -207c0 -127 78 -205 191 -205z" />
    <glyph glyph-name="obreve" unicode="&#x14f;" horiz-adv-x="597" 
d="M299 560c-94 0 -128 63 -128 114v15h41v-12c0 -39 24 -79 87 -79s87 40 87 79v12h41v-15c0 -51 -35 -114 -128 -114zM299 -8c-147 0 -245 97 -245 254c0 158 98 256 245 256c146 0 245 -98 245 -256c0 -157 -99 -254 -245 -254zM299 41c113 0 191 78 191 205
c0 128 -78 207 -191 207s-191 -79 -191 -207c0 -127 78 -205 191 -205z" />
    <glyph glyph-name="ocircumflex" unicode="&#xf4;" horiz-adv-x="597" 
d="M163 554v50l135 90h2l135 -90v-50l-135 90h-2zM299 -8c-147 0 -245 97 -245 254c0 158 98 256 245 256c146 0 245 -98 245 -256c0 -157 -99 -254 -245 -254zM299 41c113 0 191 78 191 205c0 128 -78 207 -191 207s-191 -79 -191 -207c0 -127 78 -205 191 -205z" />
    <glyph glyph-name="uni020D" unicode="&#x20d;" horiz-adv-x="597" 
d="M222 550l-91 139h57l79 -139h-45zM380 550l-92 139h58l80 -139h-46zM299 -8c-147 0 -245 97 -245 254c0 158 98 256 245 256c146 0 245 -98 245 -256c0 -157 -99 -254 -245 -254zM299 41c113 0 191 78 191 205c0 128 -78 207 -191 207s-191 -79 -191 -207
c0 -127 78 -205 191 -205z" />
    <glyph glyph-name="odieresis" unicode="&#xf6;" horiz-adv-x="597" 
d="M194 561v93h53v-93h-53zM351 561v93h53v-93h-53zM299 -8c-147 0 -245 97 -245 254c0 158 98 256 245 256c146 0 245 -98 245 -256c0 -157 -99 -254 -245 -254zM299 41c113 0 191 78 191 205c0 128 -78 207 -191 207s-191 -79 -191 -207c0 -127 78 -205 191 -205z" />
    <glyph glyph-name="ograve" unicode="&#xf2;" horiz-adv-x="597" 
d="M302 550l-99 139h63l83 -139h-47zM299 -8c-147 0 -245 97 -245 254c0 158 98 256 245 256c146 0 245 -98 245 -256c0 -157 -99 -254 -245 -254zM299 41c113 0 191 78 191 205c0 128 -78 207 -191 207s-191 -79 -191 -207c0 -127 78 -205 191 -205z" />
    <glyph glyph-name="ohungarumlaut" unicode="&#x151;" horiz-adv-x="597" 
d="M164 552l78 137h59l-92 -137h-45zM323 552l77 137h59l-92 -137h-44zM299 -8c-147 0 -245 97 -245 254c0 158 98 256 245 256c146 0 245 -98 245 -256c0 -157 -99 -254 -245 -254zM299 41c113 0 191 78 191 205c0 128 -78 207 -191 207s-191 -79 -191 -207
c0 -127 78 -205 191 -205z" />
    <glyph glyph-name="uni020F" unicode="&#x20f;" horiz-adv-x="597" 
d="M171 560v16c0 50 35 113 128 113c94 0 128 -63 128 -113v-16h-41v13c0 38 -24 78 -87 78s-87 -40 -87 -78v-13h-41zM299 -8c-147 0 -245 97 -245 254c0 158 98 256 245 256c146 0 245 -98 245 -256c0 -157 -99 -254 -245 -254zM299 41c113 0 191 78 191 205
c0 128 -78 207 -191 207s-191 -79 -191 -207c0 -127 78 -205 191 -205z" />
    <glyph glyph-name="omacron" unicode="&#x14d;" horiz-adv-x="597" 
d="M168 603v41h263v-41h-263zM299 -8c-147 0 -245 97 -245 254c0 158 98 256 245 256c146 0 245 -98 245 -256c0 -157 -99 -254 -245 -254zM299 41c113 0 191 78 191 205c0 128 -78 207 -191 207s-191 -79 -191 -207c0 -127 78 -205 191 -205z" />
    <glyph glyph-name="oslash" unicode="&#xf8;" horiz-adv-x="597" 
d="M482 428c39 -44 62 -106 62 -182c0 -157 -99 -254 -245 -254c-65 0 -121 19 -162 54l-37 -41l-24 21l38 42c-38 43 -60 104 -60 178c0 158 98 256 245 256c64 0 118 -19 160 -53l36 40l24 -20zM108 246c0 -56 15 -103 42 -138l274 302c-33 28 -76 43 -125 43
c-113 0 -191 -79 -191 -207zM299 41c113 0 191 78 191 205c0 58 -16 106 -45 142l-273 -303c33 -28 77 -44 127 -44z" />
    <glyph glyph-name="oslashacute" unicode="&#x1ff;" horiz-adv-x="597" 
d="M411 689l-98 -139h-47l83 139h62zM482 428c39 -44 62 -106 62 -182c0 -157 -99 -254 -245 -254c-65 0 -121 19 -162 54l-37 -41l-24 21l38 42c-38 43 -60 104 -60 178c0 158 98 256 245 256c64 0 118 -19 160 -53l36 40l24 -20zM108 246c0 -56 15 -103 42 -138l274 302
c-33 28 -76 43 -125 43c-113 0 -191 -79 -191 -207zM299 41c113 0 191 78 191 205c0 58 -16 106 -45 142l-273 -303c33 -28 77 -44 127 -44z" />
    <glyph glyph-name="otilde" unicode="&#xf5;" horiz-adv-x="597" 
d="M127 565c9 95 48 139 99 139c35 0 56 -16 77 -45l14 -20c17 -23 30 -37 53 -37c30 0 51 32 58 101h40c-8 -95 -46 -138 -98 -138c-36 0 -57 17 -77 45l-14 19c-18 24 -29 37 -53 37c-29 0 -51 -32 -58 -101h-41zM299 -8c-147 0 -245 97 -245 254c0 158 98 256 245 256
c146 0 245 -98 245 -256c0 -157 -99 -254 -245 -254zM299 41c113 0 191 78 191 205c0 128 -78 207 -191 207s-191 -79 -191 -207c0 -127 78 -205 191 -205z" />
    <glyph glyph-name="oe" unicode="&#x153;" horiz-adv-x="1002" 
d="M948 271v-30h-404c1 -126 74 -202 187 -202c93 0 159 48 166 125h51c-6 -106 -92 -172 -217 -172c-106 0 -188 56 -214 143h-2c-28 -86 -108 -143 -216 -143c-147 0 -245 97 -245 254c0 158 98 256 245 256c109 0 189 -58 217 -147h2c28 90 101 147 211 147
c135 0 219 -82 219 -231zM897 282v5c0 109 -64 168 -166 168c-103 0 -172 -62 -185 -173h351zM299 41c113 0 191 78 191 205c0 128 -78 207 -191 207s-191 -79 -191 -207c0 -127 78 -205 191 -205z" />
    <glyph glyph-name="thorn" unicode="&#xfe;" horiz-adv-x="623" 
d="M76 -198v891h54v-249c0 -21 -2 -68 -2 -82h1c22 84 99 140 211 140c138 0 230 -95 230 -246c0 -163 -93 -264 -231 -264c-116 0 -187 55 -211 126h-1c1 -35 3 -84 3 -108v-208h-54zM332 41c108 0 184 81 184 214c0 122 -74 198 -185 198c-118 0 -201 -78 -201 -209v-28
c0 -98 72 -175 202 -175z" />
    <glyph glyph-name="racute" unicode="&#x155;" horiz-adv-x="531" 
d="M248 550l83 139h62l-98 -139h-47zM70 0v494h54l-2 -147h1c22 90 83 155 186 155c110 0 169 -70 169 -195c0 -29 -2 -60 -4 -77h-50c2 15 4 41 4 67c0 104 -42 156 -130 156c-105 0 -174 -88 -174 -223v-230h-54z" />
    <glyph glyph-name="rcaron" unicode="&#x159;" horiz-adv-x="531" 
d="M250 550l-107 139h60l77 -106h2l77 106h60l-107 -139h-62zM70 0v494h54l-2 -147h1c22 90 83 155 186 155c110 0 169 -70 169 -195c0 -29 -2 -60 -4 -77h-50c2 15 4 41 4 67c0 104 -42 156 -130 156c-105 0 -174 -88 -174 -223v-230h-54z" />
    <glyph glyph-name="rcommaaccent" unicode="&#x157;" horiz-adv-x="531" 
d="M70 0v494h54l-2 -147h1c22 90 83 155 186 155c110 0 169 -70 169 -195c0 -29 -2 -60 -4 -77h-50c2 15 4 41 4 67c0 104 -42 156 -130 156c-105 0 -174 -88 -174 -223v-230h-54zM28 -263v35c41 9 60 39 63 94v2h-22v100h59v-67c0 -101 -31 -151 -100 -164z" />
    <glyph glyph-name="uni0211" unicode="&#x211;" horiz-adv-x="531" 
d="M204 550l-91 139h57l79 -139h-45zM362 550l-92 139h58l80 -139h-46zM70 0v494h54l-2 -147h1c22 90 83 155 186 155c110 0 169 -70 169 -195c0 -29 -2 -60 -4 -77h-50c2 15 4 41 4 67c0 104 -42 156 -130 156c-105 0 -174 -88 -174 -223v-230h-54z" />
    <glyph glyph-name="uni0213" unicode="&#x213;" horiz-adv-x="531" 
d="M153 560v16c0 50 35 113 128 113c94 0 128 -63 128 -113v-16h-41v13c0 38 -24 78 -87 78s-87 -40 -87 -78v-13h-41zM70 0v494h54l-2 -147h1c22 90 83 155 186 155c110 0 169 -70 169 -195c0 -29 -2 -60 -4 -77h-50c2 15 4 41 4 67c0 104 -42 156 -130 156
c-105 0 -174 -88 -174 -223v-230h-54z" />
    <glyph glyph-name="sacute" unicode="&#x15b;" horiz-adv-x="538" 
d="M229 550l83 139h62l-98 -139h-47zM263 -8c-154 0 -209 72 -209 173h50c0 -79 46 -126 159 -126c109 0 167 38 167 101c0 26 -9 48 -33 61c-22 11 -66 18 -142 25c-83 8 -132 19 -161 39c-27 19 -40 52 -40 88c0 89 82 149 208 149c140 0 202 -63 202 -176h-51
c0 87 -48 129 -149 129c-94 0 -156 -40 -156 -99c0 -24 7 -49 32 -61c25 -13 73 -20 145 -28c85 -9 121 -16 152 -33c31 -18 47 -53 47 -92c0 -94 -79 -150 -221 -150z" />
    <glyph glyph-name="scaron" unicode="&#x161;" horiz-adv-x="538" 
d="M231 550l-107 139h60l77 -106h2l77 106h60l-107 -139h-62zM263 -8c-154 0 -209 72 -209 173h50c0 -79 46 -126 159 -126c109 0 167 38 167 101c0 26 -9 48 -33 61c-22 11 -66 18 -142 25c-83 8 -132 19 -161 39c-27 19 -40 52 -40 88c0 89 82 149 208 149
c140 0 202 -63 202 -176h-51c0 87 -48 129 -149 129c-94 0 -156 -40 -156 -99c0 -24 7 -49 32 -61c25 -13 73 -20 145 -28c85 -9 121 -16 152 -33c31 -18 47 -53 47 -92c0 -94 -79 -150 -221 -150z" />
    <glyph glyph-name="scedilla" unicode="&#x15f;" horiz-adv-x="538" 
d="M484 142c0 -90 -73 -145 -204 -150l-21 -53l1 -1c8 4 21 9 41 9c54 0 81 -30 81 -72c0 -50 -34 -93 -116 -93c-80 0 -118 33 -123 83h44c5 -33 30 -49 79 -49c53 0 75 26 75 58c0 26 -19 43 -63 43c-31 0 -57 -7 -67 -9l31 84c-138 7 -188 77 -188 173h50
c0 -79 46 -126 159 -126c109 0 167 38 167 101c0 26 -9 48 -33 61c-22 11 -66 18 -142 25c-83 8 -132 19 -161 39c-27 19 -40 52 -40 88c0 89 82 149 208 149c140 0 202 -63 202 -176h-51c0 87 -48 129 -149 129c-94 0 -156 -40 -156 -99c0 -24 7 -49 32 -61
c25 -13 73 -20 145 -28c85 -9 121 -16 152 -33c31 -18 47 -53 47 -92z" />
    <glyph glyph-name="scircumflex" unicode="&#x15d;" horiz-adv-x="538" 
d="M126 554v50l135 90h2l135 -90v-50l-135 90h-2zM263 -8c-154 0 -209 72 -209 173h50c0 -79 46 -126 159 -126c109 0 167 38 167 101c0 26 -9 48 -33 61c-22 11 -66 18 -142 25c-83 8 -132 19 -161 39c-27 19 -40 52 -40 88c0 89 82 149 208 149c140 0 202 -63 202 -176
h-51c0 87 -48 129 -149 129c-94 0 -156 -40 -156 -99c0 -24 7 -49 32 -61c25 -13 73 -20 145 -28c85 -9 121 -16 152 -33c31 -18 47 -53 47 -92c0 -94 -79 -150 -221 -150z" />
    <glyph glyph-name="scommaaccent" unicode="&#x219;" horiz-adv-x="538" 
d="M263 -8c-154 0 -209 72 -209 173h50c0 -79 46 -126 159 -126c109 0 167 38 167 101c0 26 -9 48 -33 61c-22 11 -66 18 -142 25c-83 8 -132 19 -161 39c-27 19 -40 52 -40 88c0 89 82 149 208 149c140 0 202 -63 202 -176h-51c0 87 -48 129 -149 129
c-94 0 -156 -40 -156 -99c0 -24 7 -49 32 -61c25 -13 73 -20 145 -28c85 -9 121 -16 152 -33c31 -18 47 -53 47 -92c0 -94 -79 -150 -221 -150zM193 -263v35c41 9 60 39 63 94v2h-22v100h59v-67c0 -101 -31 -151 -100 -164z" />
    <glyph glyph-name="germandbls" unicode="&#xdf;" horiz-adv-x="659" 
d="M385 -8c-57 0 -108 6 -137 11v49c30 -5 83 -11 137 -11c103 0 167 44 167 118c0 31 -10 54 -32 68c-23 17 -67 26 -124 35c-73 12 -110 23 -131 39c-19 15 -30 37 -30 64c0 24 8 45 25 61c15 15 46 30 90 50c51 24 74 48 74 98c0 59 -47 95 -125 95
c-104 0 -169 -60 -169 -186v-483h-54v483c0 152 86 235 223 235c111 0 179 -55 179 -143c0 -65 -30 -105 -84 -129c-42 -19 -75 -32 -86 -41c-14 -12 -19 -24 -19 -37c0 -15 8 -26 21 -34c15 -10 57 -19 113 -28c71 -11 110 -24 137 -44c33 -24 46 -64 46 -104
c0 -103 -82 -166 -221 -166z" />
    <glyph glyph-name="tcaron" unicode="&#x165;" horiz-adv-x="385" 
d="M259 544v35c41 9 60 39 63 94v2h-22v100h59v-67c0 -101 -31 -151 -100 -164zM259 -3c-111 0 -159 70 -159 177v272h-86v48h70c14 0 20 7 21 31l2 81h47v-112h188v-48h-188v-269c0 -83 30 -132 109 -132c32 0 64 7 76 11v-47c-14 -5 -45 -12 -80 -12z" />
    <glyph glyph-name="uni0163" unicode="&#x163;" horiz-adv-x="385" 
d="M259 -3c-111 0 -159 70 -159 177v272h-86v48h70c14 0 20 7 21 31l2 81h47v-112h188v-48h-188v-269c0 -83 30 -132 109 -132c32 0 64 7 76 11v-47c-14 -5 -45 -12 -80 -12zM164 -263v35c41 9 60 39 63 94v2h-22v100h59v-67c0 -101 -31 -151 -100 -164z" />
    <glyph glyph-name="uacute" unicode="&#xfa;" horiz-adv-x="615" 
d="M275 550l83 139h62l-98 -139h-47zM272 -8c-136 0 -207 80 -207 197v305h54v-297c0 -92 56 -156 166 -156c120 0 207 88 207 223v230h54v-494h-54c1 33 2 97 2 153h-1c-22 -95 -103 -161 -221 -161z" />
    <glyph glyph-name="ubreve" unicode="&#x16d;" horiz-adv-x="615" 
d="M308 560c-94 0 -128 63 -128 114v15h41v-12c0 -39 24 -79 87 -79s87 40 87 79v12h41v-15c0 -51 -35 -114 -128 -114zM272 -8c-136 0 -207 80 -207 197v305h54v-297c0 -92 56 -156 166 -156c120 0 207 88 207 223v230h54v-494h-54c1 33 2 97 2 153h-1
c-22 -95 -103 -161 -221 -161z" />
    <glyph glyph-name="ucircumflex" unicode="&#xfb;" horiz-adv-x="615" 
d="M172 554v50l135 90h2l135 -90v-50l-135 90h-2zM272 -8c-136 0 -207 80 -207 197v305h54v-297c0 -92 56 -156 166 -156c120 0 207 88 207 223v230h54v-494h-54c1 33 2 97 2 153h-1c-22 -95 -103 -161 -221 -161z" />
    <glyph glyph-name="uni0215" unicode="&#x215;" horiz-adv-x="615" 
d="M231 550l-91 139h57l79 -139h-45zM389 550l-92 139h58l80 -139h-46zM272 -8c-136 0 -207 80 -207 197v305h54v-297c0 -92 56 -156 166 -156c120 0 207 88 207 223v230h54v-494h-54c1 33 2 97 2 153h-1c-22 -95 -103 -161 -221 -161z" />
    <glyph glyph-name="udieresis" unicode="&#xfc;" horiz-adv-x="615" 
d="M203 561v93h53v-93h-53zM360 561v93h53v-93h-53zM272 -8c-136 0 -207 80 -207 197v305h54v-297c0 -92 56 -156 166 -156c120 0 207 88 207 223v230h54v-494h-54c1 33 2 97 2 153h-1c-22 -95 -103 -161 -221 -161z" />
    <glyph glyph-name="ugrave" unicode="&#xf9;" horiz-adv-x="615" 
d="M311 550l-99 139h63l83 -139h-47zM272 -8c-136 0 -207 80 -207 197v305h54v-297c0 -92 56 -156 166 -156c120 0 207 88 207 223v230h54v-494h-54c1 33 2 97 2 153h-1c-22 -95 -103 -161 -221 -161z" />
    <glyph glyph-name="uhungarumlaut" unicode="&#x171;" horiz-adv-x="615" 
d="M173 552l78 137h59l-92 -137h-45zM332 552l77 137h59l-92 -137h-44zM272 -8c-136 0 -207 80 -207 197v305h54v-297c0 -92 56 -156 166 -156c120 0 207 88 207 223v230h54v-494h-54c1 33 2 97 2 153h-1c-22 -95 -103 -161 -221 -161z" />
    <glyph glyph-name="uni0217" unicode="&#x217;" horiz-adv-x="615" 
d="M180 560v16c0 50 35 113 128 113c94 0 128 -63 128 -113v-16h-41v13c0 38 -24 78 -87 78s-87 -40 -87 -78v-13h-41zM272 -8c-136 0 -207 80 -207 197v305h54v-297c0 -92 56 -156 166 -156c120 0 207 88 207 223v230h54v-494h-54c1 33 2 97 2 153h-1
c-22 -95 -103 -161 -221 -161z" />
    <glyph glyph-name="umacron" unicode="&#x16b;" horiz-adv-x="615" 
d="M177 603v41h263v-41h-263zM272 -8c-136 0 -207 80 -207 197v305h54v-297c0 -92 56 -156 166 -156c120 0 207 88 207 223v230h54v-494h-54c1 33 2 97 2 153h-1c-22 -95 -103 -161 -221 -161z" />
    <glyph glyph-name="uogonek" unicode="&#x173;" horiz-adv-x="615" 
d="M515 -157c23 0 38 6 48 9v-38c-11 -5 -30 -10 -54 -10c-62 0 -90 34 -90 75c0 42 30 87 72 121h1c1 33 2 97 2 153h-1c-22 -95 -103 -161 -221 -161c-136 0 -207 80 -207 197v305h54v-297c0 -92 56 -156 166 -156c120 0 207 88 207 223v230h54v-494h-1
c-47 -37 -79 -81 -79 -113c0 -26 15 -44 49 -44z" />
    <glyph glyph-name="uring" unicode="&#x16f;" horiz-adv-x="615" 
d="M308 550c-89 0 -133 45 -133 108c0 64 47 109 133 109c88 0 133 -45 133 -109c0 -63 -44 -108 -133 -108zM308 586c62 0 93 29 93 72c0 44 -32 73 -93 73c-60 0 -93 -29 -93 -73c0 -43 31 -72 93 -72zM272 -8c-136 0 -207 80 -207 197v305h54v-297
c0 -92 56 -156 166 -156c120 0 207 88 207 223v230h54v-494h-54c1 33 2 97 2 153h-1c-22 -95 -103 -161 -221 -161z" />
    <glyph glyph-name="utilde" unicode="&#x169;" horiz-adv-x="615" 
d="M136 565c9 95 48 139 99 139c35 0 56 -16 77 -45l14 -20c17 -23 30 -37 53 -37c30 0 51 32 58 101h40c-8 -95 -46 -138 -98 -138c-36 0 -57 17 -77 45l-14 19c-18 24 -29 37 -53 37c-29 0 -51 -32 -58 -101h-41zM272 -8c-136 0 -207 80 -207 197v305h54v-297
c0 -92 56 -156 166 -156c120 0 207 88 207 223v230h54v-494h-54c1 33 2 97 2 153h-1c-22 -95 -103 -161 -221 -161z" />
    <glyph glyph-name="wacute" unicode="&#x1e83;" horiz-adv-x="780" 
d="M357 550l83 139h62l-98 -139h-47zM179 0l-150 494h59l126 -436h2l151 436h53l147 -436h2l129 436h53l-149 -494h-67l-143 424h-3l-146 -424h-64z" />
    <glyph glyph-name="wcircumflex" unicode="&#x175;" horiz-adv-x="780" 
d="M254 554v50l135 90h2l135 -90v-50l-135 90h-2zM179 0l-150 494h59l126 -436h2l151 436h53l147 -436h2l129 436h53l-149 -494h-67l-143 424h-3l-146 -424h-64z" />
    <glyph glyph-name="wdieresis" unicode="&#x1e85;" horiz-adv-x="780" 
d="M285 561v93h53v-93h-53zM442 561v93h53v-93h-53zM179 0l-150 494h59l126 -436h2l151 436h53l147 -436h2l129 436h53l-149 -494h-67l-143 424h-3l-146 -424h-64z" />
    <glyph glyph-name="wgrave" unicode="&#x1e81;" horiz-adv-x="780" 
d="M393 550l-99 139h63l83 -139h-47zM179 0l-150 494h59l126 -436h2l151 436h53l147 -436h2l129 436h53l-149 -494h-67l-143 424h-3l-146 -424h-64z" />
    <glyph glyph-name="yacute" unicode="&#xfd;" horiz-adv-x="553" 
d="M244 550l83 139h62l-98 -139h-47zM142 -207c-24 0 -49 6 -62 12v46c12 -4 34 -10 56 -10c60 0 84 34 136 159h-18l-225 494h64l198 -441h2l175 441h56l-200 -501c-60 -153 -95 -200 -182 -200z" />
    <glyph glyph-name="ycircumflex" unicode="&#x177;" horiz-adv-x="553" 
d="M141 554v50l135 90h2l135 -90v-50l-135 90h-2zM142 -207c-24 0 -49 6 -62 12v46c12 -4 34 -10 56 -10c60 0 84 34 136 159h-18l-225 494h64l198 -441h2l175 441h56l-200 -501c-60 -153 -95 -200 -182 -200z" />
    <glyph glyph-name="ydieresis" unicode="&#xff;" horiz-adv-x="553" 
d="M172 561v93h53v-93h-53zM329 561v93h53v-93h-53zM142 -207c-24 0 -49 6 -62 12v46c12 -4 34 -10 56 -10c60 0 84 34 136 159h-18l-225 494h64l198 -441h2l175 441h56l-200 -501c-60 -153 -95 -200 -182 -200z" />
    <glyph glyph-name="ygrave" unicode="&#x1ef3;" horiz-adv-x="553" 
d="M280 550l-99 139h63l83 -139h-47zM142 -207c-24 0 -49 6 -62 12v46c12 -4 34 -10 56 -10c60 0 84 34 136 159h-18l-225 494h64l198 -441h2l175 441h56l-200 -501c-60 -153 -95 -200 -182 -200z" />
    <glyph glyph-name="zacute" unicode="&#x17a;" horiz-adv-x="489" 
d="M216 550l83 139h62l-98 -139h-47zM52 0v37l313 407v2h-305v48h377v-37l-313 -408v-1h313v-48h-385z" />
    <glyph glyph-name="zcaron" unicode="&#x17e;" horiz-adv-x="489" 
d="M218 550l-107 139h60l77 -106h2l77 106h60l-107 -139h-62zM52 0v37l313 407v2h-305v48h377v-37l-313 -408v-1h313v-48h-385z" />
    <glyph glyph-name="zdotaccent" unicode="&#x17c;" horiz-adv-x="489" 
d="M222 561v93h54v-93h-54zM52 0v37l313 407v2h-305v48h377v-37l-313 -408v-1h313v-48h-385z" />
    <glyph glyph-name="uni1E9E" unicode="&#x1e9e;" horiz-adv-x="688" 
d="M416 -9c-50 0 -95 5 -115 9v51c17 -3 59 -9 115 -9c106 0 161 61 161 156c0 87 -73 131 -222 134l179 251c-40 16 -97 33 -180 33c-148 0 -227 -76 -227 -222v-394h-57v394c0 179 105 274 284 274c122 0 204 -32 258 -60l-171 -241c126 -9 193 -74 193 -169
c0 -128 -76 -207 -218 -207z" />
    <glyph glyph-name="germandbls.calt" horiz-adv-x="688" 
d="M416 -9c-50 0 -95 5 -115 9v51c17 -3 59 -9 115 -9c106 0 161 61 161 156c0 87 -73 131 -222 134l179 251c-40 16 -97 33 -180 33c-148 0 -227 -76 -227 -222v-394h-57v394c0 179 105 274 284 274c122 0 204 -32 258 -60l-171 -241c126 -9 193 -74 193 -169
c0 -128 -76 -207 -218 -207z" />
    <glyph glyph-name="r.ss01" horiz-adv-x="404" 
d="M380 435c-15 6 -40 12 -70 12c-105 0 -186 -82 -186 -261v-186h-54v494h54l-2 -170h2c23 123 91 176 186 176c34 0 58 -7 70 -12v-53z" />
    <glyph glyph-name="racute.ss01" horiz-adv-x="404" 
d="M186 550l83 139h62l-98 -139h-47zM380 435c-15 6 -40 12 -70 12c-105 0 -186 -82 -186 -261v-186h-54v494h54l-2 -170h2c23 123 91 176 186 176c34 0 58 -7 70 -12v-53z" />
    <glyph glyph-name="rcaron.ss01" horiz-adv-x="404" 
d="M188 550l-107 139h60l77 -106h2l77 106h60l-107 -139h-62zM380 435c-15 6 -40 12 -70 12c-105 0 -186 -82 -186 -261v-186h-54v494h54l-2 -170h2c23 123 91 176 186 176c34 0 58 -7 70 -12v-53z" />
    <glyph glyph-name="rcommaaccent.ss01" horiz-adv-x="404" 
d="M380 435c-15 6 -40 12 -70 12c-105 0 -186 -82 -186 -261v-186h-54v494h54l-2 -170h2c23 123 91 176 186 176c34 0 58 -7 70 -12v-53zM28 -263v35c41 9 60 39 63 94v2h-22v100h59v-67c0 -101 -31 -151 -100 -164z" />
    <glyph glyph-name="uni0211.ss01" horiz-adv-x="404" 
d="M142 550l-91 139h57l79 -139h-45zM300 550l-92 139h58l80 -139h-46zM380 435c-15 6 -40 12 -70 12c-105 0 -186 -82 -186 -261v-186h-54v494h54l-2 -170h2c23 123 91 176 186 176c34 0 58 -7 70 -12v-53z" />
    <glyph glyph-name="uni0213.ss01" horiz-adv-x="404" 
d="M91 560v16c0 50 35 113 128 113c94 0 128 -63 128 -113v-16h-41v13c0 38 -24 78 -87 78s-87 -40 -87 -78v-13h-41zM380 435c-15 6 -40 12 -70 12c-105 0 -186 -82 -186 -261v-186h-54v494h54l-2 -170h2c23 123 91 176 186 176c34 0 58 -7 70 -12v-53z" />
    <glyph glyph-name="g.ss02" horiz-adv-x="619" 
d="M50 253c0 151 96 249 236 249c114 0 183 -52 202 -124h1v116h54v-469c0 -159 -101 -236 -242 -236c-127 0 -217 57 -217 146c0 6 0 15 1 24h51c-1 -8 -1 -15 -1 -21c0 -59 67 -100 165 -100c116 0 189 57 189 185v116h-2c-19 -88 -100 -147 -206 -147
c-138 0 -231 99 -231 261zM104 253c0 -132 76 -212 187 -212c126 0 198 93 198 202v24c0 110 -70 186 -195 186c-112 0 -190 -79 -190 -200z" />
    <glyph glyph-name="gbreve.ss02" horiz-adv-x="619" 
d="M299 560c-94 0 -128 63 -128 114v15h41v-12c0 -39 24 -79 87 -79s87 40 87 79v12h41v-15c0 -51 -35 -114 -128 -114zM50 253c0 151 96 249 236 249c114 0 183 -52 202 -124h1v116h54v-469c0 -159 -101 -236 -242 -236c-127 0 -217 57 -217 146c0 6 0 15 1 24h51
c-1 -8 -1 -15 -1 -21c0 -59 67 -100 165 -100c116 0 189 57 189 185v116h-2c-19 -88 -100 -147 -206 -147c-138 0 -231 99 -231 261zM104 253c0 -132 76 -212 187 -212c126 0 198 93 198 202v24c0 110 -70 186 -195 186c-112 0 -190 -79 -190 -200z" />
    <glyph glyph-name="gcircumflex.ss02" horiz-adv-x="619" 
d="M163 554v50l135 90h2l135 -90v-50l-135 90h-2zM50 253c0 151 96 249 236 249c114 0 183 -52 202 -124h1v116h54v-469c0 -159 -101 -236 -242 -236c-127 0 -217 57 -217 146c0 6 0 15 1 24h51c-1 -8 -1 -15 -1 -21c0 -59 67 -100 165 -100c116 0 189 57 189 185v116h-2
c-19 -88 -100 -147 -206 -147c-138 0 -231 99 -231 261zM104 253c0 -132 76 -212 187 -212c126 0 198 93 198 202v24c0 110 -70 186 -195 186c-112 0 -190 -79 -190 -200z" />
    <glyph glyph-name="gcommaaccent.ss02" horiz-adv-x="619" 
d="M369 781v-35c-41 -9 -60 -39 -63 -94v-2h22v-100h-59v67c0 101 31 151 100 164zM50 253c0 151 96 249 236 249c114 0 183 -52 202 -124h1v116h54v-469c0 -159 -101 -236 -242 -236c-127 0 -217 57 -217 146c0 6 0 15 1 24h51c-1 -8 -1 -15 -1 -21c0 -59 67 -100 165 -100
c116 0 189 57 189 185v116h-2c-19 -88 -100 -147 -206 -147c-138 0 -231 99 -231 261zM104 253c0 -132 76 -212 187 -212c126 0 198 93 198 202v24c0 110 -70 186 -195 186c-112 0 -190 -79 -190 -200z" />
    <glyph glyph-name="gdotaccent.ss02" horiz-adv-x="619" 
d="M272 561v93h54v-93h-54zM50 253c0 151 96 249 236 249c114 0 183 -52 202 -124h1v116h54v-469c0 -159 -101 -236 -242 -236c-127 0 -217 57 -217 146c0 6 0 15 1 24h51c-1 -8 -1 -15 -1 -21c0 -59 67 -100 165 -100c116 0 189 57 189 185v116h-2
c-19 -88 -100 -147 -206 -147c-138 0 -231 99 -231 261zM104 253c0 -132 76 -212 187 -212c126 0 198 93 198 202v24c0 110 -70 186 -195 186c-112 0 -190 -79 -190 -200z" />
    <glyph glyph-name="g.ss03" horiz-adv-x="585" 
d="M390 61c95 0 149 -43 149 -116c0 -97 -89 -156 -238 -156c-157 0 -251 52 -251 143c0 58 45 100 108 100v1c-25 17 -40 44 -40 78c0 35 14 59 29 70v2c-47 31 -73 80 -73 143c0 107 77 176 201 176c17 0 33 -1 48 -4c34 -2 88 -4 139 -4c26 0 48 1 60 2v-45
c-9 -1 -24 -2 -39 -2c-26 0 -49 3 -62 6c35 -30 55 -75 55 -129c0 -107 -77 -176 -201 -176c-36 0 -67 6 -94 16c-9 -8 -16 -26 -16 -47c0 -36 23 -58 66 -58h159zM275 455c-92 0 -148 -50 -148 -129s56 -129 148 -129s148 50 148 129s-56 129 -148 129zM301 -164
c127 0 184 42 184 104c0 48 -35 74 -102 74h-152c-80 0 -127 -27 -127 -80c0 -65 75 -98 197 -98z" />
    <glyph glyph-name="g.ss04" horiz-adv-x="585" 
d="M390 61c95 0 149 -43 149 -116c0 -97 -89 -156 -238 -156c-157 0 -251 52 -251 143c0 58 45 100 108 100v1c-25 17 -40 44 -40 78c0 35 14 59 29 70v2c-47 31 -73 80 -73 143c0 107 77 176 201 176c38 0 71 -6 99 -18c20 -5 50 -11 70 -11c33 0 55 15 55 51
c0 13 -3 29 -6 39h46c3 -9 6 -25 6 -42c0 -54 -34 -81 -75 -81c-19 0 -33 4 -38 7l-1 -1c29 -30 45 -71 45 -120c0 -107 -77 -176 -201 -176c-36 0 -67 6 -94 16c-9 -8 -16 -26 -16 -47c0 -36 23 -58 66 -58h159zM275 455c-92 0 -148 -50 -148 -129s56 -129 148 -129
s148 50 148 129s-56 129 -148 129zM301 -164c127 0 184 42 184 104c0 48 -35 74 -102 74h-152c-80 0 -127 -27 -127 -80c0 -65 75 -98 197 -98z" />
    <glyph glyph-name="t_t" horiz-adv-x="713" 
d="M670 446h-188v-269c0 -83 30 -132 109 -132c32 0 64 7 76 11v-47c-14 -5 -45 -12 -80 -12c-111 0 -159 70 -159 177v272h-274v-269c0 -83 30 -132 109 -132c32 0 64 7 76 11v-47c-14 -5 -45 -12 -80 -12c-111 0 -159 70 -159 177v272h-86v48h70c14 0 20 7 21 31l2 81h47
v-112h258c14 0 20 7 21 31l2 81h47v-112h188v-48z" />
    <glyph glyph-name="ordfeminine" unicode="&#xaa;" horiz-adv-x="376" 
d="M35 388c0 50 40 79 116 79h133v28c0 51 -34 79 -103 79c-64 0 -97 -21 -97 -63c0 -2 0 -8 1 -17h-39c-1 9 -1 15 -1 18c0 63 46 96 137 96c97 0 144 -43 144 -115v-187h-42c0 14 1 43 1 70h-1c-14 -46 -58 -75 -130 -75c-91 0 -119 42 -119 87zM76 389
c0 -30 22 -54 84 -54c95 0 124 55 124 98v5h-130c-51 0 -78 -15 -78 -49zM35 197v38h291v-38h-291z" />
    <glyph glyph-name="ordmasculine" unicode="&#xba;" horiz-adv-x="385" 
d="M193 300c-92 0 -157 59 -157 154s65 154 157 154s156 -59 156 -154s-64 -154 -156 -154zM193 337c67 0 114 44 114 117s-47 117 -114 117c-68 0 -115 -44 -115 -117s47 -117 115 -117zM36 197v38h313v-38h-313z" />
    <glyph glyph-name="zero.lf" 
d="M302 -9c-157 0 -254 129 -254 341c0 208 97 335 254 335s254 -127 254 -335c0 -212 -97 -341 -254 -341zM302 42c123 0 198 109 198 290c0 177 -75 284 -198 284s-198 -107 -198 -284c0 -181 75 -290 198 -290z" />
    <glyph glyph-name="one.lf" horiz-adv-x="338" 
d="M173 0v439h-153v43l98 1c56 1 60 12 60 183h50v-666h-55z" />
    <glyph glyph-name="two.lf" horiz-adv-x="586" 
d="M65 0c0 121 23 155 202 239c160 76 204 118 204 224c0 93 -65 153 -169 153c-115 0 -181 -71 -181 -183c0 -35 4 -68 7 -83h-52c-3 15 -7 48 -7 85c0 142 87 232 234 232c137 0 224 -81 224 -204c0 -114 -50 -177 -231 -262c-154 -73 -174 -96 -175 -150h417v-51h-473z
" />
    <glyph glyph-name="three.lf" horiz-adv-x="602" 
d="M295 -9c-146 0 -245 76 -245 201c0 11 1 29 2 45h52c-1 -20 -1 -32 -1 -38c0 -101 74 -157 192 -157c122 0 203 59 203 159c0 76 -61 117 -157 117h-92v42h81c86 0 139 45 139 119c0 86 -70 137 -168 137c-114 0 -184 -58 -184 -154c0 -17 1 -33 2 -44h-51
c-2 11 -3 31 -3 51c0 122 90 198 236 198c132 0 222 -69 222 -183c0 -69 -43 -124 -108 -136v-2c82 -9 138 -67 138 -148c0 -126 -102 -207 -258 -207z" />
    <glyph glyph-name="four.lf" horiz-adv-x="596" 
d="M418 0v167h-379v52l368 439h66v-441h113v-50h-113v-167h-55zM99 217h319v378h-2l-317 -377v-1z" />
    <glyph glyph-name="five.lf" horiz-adv-x="593" 
d="M299 -9c-137 0 -240 67 -240 176c0 7 1 16 2 23h52c-1 -10 -1 -16 -1 -21c0 -79 81 -127 187 -127c117 0 191 74 191 180c0 101 -73 162 -186 162c-84 0 -153 -37 -179 -99l-55 6l26 367h410v-51h-363l-21 -275h2c24 59 97 98 190 98c142 0 231 -81 231 -208
c0 -137 -97 -231 -246 -231z" />
    <glyph glyph-name="six.lf" horiz-adv-x="602" 
d="M315 -9c-184 0 -266 111 -266 334c0 220 94 342 262 342c139 0 222 -73 222 -198c0 -12 -1 -26 -2 -34h-52c1 8 2 20 2 34c0 93 -63 147 -170 147c-135 0 -207 -99 -207 -289c0 -33 1 -64 2 -82h2c9 79 89 135 212 135c152 0 234 -68 234 -180c0 -130 -95 -209 -239 -209
zM316 40c111 0 183 60 183 159c0 85 -65 135 -183 135c-124 0 -199 -62 -199 -146c16 -91 87 -148 199 -148z" />
    <glyph glyph-name="seven.lf" horiz-adv-x="506" 
d="M115 0c59 235 188 465 317 605v1h-423v52h488v-48c-163 -173 -260 -382 -318 -610h-64z" />
    <glyph glyph-name="eight.lf" horiz-adv-x="597" 
d="M301 -9c-153 0 -252 73 -252 192c0 83 59 145 150 159v1c-75 13 -122 71 -122 143c0 113 88 181 224 181s224 -68 224 -181c0 -72 -47 -130 -122 -143v-1c90 -14 150 -76 150 -159c0 -119 -99 -192 -252 -192zM301 360c103 0 171 49 171 126c0 82 -68 132 -171 132
s-171 -50 -171 -132c0 -77 68 -126 171 -126zM301 40c120 0 197 55 197 143c0 82 -77 134 -197 134s-197 -52 -197 -134c0 -88 77 -143 197 -143z" />
    <glyph glyph-name="nine.lf" 
d="M301 -9c-145 0 -238 70 -238 185c0 8 0 20 1 32h53c-1 -11 -1 -21 -1 -28c0 -88 71 -139 184 -139c132 0 200 99 200 289c0 28 -1 57 -4 81h-2c-11 -91 -92 -155 -209 -155c-145 0 -237 76 -237 195c0 131 95 216 244 216c165 0 264 -90 264 -331
c0 -227 -90 -345 -255 -345zM287 302c118 0 197 71 198 175c-18 91 -87 140 -193 140c-115 0 -188 -65 -188 -166c0 -92 73 -149 183 -149z" />
    <glyph glyph-name="one.lf.ss05" horiz-adv-x="276" 
d="M110 0v614c14 11 23 27 28 52h28v-666h-56z" />
    <glyph glyph-name="zero.subs" horiz-adv-x="421" 
d="M210 -125c-105 0 -166 77 -166 203c0 125 61 202 166 202c106 0 167 -77 167 -202c0 -126 -61 -203 -167 -203zM210 -87c79 0 124 63 124 165c0 100 -45 163 -124 163c-77 0 -122 -63 -122 -163c0 -102 45 -165 122 -165z" />
    <glyph glyph-name="one.subs" horiz-adv-x="242" 
d="M118 -120v251h-93v33l46 1c50 0 52 7 53 109h38v-394h-44z" />
    <glyph glyph-name="two.subs" horiz-adv-x="391" 
d="M40 -120c0 77 13 96 128 147c109 49 125 78 125 129c0 47 -34 85 -100 85c-71 0 -111 -41 -111 -106c0 -19 2 -38 4 -50h-40c-2 10 -4 30 -4 51c0 89 55 144 152 144c94 0 143 -54 143 -123c0 -63 -26 -104 -144 -155c-90 -40 -103 -52 -105 -83h254v-39h-302z" />
    <glyph glyph-name="three.subs" horiz-adv-x="408" 
d="M201 -125c-101 0 -159 45 -159 119c0 8 1 18 2 29h39c-1 -12 -1 -20 -1 -25c0 -52 42 -84 118 -84c78 0 123 34 123 87c0 41 -34 66 -84 66h-68v32h55c47 0 80 26 80 67c0 45 -38 75 -103 75c-70 0 -112 -33 -112 -85c0 -8 1 -19 2 -26h-38c-1 6 -3 19 -3 30
c0 74 57 120 153 120c89 0 142 -43 142 -109c0 -43 -25 -75 -64 -81v-2c51 -5 84 -40 84 -89c0 -77 -61 -124 -166 -124z" />
    <glyph glyph-name="four.subs" horiz-adv-x="410" 
d="M265 -120v96h-237v38l228 260h52v-259h68v-39h-68v-96h-43zM77 15h188v212h-2l-186 -211v-1z" />
    <glyph glyph-name="five.subs" horiz-adv-x="398" 
d="M205 -125c-103 0 -163 41 -163 105v15h41v-13c0 -41 44 -68 120 -68c66 0 109 39 109 98c0 58 -42 93 -109 93c-61 0 -100 -26 -113 -57l-41 3l18 223h259v-39h-223l-13 -150h2c16 31 57 54 119 54c89 0 144 -49 144 -127c0 -83 -59 -137 -150 -137z" />
    <glyph glyph-name="six.subs" horiz-adv-x="408" 
d="M212 -125c-120 0 -169 76 -169 198c0 135 60 207 169 207c93 0 143 -48 143 -121c0 -3 0 -10 -1 -20h-40c1 5 1 12 1 18c0 51 -35 84 -103 84c-81 0 -126 -56 -126 -164c0 -10 0 -27 1 -36h2c11 42 62 69 130 69c101 0 149 -46 149 -108c0 -76 -53 -127 -156 -127z
M212 -87c76 0 114 37 114 89c0 42 -37 74 -114 74c-81 0 -116 -39 -116 -83c7 -33 33 -80 116 -80z" />
    <glyph glyph-name="seven.subs" horiz-adv-x="371" 
d="M87 -120c40 144 135 277 215 353v1h-280v40h333v-34c-112 -110 -179 -225 -217 -360h-51z" />
    <glyph glyph-name="eight.subs" horiz-adv-x="409" 
d="M204 -125c-100 0 -163 44 -163 115c0 48 36 87 94 95v1c-50 9 -75 43 -75 85c0 67 56 109 144 109c89 0 145 -42 145 -109c0 -42 -25 -76 -75 -85v-1c58 -8 94 -47 94 -95c0 -71 -63 -115 -164 -115zM204 99c65 0 105 27 105 71s-41 73 -105 73c-63 0 -104 -29 -104 -73
s40 -71 104 -71zM204 -88c74 0 120 30 120 79c0 46 -46 75 -120 75c-73 0 -119 -29 -119 -75c0 -49 46 -79 119 -79z" />
    <glyph glyph-name="nine.subs" horiz-adv-x="408" 
d="M202 -125c-91 0 -148 41 -148 107c0 2 0 11 1 21h39v-16c0 -46 39 -73 108 -73c85 0 123 56 123 162c0 15 0 33 -1 42h-1c-8 -50 -58 -86 -134 -86c-93 0 -146 47 -146 116c0 81 61 132 159 132c110 0 166 -62 166 -199c0 -134 -56 -206 -166 -206zM193 65
c77 0 122 42 122 97c-9 51 -47 80 -113 80c-73 0 -116 -36 -116 -94c0 -48 41 -83 107 -83z" />
    <glyph glyph-name="zero.dnom" horiz-adv-x="421" 
d="M210 -5c-105 0 -166 77 -166 203c0 125 61 202 166 202c106 0 167 -77 167 -202c0 -126 -61 -203 -167 -203zM210 33c79 0 124 63 124 165c0 100 -45 163 -124 163c-77 0 -122 -63 -122 -163c0 -102 45 -165 122 -165z" />
    <glyph glyph-name="one.dnom" horiz-adv-x="242" 
d="M118 0v251h-93v33l46 1c50 0 52 7 53 109h38v-394h-44z" />
    <glyph glyph-name="two.dnom" horiz-adv-x="391" 
d="M40 0c0 77 13 96 128 147c109 49 125 78 125 129c0 47 -34 85 -100 85c-71 0 -111 -41 -111 -106c0 -19 2 -38 4 -50h-40c-2 10 -4 30 -4 51c0 89 55 144 152 144c94 0 143 -54 143 -123c0 -63 -26 -104 -144 -155c-90 -40 -103 -52 -105 -83h254v-39h-302z" />
    <glyph glyph-name="three.dnom" horiz-adv-x="408" 
d="M201 -5c-101 0 -159 45 -159 119c0 8 1 18 2 29h39c-1 -12 -1 -20 -1 -25c0 -52 42 -84 118 -84c78 0 123 34 123 87c0 41 -34 66 -84 66h-68v32h55c47 0 80 26 80 67c0 45 -38 75 -103 75c-70 0 -112 -33 -112 -85c0 -8 1 -19 2 -26h-38c-1 6 -3 19 -3 30
c0 74 57 120 153 120c89 0 142 -43 142 -109c0 -43 -25 -75 -64 -81v-2c51 -5 84 -40 84 -89c0 -77 -61 -124 -166 -124z" />
    <glyph glyph-name="four.dnom" horiz-adv-x="410" 
d="M265 0v96h-237v38l228 260h52v-259h68v-39h-68v-96h-43zM77 135h188v212h-2l-186 -211v-1z" />
    <glyph glyph-name="five.dnom" horiz-adv-x="398" 
d="M205 -5c-103 0 -163 41 -163 105v15h41v-13c0 -41 44 -68 120 -68c66 0 109 39 109 98c0 58 -42 93 -109 93c-61 0 -100 -26 -113 -57l-41 3l18 223h259v-39h-223l-13 -150h2c16 31 57 54 119 54c89 0 144 -49 144 -127c0 -83 -59 -137 -150 -137z" />
    <glyph glyph-name="six.dnom" horiz-adv-x="408" 
d="M212 -5c-120 0 -169 76 -169 198c0 135 60 207 169 207c93 0 143 -48 143 -121c0 -3 0 -10 -1 -20h-40c1 5 1 12 1 18c0 51 -35 84 -103 84c-81 0 -126 -56 -126 -164c0 -10 0 -27 1 -36h2c11 42 62 69 130 69c101 0 149 -46 149 -108c0 -76 -53 -127 -156 -127zM212 33
c76 0 114 37 114 89c0 42 -37 74 -114 74c-81 0 -116 -39 -116 -83c7 -33 33 -80 116 -80z" />
    <glyph glyph-name="seven.dnom" horiz-adv-x="371" 
d="M87 0c40 144 135 277 215 353v1h-280v40h333v-34c-112 -110 -179 -225 -217 -360h-51z" />
    <glyph glyph-name="eight.dnom" horiz-adv-x="409" 
d="M204 -5c-100 0 -163 44 -163 115c0 48 36 87 94 95v1c-50 9 -75 43 -75 85c0 67 56 109 144 109c89 0 145 -42 145 -109c0 -42 -25 -76 -75 -85v-1c58 -8 94 -47 94 -95c0 -71 -63 -115 -164 -115zM204 219c65 0 105 27 105 71s-41 73 -105 73c-63 0 -104 -29 -104 -73
s40 -71 104 -71zM204 32c74 0 120 30 120 79c0 46 -46 75 -120 75c-73 0 -119 -29 -119 -75c0 -49 46 -79 119 -79z" />
    <glyph glyph-name="nine.dnom" horiz-adv-x="408" 
d="M202 -5c-91 0 -148 41 -148 107c0 2 0 11 1 21h39v-16c0 -46 39 -73 108 -73c85 0 123 56 123 162c0 15 0 33 -1 42h-1c-8 -50 -58 -86 -134 -86c-93 0 -146 47 -146 116c0 81 61 132 159 132c110 0 166 -62 166 -199c0 -134 -56 -206 -166 -206zM193 185
c77 0 122 42 122 97c-9 51 -47 80 -113 80c-73 0 -116 -36 -116 -94c0 -48 41 -83 107 -83z" />
    <glyph glyph-name="zero.numr" horiz-adv-x="421" 
d="M210 259c-105 0 -166 77 -166 203c0 125 61 202 166 202c106 0 167 -77 167 -202c0 -126 -61 -203 -167 -203zM210 297c79 0 124 63 124 165c0 100 -45 163 -124 163c-77 0 -122 -63 -122 -163c0 -102 45 -165 122 -165z" />
    <glyph glyph-name="one.numr" horiz-adv-x="242" 
d="M118 264v251h-93v33l46 1c50 0 52 7 53 109h38v-394h-44z" />
    <glyph glyph-name="two.numr" horiz-adv-x="391" 
d="M40 264c0 77 13 96 128 147c109 49 125 78 125 129c0 47 -34 85 -100 85c-71 0 -111 -41 -111 -106c0 -19 2 -38 4 -50h-40c-2 10 -4 30 -4 51c0 89 55 144 152 144c94 0 143 -54 143 -123c0 -63 -26 -104 -144 -155c-90 -40 -103 -52 -105 -83h254v-39h-302z" />
    <glyph glyph-name="three.numr" horiz-adv-x="408" 
d="M201 259c-101 0 -159 45 -159 119c0 8 1 18 2 29h39c-1 -12 -1 -20 -1 -25c0 -52 42 -84 118 -84c78 0 123 34 123 87c0 41 -34 66 -84 66h-68v32h55c47 0 80 26 80 67c0 45 -38 75 -103 75c-70 0 -112 -33 -112 -85c0 -8 1 -19 2 -26h-38c-1 6 -3 19 -3 30
c0 74 57 120 153 120c89 0 142 -43 142 -109c0 -43 -25 -75 -64 -81v-2c51 -5 84 -40 84 -89c0 -77 -61 -124 -166 -124z" />
    <glyph glyph-name="four.numr" horiz-adv-x="410" 
d="M265 264v96h-237v38l228 260h52v-259h68v-39h-68v-96h-43zM77 399h188v212h-2l-186 -211v-1z" />
    <glyph glyph-name="five.numr" horiz-adv-x="398" 
d="M205 259c-103 0 -163 41 -163 105v15h41v-13c0 -41 44 -68 120 -68c66 0 109 39 109 98c0 58 -42 93 -109 93c-61 0 -100 -26 -113 -57l-41 3l18 223h259v-39h-223l-13 -150h2c16 31 57 54 119 54c89 0 144 -49 144 -127c0 -83 -59 -137 -150 -137z" />
    <glyph glyph-name="six.numr" horiz-adv-x="408" 
d="M212 259c-120 0 -169 76 -169 198c0 135 60 207 169 207c93 0 143 -48 143 -121c0 -3 0 -10 -1 -20h-40c1 5 1 12 1 18c0 51 -35 84 -103 84c-81 0 -126 -56 -126 -164c0 -10 0 -27 1 -36h2c11 42 62 69 130 69c101 0 149 -46 149 -108c0 -76 -53 -127 -156 -127z
M212 297c76 0 114 37 114 89c0 42 -37 74 -114 74c-81 0 -116 -39 -116 -83c7 -33 33 -80 116 -80z" />
    <glyph glyph-name="seven.numr" horiz-adv-x="371" 
d="M87 264c40 144 135 277 215 353v1h-280v40h333v-34c-112 -110 -179 -225 -217 -360h-51z" />
    <glyph glyph-name="eight.numr" horiz-adv-x="409" 
d="M204 259c-100 0 -163 44 -163 115c0 48 36 87 94 95v1c-50 9 -75 43 -75 85c0 67 56 109 144 109c89 0 145 -42 145 -109c0 -42 -25 -76 -75 -85v-1c58 -8 94 -47 94 -95c0 -71 -63 -115 -164 -115zM204 483c65 0 105 27 105 71s-41 73 -105 73c-63 0 -104 -29 -104 -73
s40 -71 104 -71zM204 296c74 0 120 30 120 79c0 46 -46 75 -120 75c-73 0 -119 -29 -119 -75c0 -49 46 -79 119 -79z" />
    <glyph glyph-name="nine.numr" horiz-adv-x="408" 
d="M202 259c-91 0 -148 41 -148 107c0 2 0 11 1 21h39v-16c0 -46 39 -73 108 -73c85 0 123 56 123 162c0 15 0 33 -1 42h-1c-8 -50 -58 -86 -134 -86c-93 0 -146 47 -146 116c0 81 61 132 159 132c110 0 166 -62 166 -199c0 -134 -56 -206 -166 -206zM193 449
c77 0 122 42 122 97c-9 51 -47 80 -113 80c-73 0 -116 -36 -116 -94c0 -48 41 -83 107 -83z" />
    <glyph glyph-name="zero.sups" horiz-adv-x="421" 
d="M210 301c-105 0 -166 77 -166 203c0 125 61 202 166 202c106 0 167 -77 167 -202c0 -126 -61 -203 -167 -203zM210 339c79 0 124 63 124 165c0 100 -45 163 -124 163c-77 0 -122 -63 -122 -163c0 -102 45 -165 122 -165z" />
    <glyph glyph-name="one.sups" horiz-adv-x="242" 
d="M118 306v251h-93v33l46 1c50 0 52 7 53 109h38v-394h-44z" />
    <glyph glyph-name="two.sups" horiz-adv-x="391" 
d="M40 306c0 77 13 96 128 147c109 49 125 78 125 129c0 47 -34 85 -100 85c-71 0 -111 -41 -111 -106c0 -19 2 -38 4 -50h-40c-2 10 -4 30 -4 51c0 89 55 144 152 144c94 0 143 -54 143 -123c0 -63 -26 -104 -144 -155c-90 -40 -103 -52 -105 -83h254v-39h-302z" />
    <glyph glyph-name="three.sups" horiz-adv-x="408" 
d="M201 301c-101 0 -159 45 -159 119c0 8 1 18 2 29h39c-1 -12 -1 -20 -1 -25c0 -52 42 -84 118 -84c78 0 123 34 123 87c0 41 -34 66 -84 66h-68v32h55c47 0 80 26 80 67c0 45 -38 75 -103 75c-70 0 -112 -33 -112 -85c0 -8 1 -19 2 -26h-38c-1 6 -3 19 -3 30
c0 74 57 120 153 120c89 0 142 -43 142 -109c0 -43 -25 -75 -64 -81v-2c51 -5 84 -40 84 -89c0 -77 -61 -124 -166 -124z" />
    <glyph glyph-name="four.sups" horiz-adv-x="410" 
d="M265 306v96h-237v38l228 260h52v-259h68v-39h-68v-96h-43zM77 441h188v212h-2l-186 -211v-1z" />
    <glyph glyph-name="five.sups" horiz-adv-x="398" 
d="M205 301c-103 0 -163 41 -163 105v15h41v-13c0 -41 44 -68 120 -68c66 0 109 39 109 98c0 58 -42 93 -109 93c-61 0 -100 -26 -113 -57l-41 3l18 223h259v-39h-223l-13 -150h2c16 31 57 54 119 54c89 0 144 -49 144 -127c0 -83 -59 -137 -150 -137z" />
    <glyph glyph-name="six.sups" horiz-adv-x="408" 
d="M212 301c-120 0 -169 76 -169 198c0 135 60 207 169 207c93 0 143 -48 143 -121c0 -3 0 -10 -1 -20h-40c1 5 1 12 1 18c0 51 -35 84 -103 84c-81 0 -126 -56 -126 -164c0 -10 0 -27 1 -36h2c11 42 62 69 130 69c101 0 149 -46 149 -108c0 -76 -53 -127 -156 -127z
M212 339c76 0 114 37 114 89c0 42 -37 74 -114 74c-81 0 -116 -39 -116 -83c7 -33 33 -80 116 -80z" />
    <glyph glyph-name="seven.sups" horiz-adv-x="371" 
d="M87 306c40 144 135 277 215 353v1h-280v40h333v-34c-112 -110 -179 -225 -217 -360h-51z" />
    <glyph glyph-name="eight.sups" horiz-adv-x="409" 
d="M204 301c-100 0 -163 44 -163 115c0 48 36 87 94 95v1c-50 9 -75 43 -75 85c0 67 56 109 144 109c89 0 145 -42 145 -109c0 -42 -25 -76 -75 -85v-1c58 -8 94 -47 94 -95c0 -71 -63 -115 -164 -115zM204 525c65 0 105 27 105 71s-41 73 -105 73c-63 0 -104 -29 -104 -73
s40 -71 104 -71zM204 338c74 0 120 30 120 79c0 46 -46 75 -120 75c-73 0 -119 -29 -119 -75c0 -49 46 -79 119 -79z" />
    <glyph glyph-name="nine.sups" horiz-adv-x="408" 
d="M202 301c-91 0 -148 41 -148 107c0 2 0 11 1 21h39v-16c0 -46 39 -73 108 -73c85 0 123 56 123 162c0 15 0 33 -1 42h-1c-8 -50 -58 -86 -134 -86c-93 0 -146 47 -146 116c0 81 61 132 159 132c110 0 166 -62 166 -199c0 -134 -56 -206 -166 -206zM193 491
c77 0 122 42 122 97c-9 51 -47 80 -113 80c-73 0 -116 -36 -116 -94c0 -48 41 -83 107 -83z" />
    <glyph glyph-name="onehalf" unicode="&#xbd;" horiz-adv-x="748" 
d="M150 -47l-29 14l328 738l30 -14zM118 264v251h-93v33l46 1c50 0 52 7 53 109h38v-394h-44zM397 0c0 77 13 96 128 147c109 49 125 78 125 129c0 47 -34 85 -100 85c-71 0 -111 -41 -111 -106c0 -19 2 -38 4 -50h-40c-2 10 -4 30 -4 51c0 89 55 144 152 144
c94 0 143 -54 143 -123c0 -63 -26 -104 -144 -155c-90 -40 -103 -52 -105 -83h254v-39h-302z" />
    <glyph glyph-name="uni2153" unicode="&#x2153;" horiz-adv-x="765" 
d="M150 -47l-29 14l328 738l30 -14zM118 264v251h-93v33l46 1c50 0 52 7 53 109h38v-394h-44zM558 -5c-101 0 -159 45 -159 119c0 8 1 18 2 29h39c-1 -12 -1 -20 -1 -25c0 -52 42 -84 118 -84c78 0 123 34 123 87c0 41 -34 66 -84 66h-68v32h55c47 0 80 26 80 67
c0 45 -38 75 -103 75c-70 0 -112 -33 -112 -85c0 -8 1 -19 2 -26h-38c-1 6 -3 19 -3 30c0 74 57 120 153 120c89 0 142 -43 142 -109c0 -43 -25 -75 -64 -81v-2c51 -5 84 -40 84 -89c0 -77 -61 -124 -166 -124z" />
    <glyph glyph-name="uni2154" unicode="&#x2154;" horiz-adv-x="916" 
d="M301 -47l-29 14l328 738l30 -14zM40 264c0 77 13 96 128 147c109 49 125 78 125 129c0 47 -34 85 -100 85c-71 0 -111 -41 -111 -106c0 -19 2 -38 4 -50h-40c-2 10 -4 30 -4 51c0 89 55 144 152 144c94 0 143 -54 143 -123c0 -63 -26 -104 -144 -155
c-90 -40 -103 -52 -105 -83h254v-39h-302zM709 -5c-101 0 -159 45 -159 119c0 8 1 18 2 29h39c-1 -12 -1 -20 -1 -25c0 -52 42 -84 118 -84c78 0 123 34 123 87c0 41 -34 66 -84 66h-68v32h55c47 0 80 26 80 67c0 45 -38 75 -103 75c-70 0 -112 -33 -112 -85
c0 -8 1 -19 2 -26h-38c-1 6 -3 19 -3 30c0 74 57 120 153 120c89 0 142 -43 142 -109c0 -43 -25 -75 -64 -81v-2c51 -5 84 -40 84 -89c0 -77 -61 -124 -166 -124z" />
    <glyph glyph-name="onequarter" unicode="&#xbc;" horiz-adv-x="736" 
d="M150 -47l-29 14l328 738l30 -14zM118 264v251h-93v33l46 1c50 0 52 7 53 109h38v-394h-44zM591 0v96h-237v38l228 260h52v-259h68v-39h-68v-96h-43zM403 135h188v212h-2l-186 -211v-1z" />
    <glyph glyph-name="threequarters" unicode="&#xbe;" horiz-adv-x="902" 
d="M316 -47l-29 14l328 738l30 -14zM201 259c-101 0 -159 45 -159 119c0 8 1 18 2 29h39c-1 -12 -1 -20 -1 -25c0 -52 42 -84 118 -84c78 0 123 34 123 87c0 41 -34 66 -84 66h-68v32h55c47 0 80 26 80 67c0 45 -38 75 -103 75c-70 0 -112 -33 -112 -85c0 -8 1 -19 2 -26
h-38c-1 6 -3 19 -3 30c0 74 57 120 153 120c89 0 142 -43 142 -109c0 -43 -25 -75 -64 -81v-2c51 -5 84 -40 84 -89c0 -77 -61 -124 -166 -124zM757 0v96h-237v38l228 260h52v-259h68v-39h-68v-96h-43zM569 135h188v212h-2l-186 -211v-1z" />
    <glyph glyph-name="oneeighth" unicode="&#x215b;" horiz-adv-x="766" 
d="M150 -47l-29 14l328 738l30 -14zM118 264v251h-93v33l46 1c50 0 52 7 53 109h38v-394h-44zM561 -5c-100 0 -163 44 -163 115c0 48 36 87 94 95v1c-50 9 -75 43 -75 85c0 67 56 109 144 109c89 0 145 -42 145 -109c0 -42 -25 -76 -75 -85v-1c58 -8 94 -47 94 -95
c0 -71 -63 -115 -164 -115zM561 219c65 0 105 27 105 71s-41 73 -105 73c-63 0 -104 -29 -104 -73s40 -71 104 -71zM561 32c74 0 120 30 120 79c0 46 -46 75 -120 75c-73 0 -119 -29 -119 -75c0 -49 46 -79 119 -79z" />
    <glyph glyph-name="threeeighths" unicode="&#x215c;" horiz-adv-x="932" 
d="M316 -47l-29 14l328 738l30 -14zM201 259c-101 0 -159 45 -159 119c0 8 1 18 2 29h39c-1 -12 -1 -20 -1 -25c0 -52 42 -84 118 -84c78 0 123 34 123 87c0 41 -34 66 -84 66h-68v32h55c47 0 80 26 80 67c0 45 -38 75 -103 75c-70 0 -112 -33 -112 -85c0 -8 1 -19 2 -26
h-38c-1 6 -3 19 -3 30c0 74 57 120 153 120c89 0 142 -43 142 -109c0 -43 -25 -75 -64 -81v-2c51 -5 84 -40 84 -89c0 -77 -61 -124 -166 -124zM727 -5c-100 0 -163 44 -163 115c0 48 36 87 94 95v1c-50 9 -75 43 -75 85c0 67 56 109 144 109c89 0 145 -42 145 -109
c0 -42 -25 -76 -75 -85v-1c58 -8 94 -47 94 -95c0 -71 -63 -115 -164 -115zM727 219c65 0 105 27 105 71s-41 73 -105 73c-63 0 -104 -29 -104 -73s40 -71 104 -71zM727 32c74 0 120 30 120 79c0 46 -46 75 -120 75c-73 0 -119 -29 -119 -75c0 -49 46 -79 119 -79z" />
    <glyph glyph-name="fiveeighths" unicode="&#x215d;" horiz-adv-x="922" 
d="M306 -47l-29 14l328 738l30 -14zM205 259c-103 0 -163 41 -163 105v15h41v-13c0 -41 44 -68 120 -68c66 0 109 39 109 98c0 58 -42 93 -109 93c-61 0 -100 -26 -113 -57l-41 3l18 223h259v-39h-223l-13 -150h2c16 31 57 54 119 54c89 0 144 -49 144 -127
c0 -83 -59 -137 -150 -137zM717 -5c-100 0 -163 44 -163 115c0 48 36 87 94 95v1c-50 9 -75 43 -75 85c0 67 56 109 144 109c89 0 145 -42 145 -109c0 -42 -25 -76 -75 -85v-1c58 -8 94 -47 94 -95c0 -71 -63 -115 -164 -115zM717 219c65 0 105 27 105 71s-41 73 -105 73
c-63 0 -104 -29 -104 -73s40 -71 104 -71zM717 32c74 0 120 30 120 79c0 46 -46 75 -120 75c-73 0 -119 -29 -119 -75c0 -49 46 -79 119 -79z" />
    <glyph glyph-name="seveneighths" unicode="&#x215e;" horiz-adv-x="837" 
d="M221 -47l-29 14l328 738l30 -14zM87 264c40 144 135 277 215 353v1h-280v40h333v-34c-112 -110 -179 -225 -217 -360h-51zM632 -5c-100 0 -163 44 -163 115c0 48 36 87 94 95v1c-50 9 -75 43 -75 85c0 67 56 109 144 109c89 0 145 -42 145 -109c0 -42 -25 -76 -75 -85v-1
c58 -8 94 -47 94 -95c0 -71 -63 -115 -164 -115zM632 219c65 0 105 27 105 71s-41 73 -105 73c-63 0 -104 -29 -104 -73s40 -71 104 -71zM632 32c74 0 120 30 120 79c0 46 -46 75 -120 75c-73 0 -119 -29 -119 -75c0 -49 46 -79 119 -79z" />
    <glyph glyph-name="periodcentered.loclCAT.case" horiz-adv-x="10" 
d="M-172 299v100h59v-100h-59z" />
    <glyph glyph-name="periodcentered.loclCAT" horiz-adv-x="53" 
d="M-3 257v100h59v-100h-59z" />
    <glyph glyph-name="comma.dnom" horiz-adv-x="116" 
d="M21 -78v22c26 6 37 23 38 55v1h-14v60h39v-40c0 -61 -18 -90 -63 -98z" />
    <glyph glyph-name="period.dnom" horiz-adv-x="109" 
d="M28 0v60h47v-60h-47z" />
    <glyph glyph-name="comma.numr" horiz-adv-x="116" 
d="M21 186v22c26 6 37 23 38 55v1h-14v60h39v-40c0 -61 -18 -90 -63 -98z" />
    <glyph glyph-name="period.numr" horiz-adv-x="109" 
d="M28 264v60h47v-60h-47z" />
    <glyph glyph-name="comma.subs" horiz-adv-x="116" 
d="M21 -198v22c26 6 37 23 38 55v1h-14v60h39v-40c0 -61 -18 -90 -63 -98z" />
    <glyph glyph-name="period.subs" horiz-adv-x="109" 
d="M28 -120v60h47v-60h-47z" />
    <glyph glyph-name="comma.sups" horiz-adv-x="116" 
d="M21 228v22c26 6 37 23 38 55v1h-14v60h39v-40c0 -61 -18 -90 -63 -98z" />
    <glyph glyph-name="period.sups" horiz-adv-x="109" 
d="M28 306v60h47v-60h-47z" />
    <glyph glyph-name="uni00A0" unicode="&#xa0;" horiz-adv-x="219" 
 />
    <glyph glyph-name="CR" unicode="&#xd;" horiz-adv-x="204" 
 />
    <glyph glyph-name="uni2116" unicode="&#x2116;" horiz-adv-x="1091" 
d="M78 0v658h91l403 -582h2v582h54v-658h-67l-428 617h-1v-617h-54zM899 300c-92 0 -157 59 -157 154s65 154 157 154s156 -59 156 -154s-64 -154 -156 -154zM899 337c67 0 114 44 114 117s-47 117 -114 117c-68 0 -115 -44 -115 -117s47 -117 115 -117zM742 197v38h313v-38
h-313z" />
    <glyph glyph-name="uni0308" unicode="&#x308;" horiz-adv-x="0" 
d="M-326 561v93h53v-93h-53zM-169 561v93h53v-93h-53z" />
    <glyph glyph-name="uni0307" unicode="&#x307;" horiz-adv-x="0" 
d="M-248 561v93h54v-93h-54z" />
    <glyph glyph-name="gravecomb" unicode="&#x300;" horiz-adv-x="0" 
d="M-181 550l-99 139h63l83 -139h-47z" />
    <glyph glyph-name="acutecomb" unicode="&#x301;" horiz-adv-x="0" 
d="M-292 550l83 139h62l-98 -139h-47z" />
    <glyph glyph-name="uni030B" unicode="&#x30b;" horiz-adv-x="0" 
d="M-379 552l78 137h59l-92 -137h-45zM-220 552l77 137h59l-92 -137h-44z" />
    <glyph glyph-name="uni0302" unicode="&#x302;" horiz-adv-x="0" 
d="M-357 554v50l135 90h2l135 -90v-50l-135 90h-2z" />
    <glyph glyph-name="uni030C" unicode="&#x30c;" horiz-adv-x="0" 
d="M-252 550l-107 139h60l77 -106h2l77 106h60l-107 -139h-62z" />
    <glyph glyph-name="uni0306" unicode="&#x306;" horiz-adv-x="0" 
d="M-221 560c-94 0 -128 63 -128 114v15h41v-12c0 -39 24 -79 87 -79s87 40 87 79v12h41v-15c0 -51 -35 -114 -128 -114z" />
    <glyph glyph-name="uni030A" unicode="&#x30a;" horiz-adv-x="0" 
d="M-221 550c-89 0 -133 45 -133 108c0 64 47 109 133 109c88 0 133 -45 133 -109c0 -63 -44 -108 -133 -108zM-221 586c62 0 93 29 93 72c0 44 -32 73 -93 73c-60 0 -93 -29 -93 -73c0 -43 31 -72 93 -72z" />
    <glyph glyph-name="tildecomb" unicode="&#x303;" horiz-adv-x="0" 
d="M-386 565c9 95 48 139 99 139c35 0 56 -16 77 -45l14 -20c17 -23 30 -37 53 -37c30 0 51 32 58 101h40c-8 -95 -46 -138 -98 -138c-36 0 -57 17 -77 45l-14 19c-18 24 -29 37 -53 37c-29 0 -51 -32 -58 -101h-41z" />
    <glyph glyph-name="uni0304" unicode="&#x304;" horiz-adv-x="0" 
d="M-352 603v41h263v-41h-263z" />
    <glyph glyph-name="uni030F" unicode="&#x30f;" horiz-adv-x="0" 
d="M-276 550l-91 139h57l79 -139h-45zM-118 550l-92 139h58l80 -139h-46z" />
    <glyph glyph-name="uni0311" unicode="&#x311;" horiz-adv-x="0" 
d="M-256 560v16c0 50 35 113 128 113c94 0 128 -63 128 -113v-16h-41v13c0 38 -24 78 -87 78s-87 -40 -87 -78v-13h-41z" />
    <glyph glyph-name="uni0312" unicode="&#x312;" horiz-adv-x="0" 
d="M-10 781v-35c-41 -9 -60 -39 -63 -94v-2h22v-100h-59v67c0 101 31 151 100 164z" />
    <glyph glyph-name="uni0326" unicode="&#x326;" horiz-adv-x="0" 
d="M-213 -263v35c41 9 60 39 63 94v2h-22v100h59v-67c0 -101 -31 -151 -100 -164z" />
    <glyph glyph-name="uni0327" unicode="&#x327;" horiz-adv-x="0" 
d="M-213 -218c-80 0 -118 33 -123 83h44c5 -33 30 -49 79 -49c53 0 75 26 75 58c0 26 -19 43 -63 43c-31 0 -57 -7 -67 -9l37 100h38l-27 -69l1 -1c8 4 21 9 41 9c54 0 81 -30 81 -72c0 -50 -34 -93 -116 -93z" />
    <glyph glyph-name="uni0328" unicode="&#x328;" horiz-adv-x="0" 
d="M-169 -196c-62 0 -90 34 -90 75c0 42 30 87 72 121h54c-47 -37 -79 -81 -79 -113c0 -26 15 -44 49 -44c23 0 38 6 48 9v-38c-11 -5 -30 -10 -54 -10z" />
    <glyph glyph-name="NULL" horiz-adv-x="0" 
 />
    <glyph glyph-name="NULL" horiz-adv-x="0" 
 />
    </font>
</defs>
</svg>
