<?xml version="1.0" standalone="no"?>
<!DOCTYPE svg PUBLIC "-//W3C//DTD SVG 1.1//EN" "http://www.w3.org/Graphics/SVG/1.1/DTD/svg11.dtd" >
<svg xmlns="http://www.w3.org/2000/svg" xmlns:xlink="http://www.w3.org/1999/xlink" version="1.1">
<metadata>
Created by FontForge 20170812 at Thu Mar 27 06:12:40 2025
 By www-data
Copyright \(c\) 2018 by Nikola &#38; Zoran Kostic. All rights reserved.
</metadata>
<defs>
<font id="RocGrotesk-Regular" horiz-adv-x="604" >
  <font-face 
    font-family="Roc Grotesk"
    font-weight="400"
    font-stretch="normal"
    units-per-em="1000"
    panose-1="0 0 5 0 0 0 0 0 0 0"
    ascent="760"
    descent="-240"
    x-height="494"
    cap-height="658"
    bbox="-394 -277 1093 934"
    underline-thickness="50"
    underline-position="-80"
    stemh="74"
    stemv="82"
    unicode-range="U+000D-FB02"
  />
<missing-glyph horiz-adv-x="436" 
d="M68 0v658h300v-658h-300zM117 59h200v541h-200v-541z" />
    <glyph glyph-name="f_f" unicode="ff" horiz-adv-x="754" 
d="M96 0v424h-83v70h83v49c0 108 66 170 169 170c38 0 69 -7 87 -13v-71c-18 6 -43 12 -77 12c-63 0 -99 -35 -99 -98v-49h282v49c0 108 66 170 169 170c38 0 69 -7 87 -13v-71c-18 6 -43 12 -77 12c-63 0 -99 -35 -99 -98v-49h184v-70h-184v-424h-80v424h-282v-424h-80z
" />
    <glyph glyph-name="fi" unicode="fi" horiz-adv-x="622" 
d="M96 0v424h-83v70h83v49c0 108 66 170 169 170c38 0 69 -7 87 -13v-71c-18 6 -43 12 -77 12c-63 0 -99 -35 -99 -98v-49h184v-70h-184v-424h-80zM464 557v101h86v-101h-86zM467 0v494h80v-494h-80z" />
    <glyph glyph-name="fl" unicode="fl" horiz-adv-x="622" 
d="M96 0v424h-83v70h83v49c0 108 66 170 169 170c38 0 69 -7 87 -13v-71c-18 6 -43 12 -77 12c-63 0 -99 -35 -99 -98v-49h184v-70h-184v-424h-80zM467 0v693h80v-693h-80z" />
    <glyph glyph-name=".notdef" horiz-adv-x="436" 
d="M68 0v658h300v-658h-300zM117 59h200v541h-200v-541z" />
    <glyph glyph-name="space" unicode=" " horiz-adv-x="230" 
 />
    <glyph glyph-name="quotesingle" unicode="'" horiz-adv-x="200" 
d="M86 422l-26 216v20h80v-20l-26 -216h-28z" />
    <glyph glyph-name="quotedbl" unicode="&#x22;" horiz-adv-x="357" 
d="M86 422l-26 216v20h80v-20l-26 -216h-28zM242 422l-25 216v20h80v-20l-26 -216h-29z" />
    <glyph glyph-name="quotesinglbase" unicode="&#x201a;" horiz-adv-x="230" 
d="M60 -131v46c43 6 59 32 60 83v2h-36v114h86v-85c0 -102 -33 -150 -110 -160z" />
    <glyph glyph-name="quoteleft" unicode="&#x2018;" horiz-adv-x="230" 
d="M170 664v-46c-43 -6 -59 -32 -60 -83v-2h36v-114h-86v85c0 102 33 150 110 160z" />
    <glyph glyph-name="quoteright" unicode="&#x2019;" horiz-adv-x="230" 
d="M60 413v46c43 6 59 32 60 83v2h-36v114h86v-85c0 -102 -33 -150 -110 -160z" />
    <glyph glyph-name="quotedblbase" unicode="&#x201e;" horiz-adv-x="393" 
d="M60 -131v46c43 6 59 32 60 83v2h-36v114h86v-85c0 -102 -33 -150 -110 -160zM223 -131v46c43 6 59 32 60 83v2h-36v114h86v-85c0 -102 -33 -150 -110 -160z" />
    <glyph glyph-name="quotedblleft" unicode="&#x201c;" horiz-adv-x="393" 
d="M170 664v-46c-43 -6 -59 -32 -60 -83v-2h36v-114h-86v85c0 102 33 150 110 160zM333 664v-46c-43 -6 -59 -32 -60 -83v-2h36v-114h-86v85c0 102 33 150 110 160z" />
    <glyph glyph-name="quotedblright" unicode="&#x201d;" horiz-adv-x="393" 
d="M60 413v46c43 6 59 32 60 83v2h-36v114h86v-85c0 -102 -33 -150 -110 -160zM223 413v46c43 6 59 32 60 83v2h-36v114h86v-85c0 -102 -33 -150 -110 -160z" />
    <glyph glyph-name="exclam" unicode="!" horiz-adv-x="206" 
d="M87 221l-24 343v108h80v-108l-24 -343h-32zM60 0v114h86v-114h-86z" />
    <glyph glyph-name="exclamdown" unicode="&#xa1;" horiz-adv-x="206" 
d="M60 350v114h86v-114h-86zM63 -208v108l24 343h32l24 -343v-108h-80z" />
    <glyph glyph-name="question" unicode="?" horiz-adv-x="513" 
d="M93 175v167h60c13 -37 56 -66 120 -66c80 0 132 77 132 175c0 101 -68 156 -144 156c-85 0 -133 -49 -133 -130c0 -5 0 -17 1 -27h-69c-2 12 -2 29 -2 35c0 117 77 187 203 187c121 0 214 -78 214 -219c0 -132 -74 -239 -200 -239c-57 0 -108 27 -123 63h-1v-102h-58z
M81 0v114h86v-114h-86z" />
    <glyph glyph-name="questiondown" unicode="&#xbf;" horiz-adv-x="513" 
d="M346 350v114h86v-114h-86zM254 -208c-123 0 -216 78 -216 219c0 132 74 239 202 239c55 0 106 -27 121 -63h1v102h58v-167h-60c-13 37 -56 66 -118 66c-82 0 -134 -77 -134 -175c0 -101 68 -156 146 -156c83 0 131 49 131 130c0 5 0 17 -1 27h69c2 -12 2 -29 2 -35
c0 -117 -77 -187 -201 -187z" />
    <glyph glyph-name="period" unicode="." horiz-adv-x="254" 
d="M84 0v114h86v-114h-86z" />
    <glyph glyph-name="colon" unicode=":" horiz-adv-x="254" 
d="M84 347v114h86v-114h-86zM84 0v114h86v-114h-86z" />
    <glyph glyph-name="comma" unicode="," horiz-adv-x="254" 
d="M60 -131v46c43 6 59 32 60 83v2h-36v114h86v-85c0 -102 -33 -150 -110 -160z" />
    <glyph glyph-name="semicolon" unicode=";" horiz-adv-x="255" 
d="M85 347v114h86v-114h-86zM60 -131v45c43 6 60 33 61 84v2h-36v114h86v-85c0 -102 -34 -150 -111 -160z" />
    <glyph glyph-name="periodcentered" unicode="&#xb7;" horiz-adv-x="271" 
d="M92 250v114h86v-114h-86z" />
    <glyph glyph-name="bullet" unicode="&#x2022;" horiz-adv-x="377" 
d="M189 221c-34 0 -62 29 -62 88s28 88 62 88s62 -29 62 -88s-28 -88 -62 -88z" />
    <glyph glyph-name="ellipsis" unicode="&#x2026;" horiz-adv-x="778" 
d="M92 0v114h86v-114h-86zM346 0v114h86v-114h-86zM599 0v114h86v-114h-86z" />
    <glyph glyph-name="numbersign" unicode="#" 
d="M578 418h-132l-32 -184h164v-72h-176l-28 -162h-52l28 162h-153l-28 -162h-52l28 162h-119v72h131l31 184h-162v72h174l29 168h52l-29 -168h154l29 168h52l-29 -168h120v-72zM362 234l32 184h-154l-31 -184h153z" />
    <glyph glyph-name="ampersand" unicode="&#x26;" horiz-adv-x="703" 
d="M660 65c3 0 8 0 14 1v-71c-4 -1 -13 -2 -23 -2c-59 0 -119 22 -178 66c-53 -44 -117 -69 -193 -69c-139 0 -228 84 -228 205c0 99 66 175 171 195c-20 47 -29 89 -29 120c0 99 65 158 162 158c96 0 157 -60 157 -146c0 -92 -72 -161 -184 -175c39 -66 96 -136 146 -185
c42 57 73 130 93 209h74c-21 -89 -60 -183 -114 -254c46 -34 91 -52 132 -52zM356 596c-48 0 -83 -33 -83 -86c0 -38 10 -70 26 -106c92 13 140 59 140 116c0 44 -32 76 -83 76zM132 195c0 -77 60 -133 153 -133c51 0 97 16 136 44c-66 67 -128 149 -168 223h-3
c-73 -12 -118 -65 -118 -134z" />
    <glyph glyph-name="at" unicode="@" horiz-adv-x="857" 
d="M427 -160c-239 0 -394 125 -394 370c0 277 188 460 421 460c251 0 371 -121 371 -313c0 -201 -93 -337 -206 -337c-82 0 -112 53 -96 139h-2c-23 -83 -71 -139 -162 -139c-101 0 -153 77 -153 174c0 140 90 296 228 296c68 0 110 -28 130 -69h1l17 61h71l-49 -260
c-7 -41 -12 -72 -12 -97c0 -36 13 -56 48 -56c70 0 140 132 140 288c0 175 -105 271 -327 271c-204 0 -375 -165 -375 -418c0 -215 130 -328 350 -328c103 -1 207 18 264 41l2 -42c-64 -25 -166 -41 -267 -41zM374 87c80 0 141 84 163 199l15 78c-15 32 -55 59 -110 59
c-98 0 -159 -126 -159 -226c0 -67 32 -110 91 -110z" />
    <glyph glyph-name="asterisk" unicode="*" horiz-adv-x="482" 
d="M156 274l-43 26l86 154l-1 2l-140 41l14 51l141 -43l2 1v174h51v-174l2 -1l142 43l13 -51l-139 -41l-1 -2l86 -154l-44 -26l-83 149h-3z" />
    <glyph glyph-name="percent" unicode="%" 
d="M168 376c-85 0 -135 48 -135 146c0 88 49 145 135 145c85 0 135 -57 135 -145c0 -98 -50 -146 -135 -146zM31 0l486 658h56l-487 -658h-55zM168 423c51 0 82 29 82 99c0 65 -32 98 -82 98c-51 0 -82 -33 -82 -98c0 -70 30 -99 82 -99zM436 -9c-85 0 -135 48 -135 146
c0 88 49 145 135 145s135 -57 135 -145c0 -98 -50 -146 -135 -146zM436 38c51 0 82 29 82 99c0 65 -32 99 -82 99c-51 0 -82 -34 -82 -99c0 -70 30 -99 82 -99z" />
    <glyph glyph-name="perthousand" unicode="&#x2030;" horiz-adv-x="928" 
d="M165 376c-85 0 -135 48 -135 146c0 88 49 145 135 145c85 0 135 -57 135 -145c0 -98 -50 -146 -135 -146zM28 0l486 658h56l-487 -658h-55zM165 423c51 0 82 29 82 99c0 65 -32 98 -82 98c-51 0 -82 -33 -82 -98c0 -70 30 -99 82 -99zM433 -9c-85 0 -135 48 -135 146
c0 88 49 145 135 145s135 -57 135 -145c0 -98 -50 -146 -135 -146zM763 -9c-85 0 -134 48 -134 146c0 88 48 145 134 145s135 -57 135 -145c0 -98 -49 -146 -135 -146zM433 38c51 0 82 29 82 99c0 65 -32 99 -82 99c-51 0 -82 -34 -82 -99c0 -70 30 -99 82 -99zM763 38
c52 0 82 29 82 99c0 65 -31 99 -82 99c-50 0 -81 -34 -81 -99c0 -70 30 -99 81 -99z" />
    <glyph glyph-name="currency" unicode="&#xa4;" 
d="M97 55l-36 29l95 109c-36 31 -57 79 -57 138c0 57 20 104 55 135l-93 106l35 30l100 -110c29 16 66 25 107 25c40 0 77 -9 106 -25l99 110l35 -30l-92 -105c35 -32 56 -79 56 -136c0 -59 -22 -108 -58 -139l94 -108l-35 -29l-101 112c-29 -16 -65 -24 -104 -24
c-40 0 -77 8 -106 24zM303 203c81 0 136 47 136 128c0 80 -55 126 -136 126s-136 -46 -136 -126c0 -81 55 -128 136 -128z" />
    <glyph glyph-name="Euro" unicode="&#x20ac;" 
d="M408 557c-111 0 -186 -59 -211 -155h294l-12 -42h-290c-1 -12 -2 -25 -2 -38c0 -10 0 -20 1 -29h271l-12 -42h-252c22 -96 93 -151 200 -151c49 0 98 9 126 24v-71c-33 -15 -88 -24 -140 -24c-148 0 -245 82 -269 222h-78l16 42h58c-1 9 -1 18 -1 27c0 14 1 27 2 40h-75
l16 42h65c29 140 134 227 293 227c49 0 106 -10 143 -26l-21 -70c-34 14 -81 24 -122 24z" />
    <glyph glyph-name="dollar" unicode="$" 
d="M553 208c0 -85 -49 -156 -181 -174v-107h-36v103c-12 -1 -24 -1 -37 -1c-11 0 -22 0 -33 1v-103h-36v107c-141 20 -179 107 -179 192h76c1 -53 24 -104 103 -122v199c-47 9 -95 21 -123 39c-34 22 -54 59 -54 111c0 82 62 152 177 171v107h36v-103c10 1 20 1 30 1
c14 0 27 -1 40 -2v104h36v-108c110 -20 160 -88 160 -196h-74c0 70 -29 109 -86 125v-201c43 -7 84 -15 115 -30c46 -22 66 -62 66 -113zM298 561c-11 0 -22 0 -32 -1v-193l59 -9c4 0 7 -1 11 -2v203c-12 1 -24 2 -38 2zM170 391c14 -7 35 -13 60 -18v181
c-62 -14 -97 -50 -97 -96c0 -34 13 -55 37 -67zM298 97c14 0 26 0 38 1v190c-20 3 -40 6 -59 8c-4 0 -7 1 -11 2v-200c10 -1 21 -1 32 -1zM372 103c72 14 101 50 101 100c0 33 -10 54 -42 66c-15 6 -36 10 -59 14v-180z" />
    <glyph glyph-name="dollar.ss06" 
d="M553 208c0 -95 -62 -173 -232 -179v-102h-36v102c-186 5 -234 101 -234 197h76c1 -64 35 -125 158 -129v198c-3 0 -5 1 -8 1c-60 8 -133 22 -170 46c-34 22 -54 59 -54 111c0 95 82 172 232 176v102h36v-103c146 -7 211 -78 211 -201h-74c0 88 -45 128 -137 133v-201
c1 -1 3 -1 4 -1c59 -8 120 -17 162 -37c46 -22 66 -62 66 -113zM170 391c23 -12 69 -20 115 -27v197c-97 -4 -152 -45 -152 -103c0 -34 13 -55 37 -67zM321 97c110 5 152 46 152 106c0 33 -10 54 -42 66c-25 10 -68 16 -110 21v-193z" />
    <glyph glyph-name="cent" unicode="&#xa2;" 
d="M310 144c105 0 168 54 169 138h74c0 -128 -93 -210 -245 -210c-12 0 -23 1 -34 2l-25 -104h-43l27 110c-114 28 -182 119 -182 249c0 157 100 257 262 257c14 0 28 -1 41 -2l25 104h43l-27 -112c99 -25 158 -98 158 -201h-74c-1 65 -38 112 -101 131l-87 -361
c6 -1 13 -1 19 -1zM131 329c0 -91 44 -155 119 -177l87 361c-8 1 -15 1 -23 1c-114 0 -183 -72 -183 -185z" />
    <glyph glyph-name="sterling" unicode="&#xa3;" 
d="M554 224c2 -9 4 -29 4 -49c0 -89 -53 -146 -139 -146c-49 0 -106 22 -163 57l-5 3c-22 -38 -60 -60 -108 -60c-62 0 -101 32 -101 83c0 49 35 80 91 80c25 0 52 -6 81 -16c0 28 -13 68 -35 109h-123v42h98c-36 55 -59 103 -59 148c0 90 84 154 226 154
c141 0 215 -69 215 -176c0 -25 -2 -47 -4 -59h-74c2 16 4 31 4 52c0 68 -45 111 -140 111c-94 0 -147 -36 -147 -88c0 -41 20 -77 52 -131l6 -11h206v-42h-186c14 -35 22 -69 22 -97c0 -14 -1 -27 -3 -40c57 -29 111 -47 139 -47c46 0 73 30 73 82c0 15 -2 30 -4 41h74z
M138 71c28 0 51 16 64 43c-27 11 -52 18 -70 18c-26 0 -42 -12 -42 -31c0 -18 19 -30 48 -30z" />
    <glyph glyph-name="yen" unicode="&#xa5;" 
d="M564 619l-182 -285h167v-42h-194l-13 -20v-53h207v-42h-207v-138h-80v138h-208v42h208v53l-13 20h-195v42h168l-182 285h97l170 -275h2l167 275h88z" />
    <glyph glyph-name="florin" unicode="&#x192;" 
d="M552 395v-70h-206l-27 -243c-13 -112 -70 -175 -174 -175c-42 0 -79 9 -94 15v68c15 -5 48 -11 84 -11c64 0 96 40 104 111l26 235h-136v70h144l6 50c13 111 71 174 178 174c40 0 76 -8 91 -14v-69c-15 5 -47 11 -83 11c-66 0 -99 -40 -106 -110l-5 -42h198z" />
    <glyph glyph-name="franc" unicode="&#x20a3;" 
d="M514 547h-320v-163h267v-60h-267v-126h152v-42h-152v-117h-80v117h-86v42h86v421h400v-72z" />
    <glyph glyph-name="peseta" unicode="&#x20a7;" 
d="M592 391v-43h-67c-11 -125 -87 -191 -237 -191h-114v-118h-79v309h-82v43h82v228h193c151 0 234 -79 238 -228h66zM174 549v-158h280c-5 106 -61 158 -168 158h-112zM287 213c106 0 157 45 166 135h-279v-135h113z" />
    <glyph glyph-name="uni20AA" unicode="&#x20aa;" 
d="M53 39v494h258c67 0 94 -30 94 -88v-293h-56v279c0 35 -14 50 -58 50h-182v-442h-56zM199 39v381h56v-329h184c42 0 56 18 56 56v386h56v-395c0 -62 -27 -99 -94 -99h-258z" />
    <glyph glyph-name="uni20BD" unicode="&#x20bd;" 
d="M301 244h-118v-58h253v-42h-253v-105h-80v105h-66v42h66v58h-66v42h66v333h204c145 0 227 -72 227 -199c0 -116 -65 -176 -233 -176zM183 547v-261h118c110 0 157 41 157 127c0 85 -54 134 -149 134h-126z" />
    <glyph glyph-name="lira.turk" unicode="&#x20ba;" 
d="M541 321c1 -18 1 -35 1 -41c0 -154 -83 -241 -278 -241h-124v273l-108 -29v44l108 29v71l-108 -29v44l108 29v148h80v-126l190 51v-43l-190 -52v-71l190 51v-44l-190 -51v-223h50c144 0 198 61 198 168c0 9 0 19 -1 42h74z" />
    <glyph glyph-name="registered" unicode="&#xae;" horiz-adv-x="806" 
d="M403 -126c-197 0 -369 159 -369 399s172 399 369 399s369 -159 369 -399s-172 -399 -369 -399zM403 -74c168 0 317 135 317 347s-149 347 -317 347s-316 -135 -316 -347s148 -347 316 -347zM260 71v413h145c96 0 144 -45 144 -114c0 -45 -12 -75 -48 -93v-2
c37 -15 48 -43 48 -79v-125h-73v121c0 32 -13 49 -51 49h-92v-170h-73zM333 301h77c49 0 66 20 66 59c0 36 -15 58 -71 58h-72v-117z" />
    <glyph glyph-name="copyright" unicode="&#xa9;" horiz-adv-x="806" 
d="M403 -126c-197 0 -369 159 -369 399s172 399 369 399s369 -159 369 -399s-172 -399 -369 -399zM403 -74c168 0 317 135 317 347s-149 347 -317 347s-316 -135 -316 -347s148 -347 316 -347zM410 61c-119 0 -190 85 -190 217c0 142 89 216 185 216c111 0 170 -66 170 -157
h-71c-5 56 -42 91 -99 91c-70 0 -112 -63 -112 -150c0 -90 47 -150 117 -150c51 0 89 26 95 86h71c-3 -89 -65 -153 -166 -153z" />
    <glyph glyph-name="trademark" unicode="&#x2122;" horiz-adv-x="792" 
d="M151 318v286h-109v54h279v-54h-110v-286h-60zM375 318v340h94l71 -173h2l70 173h95v-340h-61v262l-6 1l-91 -221h-17l-91 221l-5 -1v-262h-61z" />
    <glyph glyph-name="dagger" unicode="&#x2020;" 
d="M275 -40l-14 275l10 171h-2l-91 -11h-87v68h87l89 -11h4v15l-8 144v61h78v-61l-8 -144v-15h4l89 11h87v-68h-87l-92 11h-1l10 -171l-14 -275h-54z" />
    <glyph glyph-name="daggerdbl" unicode="&#x2021;" 
d="M263 -40v61l8 114v14h-4l-89 -11h-87v68h87l91 -11h2l-10 121l10 121h-2l-91 -11h-87v68h87l89 -11h4v15l-8 113v61h78v-61l-8 -113v-15h4l89 11h87v-68h-87l-92 11h-1l10 -121l-10 -121h1l92 11h87v-68h-87l-89 11h-4v-14l8 -114v-61h-78z" />
    <glyph glyph-name="paragraph" unicode="&#xb6;" 
d="M327 -96v276h-75c-122 0 -190 75 -190 192c0 127 79 208 219 208h267v-676h-62v616h-97v-616h-62zM267 240h60v280h-44c-98 0 -149 -57 -149 -145c0 -82 44 -135 133 -135z" />
    <glyph glyph-name="section" unicode="&#xa7;" 
d="M300 -126c-133 0 -192 63 -192 162h74c0 -55 30 -90 118 -90c77 0 127 25 127 77c0 30 -12 47 -38 56c-52 18 -173 32 -223 51c-42 16 -69 55 -69 99c0 51 28 89 73 98v2c-7 3 -14 6 -22 11c-34 21 -51 61 -51 102c0 93 80 152 206 152c133 0 192 -63 192 -162h-74
c0 55 -30 90 -118 90c-77 0 -126 -28 -126 -72c0 -28 14 -52 35 -61c47 -18 172 -33 225 -51c43 -16 70 -49 70 -99c0 -49 -28 -87 -73 -96v-2c10 -4 18 -8 22 -11c37 -25 51 -62 51 -103c0 -93 -81 -153 -207 -153zM358 161c42 2 69 26 69 61c0 32 -15 52 -48 60
c-25 6 -77 16 -135 26c-41 -3 -67 -27 -67 -62c0 -28 12 -51 47 -60c19 -5 62 -13 134 -25z" />
    <glyph glyph-name="estimated" unicode="&#x212e;" horiz-adv-x="855" 
d="M428 -14c-211 0 -383 152 -383 343c0 190 172 343 383 343s382 -153 382 -343v-22h-619c-3 0 -5 -1 -5 -4v-153c0 -8 3 -16 8 -22c59 -63 143 -100 235 -100c88 0 167 34 226 91h76c-69 -82 -180 -133 -303 -133zM191 349h475c3 0 5 2 5 5v157c0 9 -4 17 -10 23
c-60 60 -142 96 -232 96c-92 0 -174 -37 -234 -99c-5 -6 -9 -15 -9 -24v-153c0 -3 2 -5 5 -5z" />
    <glyph glyph-name="uni2113" unicode="&#x2113;" 
d="M466 82l1 -72c-16 -8 -53 -19 -97 -19c-99 0 -159 45 -188 135c-36 -11 -76 -20 -120 -26v63c38 6 74 15 106 26c-5 33 -7 69 -7 109v170c0 159 31 252 155 252c102 0 148 -75 148 -212c0 -145 -61 -277 -208 -352c19 -66 58 -93 119 -93c49 0 83 15 91 19zM241 292
c0 -25 1 -47 3 -67c94 57 146 149 146 280c0 93 -25 143 -72 143c-66 0 -77 -62 -77 -173v-183z" />
    <glyph glyph-name="parenleft" unicode="(" horiz-adv-x="260" 
d="M182 -147c-87 97 -147 250 -147 431c0 180 61 343 149 441h68c-86 -100 -151 -267 -151 -441s65 -331 151 -431h-70z" />
    <glyph glyph-name="parenright" unicode=")" horiz-adv-x="260" 
d="M7 -147c87 100 152 257 152 431s-65 341 -152 441h69c87 -98 149 -261 149 -441c0 -181 -60 -334 -147 -431h-71z" />
    <glyph glyph-name="bracketleft" unicode="[" horiz-adv-x="333" 
d="M63 -185v973h259v-46h-184v-881h184v-46h-259z" />
    <glyph glyph-name="bracketright" unicode="]" horiz-adv-x="333" 
d="M12 -185v46h184v881h-184v46h259v-973h-259z" />
    <glyph glyph-name="braceleft" unicode="{" horiz-adv-x="369" 
d="M348 -182c-157 0 -241 30 -241 139c0 80 59 155 59 224c0 46 -31 78 -76 78h-66v50h66c45 0 76 32 76 78c0 70 -59 143 -59 224c0 109 84 139 241 139v-47c-118 0 -170 -22 -170 -91c0 -70 57 -143 57 -217c0 -49 -32 -94 -86 -110v-3c54 -15 86 -60 86 -109
c0 -75 -57 -144 -57 -217c0 -69 52 -91 170 -91v-47z" />
    <glyph glyph-name="braceright" unicode="}" horiz-adv-x="369" 
d="M21 -182v47c118 0 170 22 170 91c0 73 -57 142 -57 217c0 49 32 94 86 109v3c-54 16 -86 61 -86 110c0 74 57 147 57 217c0 69 -52 91 -170 91v47c157 0 241 -30 241 -139c0 -81 -59 -154 -59 -224c0 -46 31 -78 76 -78h66v-50h-66c-45 0 -76 -32 -76 -78
c0 -69 59 -144 59 -224c0 -109 -84 -139 -241 -139z" />
    <glyph glyph-name="less" unicode="&#x3c;" 
d="M503 37l-402 228v46l402 228v-72l-322 -178v-2l322 -178v-72z" />
    <glyph glyph-name="greater" unicode="&#x3e;" 
d="M101 37v72l322 178v2l-322 178v72l402 -228v-46z" />
    <glyph glyph-name="lessequal" unicode="&#x2264;" 
d="M503 153l-402 187v46l402 186v-68l-318 -140v-2l318 -140v-69zM103 45v57h400v-57h-400z" />
    <glyph glyph-name="greaterequal" unicode="&#x2265;" 
d="M101 153v69l318 140v2l-318 140v68l402 -186v-46zM101 45v57h401v-57h-401z" />
    <glyph glyph-name="guilsinglleft" unicode="&#x2039;" horiz-adv-x="372" 
d="M225 58l-155 222l155 222h72l-156 -222l156 -222h-72z" />
    <glyph glyph-name="guilsinglright" unicode="&#x203a;" horiz-adv-x="372" 
d="M74 58l156 222l-156 222h73l155 -222l-155 -222h-73z" />
    <glyph glyph-name="guillemotleft" unicode="&#xab;" horiz-adv-x="606" 
d="M224 58l-155 222l155 222h72l-156 -222l156 -222h-72zM429 58l-155 222l155 222h72l-156 -222l156 -222h-72z" />
    <glyph glyph-name="guillemotright" unicode="&#xbb;" horiz-adv-x="606" 
d="M105 58l156 222l-156 222h73l155 -222l-155 -222h-73zM310 58l156 222l-156 222h72l156 -222l-156 -222h-72z" />
    <glyph glyph-name="plus" unicode="+" 
d="M272 51v203h-202v58h202v203h60v-203h202v-58h-202v-203h-60z" />
    <glyph glyph-name="plusminus" unicode="&#xb1;" 
d="M272 166v183h-202v58h202v183h60v-183h202v-58h-202v-183h-60zM70 48v58h464v-58h-464z" />
    <glyph glyph-name="hyphen" unicode="-" horiz-adv-x="294" 
d="M36 254v58h222v-58h-222z" />
    <glyph glyph-name="endash" unicode="&#x2013;" horiz-adv-x="597" 
d="M40 254v58h517v-58h-517z" />
    <glyph glyph-name="emdash" unicode="&#x2014;" horiz-adv-x="763" 
d="M40 254v58h683v-58h-683z" />
    <glyph glyph-name="equal" unicode="=" 
d="M70 328v58h464v-58h-464zM70 170v58h464v-58h-464z" />
    <glyph glyph-name="notequal" unicode="&#x2260;" 
d="M70 170v58h185l46 100h-231v58h253l55 128h41l-55 -128h170v-58h-191l-46 -100h237v-58h-259l-53 -124h-41l52 124h-163z" />
    <glyph glyph-name="minus" unicode="&#x2212;" 
d="M70 254v58h464v-58h-464z" />
    <glyph glyph-name="multiply" unicode="&#xd7;" 
d="M103 94l-36 46l187 143l-187 143l36 46l199 -152l199 152l36 -46l-187 -143l187 -143l-36 -46l-199 152z" />
    <glyph glyph-name="divide" unicode="&#xf7;" 
d="M261 400v111h81v-111h-81zM70 254v58h464v-58h-464zM261 55v111h81v-111h-81z" />
    <glyph glyph-name="logicalnot" unicode="&#xac;" 
d="M481 82v172h-411v58h470v-230h-59z" />
    <glyph glyph-name="approxequal" unicode="&#x2248;" 
d="M424 296c-89 0 -160 79 -240 79c-64 0 -111 -39 -134 -56v60c24 20 71 54 130 54c89 0 160 -79 240 -79c64 0 111 39 134 56v-60c-24 -20 -71 -54 -130 -54zM424 139c-89 0 -160 79 -240 79c-64 0 -111 -39 -134 -56v60c24 20 71 54 130 54c89 0 160 -79 240 -79
c64 0 111 39 134 56v-60c-24 -20 -71 -54 -130 -54z" />
    <glyph glyph-name="infinity" unicode="&#x221e;" horiz-adv-x="650" 
d="M175 56c-82 0 -131 69 -131 231c0 161 49 231 131 231c56 0 90 -46 115 -104l33 -72h2l34 72c26 58 60 104 115 104c84 0 133 -70 133 -231c0 -162 -50 -231 -133 -231c-54 0 -90 47 -116 106l-33 69h-2l-32 -69c-26 -58 -62 -106 -116 -106zM178 118c33 0 53 38 73 83
l41 86l-41 88c-19 44 -39 81 -73 81c-49 0 -77 -50 -77 -169c0 -120 29 -169 77 -169zM472 118c48 0 78 49 78 169c0 119 -29 169 -78 169c-35 0 -54 -36 -74 -81l-41 -88l40 -86c22 -46 41 -83 75 -83z" />
    <glyph glyph-name="backslash" unicode="\" horiz-adv-x="302" 
d="M251 -200l-254 940h53l253 -940h-52z" />
    <glyph glyph-name="bar" unicode="|" horiz-adv-x="208" 
d="M79 -200v940h50v-940h-50z" />
    <glyph glyph-name="slash" unicode="/" horiz-adv-x="300" 
d="M-29 -200l304 940h54l-305 -940h-53z" />
    <glyph glyph-name="brokenbar" unicode="&#xa6;" horiz-adv-x="208" 
d="M79 363v377h50v-377h-50zM79 -200v378h50v-378h-50z" />
    <glyph glyph-name="degree" unicode="&#xb0;" horiz-adv-x="431" 
d="M215 313c-117 0 -179 74 -179 179c0 103 62 180 179 180c114 0 180 -77 180 -180c0 -105 -66 -179 -180 -179zM215 372c74 0 117 50 117 120c0 69 -43 120 -117 120c-76 0 -117 -51 -117 -120c0 -70 41 -120 117 -120z" />
    <glyph glyph-name="fraction" unicode="&#x2044;" horiz-adv-x="124" 
d="M-85 -49l-38 19l332 736l38 -18z" />
    <glyph glyph-name="underscore" unicode="_" horiz-adv-x="606" 
d="M0 -153v58h606v-58h-606z" />
    <glyph glyph-name="zero" unicode="0" 
d="M302 -9c-163 0 -257 131 -257 341c0 206 94 335 257 335s257 -129 257 -335c0 -210 -94 -341 -257 -341zM302 65c113 0 175 102 175 267c0 161 -62 261 -175 261s-175 -100 -175 -261c0 -165 62 -267 175 -267z" />
    <glyph glyph-name="one" unicode="1" 
d="M58 0v74h222v352h-151v61l92 2c61 1 68 16 69 176h72v-591h184v-74h-488z" />
    <glyph glyph-name="two" unicode="2" 
d="M60 0c0 135 23 175 197 256c165 77 191 117 191 204c0 78 -55 133 -147 133c-104 0 -161 -65 -161 -167c0 -31 3 -61 6 -76h-76c-3 15 -6 46 -6 80c0 145 87 237 239 237c140 0 227 -85 227 -207c0 -100 -37 -169 -229 -259c-141 -66 -157 -86 -157 -127h398v-74h-482z
" />
    <glyph glyph-name="three" unicode="3" 
d="M294 -9c-152 0 -249 78 -249 206c0 14 2 34 3 45h76c-1 -17 -1 -27 -1 -32c0 -95 61 -145 171 -145c113 0 182 52 182 142c0 66 -47 100 -127 100h-103v60h87c76 0 115 41 115 105c0 76 -58 121 -146 121c-106 0 -164 -53 -164 -137c0 -18 1 -32 2 -42h-76
c-2 10 -4 32 -4 54c0 121 90 199 242 199c137 0 226 -70 226 -186c0 -65 -37 -118 -94 -131v-2c76 -10 124 -67 124 -146c0 -129 -101 -211 -264 -211z" />
    <glyph glyph-name="four" unicode="4" 
d="M397 0v155h-361v74l350 429h93v-429h109v-74h-109v-155h-82zM124 229h273v333h-1l-272 -332v-1z" />
    <glyph glyph-name="five" unicode="5" 
d="M307 -9c-150 0 -249 71 -249 179c0 9 1 19 2 24h77c-1 -9 -1 -15 -1 -20c0 -66 68 -109 171 -109c99 0 163 68 163 159c0 86 -64 140 -165 140c-74 0 -137 -34 -159 -87l-78 8l26 373h418v-74h-349l-19 -246h2c21 56 86 92 177 92c143 0 229 -81 229 -206
c0 -136 -95 -233 -245 -233z" />
    <glyph glyph-name="six" unicode="6" 
d="M314 -9c-191 0 -269 121 -269 337c0 208 94 339 269 339c143 0 223 -77 223 -198c0 -12 -1 -27 -2 -35h-78c1 7 2 18 2 34c0 74 -49 125 -145 125c-125 0 -187 -98 -187 -262c0 -31 0 -56 1 -65h2c11 72 86 118 194 118c156 0 235 -70 235 -182
c0 -128 -97 -211 -245 -211zM315 63c98 0 162 55 162 138c0 73 -55 117 -161 117c-108 0 -177 -56 -177 -123c8 -76 76 -132 176 -132z" />
    <glyph glyph-name="seven" unicode="7" 
d="M148 0c55 234 166 426 323 581v1h-431v76h526v-69c-200 -201 -269 -355 -324 -589h-94z" />
    <glyph glyph-name="eight" unicode="8" 
d="M302 -9c-157 0 -257 75 -257 196c0 81 54 141 134 155v1c-68 13 -106 70 -106 137c0 117 89 187 229 187s229 -70 229 -187c0 -67 -38 -124 -106 -137v-1c79 -14 134 -74 134 -155c0 -121 -100 -196 -257 -196zM302 368c92 0 151 44 151 112c0 70 -59 115 -151 115
s-151 -45 -151 -115c0 -68 59 -112 151 -112zM302 63c107 0 175 49 175 124c0 73 -68 119 -175 119s-175 -46 -175 -119c0 -75 68 -124 175 -124z" />
    <glyph glyph-name="nine" unicode="9" 
d="M298 -9c-150 0 -238 75 -238 182c0 6 0 20 1 33h78c-1 -11 -1 -22 -1 -26c0 -68 57 -116 159 -116c118 0 179 89 179 262c0 19 0 44 -2 63h-2c-10 -79 -80 -134 -191 -134c-149 0 -236 77 -236 194c0 131 93 218 249 218c161 0 265 -90 265 -331
c0 -229 -93 -345 -261 -345zM284 321c109 0 178 61 178 146c-5 72 -68 127 -169 127c-105 0 -166 -58 -166 -145c0 -78 61 -128 157 -128z" />
    <glyph glyph-name="summation" unicode="&#x2211;" 
d="M48 -112v68l275 323v1l-275 311v67h508v-76h-386v-1l260 -296v-1l-272 -319v-1h401v-76h-511z" />
    <glyph glyph-name="uni2206" unicode="&#x2206;" horiz-adv-x="718" 
d="M40 0l270 658h98l270 -658h-638zM160 76h391l-195 493h-2z" />
    <glyph glyph-name="product" unicode="&#x220f;" horiz-adv-x="692" 
d="M138 -107v689h-111v76h638v-76h-111v-689h-84v689h-248v-689h-84z" />
    <glyph glyph-name="uni2126" unicode="&#x2126;" horiz-adv-x="738" 
d="M48 0v76h202v13c-106 25 -205 124 -205 266c0 192 145 313 324 313s324 -121 324 -313c0 -142 -99 -241 -205 -266v-13h202v-76h-269v113c95 25 187 116 187 242c0 146 -112 237 -239 237c-128 0 -240 -91 -240 -237c0 -126 93 -217 188 -242v-113h-269z" />
    <glyph glyph-name="uni00B5" unicode="&#xb5;" 
d="M43 -198v692h80v-270c0 -102 45 -159 140 -159c103 0 175 71 175 200v229h80v-328c0 -74 16 -102 53 -102c9 0 18 2 21 3v-69c-6 -3 -20 -6 -40 -6c-63 0 -100 39 -108 130h-1c-23 -89 -93 -129 -180 -129c-75 0 -122 30 -139 73h-1v-264h-80z" />
    <glyph glyph-name="partialdiff" unicode="&#x2202;" 
d="M144 707c257 -33 408 -190 408 -421c0 -179 -97 -294 -250 -294s-250 99 -250 254c0 156 90 256 236 256c66 0 119 -27 156 -73c-49 119 -163 193 -331 225zM302 64c104 0 170 83 170 212v13c-18 86 -89 141 -181 141c-97 0 -159 -72 -159 -184c0 -111 66 -182 170 -182z
" />
    <glyph glyph-name="pi" unicode="&#x3c0;" 
d="M519 -8c-103 0 -139 54 -139 157v273h-184v-422h-80v422h-104v72h575v-72h-127v-272c0 -65 20 -86 74 -86c20 0 38 5 46 8v-69c-11 -5 -32 -11 -61 -11z" />
    <glyph glyph-name="integral" unicode="&#x222b;" 
d="M175 -240c-43 0 -85 7 -104 13v53c20 -6 59 -13 94 -13c79 0 131 31 131 121c0 33 -3 86 -11 155l-34 334c-5 60 -11 132 -11 162c0 116 71 175 189 175c41 0 83 -6 103 -10v-53c-20 4 -60 10 -94 10c-80 0 -131 -35 -131 -121c0 -34 6 -102 11 -159l34 -333
c7 -67 11 -130 11 -159c0 -116 -71 -175 -188 -175z" />
    <glyph glyph-name="lozenge" unicode="&#x25ca;" 
d="M270 -54l-217 322l217 322h63l218 -322l-218 -322h-63zM301 18h2l169 250l-169 250h-2l-170 -250z" />
    <glyph glyph-name="radical" unicode="&#x221a;" 
d="M287 -98l-115 409h-134v55h183l106 -387h3l190 771h66l-213 -848h-86z" />
    <glyph glyph-name="asciitilde" unicode="~" 
d="M428 172c-51 0 -90 24 -120 61l-48 58c-25 30 -46 53 -81 53c-39 0 -63 -25 -63 -86v-79h-60v85c0 95 49 138 120 138c51 0 88 -23 120 -61l49 -58c24 -29 45 -53 80 -53c36 0 63 21 63 86v79h60v-85c0 -101 -53 -138 -120 -138z" />
    <glyph glyph-name="asciicircum" unicode="^" 
d="M52 354l225 318h50l225 -318h-74l-175 250h-2l-175 -250h-74z" />
    <glyph glyph-name="A" unicode="A" horiz-adv-x="706" 
d="M583 0l-64 160h-341l-65 -160h-88l278 658h100l278 -658h-98zM203 222h291l-143 359h-2z" />
    <glyph glyph-name="B" unicode="B" horiz-adv-x="647" 
d="M80 0v658h268c153 0 224 -67 224 -172c0 -76 -38 -131 -116 -141v-1c91 -8 141 -68 141 -154c0 -116 -64 -190 -225 -190h-292zM164 369h195c93 0 135 41 135 106c0 66 -43 109 -147 109h-183v-215zM164 74h205c113 0 146 48 146 124c0 66 -54 109 -150 109h-201v-233z
" />
    <glyph glyph-name="C" unicode="C" horiz-adv-x="728" 
d="M381 -10c-191 0 -331 132 -331 338c0 207 136 340 331 340c167 0 289 -104 289 -256c0 -2 0 -11 -1 -24h-77v18c0 111 -91 186 -211 186c-143 0 -247 -103 -247 -264c0 -160 109 -262 247 -262c121 0 214 73 214 178v12h78v-16c0 -148 -124 -250 -292 -250z" />
    <glyph glyph-name="D" unicode="D" horiz-adv-x="698" 
d="M80 0v658h240c203 0 328 -124 328 -328c0 -206 -117 -330 -307 -330h-261zM164 76h175c140 0 225 94 225 254c0 157 -92 252 -242 252h-158v-506z" />
    <glyph glyph-name="E" unicode="E" horiz-adv-x="560" 
d="M80 0v658h436v-76h-352v-220h285v-62h-285v-224h361v-76h-445z" />
    <glyph glyph-name="F" unicode="F" horiz-adv-x="537" 
d="M80 0v658h427v-76h-343v-232h294v-64h-294v-286h-84z" />
    <glyph glyph-name="G" unicode="G" horiz-adv-x="742" 
d="M376 -10c-187 0 -326 129 -326 333c0 206 144 345 331 345c166 0 285 -89 285 -239c0 -8 0 -23 -1 -39h-78c1 13 1 25 1 35c0 105 -88 167 -207 167c-139 0 -247 -106 -247 -270c0 -159 110 -260 242 -260c131 0 212 74 212 173v19h-231v62h315v-316h-79c3 27 6 74 8 122
h-1c-20 -75 -93 -132 -224 -132z" />
    <glyph glyph-name="H" unicode="H" horiz-adv-x="732" 
d="M80 0v658h84v-280h404v280h84v-658h-84v308h-404v-308h-84z" />
    <glyph glyph-name="I" unicode="I" horiz-adv-x="252" 
d="M84 0v658h84v-658h-84z" />
    <glyph glyph-name="J" unicode="J" horiz-adv-x="614" 
d="M291 -10c-149 0 -238 92 -238 246c0 34 2 77 3 100h78c-1 -25 -3 -61 -3 -101c0 -107 58 -169 158 -169c108 0 166 68 166 211v381h84v-378c0 -189 -90 -290 -248 -290z" />
    <glyph glyph-name="K" unicode="K" horiz-adv-x="715" 
d="M80 0v658h84v-395h2l399 395h111l-309 -304l326 -354h-116l-272 298l-141 -132v-166h-84z" />
    <glyph glyph-name="L" unicode="L" horiz-adv-x="536" 
d="M80 0v658h84v-582h346v-76h-430z" />
    <glyph glyph-name="M" unicode="M" horiz-adv-x="849" 
d="M80 0v658h140l204 -545h1l207 545h137v-658h-85l2 601h-2l-228 -601h-68l-228 601h-2l2 -601h-80z" />
    <glyph glyph-name="N" unicode="N" horiz-adv-x="734" 
d="M80 0v658h135l357 -546h2v546h80v-658h-99l-393 597h-2v-597h-80z" />
    <glyph glyph-name="O" unicode="O" horiz-adv-x="764" 
d="M382 -10c-186 0 -332 131 -332 342c0 207 146 336 332 336s332 -129 332 -336c0 -211 -146 -342 -332 -342zM382 66c135 0 248 102 248 266c0 161 -113 260 -248 260s-248 -99 -248 -260c0 -164 113 -266 248 -266z" />
    <glyph glyph-name="P" unicode="P" horiz-adv-x="643" 
d="M80 0v658h262c159 0 252 -85 252 -222c0 -140 -89 -219 -236 -219h-194v-217h-84zM164 281h187c101 0 161 50 161 150c0 98 -62 151 -173 151h-175v-301z" />
    <glyph glyph-name="Q" unicode="Q" horiz-adv-x="764" 
d="M382 -10c-186 0 -332 131 -332 342c0 207 146 336 332 336c189 0 332 -132 332 -336c0 -146 -82 -244 -185 -275v-2c65 3 125 5 176 8v-73h-323zM382 66c135 0 248 102 248 266c0 161 -113 260 -248 260s-248 -99 -248 -260c0 -164 113 -266 248 -266z" />
    <glyph glyph-name="R" unicode="R" horiz-adv-x="658" 
d="M80 0v658h273c165 0 247 -73 247 -187c0 -86 -37 -147 -127 -158v-2c93 -11 123 -70 123 -152v-159h-86v159c0 70 -31 115 -140 115h-206v-274h-84zM164 336h188c120 0 166 51 166 128c0 73 -54 118 -165 118h-189v-246z" />
    <glyph glyph-name="S" unicode="S" horiz-adv-x="645" 
d="M318 -10c-211 0 -266 115 -266 234h78c0 -95 48 -162 188 -162c151 0 193 59 193 122c0 42 -18 65 -52 79c-36 15 -111 23 -168 31c-68 8 -140 24 -176 46c-38 23 -65 67 -65 129c0 117 108 199 265 199c184 0 257 -85 257 -237h-78c0 115 -64 165 -177 165
c-107 0 -183 -48 -183 -120c0 -42 16 -67 44 -81c32 -16 111 -28 168 -36c66 -9 135 -20 178 -42c44 -22 71 -68 71 -128c0 -100 -62 -199 -277 -199z" />
    <glyph glyph-name="T" unicode="T" horiz-adv-x="564" 
d="M240 0v583h-218v75h520v-75h-218v-583h-84z" />
    <glyph glyph-name="U" unicode="U" horiz-adv-x="706" 
d="M354 -10c-173 0 -279 102 -279 252v416h84v-416c0 -108 74 -176 198 -176s198 68 198 176v416h76v-416c0 -150 -105 -252 -277 -252z" />
    <glyph glyph-name="V" unicode="V" horiz-adv-x="686" 
d="M293 0l-271 658h93l230 -577h3l227 577h89l-272 -658h-99z" />
    <glyph glyph-name="W" unicode="W" horiz-adv-x="992" 
d="M239 0l-217 658h90l175 -549h3l167 542h86l165 -542h3l175 549h84l-218 -658h-90l-163 529h-3l-166 -529h-91z" />
    <glyph glyph-name="X" unicode="X" horiz-adv-x="648" 
d="M24 0l249 334l-242 324h105l194 -268l189 268h98l-241 -320l248 -338h-104l-200 278l-198 -278h-98z" />
    <glyph glyph-name="Y" unicode="Y" horiz-adv-x="657" 
d="M286 0v269l-264 389h103l208 -320h2l208 320h92l-265 -389v-269h-84z" />
    <glyph glyph-name="Z" unicode="Z" horiz-adv-x="607" 
d="M50 0v59l400 522v1h-392v76h499v-63l-398 -518v-1h394v-76h-503z" />
    <glyph glyph-name="Aacute" unicode="&#xc1;" horiz-adv-x="706" 
d="M483 849l-107 -140h-67l85 140h89zM583 0l-64 160h-341l-65 -160h-88l278 658h100l278 -658h-98zM203 222h291l-143 359h-2z" />
    <glyph glyph-name="Abreve" unicode="&#x102;" horiz-adv-x="706" 
d="M353 719c-99 0 -132 68 -132 116v14h58v-11c0 -31 19 -67 74 -67c56 0 74 36 74 67v11h58v-14c0 -48 -33 -116 -132 -116zM583 0l-64 160h-341l-65 -160h-88l278 658h100l278 -658h-98zM203 222h291l-143 359h-2z" />
    <glyph glyph-name="Acircumflex" unicode="&#xc2;" horiz-adv-x="706" 
d="M354 787h-2l-141 -79v69l141 79h2l141 -79v-69zM583 0l-64 160h-341l-65 -160h-88l278 658h100l278 -658h-98zM203 222h291l-143 359h-2z" />
    <glyph glyph-name="uni0200" unicode="&#x200;" horiz-adv-x="706" 
d="M326 709h-65l-94 140h80zM487 709h-65l-95 140h81zM583 0l-64 160h-341l-65 -160h-88l278 658h100l278 -658h-98zM203 222h291l-143 359h-2z" />
    <glyph glyph-name="Adieresis" unicode="&#xc4;" horiz-adv-x="706" 
d="M306 822v-101h-76v101h76zM476 822v-101h-76v101h76zM583 0l-64 160h-341l-65 -160h-88l278 658h100l278 -658h-98zM203 222h291l-143 359h-2z" />
    <glyph glyph-name="Agrave" unicode="&#xc0;" horiz-adv-x="706" 
d="M412 709h-66l-108 140h89zM583 0l-64 160h-341l-65 -160h-88l278 658h100l278 -658h-98zM203 222h291l-143 359h-2z" />
    <glyph glyph-name="uni0202" unicode="&#x202;" horiz-adv-x="706" 
d="M279 730v-11h-58v14c0 48 33 116 132 116s132 -68 132 -116v-14h-58v11c0 31 -19 67 -74 67c-56 0 -74 -36 -74 -67zM583 0l-64 160h-341l-65 -160h-88l278 658h100l278 -658h-98zM203 222h291l-143 359h-2z" />
    <glyph glyph-name="Amacron" unicode="&#x100;" horiz-adv-x="706" 
d="M490 816v-58h-273v58h273zM583 0l-64 160h-341l-65 -160h-88l278 658h100l278 -658h-98zM203 222h291l-143 359h-2z" />
    <glyph glyph-name="Aogonek" unicode="&#x104;" horiz-adv-x="706" 
d="M634 -146c24 0 39 5 48 8v-53c-11 -4 -31 -10 -59 -10c-74 0 -107 41 -107 83s28 84 67 118l-64 160h-341l-65 -160h-88l278 658h100l278 -658h-19c-47 -34 -77 -76 -77 -105c0 -23 13 -41 49 -41zM203 222h291l-143 359h-2z" />
    <glyph glyph-name="Aring" unicode="&#xc5;" horiz-adv-x="706" 
d="M583 0l-64 160h-341l-65 -160h-88l262 619c-49 17 -73 55 -73 102c0 65 50 113 139 113c92 0 139 -48 139 -113c0 -47 -24 -85 -73 -102l262 -619h-98zM270 721c0 -38 28 -63 83 -63s83 25 83 63c0 39 -29 63 -83 63c-53 0 -83 -24 -83 -63zM203 222h291l-143 359h-2z
" />
    <glyph glyph-name="Atilde" unicode="&#xc3;" horiz-adv-x="706" 
d="M280 807c-25 0 -42 -27 -48 -88h-57c9 98 51 140 104 140c38 0 61 -15 82 -40l14 -16c17 -20 28 -32 50 -32c25 0 41 27 47 88h57c-8 -98 -50 -140 -104 -140c-38 0 -61 15 -82 40l-14 16c-18 21 -27 32 -49 32zM583 0l-64 160h-341l-65 -160h-88l278 658h100l278 -658
h-98zM203 222h291l-143 359h-2z" />
    <glyph glyph-name="AE" unicode="&#xc6;" horiz-adv-x="848" 
d="M25 0l316 658h463v-76h-332v-220h265v-62h-265v-224h341v-76h-425v160h-197l-73 -160h-93zM220 222h168v361h-3z" />
    <glyph glyph-name="AEacute" unicode="&#x1fc;" horiz-adv-x="848" 
d="M526 709l85 140h89l-107 -140h-67zM25 0l316 658h463v-76h-332v-220h265v-62h-265v-224h341v-76h-425v160h-197l-73 -160h-93zM220 222h168v361h-3z" />
    <glyph glyph-name="Cacute" unicode="&#x106;" horiz-adv-x="728" 
d="M331 709l85 140h89l-107 -140h-67zM381 -10c-191 0 -331 132 -331 338c0 207 136 340 331 340c167 0 289 -104 289 -256c0 -2 0 -11 -1 -24h-77v18c0 111 -91 186 -211 186c-143 0 -247 -103 -247 -264c0 -160 109 -262 247 -262c121 0 214 73 214 178v12h78v-16
c0 -148 -124 -250 -292 -250z" />
    <glyph glyph-name="Ccaron" unicode="&#x10c;" horiz-adv-x="728" 
d="M330 709l-103 140h85l62 -94h2l62 94h85l-103 -140h-90zM381 -10c-191 0 -331 132 -331 338c0 207 136 340 331 340c167 0 289 -104 289 -256c0 -2 0 -11 -1 -24h-77v18c0 111 -91 186 -211 186c-143 0 -247 -103 -247 -264c0 -160 109 -262 247 -262
c121 0 214 73 214 178v12h78v-16c0 -148 -124 -250 -292 -250z" />
    <glyph glyph-name="Ccedilla" unicode="&#xc7;" horiz-adv-x="728" 
d="M595 256h78v-16c0 -143 -115 -242 -274 -250l-18 -47l1 -1c8 5 21 12 46 12c54 0 79 -30 79 -73c0 -53 -38 -99 -127 -99c-87 0 -125 36 -130 87h61c5 -29 25 -42 69 -42c50 0 70 23 70 52c0 24 -16 36 -60 36c-33 0 -61 -5 -73 -8l32 84c-175 14 -299 143 -299 337
c0 207 136 340 331 340c167 0 289 -104 289 -256c0 -2 0 -11 -1 -24h-77v18c0 111 -91 186 -211 186c-143 0 -247 -103 -247 -264c0 -160 109 -262 247 -262c121 0 214 73 214 178v12z" />
    <glyph glyph-name="Ccircumflex" unicode="&#x108;" horiz-adv-x="728" 
d="M233 708v69l141 79h2l141 -79v-69l-141 79h-2zM381 -10c-191 0 -331 132 -331 338c0 207 136 340 331 340c167 0 289 -104 289 -256c0 -2 0 -11 -1 -24h-77v18c0 111 -91 186 -211 186c-143 0 -247 -103 -247 -264c0 -160 109 -262 247 -262c121 0 214 73 214 178v12h78
v-16c0 -148 -124 -250 -292 -250z" />
    <glyph glyph-name="Cdotaccent" unicode="&#x10a;" horiz-adv-x="728" 
d="M336 721v101h78v-101h-78zM381 -10c-191 0 -331 132 -331 338c0 207 136 340 331 340c167 0 289 -104 289 -256c0 -2 0 -11 -1 -24h-77v18c0 111 -91 186 -211 186c-143 0 -247 -103 -247 -264c0 -160 109 -262 247 -262c121 0 214 73 214 178v12h78v-16
c0 -148 -124 -250 -292 -250z" />
    <glyph glyph-name="Eth" unicode="&#xd0;" horiz-adv-x="698" 
d="M320 658c203 0 328 -124 328 -328c0 -206 -117 -330 -307 -330h-261v303h-85v52h85v303h240zM339 76c140 0 225 94 225 254c0 157 -92 252 -242 252h-158v-227h164v-52h-164v-227h175z" />
    <glyph glyph-name="Dcaron" unicode="&#x10e;" horiz-adv-x="698" 
d="M266 709l-103 140h85l62 -94h2l62 94h85l-103 -140h-90zM80 0v658h240c203 0 328 -124 328 -328c0 -206 -117 -330 -307 -330h-261zM164 76h175c140 0 225 94 225 254c0 157 -92 252 -242 252h-158v-506z" />
    <glyph glyph-name="Dmacron" unicode="&#x110;" horiz-adv-x="698" 
d="M320 658c203 0 328 -124 328 -328c0 -206 -117 -330 -307 -330h-261v303h-85v52h85v303h240zM339 76c140 0 225 94 225 254c0 157 -92 252 -242 252h-158v-227h164v-52h-164v-227h175z" />
    <glyph glyph-name="Eacute" unicode="&#xc9;" horiz-adv-x="560" 
d="M258 709l85 140h89l-107 -140h-67zM80 0v658h436v-76h-352v-220h285v-62h-285v-224h361v-76h-445z" />
    <glyph glyph-name="Ebreve" unicode="&#x114;" horiz-adv-x="560" 
d="M302 719c-99 0 -132 68 -132 116v14h58v-11c0 -31 19 -67 74 -67c56 0 74 36 74 67v11h58v-14c0 -48 -33 -116 -132 -116zM80 0v658h436v-76h-352v-220h285v-62h-285v-224h361v-76h-445z" />
    <glyph glyph-name="Ecaron" unicode="&#x11a;" horiz-adv-x="560" 
d="M257 709l-103 140h85l62 -94h2l62 94h85l-103 -140h-90zM80 0v658h436v-76h-352v-220h285v-62h-285v-224h361v-76h-445z" />
    <glyph glyph-name="Ecircumflex" unicode="&#xca;" horiz-adv-x="560" 
d="M160 708v69l141 79h2l141 -79v-69l-141 79h-2zM80 0v658h436v-76h-352v-220h285v-62h-285v-224h361v-76h-445z" />
    <glyph glyph-name="uni0204" unicode="&#x204;" horiz-adv-x="560" 
d="M210 709l-94 140h80l79 -140h-65zM371 709l-95 140h81l79 -140h-65zM80 0v658h436v-76h-352v-220h285v-62h-285v-224h361v-76h-445z" />
    <glyph glyph-name="Edieresis" unicode="&#xcb;" horiz-adv-x="560" 
d="M179 721v101h76v-101h-76zM349 721v101h76v-101h-76zM80 0v658h436v-76h-352v-220h285v-62h-285v-224h361v-76h-445z" />
    <glyph glyph-name="Edotaccent" unicode="&#x116;" horiz-adv-x="560" 
d="M263 721v101h78v-101h-78zM80 0v658h436v-76h-352v-220h285v-62h-285v-224h361v-76h-445z" />
    <glyph glyph-name="Egrave" unicode="&#xc8;" horiz-adv-x="560" 
d="M295 709l-108 140h89l85 -140h-66zM80 0v658h436v-76h-352v-220h285v-62h-285v-224h361v-76h-445z" />
    <glyph glyph-name="uni0206" unicode="&#x206;" horiz-adv-x="560" 
d="M170 719v14c0 48 33 116 132 116s132 -68 132 -116v-14h-58v11c0 31 -19 67 -74 67c-56 0 -74 -36 -74 -67v-11h-58zM80 0v658h436v-76h-352v-220h285v-62h-285v-224h361v-76h-445z" />
    <glyph glyph-name="Emacron" unicode="&#x112;" horiz-adv-x="560" 
d="M166 758v58h273v-58h-273zM80 0v658h436v-76h-352v-220h285v-62h-285v-224h361v-76h-445z" />
    <glyph glyph-name="Eogonek" unicode="&#x118;" horiz-adv-x="560" 
d="M493 -146c24 0 39 5 48 8v-53c-11 -4 -31 -10 -59 -10c-74 0 -107 41 -107 83s28 84 67 118h-362v658h436v-76h-352v-220h285v-62h-285v-224h361v-76h-4c-47 -34 -77 -76 -77 -105c0 -23 13 -41 49 -41z" />
    <glyph glyph-name="Gbreve" unicode="&#x11e;" horiz-adv-x="742" 
d="M377 719c-99 0 -132 68 -132 116v14h58v-11c0 -31 19 -67 74 -67c56 0 74 36 74 67v11h58v-14c0 -48 -33 -116 -132 -116zM376 -10c-187 0 -326 129 -326 333c0 206 144 345 331 345c166 0 285 -89 285 -239c0 -8 0 -23 -1 -39h-78c1 13 1 25 1 35
c0 105 -88 167 -207 167c-139 0 -247 -106 -247 -270c0 -159 110 -260 242 -260c131 0 212 74 212 173v19h-231v62h315v-316h-79c3 27 6 74 8 122h-1c-20 -75 -93 -132 -224 -132z" />
    <glyph glyph-name="Gcircumflex" unicode="&#x11c;" horiz-adv-x="742" 
d="M235 708v69l141 79h2l141 -79v-69l-141 79h-2zM376 -10c-187 0 -326 129 -326 333c0 206 144 345 331 345c166 0 285 -89 285 -239c0 -8 0 -23 -1 -39h-78c1 13 1 25 1 35c0 105 -88 167 -207 167c-139 0 -247 -106 -247 -270c0 -159 110 -260 242 -260
c131 0 212 74 212 173v19h-231v62h315v-316h-79c3 27 6 74 8 122h-1c-20 -75 -93 -132 -224 -132z" />
    <glyph glyph-name="Gcommaaccent" unicode="&#x122;" horiz-adv-x="742" 
d="M376 -10c-187 0 -326 129 -326 333c0 206 144 345 331 345c166 0 285 -89 285 -239c0 -8 0 -23 -1 -39h-78c1 13 1 25 1 35c0 105 -88 167 -207 167c-139 0 -247 -106 -247 -270c0 -159 110 -260 242 -260c131 0 212 74 212 173v19h-231v62h315v-316h-79c3 27 6 74 8 122
h-1c-20 -75 -93 -132 -224 -132zM311 -277v46c43 6 59 32 60 83v2h-36v114h86v-85c0 -102 -33 -150 -110 -160z" />
    <glyph glyph-name="Gdotaccent" unicode="&#x120;" horiz-adv-x="742" 
d="M338 721v101h78v-101h-78zM376 -10c-187 0 -326 129 -326 333c0 206 144 345 331 345c166 0 285 -89 285 -239c0 -8 0 -23 -1 -39h-78c1 13 1 25 1 35c0 105 -88 167 -207 167c-139 0 -247 -106 -247 -270c0 -159 110 -260 242 -260c131 0 212 74 212 173v19h-231v62h315
v-316h-79c3 27 6 74 8 122h-1c-20 -75 -93 -132 -224 -132z" />
    <glyph glyph-name="Hcircumflex" unicode="&#x124;" horiz-adv-x="732" 
d="M224 708v69l141 79h2l141 -79v-69l-141 79h-2zM80 0v658h84v-280h404v280h84v-658h-84v308h-404v-308h-84z" />
    <glyph glyph-name="Iacute" unicode="&#xcd;" horiz-adv-x="252" 
d="M82 709l85 140h89l-107 -140h-67zM84 0v658h84v-658h-84z" />
    <glyph glyph-name="Icircumflex" unicode="&#xce;" horiz-adv-x="252" 
d="M-16 708v69l141 79h2l141 -79v-69l-141 79h-2zM84 0v658h84v-658h-84z" />
    <glyph glyph-name="uni0208" unicode="&#x208;" horiz-adv-x="252" 
d="M34 709l-94 140h80l79 -140h-65zM195 709l-95 140h81l79 -140h-65zM84 0v658h84v-658h-84z" />
    <glyph glyph-name="Idieresis" unicode="&#xcf;" horiz-adv-x="252" 
d="M3 721v101h76v-101h-76zM173 721v101h76v-101h-76zM84 0v658h84v-658h-84z" />
    <glyph glyph-name="Idotaccent" unicode="&#x130;" horiz-adv-x="252" 
d="M87 721v101h78v-101h-78zM84 0v658h84v-658h-84z" />
    <glyph glyph-name="Igrave" unicode="&#xcc;" horiz-adv-x="252" 
d="M119 709l-108 140h89l85 -140h-66zM84 0v658h84v-658h-84z" />
    <glyph glyph-name="uni020A" unicode="&#x20a;" horiz-adv-x="252" 
d="M-6 719v14c0 48 33 116 132 116s132 -68 132 -116v-14h-58v11c0 31 -19 67 -74 67c-56 0 -74 -36 -74 -67v-11h-58zM84 0v658h84v-658h-84z" />
    <glyph glyph-name="Imacron" unicode="&#x12a;" horiz-adv-x="252" 
d="M-10 758v58h273v-58h-273zM84 0v658h84v-658h-84z" />
    <glyph glyph-name="Iogonek" unicode="&#x12e;" horiz-adv-x="252" 
d="M135 -146c24 0 39 5 48 8v-53c-11 -4 -31 -10 -59 -10c-74 0 -107 41 -107 83s28 84 67 118v658h84v-658h-5c-47 -34 -77 -76 -77 -105c0 -23 13 -41 49 -41z" />
    <glyph glyph-name="uni00A40301" horiz-adv-x="614" 
d="M446 709l85 140h89l-107 -140h-67zM291 -10c-149 0 -238 92 -238 246c0 34 2 77 3 100h78c-1 -25 -3 -61 -3 -101c0 -107 58 -169 158 -169c108 0 166 68 166 211v381h84v-378c0 -189 -90 -290 -248 -290z" />
    <glyph glyph-name="Jcircumflex" unicode="&#x134;" horiz-adv-x="614" 
d="M348 708v69l141 79h2l141 -79v-69l-141 79h-2zM291 -10c-149 0 -238 92 -238 246c0 34 2 77 3 100h78c-1 -25 -3 -61 -3 -101c0 -107 58 -169 158 -169c108 0 166 68 166 211v381h84v-378c0 -189 -90 -290 -248 -290z" />
    <glyph glyph-name="Kcommaaccent" unicode="&#x136;" horiz-adv-x="715" 
d="M80 0v658h84v-395h2l399 395h111l-309 -304l326 -354h-116l-272 298l-141 -132v-166h-84zM300 -277v46c43 6 59 32 60 83v2h-36v114h86v-85c0 -102 -33 -150 -110 -160z" />
    <glyph glyph-name="Lacute" unicode="&#x139;" horiz-adv-x="536" 
d="M88 709l85 140h89l-107 -140h-67zM80 0v658h84v-582h346v-76h-430z" />
    <glyph glyph-name="Lcaron" unicode="&#x13d;" horiz-adv-x="536" 
d="M80 0v658h84v-582h346v-76h-430zM327 413v46c43 6 59 32 60 83v2h-36v114h86v-85c0 -102 -33 -150 -110 -160z" />
    <glyph glyph-name="Lcommaaccent" unicode="&#x13b;" horiz-adv-x="536" 
d="M80 0v658h84v-582h346v-76h-430zM215 -277v46c43 6 59 32 60 83v2h-36v114h86v-85c0 -102 -33 -150 -110 -160z" />
    <glyph glyph-name="Ldot" unicode="&#x13f;" horiz-adv-x="546" 
d="M80 0v658h84v-582h346v-76h-430zM354 300v114h86v-114h-86z" />
    <glyph glyph-name="Lslash" unicode="&#x141;" horiz-adv-x="536" 
d="M164 76h346v-76h-430v276l-80 -32v51l80 32v331h84v-297l131 53v-52l-131 -52v-234z" />
    <glyph glyph-name="Nacute" unicode="&#x143;" horiz-adv-x="734" 
d="M323 709l85 140h89l-107 -140h-67zM80 0v658h135l357 -546h2v546h80v-658h-99l-393 597h-2v-597h-80z" />
    <glyph glyph-name="Ncaron" unicode="&#x147;" horiz-adv-x="734" 
d="M322 709l-103 140h85l62 -94h2l62 94h85l-103 -140h-90zM80 0v658h135l357 -546h2v546h80v-658h-99l-393 597h-2v-597h-80z" />
    <glyph glyph-name="Ncommaaccent" unicode="&#x145;" horiz-adv-x="734" 
d="M80 0v658h135l357 -546h2v546h80v-658h-99l-393 597h-2v-597h-80zM301 -277v46c43 6 59 32 60 83v2h-36v114h86v-85c0 -102 -33 -150 -110 -160z" />
    <glyph glyph-name="Ntilde" unicode="&#xd1;" horiz-adv-x="734" 
d="M189 719c9 98 51 140 104 140c38 0 61 -15 82 -40l14 -16c17 -20 28 -32 50 -32c25 0 41 27 47 88h57c-8 -98 -50 -140 -104 -140c-38 0 -61 15 -82 40l-14 16c-18 21 -27 32 -49 32c-25 0 -42 -27 -48 -88h-57zM80 0v658h135l357 -546h2v546h80v-658h-99l-393 597h-2
v-597h-80z" />
    <glyph glyph-name="Oacute" unicode="&#xd3;" horiz-adv-x="764" 
d="M338 709l85 140h89l-107 -140h-67zM382 -10c-186 0 -332 131 -332 342c0 207 146 336 332 336s332 -129 332 -336c0 -211 -146 -342 -332 -342zM382 66c135 0 248 102 248 266c0 161 -113 260 -248 260s-248 -99 -248 -260c0 -164 113 -266 248 -266z" />
    <glyph glyph-name="Obreve" unicode="&#x14e;" horiz-adv-x="764" 
d="M382 719c-99 0 -132 68 -132 116v14h58v-11c0 -31 19 -67 74 -67c56 0 74 36 74 67v11h58v-14c0 -48 -33 -116 -132 -116zM382 -10c-186 0 -332 131 -332 342c0 207 146 336 332 336s332 -129 332 -336c0 -211 -146 -342 -332 -342zM382 66c135 0 248 102 248 266
c0 161 -113 260 -248 260s-248 -99 -248 -260c0 -164 113 -266 248 -266z" />
    <glyph glyph-name="Ocircumflex" unicode="&#xd4;" horiz-adv-x="764" 
d="M240 708v69l141 79h2l141 -79v-69l-141 79h-2zM382 -10c-186 0 -332 131 -332 342c0 207 146 336 332 336s332 -129 332 -336c0 -211 -146 -342 -332 -342zM382 66c135 0 248 102 248 266c0 161 -113 260 -248 260s-248 -99 -248 -260c0 -164 113 -266 248 -266z" />
    <glyph glyph-name="uni020C" unicode="&#x20c;" horiz-adv-x="764" 
d="M290 709l-94 140h80l79 -140h-65zM451 709l-95 140h81l79 -140h-65zM382 -10c-186 0 -332 131 -332 342c0 207 146 336 332 336s332 -129 332 -336c0 -211 -146 -342 -332 -342zM382 66c135 0 248 102 248 266c0 161 -113 260 -248 260s-248 -99 -248 -260
c0 -164 113 -266 248 -266z" />
    <glyph glyph-name="Odieresis" unicode="&#xd6;" horiz-adv-x="764" 
d="M259 721v101h76v-101h-76zM429 721v101h76v-101h-76zM382 -10c-186 0 -332 131 -332 342c0 207 146 336 332 336s332 -129 332 -336c0 -211 -146 -342 -332 -342zM382 66c135 0 248 102 248 266c0 161 -113 260 -248 260s-248 -99 -248 -260c0 -164 113 -266 248 -266z
" />
    <glyph glyph-name="Ograve" unicode="&#xd2;" horiz-adv-x="764" 
d="M375 709l-108 140h89l85 -140h-66zM382 -10c-186 0 -332 131 -332 342c0 207 146 336 332 336s332 -129 332 -336c0 -211 -146 -342 -332 -342zM382 66c135 0 248 102 248 266c0 161 -113 260 -248 260s-248 -99 -248 -260c0 -164 113 -266 248 -266z" />
    <glyph glyph-name="Ohungarumlaut" unicode="&#x150;" horiz-adv-x="764" 
d="M242 712l77 137h81l-95 -137h-63zM403 712l77 137h81l-95 -137h-63zM382 -10c-186 0 -332 131 -332 342c0 207 146 336 332 336s332 -129 332 -336c0 -211 -146 -342 -332 -342zM382 66c135 0 248 102 248 266c0 161 -113 260 -248 260s-248 -99 -248 -260
c0 -164 113 -266 248 -266z" />
    <glyph glyph-name="uni020E" unicode="&#x20e;" horiz-adv-x="764" 
d="M250 719v14c0 48 33 116 132 116s132 -68 132 -116v-14h-58v11c0 31 -19 67 -74 67c-56 0 -74 -36 -74 -67v-11h-58zM382 -10c-186 0 -332 131 -332 342c0 207 146 336 332 336s332 -129 332 -336c0 -211 -146 -342 -332 -342zM382 66c135 0 248 102 248 266
c0 161 -113 260 -248 260s-248 -99 -248 -260c0 -164 113 -266 248 -266z" />
    <glyph glyph-name="Omacron" unicode="&#x14c;" horiz-adv-x="764" 
d="M246 758v58h273v-58h-273zM382 -10c-186 0 -332 131 -332 342c0 207 146 336 332 336s332 -129 332 -336c0 -211 -146 -342 -332 -342zM382 66c135 0 248 102 248 266c0 161 -113 260 -248 260s-248 -99 -248 -260c0 -164 113 -266 248 -266z" />
    <glyph glyph-name="Oslash" unicode="&#xd8;" horiz-adv-x="764" 
d="M624 572c56 -58 90 -140 90 -240c0 -211 -146 -342 -332 -342c-80 0 -153 24 -210 69l-39 -45l-30 28l39 44c-57 59 -92 143 -92 246c0 207 146 336 332 336c80 0 153 -24 210 -68l38 43l31 -29zM134 332c0 -75 24 -138 63 -183l341 390c-42 34 -97 53 -156 53
c-135 0 -248 -99 -248 -260zM382 66c135 0 248 102 248 266c0 73 -23 133 -61 177l-343 -389c43 -35 98 -54 156 -54z" />
    <glyph glyph-name="Oslashacute" unicode="&#x1fe;" horiz-adv-x="764" 
d="M512 849l-107 -140h-67l85 140h89zM624 572c56 -58 90 -140 90 -240c0 -211 -146 -342 -332 -342c-80 0 -153 24 -210 69l-39 -45l-30 28l39 44c-57 59 -92 143 -92 246c0 207 146 336 332 336c80 0 153 -24 210 -68l38 43l31 -29zM134 332c0 -75 24 -138 63 -183
l341 390c-42 34 -97 53 -156 53c-135 0 -248 -99 -248 -260zM382 66c135 0 248 102 248 266c0 73 -23 133 -61 177l-343 -389c43 -35 98 -54 156 -54z" />
    <glyph glyph-name="Otilde" unicode="&#xd5;" horiz-adv-x="764" 
d="M204 719c9 98 51 140 104 140c38 0 61 -15 82 -40l14 -16c17 -20 28 -32 50 -32c25 0 41 27 47 88h57c-8 -98 -50 -140 -104 -140c-38 0 -61 15 -82 40l-14 16c-18 21 -27 32 -49 32c-25 0 -42 -27 -48 -88h-57zM382 -10c-186 0 -332 131 -332 342c0 207 146 336 332 336
s332 -129 332 -336c0 -211 -146 -342 -332 -342zM382 66c135 0 248 102 248 266c0 161 -113 260 -248 260s-248 -99 -248 -260c0 -164 113 -266 248 -266z" />
    <glyph glyph-name="OE" unicode="&#x152;" horiz-adv-x="926" 
d="M385 -10c-189 0 -335 131 -335 342c0 207 146 336 335 336c34 0 71 -5 87 -10h411v-76h-329v-220h261v-62h-261v-224h337v-76h-420c-14 -4 -52 -10 -86 -10zM385 66c30 0 63 5 85 15v496c-21 10 -60 16 -85 16c-139 0 -251 -100 -251 -261c0 -164 113 -266 251 -266z" />
    <glyph glyph-name="Thorn" unicode="&#xde;" horiz-adv-x="624" 
d="M80 0v658h84v-99h178c157 0 242 -85 242 -227c0 -141 -82 -224 -226 -224h-194v-108h-84zM164 172h187c98 0 151 53 151 155c0 103 -54 156 -163 156h-175v-311z" />
    <glyph glyph-name="Racute" unicode="&#x154;" horiz-adv-x="658" 
d="M290 709l85 140h89l-107 -140h-67zM80 0v658h273c165 0 247 -73 247 -187c0 -86 -37 -147 -127 -158v-2c93 -11 123 -70 123 -152v-159h-86v159c0 70 -31 115 -140 115h-206v-274h-84zM164 336h188c120 0 166 51 166 128c0 73 -54 118 -165 118h-189v-246z" />
    <glyph glyph-name="Rcaron" unicode="&#x158;" horiz-adv-x="658" 
d="M289 709l-103 140h85l62 -94h2l62 94h85l-103 -140h-90zM80 0v658h273c165 0 247 -73 247 -187c0 -86 -37 -147 -127 -158v-2c93 -11 123 -70 123 -152v-159h-86v159c0 70 -31 115 -140 115h-206v-274h-84zM164 336h188c120 0 166 51 166 128c0 73 -54 118 -165 118h-189
v-246z" />
    <glyph glyph-name="Rcommaaccent" unicode="&#x156;" horiz-adv-x="658" 
d="M80 0v658h273c165 0 247 -73 247 -187c0 -86 -37 -147 -127 -158v-2c93 -11 123 -70 123 -152v-159h-86v159c0 70 -31 115 -140 115h-206v-274h-84zM164 336h188c120 0 166 51 166 128c0 73 -54 118 -165 118h-189v-246zM276 -277v46c43 6 59 32 60 83v2h-36v114h86v-85
c0 -102 -33 -150 -110 -160z" />
    <glyph glyph-name="uni0210" unicode="&#x210;" horiz-adv-x="658" 
d="M242 709l-94 140h80l79 -140h-65zM403 709l-95 140h81l79 -140h-65zM80 0v658h273c165 0 247 -73 247 -187c0 -86 -37 -147 -127 -158v-2c93 -11 123 -70 123 -152v-159h-86v159c0 70 -31 115 -140 115h-206v-274h-84zM164 336h188c120 0 166 51 166 128
c0 73 -54 118 -165 118h-189v-246z" />
    <glyph glyph-name="uni0212" unicode="&#x212;" horiz-adv-x="658" 
d="M202 719v14c0 48 33 116 132 116s132 -68 132 -116v-14h-58v11c0 31 -19 67 -74 67c-56 0 -74 -36 -74 -67v-11h-58zM80 0v658h273c165 0 247 -73 247 -187c0 -86 -37 -147 -127 -158v-2c93 -11 123 -70 123 -152v-159h-86v159c0 70 -31 115 -140 115h-206v-274h-84z
M164 336h188c120 0 166 51 166 128c0 73 -54 118 -165 118h-189v-246z" />
    <glyph glyph-name="Sacute" unicode="&#x15a;" horiz-adv-x="645" 
d="M271 709l85 140h89l-107 -140h-67zM318 -10c-211 0 -266 115 -266 234h78c0 -95 48 -162 188 -162c151 0 193 59 193 122c0 42 -18 65 -52 79c-36 15 -111 23 -168 31c-68 8 -140 24 -176 46c-38 23 -65 67 -65 129c0 117 108 199 265 199c184 0 257 -85 257 -237h-78
c0 115 -64 165 -177 165c-107 0 -183 -48 -183 -120c0 -42 16 -67 44 -81c32 -16 111 -28 168 -36c66 -9 135 -20 178 -42c44 -22 71 -68 71 -128c0 -100 -62 -199 -277 -199z" />
    <glyph glyph-name="Scaron" unicode="&#x160;" horiz-adv-x="645" 
d="M270 709l-103 140h85l62 -94h2l62 94h85l-103 -140h-90zM318 -10c-211 0 -266 115 -266 234h78c0 -95 48 -162 188 -162c151 0 193 59 193 122c0 42 -18 65 -52 79c-36 15 -111 23 -168 31c-68 8 -140 24 -176 46c-38 23 -65 67 -65 129c0 117 108 199 265 199
c184 0 257 -85 257 -237h-78c0 115 -64 165 -177 165c-107 0 -183 -48 -183 -120c0 -42 16 -67 44 -81c32 -16 111 -28 168 -36c66 -9 135 -20 178 -42c44 -22 71 -68 71 -128c0 -100 -62 -199 -277 -199z" />
    <glyph glyph-name="Scedilla" unicode="&#x15e;" horiz-adv-x="645" 
d="M595 189c0 -96 -58 -192 -255 -199l-18 -47l1 -1c8 5 21 12 46 12c54 0 79 -30 79 -73c0 -53 -38 -99 -127 -99c-87 0 -125 36 -130 87h61c5 -29 25 -42 69 -42c50 0 70 23 70 52c0 24 -16 36 -60 36c-33 0 -61 -5 -73 -8l32 84c-188 10 -238 120 -238 233h78
c0 -95 48 -162 188 -162c151 0 193 59 193 122c0 42 -18 65 -52 79c-36 15 -111 23 -168 31c-68 8 -140 24 -176 46c-38 23 -65 67 -65 129c0 117 108 199 265 199c184 0 257 -85 257 -237h-78c0 115 -64 165 -177 165c-107 0 -183 -48 -183 -120c0 -42 16 -67 44 -81
c32 -16 111 -28 168 -36c66 -9 135 -20 178 -42c44 -22 71 -68 71 -128z" />
    <glyph glyph-name="Scircumflex" unicode="&#x15c;" horiz-adv-x="645" 
d="M173 708v69l141 79h2l141 -79v-69l-141 79h-2zM318 -10c-211 0 -266 115 -266 234h78c0 -95 48 -162 188 -162c151 0 193 59 193 122c0 42 -18 65 -52 79c-36 15 -111 23 -168 31c-68 8 -140 24 -176 46c-38 23 -65 67 -65 129c0 117 108 199 265 199
c184 0 257 -85 257 -237h-78c0 115 -64 165 -177 165c-107 0 -183 -48 -183 -120c0 -42 16 -67 44 -81c32 -16 111 -28 168 -36c66 -9 135 -20 178 -42c44 -22 71 -68 71 -128c0 -100 -62 -199 -277 -199z" />
    <glyph glyph-name="Scommaaccent" unicode="&#x218;" horiz-adv-x="645" 
d="M318 -10c-211 0 -266 115 -266 234h78c0 -95 48 -162 188 -162c151 0 193 59 193 122c0 42 -18 65 -52 79c-36 15 -111 23 -168 31c-68 8 -140 24 -176 46c-38 23 -65 67 -65 129c0 117 108 199 265 199c184 0 257 -85 257 -237h-78c0 115 -64 165 -177 165
c-107 0 -183 -48 -183 -120c0 -42 16 -67 44 -81c32 -16 111 -28 168 -36c66 -9 135 -20 178 -42c44 -22 71 -68 71 -128c0 -100 -62 -199 -277 -199zM252 -277v46c43 6 59 32 60 83v2h-36v114h86v-85c0 -102 -33 -150 -110 -160z" />
    <glyph glyph-name="Tcaron" unicode="&#x164;" horiz-adv-x="564" 
d="M237 709l-103 140h85l62 -94h2l62 94h85l-103 -140h-90zM240 0v583h-218v75h520v-75h-218v-583h-84z" />
    <glyph glyph-name="uni0162" unicode="&#x162;" horiz-adv-x="564" 
d="M240 0v583h-218v75h520v-75h-218v-583h-84zM216 -277v46c43 6 59 32 60 83v2h-36v114h86v-85c0 -102 -33 -150 -110 -160z" />
    <glyph glyph-name="Uacute" unicode="&#xda;" horiz-adv-x="706" 
d="M313 709l85 140h89l-107 -140h-67zM354 -10c-173 0 -279 102 -279 252v416h84v-416c0 -108 74 -176 198 -176s198 68 198 176v416h76v-416c0 -150 -105 -252 -277 -252z" />
    <glyph glyph-name="Ubreve" unicode="&#x16c;" horiz-adv-x="706" 
d="M357 719c-99 0 -132 68 -132 116v14h58v-11c0 -31 19 -67 74 -67c56 0 74 36 74 67v11h58v-14c0 -48 -33 -116 -132 -116zM354 -10c-173 0 -279 102 -279 252v416h84v-416c0 -108 74 -176 198 -176s198 68 198 176v416h76v-416c0 -150 -105 -252 -277 -252z" />
    <glyph glyph-name="Ucircumflex" unicode="&#xdb;" horiz-adv-x="706" 
d="M215 708v69l141 79h2l141 -79v-69l-141 79h-2zM354 -10c-173 0 -279 102 -279 252v416h84v-416c0 -108 74 -176 198 -176s198 68 198 176v416h76v-416c0 -150 -105 -252 -277 -252z" />
    <glyph glyph-name="uni0214" unicode="&#x214;" horiz-adv-x="706" 
d="M265 709l-94 140h80l79 -140h-65zM426 709l-95 140h81l79 -140h-65zM354 -10c-173 0 -279 102 -279 252v416h84v-416c0 -108 74 -176 198 -176s198 68 198 176v416h76v-416c0 -150 -105 -252 -277 -252z" />
    <glyph glyph-name="Udieresis" unicode="&#xdc;" horiz-adv-x="706" 
d="M234 721v101h76v-101h-76zM404 721v101h76v-101h-76zM354 -10c-173 0 -279 102 -279 252v416h84v-416c0 -108 74 -176 198 -176s198 68 198 176v416h76v-416c0 -150 -105 -252 -277 -252z" />
    <glyph glyph-name="Ugrave" unicode="&#xd9;" horiz-adv-x="706" 
d="M350 709l-108 140h89l85 -140h-66zM354 -10c-173 0 -279 102 -279 252v416h84v-416c0 -108 74 -176 198 -176s198 68 198 176v416h76v-416c0 -150 -105 -252 -277 -252z" />
    <glyph glyph-name="Uhungarumlaut" unicode="&#x170;" horiz-adv-x="706" 
d="M217 712l77 137h81l-95 -137h-63zM378 712l77 137h81l-95 -137h-63zM354 -10c-173 0 -279 102 -279 252v416h84v-416c0 -108 74 -176 198 -176s198 68 198 176v416h76v-416c0 -150 -105 -252 -277 -252z" />
    <glyph glyph-name="uni0216" unicode="&#x216;" horiz-adv-x="706" 
d="M225 719v14c0 48 33 116 132 116s132 -68 132 -116v-14h-58v11c0 31 -19 67 -74 67c-56 0 -74 -36 -74 -67v-11h-58zM354 -10c-173 0 -279 102 -279 252v416h84v-416c0 -108 74 -176 198 -176s198 68 198 176v416h76v-416c0 -150 -105 -252 -277 -252z" />
    <glyph glyph-name="Umacron" unicode="&#x16a;" horiz-adv-x="706" 
d="M221 758v58h273v-58h-273zM354 -10c-173 0 -279 102 -279 252v416h84v-416c0 -108 74 -176 198 -176s198 68 198 176v416h76v-416c0 -150 -105 -252 -277 -252z" />
    <glyph glyph-name="Uogonek" unicode="&#x172;" horiz-adv-x="706" 
d="M75 242v416h84v-416c0 -108 74 -176 198 -176s198 68 198 176v416h76v-416c0 -108 -54 -191 -149 -229c-17 -8 -36 -17 -60 -36c-24 -18 -49 -53 -49 -82c0 -23 13 -41 49 -41c24 0 39 5 48 8v-53c-11 -4 -31 -10 -59 -10c-74 0 -107 41 -107 83c0 39 21 75 56 107v1h-6
c-173 0 -279 102 -279 252z" />
    <glyph glyph-name="Uring" unicode="&#x16e;" horiz-adv-x="706" 
d="M357 709c-93 0 -139 47 -139 112s50 113 139 113c92 0 139 -48 139 -113s-46 -112 -139 -112zM357 758c55 0 83 25 83 63c0 39 -29 63 -83 63c-53 0 -83 -24 -83 -63c0 -38 28 -63 83 -63zM354 -10c-173 0 -279 102 -279 252v416h84v-416c0 -108 74 -176 198 -176
s198 68 198 176v416h76v-416c0 -150 -105 -252 -277 -252z" />
    <glyph glyph-name="Utilde" unicode="&#x168;" horiz-adv-x="706" 
d="M179 719c9 98 51 140 104 140c38 0 61 -15 82 -40l14 -16c17 -20 28 -32 50 -32c25 0 41 27 47 88h57c-8 -98 -50 -140 -104 -140c-38 0 -61 15 -82 40l-14 16c-18 21 -27 32 -49 32c-25 0 -42 -27 -48 -88h-57zM354 -10c-173 0 -279 102 -279 252v416h84v-416
c0 -108 74 -176 198 -176s198 68 198 176v416h76v-416c0 -150 -105 -252 -277 -252z" />
    <glyph glyph-name="Wacute" unicode="&#x1e82;" horiz-adv-x="992" 
d="M452 709l85 140h89l-107 -140h-67zM239 0l-217 658h90l175 -549h3l167 542h86l165 -542h3l175 549h84l-218 -658h-90l-163 529h-3l-166 -529h-91z" />
    <glyph glyph-name="Wcircumflex" unicode="&#x174;" horiz-adv-x="992" 
d="M354 708v69l141 79h2l141 -79v-69l-141 79h-2zM239 0l-217 658h90l175 -549h3l167 542h86l165 -542h3l175 549h84l-218 -658h-90l-163 529h-3l-166 -529h-91z" />
    <glyph glyph-name="Wdieresis" unicode="&#x1e84;" horiz-adv-x="992" 
d="M373 721v101h76v-101h-76zM543 721v101h76v-101h-76zM239 0l-217 658h90l175 -549h3l167 542h86l165 -542h3l175 549h84l-218 -658h-90l-163 529h-3l-166 -529h-91z" />
    <glyph glyph-name="Wgrave" unicode="&#x1e80;" horiz-adv-x="992" 
d="M489 709l-108 140h89l85 -140h-66zM239 0l-217 658h90l175 -549h3l167 542h86l165 -542h3l175 549h84l-218 -658h-90l-163 529h-3l-166 -529h-91z" />
    <glyph glyph-name="Yacute" unicode="&#xdd;" horiz-adv-x="657" 
d="M281 709l85 140h89l-107 -140h-67zM286 0v269l-264 389h103l208 -320h2l208 320h92l-265 -389v-269h-84z" />
    <glyph glyph-name="Ycircumflex" unicode="&#x176;" horiz-adv-x="657" 
d="M183 708v69l141 79h2l141 -79v-69l-141 79h-2zM286 0v269l-264 389h103l208 -320h2l208 320h92l-265 -389v-269h-84z" />
    <glyph glyph-name="Ydieresis" unicode="&#x178;" horiz-adv-x="657" 
d="M202 721v101h76v-101h-76zM372 721v101h76v-101h-76zM286 0v269l-264 389h103l208 -320h2l208 320h92l-265 -389v-269h-84z" />
    <glyph glyph-name="Ygrave" unicode="&#x1ef2;" horiz-adv-x="657" 
d="M318 709l-108 140h89l85 -140h-66zM286 0v269l-264 389h103l208 -320h2l208 320h92l-265 -389v-269h-84z" />
    <glyph glyph-name="Zacute" unicode="&#x179;" horiz-adv-x="607" 
d="M258 709l85 140h89l-107 -140h-67zM50 0v59l400 522v1h-392v76h499v-63l-398 -518v-1h394v-76h-503z" />
    <glyph glyph-name="Zcaron" unicode="&#x17d;" horiz-adv-x="607" 
d="M257 709l-103 140h85l62 -94h2l62 94h85l-103 -140h-90zM50 0v59l400 522v1h-392v76h499v-63l-398 -518v-1h394v-76h-503z" />
    <glyph glyph-name="Zdotaccent" unicode="&#x17b;" horiz-adv-x="607" 
d="M263 721v101h78v-101h-78zM50 0v59l400 522v1h-392v76h499v-63l-398 -518v-1h394v-76h-503z" />
    <glyph glyph-name="a" unicode="a" horiz-adv-x="577" 
d="M233 -8c-112 0 -183 57 -183 150c0 70 49 130 181 130h201v36c0 85 -50 126 -151 126c-91 0 -141 -34 -141 -101c0 -3 0 -10 1 -18h-74c-1 7 -2 21 -2 30c0 98 84 157 218 157c145 0 229 -72 229 -201v-301h-80c1 23 3 69 4 117h-1c-17 -76 -79 -125 -202 -125zM249 60
c112 0 183 57 183 147v7h-194c-81 0 -113 -24 -113 -72c0 -50 46 -82 124 -82z" />
    <glyph glyph-name="b" unicode="b" horiz-adv-x="633" 
d="M356 -8c-112 0 -183 48 -204 122h-1c0 -39 2 -88 4 -114h-80v693h80v-237c0 -20 -1 -60 -2 -84h1c22 79 94 130 200 130c142 0 229 -96 229 -246c0 -161 -89 -264 -227 -264zM336 64c102 0 167 74 167 190c0 107 -62 176 -164 176c-112 0 -184 -72 -184 -184v-26
c0 -95 71 -156 181 -156z" />
    <glyph glyph-name="c" unicode="c" horiz-adv-x="566" 
d="M286 -8c-144 0 -236 99 -236 255s94 255 242 255c132 0 217 -80 217 -206h-74c-1 82 -56 134 -142 134c-99 0 -163 -71 -163 -183s62 -183 158 -183c90 0 148 51 149 132h74c0 -124 -88 -204 -225 -204z" />
    <glyph glyph-name="d" unicode="d" horiz-adv-x="632" 
d="M285 -8c-143 0 -235 104 -235 258c0 147 92 252 242 252c103 0 166 -42 184 -107h1v298h80v-693h-80c3 44 4 88 5 132h-2c-19 -85 -85 -140 -195 -140zM298 64c109 0 179 69 179 177v25c0 100 -69 164 -178 164c-103 0 -169 -77 -169 -180c0 -110 66 -186 168 -186z" />
    <glyph glyph-name="e" unicode="e" horiz-adv-x="567" 
d="M517 268v-37h-387c5 -105 69 -171 166 -171c83 0 140 42 147 107h74c-5 -107 -92 -175 -222 -175c-149 0 -245 98 -245 251c0 158 95 259 243 259c141 0 224 -87 224 -234zM443 289v6c0 87 -54 139 -148 139c-88 0 -147 -51 -162 -145h310z" />
    <glyph glyph-name="f" unicode="f" horiz-adv-x="392" 
d="M96 0v424h-83v70h83v49c0 108 66 170 169 170c38 0 69 -7 87 -13v-71c-18 6 -43 12 -77 12c-63 0 -99 -35 -99 -98v-49h184v-70h-184v-424h-80z" />
    <glyph glyph-name="g" unicode="g" horiz-adv-x="601" 
d="M402 68c100 0 157 -44 157 -119c0 -98 -93 -161 -249 -161c-163 0 -260 53 -260 147c0 49 39 90 101 90v1c-25 19 -40 48 -40 82c0 37 16 66 35 77v2c-46 30 -72 79 -72 139c0 107 82 176 210 176c54 0 100 -12 135 -34v1c-11 14 -19 33 -19 55c0 40 35 66 91 66
c21 0 36 -3 45 -6v-64c-7 3 -19 6 -35 6c-33 0 -51 -15 -51 -44c0 -15 5 -34 13 -54c21 -28 32 -62 32 -102c0 -107 -82 -176 -211 -176c-34 0 -64 5 -91 14c-8 -8 -14 -23 -14 -42c0 -33 21 -54 63 -54h160zM284 434c-81 0 -132 -42 -132 -108s51 -108 132 -108
s133 42 133 108s-52 108 -133 108zM309 -144c127 0 170 38 170 85c0 39 -29 59 -89 59h-147c-69 0 -113 -18 -113 -63c0 -55 70 -81 179 -81z" />
    <glyph glyph-name="h" unicode="h" horiz-adv-x="640" 
d="M75 0v693h80v-229c0 -27 -2 -86 -2 -104h1c27 86 96 142 214 142c130 0 207 -75 207 -193v-309h-80v292c0 84 -48 138 -154 138c-113 0 -186 -72 -186 -197v-233h-80z" />
    <glyph glyph-name="i" unicode="i" horiz-adv-x="230" 
d="M72 557v101h86v-101h-86zM75 0v494h80v-494h-80z" />
    <glyph glyph-name="j" unicode="j" horiz-adv-x="230" 
d="M72 557v101h86v-101h-86zM-10 -208c-29 0 -66 6 -82 11v70c18 -4 47 -9 69 -9c69 0 98 46 98 123v507h80v-507c0 -111 -45 -195 -165 -195z" />
    <glyph glyph-name="k" unicode="k" horiz-adv-x="615" 
d="M75 0v693h80v-475h1l310 276h112l-250 -215l264 -279h-114l-210 228l-113 -98v-130h-80z" />
    <glyph glyph-name="l" unicode="l" horiz-adv-x="230" 
d="M75 0v693h80v-693h-80z" />
    <glyph glyph-name="m" unicode="m" horiz-adv-x="912" 
d="M70 0v494h80l-2 -131h1c21 85 84 139 173 139c97 0 161 -51 173 -130h1c17 79 81 130 174 130c112 0 177 -74 177 -189v-313h-80v296c0 82 -40 134 -119 134c-91 0 -149 -67 -149 -181v-249h-80v299c0 80 -41 131 -120 131c-91 0 -149 -68 -149 -185v-245h-80z" />
    <glyph glyph-name="n" unicode="n" horiz-adv-x="635" 
d="M70 0v494h80l-2 -133h1c27 86 96 141 214 141c130 0 207 -75 207 -193v-309h-80v292c0 84 -48 138 -154 138c-113 0 -186 -69 -186 -187v-243h-80z" />
    <glyph glyph-name="o" unicode="o" horiz-adv-x="600" 
d="M300 -8c-153 0 -250 99 -250 254c0 156 97 256 250 256s250 -100 250 -256c0 -155 -97 -254 -250 -254zM300 64c104 0 170 71 170 182c0 112 -66 184 -170 184s-170 -72 -170 -184c0 -111 66 -182 170 -182z" />
    <glyph glyph-name="p" unicode="p" horiz-adv-x="633" 
d="M75 -198v692h80l-2 -127h1c20 82 90 135 197 135c144 0 232 -96 232 -247c0 -160 -89 -263 -234 -263c-105 0 -175 50 -196 117h-1c1 -33 3 -85 3 -108v-199h-80zM338 64c101 0 165 74 165 190c0 107 -63 176 -167 176c-108 0 -179 -71 -181 -182v-30
c0 -94 71 -154 183 -154z" />
    <glyph glyph-name="q" unicode="q" horiz-adv-x="632" 
d="M477 -198v324h-1c-18 -82 -94 -134 -195 -134c-139 0 -231 99 -231 258c0 153 96 252 236 252c107 0 173 -44 191 -112h1v104h79v-692h-80zM297 64c110 0 180 70 180 179v24c0 99 -69 163 -178 163c-99 0 -169 -71 -169 -180c0 -115 67 -186 167 -186z" />
    <glyph glyph-name="r" unicode="r" horiz-adv-x="549" 
d="M70 0v494h80l-2 -143h1c23 86 74 151 180 151c111 0 170 -74 170 -193c0 -34 -3 -70 -5 -88h-73c2 15 4 40 4 71c0 91 -34 138 -115 138c-101 0 -160 -88 -160 -211v-219h-80z" />
    <glyph glyph-name="s" unicode="s" horiz-adv-x="548" 
d="M268 -8c-166 0 -218 78 -218 173h74c0 -66 40 -105 143 -105c102 0 151 31 151 84c0 20 -6 39 -31 51c-23 11 -75 17 -136 23c-81 7 -130 17 -160 39c-27 20 -41 56 -41 92c0 93 85 153 217 153c148 0 210 -65 210 -176h-74c-1 74 -45 108 -133 108
c-85 0 -140 -31 -140 -80c0 -20 3 -44 32 -56c24 -10 73 -16 138 -23c77 -8 115 -15 149 -34c33 -19 49 -57 49 -94c0 -97 -80 -155 -230 -155z" />
    <glyph glyph-name="t" unicode="t" horiz-adv-x="393" 
d="M266 -4c-120 0 -171 76 -171 185v243h-82v70h66c16 0 22 8 24 34l4 78h68v-112h179v-70h-179v-238c0 -75 24 -120 98 -120c34 0 66 6 77 10v-68c-15 -6 -44 -12 -84 -12z" />
    <glyph glyph-name="u" unicode="u" horiz-adv-x="634" 
d="M273 -8c-129 0 -208 77 -208 197v305h80v-291c0 -85 56 -139 150 -139c115 0 189 77 189 207v223h80v-494h-80c2 33 4 95 4 145h-1c-21 -93 -91 -153 -214 -153z" />
    <glyph glyph-name="v" unicode="v" horiz-adv-x="586" 
d="M245 0l-221 494h94l177 -417h3l178 417h86l-221 -494h-96z" />
    <glyph glyph-name="w" unicode="w" horiz-adv-x="798" 
d="M171 0l-147 494h87l114 -410h2l138 410h79l133 -410h2l118 410h77l-147 -494h-98l-128 394h-3l-132 -394h-95z" />
    <glyph glyph-name="x" unicode="x" horiz-adv-x="552" 
d="M24 0l194 253l-186 241h103l146 -194l143 194h95l-187 -242l196 -252h-103l-154 203l-149 -203h-98z" />
    <glyph glyph-name="y" unicode="y" horiz-adv-x="564" 
d="M153 -208c-28 0 -57 7 -71 13v67c12 -4 36 -10 61 -10c54 0 78 26 124 138h-21l-222 494h94l180 -413h2l159 413h81l-196 -503c-59 -153 -97 -199 -191 -199z" />
    <glyph glyph-name="z" unicode="z" horiz-adv-x="501" 
d="M50 0v52l294 370v2h-286v70h393v-52l-294 -371v-1h294v-70h-401z" />
    <glyph glyph-name="aacute" unicode="&#xe1;" horiz-adv-x="577" 
d="M240 545l85 140h89l-107 -140h-67zM233 -8c-112 0 -183 57 -183 150c0 70 49 130 181 130h201v36c0 85 -50 126 -151 126c-91 0 -141 -34 -141 -101c0 -3 0 -10 1 -18h-74c-1 7 -2 21 -2 30c0 98 84 157 218 157c145 0 229 -72 229 -201v-301h-80c1 23 3 69 4 117h-1
c-17 -76 -79 -125 -202 -125zM249 60c112 0 183 57 183 147v7h-194c-81 0 -113 -24 -113 -72c0 -50 46 -82 124 -82z" />
    <glyph glyph-name="abreve" unicode="&#x103;" horiz-adv-x="577" 
d="M284 555c-99 0 -132 68 -132 116v14h58v-11c0 -31 19 -67 74 -67c56 0 74 36 74 67v11h58v-14c0 -48 -33 -116 -132 -116zM233 -8c-112 0 -183 57 -183 150c0 70 49 130 181 130h201v36c0 85 -50 126 -151 126c-91 0 -141 -34 -141 -101c0 -3 0 -10 1 -18h-74
c-1 7 -2 21 -2 30c0 98 84 157 218 157c145 0 229 -72 229 -201v-301h-80c1 23 3 69 4 117h-1c-17 -76 -79 -125 -202 -125zM249 60c112 0 183 57 183 147v7h-194c-81 0 -113 -24 -113 -72c0 -50 46 -82 124 -82z" />
    <glyph glyph-name="acircumflex" unicode="&#xe2;" horiz-adv-x="577" 
d="M142 544v69l141 79h2l141 -79v-69l-141 79h-2zM233 -8c-112 0 -183 57 -183 150c0 70 49 130 181 130h201v36c0 85 -50 126 -151 126c-91 0 -141 -34 -141 -101c0 -3 0 -10 1 -18h-74c-1 7 -2 21 -2 30c0 98 84 157 218 157c145 0 229 -72 229 -201v-301h-80
c1 23 3 69 4 117h-1c-17 -76 -79 -125 -202 -125zM249 60c112 0 183 57 183 147v7h-194c-81 0 -113 -24 -113 -72c0 -50 46 -82 124 -82z" />
    <glyph glyph-name="uni0201" unicode="&#x201;" horiz-adv-x="577" 
d="M192 545l-94 140h80l79 -140h-65zM353 545l-95 140h81l79 -140h-65zM233 -8c-112 0 -183 57 -183 150c0 70 49 130 181 130h201v36c0 85 -50 126 -151 126c-91 0 -141 -34 -141 -101c0 -3 0 -10 1 -18h-74c-1 7 -2 21 -2 30c0 98 84 157 218 157c145 0 229 -72 229 -201
v-301h-80c1 23 3 69 4 117h-1c-17 -76 -79 -125 -202 -125zM249 60c112 0 183 57 183 147v7h-194c-81 0 -113 -24 -113 -72c0 -50 46 -82 124 -82z" />
    <glyph glyph-name="adieresis" unicode="&#xe4;" horiz-adv-x="577" 
d="M161 557v101h76v-101h-76zM331 557v101h76v-101h-76zM233 -8c-112 0 -183 57 -183 150c0 70 49 130 181 130h201v36c0 85 -50 126 -151 126c-91 0 -141 -34 -141 -101c0 -3 0 -10 1 -18h-74c-1 7 -2 21 -2 30c0 98 84 157 218 157c145 0 229 -72 229 -201v-301h-80
c1 23 3 69 4 117h-1c-17 -76 -79 -125 -202 -125zM249 60c112 0 183 57 183 147v7h-194c-81 0 -113 -24 -113 -72c0 -50 46 -82 124 -82z" />
    <glyph glyph-name="agrave" unicode="&#xe0;" horiz-adv-x="577" 
d="M277 545l-108 140h89l85 -140h-66zM233 -8c-112 0 -183 57 -183 150c0 70 49 130 181 130h201v36c0 85 -50 126 -151 126c-91 0 -141 -34 -141 -101c0 -3 0 -10 1 -18h-74c-1 7 -2 21 -2 30c0 98 84 157 218 157c145 0 229 -72 229 -201v-301h-80c1 23 3 69 4 117h-1
c-17 -76 -79 -125 -202 -125zM249 60c112 0 183 57 183 147v7h-194c-81 0 -113 -24 -113 -72c0 -50 46 -82 124 -82z" />
    <glyph glyph-name="uni0203" unicode="&#x203;" horiz-adv-x="577" 
d="M152 555v14c0 48 33 116 132 116s132 -68 132 -116v-14h-58v11c0 31 -19 67 -74 67c-56 0 -74 -36 -74 -67v-11h-58zM233 -8c-112 0 -183 57 -183 150c0 70 49 130 181 130h201v36c0 85 -50 126 -151 126c-91 0 -141 -34 -141 -101c0 -3 0 -10 1 -18h-74
c-1 7 -2 21 -2 30c0 98 84 157 218 157c145 0 229 -72 229 -201v-301h-80c1 23 3 69 4 117h-1c-17 -76 -79 -125 -202 -125zM249 60c112 0 183 57 183 147v7h-194c-81 0 -113 -24 -113 -72c0 -50 46 -82 124 -82z" />
    <glyph glyph-name="amacron" unicode="&#x101;" horiz-adv-x="577" 
d="M148 594v58h273v-58h-273zM233 -8c-112 0 -183 57 -183 150c0 70 49 130 181 130h201v36c0 85 -50 126 -151 126c-91 0 -141 -34 -141 -101c0 -3 0 -10 1 -18h-74c-1 7 -2 21 -2 30c0 98 84 157 218 157c145 0 229 -72 229 -201v-301h-80c1 23 3 69 4 117h-1
c-17 -76 -79 -125 -202 -125zM249 60c112 0 183 57 183 147v7h-194c-81 0 -113 -24 -113 -72c0 -50 46 -82 124 -82z" />
    <glyph glyph-name="aogonek" unicode="&#x105;" horiz-adv-x="577" 
d="M482 -146c24 0 39 5 48 8v-53c-11 -4 -31 -10 -59 -10c-74 0 -107 41 -107 83s28 84 67 118h1c1 23 3 69 4 117h-1c-17 -76 -79 -125 -202 -125c-112 0 -183 57 -183 150c0 70 49 130 181 130h201v36c0 85 -50 126 -151 126c-91 0 -141 -34 -141 -101c0 -3 0 -10 1 -18
h-74c-1 7 -2 21 -2 30c0 98 84 157 218 157c145 0 229 -72 229 -201v-301h-2c-47 -34 -77 -76 -77 -105c0 -23 13 -41 49 -41zM432 207v7h-194c-81 0 -113 -24 -113 -72c0 -50 46 -82 124 -82c112 0 183 57 183 147z" />
    <glyph glyph-name="aring" unicode="&#xe5;" horiz-adv-x="577" 
d="M284 545c-93 0 -139 47 -139 112s50 113 139 113c92 0 139 -48 139 -113s-46 -112 -139 -112zM284 594c55 0 83 25 83 63c0 39 -29 63 -83 63c-53 0 -83 -24 -83 -63c0 -38 28 -63 83 -63zM233 -8c-112 0 -183 57 -183 150c0 70 49 130 181 130h201v36
c0 85 -50 126 -151 126c-91 0 -141 -34 -141 -101c0 -3 0 -10 1 -18h-74c-1 7 -2 21 -2 30c0 98 84 157 218 157c145 0 229 -72 229 -201v-301h-80c1 23 3 69 4 117h-1c-17 -76 -79 -125 -202 -125zM249 60c112 0 183 57 183 147v7h-194c-81 0 -113 -24 -113 -72
c0 -50 46 -82 124 -82z" />
    <glyph glyph-name="atilde" unicode="&#xe3;" horiz-adv-x="577" 
d="M106 555c9 98 51 140 104 140c38 0 61 -15 82 -40l14 -16c17 -20 28 -32 50 -32c25 0 41 27 47 88h57c-8 -98 -50 -140 -104 -140c-38 0 -61 15 -82 40l-14 16c-18 21 -27 32 -49 32c-25 0 -42 -27 -48 -88h-57zM233 -8c-112 0 -183 57 -183 150c0 70 49 130 181 130h201
v36c0 85 -50 126 -151 126c-91 0 -141 -34 -141 -101c0 -3 0 -10 1 -18h-74c-1 7 -2 21 -2 30c0 98 84 157 218 157c145 0 229 -72 229 -201v-301h-80c1 23 3 69 4 117h-1c-17 -76 -79 -125 -202 -125zM249 60c112 0 183 57 183 147v7h-194c-81 0 -113 -24 -113 -72
c0 -50 46 -82 124 -82z" />
    <glyph glyph-name="ae" unicode="&#xe6;" horiz-adv-x="950" 
d="M900 268v-47h-386c8 -99 71 -161 165 -161c83 0 140 42 147 107h74c-5 -107 -92 -175 -223 -175c-105 0 -185 51 -216 126h-3c-18 -75 -84 -126 -217 -126c-120 0 -191 58 -191 148c0 76 49 139 181 139h201v29c0 85 -50 126 -151 126c-89 0 -141 -34 -141 -93
c0 -6 0 -15 1 -26h-74c-1 8 -2 19 -2 30c0 98 85 157 218 157c108 0 175 -37 195 -103h1c32 60 99 103 197 103c141 0 224 -87 224 -234zM826 279v15c0 88 -54 140 -148 140c-91 0 -152 -55 -163 -155h311zM432 210v11h-194c-81 0 -113 -26 -113 -77c0 -52 46 -84 124 -84
c112 0 183 57 183 150z" />
    <glyph glyph-name="aeacute" unicode="&#x1fd;" horiz-adv-x="950" 
d="M603 685l-107 -140h-67l85 140h89zM900 268v-47h-386c8 -99 71 -161 165 -161c83 0 140 42 147 107h74c-5 -107 -92 -175 -223 -175c-105 0 -185 51 -216 126h-3c-18 -75 -84 -126 -217 -126c-120 0 -191 58 -191 148c0 76 49 139 181 139h201v29c0 85 -50 126 -151 126
c-89 0 -141 -34 -141 -93c0 -6 0 -15 1 -26h-74c-1 8 -2 19 -2 30c0 98 85 157 218 157c108 0 175 -37 195 -103h1c32 60 99 103 197 103c141 0 224 -87 224 -234zM826 279v15c0 88 -54 140 -148 140c-91 0 -152 -55 -163 -155h311zM432 210v11h-194
c-81 0 -113 -26 -113 -77c0 -52 46 -84 124 -84c112 0 183 57 183 150z" />
    <glyph glyph-name="cacute" unicode="&#x107;" horiz-adv-x="566" 
d="M245 545l85 140h89l-107 -140h-67zM286 -8c-144 0 -236 99 -236 255s94 255 242 255c132 0 217 -80 217 -206h-74c-1 82 -56 134 -142 134c-99 0 -163 -71 -163 -183s62 -183 158 -183c90 0 148 51 149 132h74c0 -124 -88 -204 -225 -204z" />
    <glyph glyph-name="ccaron" unicode="&#x10d;" horiz-adv-x="566" 
d="M244 545l-103 140h85l62 -94h2l62 94h85l-103 -140h-90zM286 -8c-144 0 -236 99 -236 255s94 255 242 255c132 0 217 -80 217 -206h-74c-1 82 -56 134 -142 134c-99 0 -163 -71 -163 -183s62 -183 158 -183c90 0 148 51 149 132h74c0 -124 -88 -204 -225 -204z" />
    <glyph glyph-name="ccedilla" unicode="&#xe7;" horiz-adv-x="566" 
d="M511 196c0 -118 -80 -196 -206 -203l-19 -50l1 -1c8 5 21 12 46 12c54 0 79 -30 79 -73c0 -53 -38 -99 -127 -99c-87 0 -125 36 -130 87h61c5 -29 25 -42 69 -42c50 0 70 23 70 52c0 24 -16 36 -60 36c-33 0 -61 -5 -73 -8l33 87c-126 13 -205 109 -205 253
c0 156 94 255 242 255c132 0 217 -80 217 -206h-74c-1 82 -56 134 -142 134c-99 0 -163 -71 -163 -183s62 -183 158 -183c90 0 148 51 149 132h74z" />
    <glyph glyph-name="ccircumflex" unicode="&#x109;" horiz-adv-x="566" 
d="M147 544v69l141 79h2l141 -79v-69l-141 79h-2zM286 -8c-144 0 -236 99 -236 255s94 255 242 255c132 0 217 -80 217 -206h-74c-1 82 -56 134 -142 134c-99 0 -163 -71 -163 -183s62 -183 158 -183c90 0 148 51 149 132h74c0 -124 -88 -204 -225 -204z" />
    <glyph glyph-name="cdotaccent" unicode="&#x10b;" horiz-adv-x="566" 
d="M250 557v101h78v-101h-78zM286 -8c-144 0 -236 99 -236 255s94 255 242 255c132 0 217 -80 217 -206h-74c-1 82 -56 134 -142 134c-99 0 -163 -71 -163 -183s62 -183 158 -183c90 0 148 51 149 132h74c0 -124 -88 -204 -225 -204z" />
    <glyph glyph-name="eth" unicode="&#xf0;" horiz-adv-x="605" 
d="M383 622c108 -75 167 -191 167 -336c0 -179 -97 -294 -250 -294s-250 99 -250 254c0 156 90 256 236 256c67 0 120 -27 157 -74c-28 68 -76 121 -144 161l-191 -76l-15 37l158 63c-41 17 -88 31 -140 41l31 53c76 -10 142 -30 198 -59l150 59l15 -37zM300 64
c104 0 170 83 170 212v13c-18 86 -89 141 -181 141c-97 0 -159 -72 -159 -184c0 -111 66 -182 170 -182z" />
    <glyph glyph-name="dcaron" unicode="&#x10f;" horiz-adv-x="682" 
d="M285 -8c-143 0 -235 104 -235 258c0 147 92 252 242 252c103 0 166 -42 184 -107h1v298h80v-693h-80c3 44 4 88 5 132h-2c-19 -85 -85 -140 -195 -140zM612 413v46c43 6 59 32 60 83v2h-36v114h86v-85c0 -102 -33 -150 -110 -160zM298 64c109 0 179 69 179 177v25
c0 100 -69 164 -178 164c-103 0 -169 -77 -169 -180c0 -110 66 -186 168 -186z" />
    <glyph glyph-name="dmacron" unicode="&#x111;" horiz-adv-x="632" 
d="M639 614v-46h-82v-568h-80c3 44 4 88 5 132h-2c-19 -85 -85 -140 -195 -140c-143 0 -235 104 -235 258c0 147 92 252 242 252c103 0 166 -42 184 -107h1v173h-239v46h239v79h80v-79h82zM477 241v25c0 100 -69 164 -178 164c-103 0 -169 -77 -169 -180
c0 -110 66 -186 168 -186c109 0 179 69 179 177z" />
    <glyph glyph-name="eacute" unicode="&#xe9;" horiz-adv-x="567" 
d="M417 685l-107 -140h-67l85 140h89zM517 268v-37h-387c5 -105 69 -171 166 -171c83 0 140 42 147 107h74c-5 -107 -92 -175 -222 -175c-149 0 -245 98 -245 251c0 158 95 259 243 259c141 0 224 -87 224 -234zM443 289v6c0 87 -54 139 -148 139c-88 0 -147 -51 -162 -145
h310z" />
    <glyph glyph-name="ebreve" unicode="&#x115;" horiz-adv-x="567" 
d="M287 555c-99 0 -132 68 -132 116v14h58v-11c0 -31 19 -67 74 -67c56 0 74 36 74 67v11h58v-14c0 -48 -33 -116 -132 -116zM517 268v-37h-387c5 -105 69 -171 166 -171c83 0 140 42 147 107h74c-5 -107 -92 -175 -222 -175c-149 0 -245 98 -245 251c0 158 95 259 243 259
c141 0 224 -87 224 -234zM443 289v6c0 87 -54 139 -148 139c-88 0 -147 -51 -162 -145h310z" />
    <glyph glyph-name="ecaron" unicode="&#x11b;" horiz-adv-x="567" 
d="M332 545h-90l-103 140h85l62 -94h2l62 94h85zM517 268v-37h-387c5 -105 69 -171 166 -171c83 0 140 42 147 107h74c-5 -107 -92 -175 -222 -175c-149 0 -245 98 -245 251c0 158 95 259 243 259c141 0 224 -87 224 -234zM443 289v6c0 87 -54 139 -148 139
c-88 0 -147 -51 -162 -145h310z" />
    <glyph glyph-name="ecircumflex" unicode="&#xea;" horiz-adv-x="567" 
d="M288 623h-2l-141 -79v69l141 79h2l141 -79v-69zM517 268v-37h-387c5 -105 69 -171 166 -171c83 0 140 42 147 107h74c-5 -107 -92 -175 -222 -175c-149 0 -245 98 -245 251c0 158 95 259 243 259c141 0 224 -87 224 -234zM443 289v6c0 87 -54 139 -148 139
c-88 0 -147 -51 -162 -145h310z" />
    <glyph glyph-name="uni0205" unicode="&#x205;" horiz-adv-x="567" 
d="M260 545h-65l-94 140h80zM421 545h-65l-95 140h81zM517 268v-37h-387c5 -105 69 -171 166 -171c83 0 140 42 147 107h74c-5 -107 -92 -175 -222 -175c-149 0 -245 98 -245 251c0 158 95 259 243 259c141 0 224 -87 224 -234zM443 289v6c0 87 -54 139 -148 139
c-88 0 -147 -51 -162 -145h310z" />
    <glyph glyph-name="edieresis" unicode="&#xeb;" horiz-adv-x="567" 
d="M240 658v-101h-76v101h76zM410 658v-101h-76v101h76zM517 268v-37h-387c5 -105 69 -171 166 -171c83 0 140 42 147 107h74c-5 -107 -92 -175 -222 -175c-149 0 -245 98 -245 251c0 158 95 259 243 259c141 0 224 -87 224 -234zM443 289v6c0 87 -54 139 -148 139
c-88 0 -147 -51 -162 -145h310z" />
    <glyph glyph-name="edotaccent" unicode="&#x117;" horiz-adv-x="567" 
d="M326 658v-101h-78v101h78zM517 268v-37h-387c5 -105 69 -171 166 -171c83 0 140 42 147 107h74c-5 -107 -92 -175 -222 -175c-149 0 -245 98 -245 251c0 158 95 259 243 259c141 0 224 -87 224 -234zM443 289v6c0 87 -54 139 -148 139c-88 0 -147 -51 -162 -145h310z" />
    <glyph glyph-name="egrave" unicode="&#xe8;" horiz-adv-x="567" 
d="M346 545h-66l-108 140h89zM517 268v-37h-387c5 -105 69 -171 166 -171c83 0 140 42 147 107h74c-5 -107 -92 -175 -222 -175c-149 0 -245 98 -245 251c0 158 95 259 243 259c141 0 224 -87 224 -234zM443 289v6c0 87 -54 139 -148 139c-88 0 -147 -51 -162 -145h310z" />
    <glyph glyph-name="uni0207" unicode="&#x207;" horiz-adv-x="567" 
d="M213 566v-11h-58v14c0 48 33 116 132 116s132 -68 132 -116v-14h-58v11c0 31 -19 67 -74 67c-56 0 -74 -36 -74 -67zM517 268v-37h-387c5 -105 69 -171 166 -171c83 0 140 42 147 107h74c-5 -107 -92 -175 -222 -175c-149 0 -245 98 -245 251c0 158 95 259 243 259
c141 0 224 -87 224 -234zM443 289v6c0 87 -54 139 -148 139c-88 0 -147 -51 -162 -145h310z" />
    <glyph glyph-name="emacron" unicode="&#x113;" horiz-adv-x="567" 
d="M424 652v-58h-273v58h273zM517 268v-37h-387c5 -105 69 -171 166 -171c83 0 140 42 147 107h74c-5 -107 -92 -175 -222 -175c-149 0 -245 98 -245 251c0 158 95 259 243 259c141 0 224 -87 224 -234zM443 289v6c0 87 -54 139 -148 139c-88 0 -147 -51 -162 -145h310z" />
    <glyph glyph-name="eogonek" unicode="&#x119;" horiz-adv-x="567" 
d="M517 268v-37h-387c5 -105 69 -171 166 -171c83 0 140 42 147 107h74c-2 -39 -15 -74 -37 -101c-13 -17 -35 -42 -53 -64c-37 -45 -59 -74 -59 -107c0 -23 13 -41 49 -41c24 0 39 5 48 8v-53c-11 -4 -31 -10 -59 -10c-74 0 -107 41 -107 83c0 39 22 83 55 114v1
c-18 -3 -38 -5 -59 -5c-149 0 -245 98 -245 251c0 158 95 259 243 259c141 0 224 -87 224 -234zM443 289v6c0 87 -54 139 -148 139c-88 0 -147 -51 -162 -145h310z" />
    <glyph glyph-name="gbreve" unicode="&#x11f;" horiz-adv-x="601" 
d="M284 555c-99 0 -132 68 -132 116v14h58v-11c0 -31 19 -67 74 -67c56 0 74 36 74 67v11h58v-14c0 -48 -33 -116 -132 -116zM402 68c100 0 157 -44 157 -119c0 -98 -93 -161 -249 -161c-163 0 -260 53 -260 147c0 49 39 90 101 90v1c-25 19 -40 48 -40 82c0 37 16 66 35 77
v2c-46 30 -72 79 -72 139c0 107 82 176 210 176c17 0 33 -1 48 -3c39 -3 97 -6 147 -6c28 0 52 1 63 2v-64c-6 -1 -17 -2 -28 -2c-25 0 -49 5 -59 10l-1 -1c27 -29 41 -67 41 -112c0 -107 -82 -176 -211 -176c-34 0 -64 5 -91 14c-8 -8 -14 -23 -14 -42c0 -33 21 -54 63 -54
h160zM284 434c-81 0 -132 -42 -132 -108s51 -108 132 -108s133 42 133 108s-52 108 -133 108zM309 -144c127 0 170 38 170 85c0 39 -29 59 -89 59h-147c-69 0 -113 -18 -113 -63c0 -55 70 -81 179 -81z" />
    <glyph glyph-name="gcircumflex" unicode="&#x11d;" horiz-adv-x="601" 
d="M285 623h-2l-141 -79v69l141 79h2l141 -79v-69zM402 68c100 0 157 -44 157 -119c0 -98 -93 -161 -249 -161c-163 0 -260 53 -260 147c0 49 39 90 101 90v1c-25 19 -40 48 -40 82c0 37 16 66 35 77v2c-46 30 -72 79 -72 139c0 107 82 176 210 176c17 0 33 -1 48 -3
c39 -3 97 -6 147 -6c28 0 52 1 63 2v-64c-6 -1 -17 -2 -28 -2c-25 0 -49 5 -59 10l-1 -1c27 -29 41 -67 41 -112c0 -107 -82 -176 -211 -176c-34 0 -64 5 -91 14c-8 -8 -14 -23 -14 -42c0 -33 21 -54 63 -54h160zM284 434c-81 0 -132 -42 -132 -108s51 -108 132 -108
s133 42 133 108s-52 108 -133 108zM309 -144c127 0 170 38 170 85c0 39 -29 59 -89 59h-147c-69 0 -113 -18 -113 -63c0 -55 70 -81 179 -81z" />
    <glyph glyph-name="gcommaaccent" unicode="&#x123;" horiz-adv-x="601" 
d="M327 659v-114h-86v85c0 102 33 150 110 160v-46c-43 -6 -59 -32 -60 -83v-2h36zM402 68c100 0 157 -44 157 -119c0 -98 -93 -161 -249 -161c-163 0 -260 53 -260 147c0 49 39 90 101 90v1c-25 19 -40 48 -40 82c0 37 16 66 35 77v2c-46 30 -72 79 -72 139
c0 107 82 176 210 176c17 0 33 -1 48 -3c39 -3 97 -6 147 -6c28 0 52 1 63 2v-64c-6 -1 -17 -2 -28 -2c-25 0 -49 5 -59 10l-1 -1c27 -29 41 -67 41 -112c0 -107 -82 -176 -211 -176c-34 0 -64 5 -91 14c-8 -8 -14 -23 -14 -42c0 -33 21 -54 63 -54h160zM284 434
c-81 0 -132 -42 -132 -108s51 -108 132 -108s133 42 133 108s-52 108 -133 108zM309 -144c127 0 170 38 170 85c0 39 -29 59 -89 59h-147c-69 0 -113 -18 -113 -63c0 -55 70 -81 179 -81z" />
    <glyph glyph-name="gdotaccent" unicode="&#x121;" horiz-adv-x="601" 
d="M323 658v-101h-78v101h78zM402 68c100 0 157 -44 157 -119c0 -98 -93 -161 -249 -161c-163 0 -260 53 -260 147c0 49 39 90 101 90v1c-25 19 -40 48 -40 82c0 37 16 66 35 77v2c-46 30 -72 79 -72 139c0 107 82 176 210 176c17 0 33 -1 48 -3c39 -3 97 -6 147 -6
c28 0 52 1 63 2v-64c-6 -1 -17 -2 -28 -2c-25 0 -49 5 -59 10l-1 -1c27 -29 41 -67 41 -112c0 -107 -82 -176 -211 -176c-34 0 -64 5 -91 14c-8 -8 -14 -23 -14 -42c0 -33 21 -54 63 -54h160zM284 434c-81 0 -132 -42 -132 -108s51 -108 132 -108s133 42 133 108
s-52 108 -133 108zM309 -144c127 0 170 38 170 85c0 39 -29 59 -89 59h-147c-69 0 -113 -18 -113 -63c0 -55 70 -81 179 -81z" />
    <glyph glyph-name="hcircumflex" unicode="&#x125;" horiz-adv-x="640" 
d="M-27 711v69l141 79h2l141 -79v-69l-141 79h-2zM75 0v693h80v-229c0 -27 -2 -86 -2 -104h1c27 86 96 142 214 142c130 0 207 -75 207 -193v-309h-80v292c0 84 -48 138 -154 138c-113 0 -186 -72 -186 -197v-233h-80z" />
    <glyph glyph-name="dotlessi" unicode="&#x131;" horiz-adv-x="230" 
d="M75 0v494h80v-494h-80z" />
    <glyph glyph-name="iacute" unicode="&#xed;" horiz-adv-x="230" 
d="M71 545l85 140h89l-107 -140h-67zM75 0v494h80v-494h-80z" />
    <glyph glyph-name="icircumflex" unicode="&#xee;" horiz-adv-x="230" 
d="M-27 544v69l141 79h2l141 -79v-69l-141 79h-2zM75 0v494h80v-494h-80z" />
    <glyph glyph-name="uni0209" unicode="&#x209;" horiz-adv-x="230" 
d="M23 545l-94 140h80l79 -140h-65zM184 545l-95 140h81l79 -140h-65zM75 0v494h80v-494h-80z" />
    <glyph glyph-name="idieresis" unicode="&#xef;" horiz-adv-x="230" 
d="M-8 557v101h76v-101h-76zM162 557v101h76v-101h-76zM75 0v494h80v-494h-80z" />
    <glyph glyph-name="igrave" unicode="&#xec;" horiz-adv-x="230" 
d="M108 545l-108 140h89l85 -140h-66zM75 0v494h80v-494h-80z" />
    <glyph glyph-name="uni020B" unicode="&#x20b;" horiz-adv-x="230" 
d="M-17 555v14c0 48 33 116 132 116s132 -68 132 -116v-14h-58v11c0 31 -19 67 -74 67c-56 0 -74 -36 -74 -67v-11h-58zM75 0v494h80v-494h-80z" />
    <glyph glyph-name="imacron" unicode="&#x12b;" horiz-adv-x="230" 
d="M-21 594v58h273v-58h-273zM75 0v494h80v-494h-80z" />
    <glyph glyph-name="iogonek" unicode="&#x12f;" horiz-adv-x="230" 
d="M158 658v-101h-86v101h86zM126 -146c24 0 39 5 48 8v-53c-11 -4 -31 -10 -59 -10c-74 0 -107 41 -107 83s28 84 67 118v494h80v-494h-1c-47 -34 -77 -76 -77 -105c0 -23 13 -41 49 -41z" />
    <glyph glyph-name="uni006A0301" horiz-adv-x="227" 
d="M69 545l85 140h89l-107 -140h-67zM-10 -208c-29 0 -66 6 -82 11v70c18 -4 47 -9 69 -9c69 0 98 46 98 123v507h80v-507c0 -111 -45 -195 -165 -195z" />
    <glyph glyph-name="jcircumflex" unicode="&#x135;" horiz-adv-x="227" 
d="M-29 544v69l141 79h2l141 -79v-69l-141 79h-2zM-10 -208c-29 0 -66 6 -82 11v70c18 -4 47 -9 69 -9c69 0 98 46 98 123v507h80v-507c0 -111 -45 -195 -165 -195z" />
    <glyph glyph-name="uni0237" unicode="&#x237;" horiz-adv-x="227" 
d="M-10 -208c-29 0 -66 6 -82 11v70c18 -4 47 -9 69 -9c69 0 98 46 98 123v507h80v-507c0 -111 -45 -195 -165 -195z" />
    <glyph glyph-name="kcommaaccent" unicode="&#x137;" horiz-adv-x="615" 
d="M75 0v693h80v-475h1l310 276h112l-250 -215l264 -279h-114l-210 228l-113 -98v-130h-80zM257 -277v46c43 6 59 32 60 83v2h-36v114h86v-85c0 -102 -33 -150 -110 -160z" />
    <glyph glyph-name="lacute" unicode="&#x13a;" horiz-adv-x="230" 
d="M71 719l85 140h89l-107 -140h-67zM75 0v693h80v-693h-80z" />
    <glyph glyph-name="lcaron" unicode="&#x13e;" horiz-adv-x="280" 
d="M75 0v693h80v-693h-80zM210 413v46c43 6 59 32 60 83v2h-36v114h86v-85c0 -102 -33 -150 -110 -160z" />
    <glyph glyph-name="lcommaaccent" unicode="&#x13c;" horiz-adv-x="230" 
d="M75 0v693h80v-693h-80zM49 -277v46c43 6 59 32 60 83v2h-36v114h86v-85c0 -102 -33 -150 -110 -160z" />
    <glyph glyph-name="ldot" unicode="&#x140;" horiz-adv-x="306" 
d="M75 0v693h80v-693h-80zM225 250v114h86v-114h-86z" />
    <glyph glyph-name="lslash" unicode="&#x142;" horiz-adv-x="230" 
d="M212 352v-51l-57 -30v-271h-80v229l-57 -30v51l57 30v413h80v-371z" />
    <glyph glyph-name="nacute" unicode="&#x144;" horiz-adv-x="635" 
d="M276 545l85 140h89l-107 -140h-67zM70 0v494h80l-2 -133h1c27 86 96 141 214 141c130 0 207 -75 207 -193v-309h-80v292c0 84 -48 138 -154 138c-113 0 -186 -69 -186 -187v-243h-80z" />
    <glyph glyph-name="ncaron" unicode="&#x148;" horiz-adv-x="635" 
d="M275 545l-103 140h85l62 -94h2l62 94h85l-103 -140h-90zM70 0v494h80l-2 -133h1c27 86 96 141 214 141c130 0 207 -75 207 -193v-309h-80v292c0 84 -48 138 -154 138c-113 0 -186 -69 -186 -187v-243h-80z" />
    <glyph glyph-name="ncommaaccent" unicode="&#x146;" horiz-adv-x="635" 
d="M70 0v494h80l-2 -133h1c27 86 96 141 214 141c130 0 207 -75 207 -193v-309h-80v292c0 84 -48 138 -154 138c-113 0 -186 -69 -186 -187v-243h-80zM253 -277v46c43 6 59 32 60 83v2h-36v114h86v-85c0 -102 -33 -150 -110 -160z" />
    <glyph glyph-name="ntilde" unicode="&#xf1;" horiz-adv-x="635" 
d="M142 555c9 98 51 140 104 140c38 0 61 -15 82 -40l14 -16c17 -20 28 -32 50 -32c25 0 41 27 47 88h57c-8 -98 -50 -140 -104 -140c-38 0 -61 15 -82 40l-14 16c-18 21 -27 32 -49 32c-25 0 -42 -27 -48 -88h-57zM70 0v494h80l-2 -133h1c27 86 96 141 214 141
c130 0 207 -75 207 -193v-309h-80v292c0 84 -48 138 -154 138c-113 0 -186 -69 -186 -187v-243h-80z" />
    <glyph glyph-name="oacute" unicode="&#xf3;" horiz-adv-x="600" 
d="M256 545l85 140h89l-107 -140h-67zM300 -8c-153 0 -250 99 -250 254c0 156 97 256 250 256s250 -100 250 -256c0 -155 -97 -254 -250 -254zM300 64c104 0 170 71 170 182c0 112 -66 184 -170 184s-170 -72 -170 -184c0 -111 66 -182 170 -182z" />
    <glyph glyph-name="obreve" unicode="&#x14f;" horiz-adv-x="600" 
d="M300 555c-99 0 -132 68 -132 116v14h58v-11c0 -31 19 -67 74 -67c56 0 74 36 74 67v11h58v-14c0 -48 -33 -116 -132 -116zM300 -8c-153 0 -250 99 -250 254c0 156 97 256 250 256s250 -100 250 -256c0 -155 -97 -254 -250 -254zM300 64c104 0 170 71 170 182
c0 112 -66 184 -170 184s-170 -72 -170 -184c0 -111 66 -182 170 -182z" />
    <glyph glyph-name="ocircumflex" unicode="&#xf4;" horiz-adv-x="600" 
d="M158 544v69l141 79h2l141 -79v-69l-141 79h-2zM300 -8c-153 0 -250 99 -250 254c0 156 97 256 250 256s250 -100 250 -256c0 -155 -97 -254 -250 -254zM300 64c104 0 170 71 170 182c0 112 -66 184 -170 184s-170 -72 -170 -184c0 -111 66 -182 170 -182z" />
    <glyph glyph-name="uni020D" unicode="&#x20d;" horiz-adv-x="600" 
d="M208 545l-94 140h80l79 -140h-65zM369 545l-95 140h81l79 -140h-65zM300 -8c-153 0 -250 99 -250 254c0 156 97 256 250 256s250 -100 250 -256c0 -155 -97 -254 -250 -254zM300 64c104 0 170 71 170 182c0 112 -66 184 -170 184s-170 -72 -170 -184
c0 -111 66 -182 170 -182z" />
    <glyph glyph-name="odieresis" unicode="&#xf6;" horiz-adv-x="600" 
d="M177 557v101h76v-101h-76zM347 557v101h76v-101h-76zM300 -8c-153 0 -250 99 -250 254c0 156 97 256 250 256s250 -100 250 -256c0 -155 -97 -254 -250 -254zM300 64c104 0 170 71 170 182c0 112 -66 184 -170 184s-170 -72 -170 -184c0 -111 66 -182 170 -182z" />
    <glyph glyph-name="ograve" unicode="&#xf2;" horiz-adv-x="600" 
d="M293 545l-108 140h89l85 -140h-66zM300 -8c-153 0 -250 99 -250 254c0 156 97 256 250 256s250 -100 250 -256c0 -155 -97 -254 -250 -254zM300 64c104 0 170 71 170 182c0 112 -66 184 -170 184s-170 -72 -170 -184c0 -111 66 -182 170 -182z" />
    <glyph glyph-name="ohungarumlaut" unicode="&#x151;" horiz-adv-x="600" 
d="M160 548l77 137h81l-95 -137h-63zM321 548l77 137h81l-95 -137h-63zM300 -8c-153 0 -250 99 -250 254c0 156 97 256 250 256s250 -100 250 -256c0 -155 -97 -254 -250 -254zM300 64c104 0 170 71 170 182c0 112 -66 184 -170 184s-170 -72 -170 -184
c0 -111 66 -182 170 -182z" />
    <glyph glyph-name="uni020F" unicode="&#x20f;" horiz-adv-x="600" 
d="M168 555v14c0 48 33 116 132 116s132 -68 132 -116v-14h-58v11c0 31 -19 67 -74 67c-56 0 -74 -36 -74 -67v-11h-58zM300 -8c-153 0 -250 99 -250 254c0 156 97 256 250 256s250 -100 250 -256c0 -155 -97 -254 -250 -254zM300 64c104 0 170 71 170 182
c0 112 -66 184 -170 184s-170 -72 -170 -184c0 -111 66 -182 170 -182z" />
    <glyph glyph-name="omacron" unicode="&#x14d;" horiz-adv-x="600" 
d="M164 594v58h273v-58h-273zM300 -8c-153 0 -250 99 -250 254c0 156 97 256 250 256s250 -100 250 -256c0 -155 -97 -254 -250 -254zM300 64c104 0 170 71 170 182c0 112 -66 184 -170 184s-170 -72 -170 -184c0 -111 66 -182 170 -182z" />
    <glyph glyph-name="oslash" unicode="&#xf8;" horiz-adv-x="600" 
d="M491 423c38 -44 59 -105 59 -177c0 -155 -97 -254 -250 -254c-66 0 -121 18 -163 52l-40 -43l-30 29l40 43c-37 43 -57 102 -57 173c0 156 97 256 250 256c65 0 120 -18 161 -51l39 42l31 -28zM130 246c0 -46 11 -85 32 -115l246 264c-28 23 -65 35 -108 35
c-104 0 -170 -72 -170 -184zM300 64c104 0 170 71 170 182c0 47 -12 88 -33 118l-247 -264c28 -23 66 -36 110 -36z" />
    <glyph glyph-name="oslashacute" unicode="&#x1ff;" horiz-adv-x="600" 
d="M430 685l-107 -140h-67l85 140h89zM491 423c38 -44 59 -105 59 -177c0 -155 -97 -254 -250 -254c-66 0 -121 18 -163 52l-40 -43l-30 29l40 43c-37 43 -57 102 -57 173c0 156 97 256 250 256c65 0 120 -18 161 -51l39 42l31 -28zM130 246c0 -46 11 -85 32 -115l246 264
c-28 23 -65 35 -108 35c-104 0 -170 -72 -170 -184zM300 64c104 0 170 71 170 182c0 47 -12 88 -33 118l-247 -264c28 -23 66 -36 110 -36z" />
    <glyph glyph-name="otilde" unicode="&#xf5;" horiz-adv-x="600" 
d="M122 555c9 98 51 140 104 140c38 0 61 -15 82 -40l14 -16c17 -20 28 -32 50 -32c25 0 41 27 47 88h57c-8 -98 -50 -140 -104 -140c-38 0 -61 15 -82 40l-14 16c-18 21 -27 32 -49 32c-25 0 -42 -27 -48 -88h-57zM300 -8c-153 0 -250 99 -250 254c0 156 97 256 250 256
s250 -100 250 -256c0 -155 -97 -254 -250 -254zM300 64c104 0 170 71 170 182c0 112 -66 184 -170 184s-170 -72 -170 -184c0 -111 66 -182 170 -182z" />
    <glyph glyph-name="oe" unicode="&#x153;" horiz-adv-x="987" 
d="M937 268v-37h-387c5 -105 69 -171 166 -171c83 0 140 42 147 107h74c-5 -107 -92 -175 -222 -175c-96 0 -175 48 -205 116h-2c-32 -68 -104 -116 -208 -116c-153 0 -250 99 -250 254c0 156 97 256 250 256c107 0 178 -49 209 -122h2c33 73 98 122 202 122
c141 0 224 -87 224 -234zM863 289v6c0 87 -54 139 -148 139c-88 0 -147 -51 -162 -145h310zM300 64c104 0 170 71 170 182c0 112 -66 184 -170 184s-170 -72 -170 -184c0 -111 66 -182 170 -182z" />
    <glyph glyph-name="thorn" unicode="&#xfe;" horiz-adv-x="633" 
d="M75 -198v891h80v-239c0 -24 -2 -76 -2 -83h1c20 78 90 131 200 131c140 0 229 -96 229 -246c0 -161 -89 -264 -234 -264c-105 0 -175 50 -196 117h-1c1 -33 3 -85 3 -108v-199h-80zM338 64c101 0 165 74 165 190c0 107 -64 176 -164 176c-107 0 -184 -72 -184 -185v-27
c0 -94 71 -154 183 -154z" />
    <glyph glyph-name="racute" unicode="&#x155;" horiz-adv-x="549" 
d="M247 545l85 140h89l-107 -140h-67zM70 0v494h80l-2 -143h1c23 86 74 151 180 151c111 0 170 -74 170 -193c0 -34 -3 -70 -5 -88h-73c2 15 4 40 4 71c0 91 -34 138 -115 138c-101 0 -160 -88 -160 -211v-219h-80z" />
    <glyph glyph-name="rcaron" unicode="&#x159;" horiz-adv-x="549" 
d="M246 545l-103 140h85l62 -94h2l62 94h85l-103 -140h-90zM70 0v494h80l-2 -143h1c23 86 74 151 180 151c111 0 170 -74 170 -193c0 -34 -3 -70 -5 -88h-73c2 15 4 40 4 71c0 91 -34 138 -115 138c-101 0 -160 -88 -160 -211v-219h-80z" />
    <glyph glyph-name="rcommaaccent" unicode="&#x157;" horiz-adv-x="549" 
d="M70 0v494h80l-2 -143h1c23 86 74 151 180 151c111 0 170 -74 170 -193c0 -34 -3 -70 -5 -88h-73c2 15 4 40 4 71c0 91 -34 138 -115 138c-101 0 -160 -88 -160 -211v-219h-80zM47 -277v46c43 6 59 32 60 83v2h-36v114h86v-85c0 -102 -33 -150 -110 -160z" />
    <glyph glyph-name="uni0211" unicode="&#x211;" horiz-adv-x="549" 
d="M199 545l-94 140h80l79 -140h-65zM360 545l-95 140h81l79 -140h-65zM70 0v494h80l-2 -143h1c23 86 74 151 180 151c111 0 170 -74 170 -193c0 -34 -3 -70 -5 -88h-73c2 15 4 40 4 71c0 91 -34 138 -115 138c-101 0 -160 -88 -160 -211v-219h-80z" />
    <glyph glyph-name="uni0213" unicode="&#x213;" horiz-adv-x="549" 
d="M159 555v14c0 48 33 116 132 116s132 -68 132 -116v-14h-58v11c0 31 -19 67 -74 67c-56 0 -74 -36 -74 -67v-11h-58zM70 0v494h80l-2 -143h1c23 86 74 151 180 151c111 0 170 -74 170 -193c0 -34 -3 -70 -5 -88h-73c2 15 4 40 4 71c0 91 -34 138 -115 138
c-101 0 -160 -88 -160 -211v-219h-80z" />
    <glyph glyph-name="sacute" unicode="&#x15b;" horiz-adv-x="548" 
d="M223 545l85 140h89l-107 -140h-67zM268 -8c-166 0 -218 78 -218 173h74c0 -66 40 -105 143 -105c102 0 151 31 151 84c0 20 -6 39 -31 51c-23 11 -75 17 -136 23c-81 7 -130 17 -160 39c-27 20 -41 56 -41 92c0 93 85 153 217 153c148 0 210 -65 210 -176h-74
c-1 74 -45 108 -133 108c-85 0 -140 -31 -140 -80c0 -20 3 -44 32 -56c24 -10 73 -16 138 -23c77 -8 115 -15 149 -34c33 -19 49 -57 49 -94c0 -97 -80 -155 -230 -155z" />
    <glyph glyph-name="scaron" unicode="&#x161;" horiz-adv-x="548" 
d="M222 545l-103 140h85l62 -94h2l62 94h85l-103 -140h-90zM268 -8c-166 0 -218 78 -218 173h74c0 -66 40 -105 143 -105c102 0 151 31 151 84c0 20 -6 39 -31 51c-23 11 -75 17 -136 23c-81 7 -130 17 -160 39c-27 20 -41 56 -41 92c0 93 85 153 217 153
c148 0 210 -65 210 -176h-74c-1 74 -45 108 -133 108c-85 0 -140 -31 -140 -80c0 -20 3 -44 32 -56c24 -10 73 -16 138 -23c77 -8 115 -15 149 -34c33 -19 49 -57 49 -94c0 -97 -80 -155 -230 -155z" />
    <glyph glyph-name="scedilla" unicode="&#x15f;" horiz-adv-x="548" 
d="M498 147c0 -92 -72 -149 -207 -155l-19 -49l1 -1c8 5 21 12 46 12c54 0 79 -30 79 -73c0 -53 -38 -99 -127 -99c-87 0 -125 36 -130 87h61c5 -29 25 -42 69 -42c50 0 70 23 70 52c0 24 -16 36 -60 36c-33 0 -61 -5 -73 -8l32 86c-144 8 -190 82 -190 172h74
c0 -66 40 -105 143 -105c102 0 151 31 151 84c0 20 -6 39 -31 51c-23 11 -75 17 -136 23c-81 7 -130 17 -160 39c-27 20 -41 56 -41 92c0 93 85 153 217 153c148 0 210 -65 210 -176h-74c-1 74 -45 108 -133 108c-85 0 -140 -31 -140 -80c0 -20 3 -44 32 -56
c24 -10 73 -16 138 -23c77 -8 115 -15 149 -34c33 -19 49 -57 49 -94z" />
    <glyph glyph-name="scircumflex" unicode="&#x15d;" horiz-adv-x="548" 
d="M125 544v69l141 79h2l141 -79v-69l-141 79h-2zM268 -8c-166 0 -218 78 -218 173h74c0 -66 40 -105 143 -105c102 0 151 31 151 84c0 20 -6 39 -31 51c-23 11 -75 17 -136 23c-81 7 -130 17 -160 39c-27 20 -41 56 -41 92c0 93 85 153 217 153c148 0 210 -65 210 -176h-74
c-1 74 -45 108 -133 108c-85 0 -140 -31 -140 -80c0 -20 3 -44 32 -56c24 -10 73 -16 138 -23c77 -8 115 -15 149 -34c33 -19 49 -57 49 -94c0 -97 -80 -155 -230 -155z" />
    <glyph glyph-name="scommaaccent" unicode="&#x219;" horiz-adv-x="548" 
d="M268 -8c-166 0 -218 78 -218 173h74c0 -66 40 -105 143 -105c102 0 151 31 151 84c0 20 -6 39 -31 51c-23 11 -75 17 -136 23c-81 7 -130 17 -160 39c-27 20 -41 56 -41 92c0 93 85 153 217 153c148 0 210 -65 210 -176h-74c-1 74 -45 108 -133 108
c-85 0 -140 -31 -140 -80c0 -20 3 -44 32 -56c24 -10 73 -16 138 -23c77 -8 115 -15 149 -34c33 -19 49 -57 49 -94c0 -97 -80 -155 -230 -155zM202 -277v46c43 6 59 32 60 83v2h-36v114h86v-85c0 -102 -33 -150 -110 -160z" />
    <glyph glyph-name="germandbls" unicode="&#xdf;" horiz-adv-x="682" 
d="M403 -8c-56 0 -108 6 -138 11v71c31 -5 84 -11 138 -11c90 0 149 38 149 102c0 28 -8 47 -28 59c-22 14 -65 21 -119 30c-69 12 -103 22 -125 39c-19 15 -32 40 -32 71c0 28 8 50 25 67c15 15 45 32 88 53c50 25 66 39 66 83c0 48 -45 79 -115 79
c-96 0 -157 -53 -157 -163v-483h-80v483c0 147 92 235 237 235c119 0 195 -58 195 -150c0 -63 -25 -101 -77 -125c-41 -19 -73 -32 -84 -41c-13 -10 -18 -21 -18 -33c0 -13 8 -24 21 -30c15 -7 54 -14 105 -23c66 -11 105 -23 132 -44c33 -24 46 -67 46 -109
c0 -104 -85 -171 -229 -171z" />
    <glyph glyph-name="tcaron" unicode="&#x165;" horiz-adv-x="393" 
d="M270 540v46c43 6 59 32 60 83v2h-36v114h86v-85c0 -102 -33 -150 -110 -160zM266 -4c-120 0 -171 76 -171 185v243h-82v70h66c16 0 22 8 24 34l4 78h68v-112h179v-70h-179v-238c0 -75 24 -120 98 -120c34 0 66 6 77 10v-68c-15 -6 -44 -12 -84 -12z" />
    <glyph glyph-name="uni0163" unicode="&#x163;" horiz-adv-x="393" 
d="M266 -4c-120 0 -171 76 -171 185v243h-82v70h66c16 0 22 8 24 34l4 78h68v-112h179v-70h-179v-238c0 -75 24 -120 98 -120c34 0 66 6 77 10v-68c-15 -6 -44 -12 -84 -12zM176 -277v46c43 6 59 32 60 83v2h-36v114h86v-85c0 -102 -33 -150 -110 -160z" />
    <glyph glyph-name="uacute" unicode="&#xfa;" horiz-adv-x="634" 
d="M273 545l85 140h89l-107 -140h-67zM273 -8c-129 0 -208 77 -208 197v305h80v-291c0 -85 56 -139 150 -139c115 0 189 77 189 207v223h80v-494h-80c2 33 4 95 4 145h-1c-21 -93 -91 -153 -214 -153z" />
    <glyph glyph-name="ubreve" unicode="&#x16d;" horiz-adv-x="634" 
d="M317 555c-99 0 -132 68 -132 116v14h58v-11c0 -31 19 -67 74 -67c56 0 74 36 74 67v11h58v-14c0 -48 -33 -116 -132 -116zM273 -8c-129 0 -208 77 -208 197v305h80v-291c0 -85 56 -139 150 -139c115 0 189 77 189 207v223h80v-494h-80c2 33 4 95 4 145h-1
c-21 -93 -91 -153 -214 -153z" />
    <glyph glyph-name="ucircumflex" unicode="&#xfb;" horiz-adv-x="634" 
d="M175 544v69l141 79h2l141 -79v-69l-141 79h-2zM273 -8c-129 0 -208 77 -208 197v305h80v-291c0 -85 56 -139 150 -139c115 0 189 77 189 207v223h80v-494h-80c2 33 4 95 4 145h-1c-21 -93 -91 -153 -214 -153z" />
    <glyph glyph-name="uni0215" unicode="&#x215;" horiz-adv-x="634" 
d="M225 545l-94 140h80l79 -140h-65zM386 545l-95 140h81l79 -140h-65zM273 -8c-129 0 -208 77 -208 197v305h80v-291c0 -85 56 -139 150 -139c115 0 189 77 189 207v223h80v-494h-80c2 33 4 95 4 145h-1c-21 -93 -91 -153 -214 -153z" />
    <glyph glyph-name="udieresis" unicode="&#xfc;" horiz-adv-x="634" 
d="M194 557v101h76v-101h-76zM364 557v101h76v-101h-76zM273 -8c-129 0 -208 77 -208 197v305h80v-291c0 -85 56 -139 150 -139c115 0 189 77 189 207v223h80v-494h-80c2 33 4 95 4 145h-1c-21 -93 -91 -153 -214 -153z" />
    <glyph glyph-name="ugrave" unicode="&#xf9;" horiz-adv-x="634" 
d="M310 545l-108 140h89l85 -140h-66zM273 -8c-129 0 -208 77 -208 197v305h80v-291c0 -85 56 -139 150 -139c115 0 189 77 189 207v223h80v-494h-80c2 33 4 95 4 145h-1c-21 -93 -91 -153 -214 -153z" />
    <glyph glyph-name="uhungarumlaut" unicode="&#x171;" horiz-adv-x="634" 
d="M177 548l77 137h81l-95 -137h-63zM338 548l77 137h81l-95 -137h-63zM273 -8c-129 0 -208 77 -208 197v305h80v-291c0 -85 56 -139 150 -139c115 0 189 77 189 207v223h80v-494h-80c2 33 4 95 4 145h-1c-21 -93 -91 -153 -214 -153z" />
    <glyph glyph-name="uni0217" unicode="&#x217;" horiz-adv-x="634" 
d="M185 555v14c0 48 33 116 132 116s132 -68 132 -116v-14h-58v11c0 31 -19 67 -74 67c-56 0 -74 -36 -74 -67v-11h-58zM273 -8c-129 0 -208 77 -208 197v305h80v-291c0 -85 56 -139 150 -139c115 0 189 77 189 207v223h80v-494h-80c2 33 4 95 4 145h-1
c-21 -93 -91 -153 -214 -153z" />
    <glyph glyph-name="umacron" unicode="&#x16b;" horiz-adv-x="634" 
d="M181 594v58h273v-58h-273zM273 -8c-129 0 -208 77 -208 197v305h80v-291c0 -85 56 -139 150 -139c115 0 189 77 189 207v223h80v-494h-80c2 33 4 95 4 145h-1c-21 -93 -91 -153 -214 -153z" />
    <glyph glyph-name="uogonek" unicode="&#x173;" horiz-adv-x="634" 
d="M535 -146c24 0 39 5 48 8v-53c-11 -4 -31 -10 -59 -10c-74 0 -107 41 -107 83s28 84 67 118c2 33 4 95 4 145h-1c-21 -93 -91 -153 -214 -153c-129 0 -208 77 -208 197v305h80v-291c0 -85 56 -139 150 -139c115 0 189 77 189 207v223h80v-494h-1
c-47 -34 -77 -76 -77 -105c0 -23 13 -41 49 -41z" />
    <glyph glyph-name="uring" unicode="&#x16f;" horiz-adv-x="634" 
d="M317 545c-93 0 -139 47 -139 112s50 113 139 113c92 0 139 -48 139 -113s-46 -112 -139 -112zM317 594c55 0 83 25 83 63c0 39 -29 63 -83 63c-53 0 -83 -24 -83 -63c0 -38 28 -63 83 -63zM273 -8c-129 0 -208 77 -208 197v305h80v-291c0 -85 56 -139 150 -139
c115 0 189 77 189 207v223h80v-494h-80c2 33 4 95 4 145h-1c-21 -93 -91 -153 -214 -153z" />
    <glyph glyph-name="utilde" unicode="&#x169;" horiz-adv-x="634" 
d="M139 555c9 98 51 140 104 140c38 0 61 -15 82 -40l14 -16c17 -20 28 -32 50 -32c25 0 41 27 47 88h57c-8 -98 -50 -140 -104 -140c-38 0 -61 15 -82 40l-14 16c-18 21 -27 32 -49 32c-25 0 -42 -27 -48 -88h-57zM273 -8c-129 0 -208 77 -208 197v305h80v-291
c0 -85 56 -139 150 -139c115 0 189 77 189 207v223h80v-494h-80c2 33 4 95 4 145h-1c-21 -93 -91 -153 -214 -153z" />
    <glyph glyph-name="wacute" unicode="&#x1e83;" horiz-adv-x="798" 
d="M355 545l85 140h89l-107 -140h-67zM171 0l-147 494h87l114 -410h2l138 410h79l133 -410h2l118 410h77l-147 -494h-98l-128 394h-3l-132 -394h-95z" />
    <glyph glyph-name="wcircumflex" unicode="&#x175;" horiz-adv-x="798" 
d="M257 544v69l141 79h2l141 -79v-69l-141 79h-2zM171 0l-147 494h87l114 -410h2l138 410h79l133 -410h2l118 410h77l-147 -494h-98l-128 394h-3l-132 -394h-95z" />
    <glyph glyph-name="wdieresis" unicode="&#x1e85;" horiz-adv-x="798" 
d="M276 557v101h76v-101h-76zM446 557v101h76v-101h-76zM171 0l-147 494h87l114 -410h2l138 410h79l133 -410h2l118 410h77l-147 -494h-98l-128 394h-3l-132 -394h-95z" />
    <glyph glyph-name="wgrave" unicode="&#x1e81;" horiz-adv-x="798" 
d="M392 545l-108 140h89l85 -140h-66zM171 0l-147 494h87l114 -410h2l138 410h79l133 -410h2l118 410h77l-147 -494h-98l-128 394h-3l-132 -394h-95z" />
    <glyph glyph-name="yacute" unicode="&#xfd;" horiz-adv-x="564" 
d="M238 545l85 140h89l-107 -140h-67zM153 -208c-28 0 -57 7 -71 13v67c12 -4 36 -10 61 -10c54 0 78 26 124 138h-21l-222 494h94l180 -413h2l159 413h81l-196 -503c-59 -153 -97 -199 -191 -199z" />
    <glyph glyph-name="ycircumflex" unicode="&#x177;" horiz-adv-x="564" 
d="M140 544v69l141 79h2l141 -79v-69l-141 79h-2zM153 -208c-28 0 -57 7 -71 13v67c12 -4 36 -10 61 -10c54 0 78 26 124 138h-21l-222 494h94l180 -413h2l159 413h81l-196 -503c-59 -153 -97 -199 -191 -199z" />
    <glyph glyph-name="ydieresis" unicode="&#xff;" horiz-adv-x="564" 
d="M159 557v101h76v-101h-76zM329 557v101h76v-101h-76zM153 -208c-28 0 -57 7 -71 13v67c12 -4 36 -10 61 -10c54 0 78 26 124 138h-21l-222 494h94l180 -413h2l159 413h81l-196 -503c-59 -153 -97 -199 -191 -199z" />
    <glyph glyph-name="ygrave" unicode="&#x1ef3;" horiz-adv-x="564" 
d="M275 545l-108 140h89l85 -140h-66zM153 -208c-28 0 -57 7 -71 13v67c12 -4 36 -10 61 -10c54 0 78 26 124 138h-21l-222 494h94l180 -413h2l159 413h81l-196 -503c-59 -153 -97 -199 -191 -199z" />
    <glyph glyph-name="zacute" unicode="&#x17a;" horiz-adv-x="501" 
d="M211 545l85 140h89l-107 -140h-67zM50 0v52l294 370v2h-286v70h393v-52l-294 -371v-1h294v-70h-401z" />
    <glyph glyph-name="zcaron" unicode="&#x17e;" horiz-adv-x="501" 
d="M210 545l-103 140h85l62 -94h2l62 94h85l-103 -140h-90zM50 0v52l294 370v2h-286v70h393v-52l-294 -371v-1h294v-70h-401z" />
    <glyph glyph-name="zdotaccent" unicode="&#x17c;" horiz-adv-x="501" 
d="M216 557v101h78v-101h-78zM50 0v52l294 370v2h-286v70h393v-52l-294 -371v-1h294v-70h-401z" />
    <glyph glyph-name="uni1E9E" unicode="&#x1e9e;" horiz-adv-x="709" 
d="M429 -9c-49 0 -97 5 -117 9v74c12 -2 57 -8 117 -8c98 0 144 55 144 134c0 80 -63 116 -213 122l159 246c-34 13 -86 24 -155 24c-140 0 -208 -69 -208 -208v-384h-86v385c0 186 110 283 294 283c127 0 213 -33 269 -61l-150 -237c117 -12 176 -77 176 -170
c0 -127 -77 -209 -230 -209z" />
    <glyph glyph-name="germandbls.calt" horiz-adv-x="709" 
d="M429 -9c-49 0 -97 5 -117 9v74c12 -2 57 -8 117 -8c98 0 144 55 144 134c0 80 -63 116 -213 122l159 246c-34 13 -86 24 -155 24c-140 0 -208 -69 -208 -208v-384h-86v385c0 186 110 283 294 283c127 0 213 -33 269 -61l-150 -237c117 -12 176 -77 176 -170
c0 -127 -77 -209 -230 -209z" />
    <glyph glyph-name="r.ss01" horiz-adv-x="396" 
d="M386 414c-12 4 -34 8 -59 8c-102 0 -177 -88 -177 -243v-179h-80v494h80l-2 -162h2c27 116 83 168 177 168c30 0 50 -6 59 -9v-77z" />
    <glyph glyph-name="racute.ss01" horiz-adv-x="396" 
d="M180 545l85 140h89l-107 -140h-67zM386 414c-12 4 -34 8 -59 8c-102 0 -177 -88 -177 -243v-179h-80v494h80l-2 -162h2c27 116 83 168 177 168c30 0 50 -6 59 -9v-77z" />
    <glyph glyph-name="rcaron.ss01" horiz-adv-x="396" 
d="M179 545l-103 140h85l62 -94h2l62 94h85l-103 -140h-90zM386 414c-12 4 -34 8 -59 8c-102 0 -177 -88 -177 -243v-179h-80v494h80l-2 -162h2c27 116 83 168 177 168c30 0 50 -6 59 -9v-77z" />
    <glyph glyph-name="rcommaaccent.ss01" horiz-adv-x="396" 
d="M386 414c-12 4 -34 8 -59 8c-102 0 -177 -88 -177 -243v-179h-80v494h80l-2 -162h2c27 116 83 168 177 168c30 0 50 -6 59 -9v-77zM47 -277v46c43 6 59 32 60 83v2h-36v114h86v-85c0 -102 -33 -150 -110 -160z" />
    <glyph glyph-name="uni0211.ss01" horiz-adv-x="396" 
d="M132 545l-94 140h80l79 -140h-65zM293 545l-95 140h81l79 -140h-65zM386 414c-12 4 -34 8 -59 8c-102 0 -177 -88 -177 -243v-179h-80v494h80l-2 -162h2c27 116 83 168 177 168c30 0 50 -6 59 -9v-77z" />
    <glyph glyph-name="uni0213.ss01" horiz-adv-x="396" 
d="M92 555v14c0 48 33 116 132 116s132 -68 132 -116v-14h-58v11c0 31 -19 67 -74 67c-56 0 -74 -36 -74 -67v-11h-58zM386 414c-12 4 -34 8 -59 8c-102 0 -177 -88 -177 -243v-179h-80v494h80l-2 -162h2c27 116 83 168 177 168c30 0 50 -6 59 -9v-77z" />
    <glyph glyph-name="g.ss02" horiz-adv-x="632" 
d="M50 250c0 153 96 252 236 252c107 0 173 -44 191 -112h1v104h79v-463c0 -163 -114 -243 -249 -243c-140 0 -228 61 -228 151c0 2 0 10 1 20h75c-1 -9 -1 -13 -1 -15c0 -47 54 -84 151 -84c101 0 171 51 171 168v98h-1c-18 -82 -94 -134 -195 -134
c-139 0 -231 99 -231 258zM130 250c0 -115 67 -186 167 -186c110 0 180 70 180 179v24c0 99 -69 163 -178 163c-99 0 -169 -71 -169 -180z" />
    <glyph glyph-name="gbreve.ss02" horiz-adv-x="632" 
d="M302 555c-99 0 -132 68 -132 116v14h58v-11c0 -31 19 -67 74 -67c56 0 74 36 74 67v11h58v-14c0 -48 -33 -116 -132 -116zM50 250c0 153 96 252 236 252c107 0 173 -44 191 -112h1v104h79v-463c0 -163 -114 -243 -249 -243c-140 0 -228 61 -228 151c0 2 0 10 1 20h75
c-1 -9 -1 -13 -1 -15c0 -47 54 -84 151 -84c101 0 171 51 171 168v98h-1c-18 -82 -94 -134 -195 -134c-139 0 -231 99 -231 258zM130 250c0 -115 67 -186 167 -186c110 0 180 70 180 179v24c0 99 -69 163 -178 163c-99 0 -169 -71 -169 -180z" />
    <glyph glyph-name="gcircumflex.ss02" horiz-adv-x="632" 
d="M160 544v69l141 79h2l141 -79v-69l-141 79h-2zM50 250c0 153 96 252 236 252c107 0 173 -44 191 -112h1v104h79v-463c0 -163 -114 -243 -249 -243c-140 0 -228 61 -228 151c0 2 0 10 1 20h75c-1 -9 -1 -13 -1 -15c0 -47 54 -84 151 -84c101 0 171 51 171 168v98h-1
c-18 -82 -94 -134 -195 -134c-139 0 -231 99 -231 258zM130 250c0 -115 67 -186 167 -186c110 0 180 70 180 179v24c0 99 -69 163 -178 163c-99 0 -169 -71 -169 -180z" />
    <glyph glyph-name="gcommaaccent.ss02" horiz-adv-x="632" 
d="M369 790v-46c-43 -6 -59 -32 -60 -83v-2h36v-114h-86v85c0 102 33 150 110 160zM50 250c0 153 96 252 236 252c107 0 173 -44 191 -112h1v104h79v-463c0 -163 -114 -243 -249 -243c-140 0 -228 61 -228 151c0 2 0 10 1 20h75c-1 -9 -1 -13 -1 -15c0 -47 54 -84 151 -84
c101 0 171 51 171 168v98h-1c-18 -82 -94 -134 -195 -134c-139 0 -231 99 -231 258zM130 250c0 -115 67 -186 167 -186c110 0 180 70 180 179v24c0 99 -69 163 -178 163c-99 0 -169 -71 -169 -180z" />
    <glyph glyph-name="gdotaccent.ss02" horiz-adv-x="632" 
d="M263 557v101h78v-101h-78zM50 250c0 153 96 252 236 252c107 0 173 -44 191 -112h1v104h79v-463c0 -163 -114 -243 -249 -243c-140 0 -228 61 -228 151c0 2 0 10 1 20h75c-1 -9 -1 -13 -1 -15c0 -47 54 -84 151 -84c101 0 171 51 171 168v98h-1
c-18 -82 -94 -134 -195 -134c-139 0 -231 99 -231 258zM130 250c0 -115 67 -186 167 -186c110 0 180 70 180 179v24c0 99 -69 163 -178 163c-99 0 -169 -71 -169 -180z" />
    <glyph glyph-name="g.ss03" horiz-adv-x="601" 
d="M402 68c100 0 157 -44 157 -119c0 -98 -93 -161 -249 -161c-163 0 -260 53 -260 147c0 49 39 90 101 90v1c-25 19 -40 48 -40 82c0 37 16 66 35 77v2c-46 30 -72 79 -72 139c0 107 82 176 210 176c17 0 33 -1 48 -3c39 -3 97 -6 147 -6c28 0 52 1 63 2v-64
c-6 -1 -17 -2 -28 -2c-25 0 -49 5 -59 10l-1 -1c27 -29 41 -67 41 -112c0 -107 -82 -176 -211 -176c-34 0 -64 5 -91 14c-8 -8 -14 -23 -14 -42c0 -33 21 -54 63 -54h160zM284 434c-81 0 -132 -42 -132 -108s51 -108 132 -108s133 42 133 108s-52 108 -133 108zM309 -144
c127 0 170 38 170 85c0 39 -29 59 -89 59h-147c-69 0 -113 -18 -113 -63c0 -55 70 -81 179 -81z" />
    <glyph glyph-name="g.ss04" horiz-adv-x="601" 
d="M402 68c100 0 157 -44 157 -119c0 -98 -93 -161 -249 -161c-163 0 -260 53 -260 147c0 49 39 90 101 90v1c-25 19 -40 48 -40 82c0 37 16 66 35 77v2c-46 30 -72 79 -72 139c0 107 82 176 210 176c35 0 67 -5 94 -15c20 -4 52 -10 71 -10c33 0 53 13 53 48
c0 13 -3 28 -6 38h66c3 -9 6 -25 6 -43c0 -58 -35 -87 -75 -87c-20 0 -34 5 -39 8l-1 -1c27 -29 42 -68 42 -114c0 -107 -82 -176 -211 -176c-34 0 -64 5 -91 14c-8 -8 -14 -23 -14 -42c0 -33 21 -54 63 -54h160zM284 434c-81 0 -132 -42 -132 -108s51 -108 132 -108
s133 42 133 108s-52 108 -133 108zM309 -144c127 0 170 38 170 85c0 39 -29 59 -89 59h-147c-69 0 -113 -18 -113 -63c0 -55 70 -81 179 -81z" />
    <glyph glyph-name="t_t" horiz-adv-x="734" 
d="M695 424h-179v-238c0 -75 24 -120 98 -120c34 0 66 6 77 10v-68c-15 -6 -44 -12 -84 -12c-120 0 -171 76 -171 185v243h-261v-238c0 -75 24 -120 98 -120c34 0 66 6 77 10v-68c-15 -6 -44 -12 -84 -12c-120 0 -171 76 -171 185v243h-82v70h66c16 0 22 8 24 34l4 78h68
v-112h245c16 0 22 8 24 34l4 78h68v-112h179v-70z" />
    <glyph glyph-name="ordfeminine" unicode="&#xaa;" horiz-adv-x="384" 
d="M33 388c0 47 32 82 119 82h124v24c0 46 -29 68 -92 68c-59 0 -86 -17 -86 -53c0 -2 0 -8 1 -16h-55c-1 8 -1 15 -1 18c0 63 45 97 143 97c103 0 150 -44 150 -118v-184h-60c1 14 2 41 2 64h-1c-12 -43 -54 -69 -123 -69c-96 0 -121 43 -121 87zM90 391
c0 -27 19 -44 73 -44c84 0 113 42 113 80v5h-121c-48 0 -65 -14 -65 -41zM33 187v52h303v-52h-303z" />
    <glyph glyph-name="ordmasculine" unicode="&#xba;" horiz-adv-x="393" 
d="M197 300c-99 0 -163 60 -163 154s64 154 163 154s162 -60 162 -154s-63 -154 -162 -154zM197 350c64 0 102 41 102 104s-38 104 -102 104c-65 0 -103 -41 -103 -104s38 -104 103 -104zM34 187v52h325v-52h-325z" />
    <glyph glyph-name="zero.lf" 
d="M302 -9c-163 0 -257 131 -257 341c0 206 94 335 257 335s257 -129 257 -335c0 -210 -94 -341 -257 -341zM302 65c113 0 175 102 175 267c0 161 -62 261 -175 261s-175 -100 -175 -261c0 -165 62 -267 175 -267z" />
    <glyph glyph-name="one.lf" horiz-adv-x="353" 
d="M171 0v426h-151v61l92 2c61 1 68 16 69 176h72v-665h-82z" />
    <glyph glyph-name="two.lf" horiz-adv-x="587" 
d="M60 0c0 135 23 175 197 256c165 77 191 117 191 204c0 78 -55 133 -147 133c-104 0 -161 -65 -161 -167c0 -31 3 -61 6 -76h-76c-3 15 -6 46 -6 80c0 145 87 237 239 237c140 0 227 -85 227 -207c0 -100 -37 -169 -229 -259c-141 -66 -157 -86 -157 -127h398v-74h-482z
" />
    <glyph glyph-name="three.lf" horiz-adv-x="603" 
d="M294 -9c-152 0 -249 78 -249 206c0 14 2 34 3 45h76c-1 -17 -1 -27 -1 -32c0 -95 61 -145 171 -145c113 0 182 52 182 142c0 66 -47 100 -127 100h-103v60h87c76 0 115 41 115 105c0 76 -58 121 -146 121c-106 0 -164 -53 -164 -137c0 -18 1 -32 2 -42h-76
c-2 10 -4 32 -4 54c0 121 90 199 242 199c137 0 226 -70 226 -186c0 -65 -37 -118 -94 -131v-2c76 -10 124 -67 124 -146c0 -129 -101 -211 -264 -211z" />
    <glyph glyph-name="four.lf" horiz-adv-x="597" 
d="M397 0v155h-361v74l350 429h93v-429h109v-74h-109v-155h-82zM124 229h273v333h-1l-272 -332v-1z" />
    <glyph glyph-name="five.lf" horiz-adv-x="595" 
d="M305 -9c-150 0 -249 71 -249 179c0 9 1 19 2 24h77c-1 -9 -1 -15 -1 -20c0 -66 68 -109 171 -109c99 0 163 68 163 159c0 86 -64 140 -165 140c-74 0 -137 -34 -159 -87l-78 8l26 373h418v-74h-349l-19 -246h2c21 56 86 92 177 92c143 0 229 -81 229 -206
c0 -136 -95 -233 -245 -233z" />
    <glyph glyph-name="six.lf" 
d="M314 -9c-191 0 -269 121 -269 337c0 208 94 339 269 339c143 0 223 -77 223 -198c0 -12 -1 -27 -2 -35h-78c1 7 2 18 2 34c0 74 -49 125 -145 125c-125 0 -187 -98 -187 -262c0 -31 0 -56 1 -65h2c11 72 86 118 194 118c156 0 235 -70 235 -182
c0 -128 -97 -211 -245 -211zM315 63c98 0 162 55 162 138c0 73 -55 117 -161 117c-108 0 -177 -56 -177 -123c8 -76 76 -132 176 -132z" />
    <glyph glyph-name="seven.lf" horiz-adv-x="520" 
d="M113 0c52 235 165 442 303 581v1h-407v76h502v-71c-181 -177 -251 -356 -301 -587h-97z" />
    <glyph glyph-name="eight.lf" horiz-adv-x="597" 
d="M302 -9c-157 0 -257 75 -257 196c0 81 54 141 134 155v1c-68 13 -106 70 -106 137c0 117 89 187 229 187s229 -70 229 -187c0 -67 -38 -124 -106 -137v-1c79 -14 134 -74 134 -155c0 -121 -100 -196 -257 -196zM302 368c92 0 151 44 151 112c0 70 -59 115 -151 115
s-151 -45 -151 -115c0 -68 59 -112 151 -112zM302 63c107 0 175 49 175 124c0 73 -68 119 -175 119s-175 -46 -175 -119c0 -75 68 -124 175 -124z" />
    <glyph glyph-name="nine.lf" 
d="M298 -9c-150 0 -238 75 -238 182c0 6 0 20 1 33h78c-1 -11 -1 -22 -1 -26c0 -68 57 -116 159 -116c118 0 179 89 179 262c0 19 0 44 -2 63h-2c-10 -79 -80 -134 -191 -134c-149 0 -236 77 -236 194c0 131 93 218 249 218c161 0 265 -90 265 -331
c0 -229 -93 -345 -261 -345zM284 321c109 0 178 61 178 146c-5 72 -68 127 -169 127c-105 0 -166 -58 -166 -145c0 -78 61 -128 157 -128z" />
    <glyph glyph-name="one.lf.ss05" horiz-adv-x="282" 
d="M100 0v597c20 12 33 33 38 68h44v-665h-82z" />
    <glyph glyph-name="zero.subs" horiz-adv-x="426" 
d="M213 -125c-108 0 -171 79 -171 203c0 123 63 202 171 202c109 0 172 -79 172 -202c0 -124 -63 -203 -172 -203zM213 -72c71 0 110 58 110 150c0 90 -39 148 -110 148c-70 0 -109 -58 -109 -148c0 -92 39 -150 109 -150z" />
    <glyph glyph-name="one.subs" horiz-adv-x="249" 
d="M116 -120v244h-92v45l47 1c50 0 54 10 55 104h52v-394h-62z" />
    <glyph glyph-name="two.subs" horiz-adv-x="396" 
d="M37 -120c0 84 12 105 126 157c105 47 120 70 120 116c0 42 -33 73 -89 73c-62 0 -99 -36 -99 -92c0 -16 2 -34 4 -46h-56c-2 10 -4 29 -4 48c0 88 60 144 158 144c92 0 148 -52 148 -124c0 -63 -30 -103 -145 -153c-85 -37 -91 -46 -92 -69h243v-54h-314z" />
    <glyph glyph-name="three.subs" horiz-adv-x="413" 
d="M203 -125c-104 0 -164 47 -164 121c0 9 1 21 2 30h55c-1 -11 -1 -19 -1 -23c0 -45 37 -74 106 -74c71 0 112 30 112 76c0 34 -29 56 -74 56h-68v41h56c43 0 70 23 70 59c0 40 -34 65 -93 65c-63 0 -100 -29 -100 -74c0 -7 1 -18 2 -25h-54c-1 6 -3 19 -3 32
c0 74 60 121 158 121c92 0 148 -43 148 -110c0 -41 -23 -72 -59 -79v-2c48 -6 79 -41 79 -88c0 -77 -64 -126 -172 -126z" />
    <glyph glyph-name="four.subs" horiz-adv-x="415" 
d="M256 -120v89h-229v51l220 254h71v-251h65v-54h-65v-89h-62zM94 23h162v186h-2l-160 -185v-1z" />
    <glyph glyph-name="five.subs" horiz-adv-x="403" 
d="M207 -125c-106 0 -168 44 -168 107v16h58v-12c0 -33 38 -57 107 -57c59 0 97 35 97 84s-37 80 -95 80c-49 0 -90 -19 -103 -49l-57 4l18 226h270v-54h-219l-12 -133h2c17 32 59 52 114 52c89 0 144 -50 144 -127c0 -82 -61 -137 -156 -137z" />
    <glyph glyph-name="six.subs" horiz-adv-x="413" 
d="M215 -125c-116 0 -175 77 -175 198c0 126 63 207 175 207c93 0 147 -48 147 -122c0 -3 0 -10 -1 -20h-55v16c0 44 -31 72 -91 72c-73 0 -113 -57 -113 -146v-31h2c11 38 58 62 122 62c97 0 150 -43 150 -109c0 -77 -60 -127 -161 -127zM216 -73c64 0 100 29 100 75
c0 39 -36 64 -101 64s-104 -28 -104 -70c8 -33 41 -69 105 -69z" />
    <glyph glyph-name="seven.subs" horiz-adv-x="378" 
d="M84 -120c38 151 126 269 206 337v1h-268v56h340v-50c-119 -105 -171 -209 -204 -344h-74z" />
    <glyph glyph-name="eight.subs" horiz-adv-x="414" 
d="M207 -125c-103 0 -169 45 -169 117c0 47 34 84 87 93v1c-47 10 -68 43 -68 82c0 70 58 112 150 112s150 -42 150 -112c0 -39 -21 -73 -68 -82v-1c53 -9 87 -46 87 -93c0 -72 -66 -117 -169 -117zM207 104c57 0 94 24 94 62c0 39 -37 64 -94 64s-94 -25 -94 -64
c0 -38 37 -62 94 -62zM207 -75c65 0 107 27 107 69c0 40 -42 66 -107 66s-107 -26 -107 -66c0 -42 42 -69 107 -69z" />
    <glyph glyph-name="nine.subs" horiz-adv-x="413" 
d="M203 -125c-93 0 -152 43 -152 107c0 2 0 11 1 21h55v-11c0 -40 34 -63 96 -63c76 0 111 53 111 144v34h-2c-8 -44 -52 -75 -123 -75c-97 0 -149 47 -149 115c0 81 65 133 165 133c108 0 171 -66 171 -199c0 -129 -61 -206 -173 -206zM195 76c68 0 110 36 110 79
c-6 46 -45 73 -101 73c-65 0 -104 -32 -104 -81c0 -41 37 -71 95 -71z" />
    <glyph glyph-name="zero.dnom" horiz-adv-x="426" 
d="M213 -5c-108 0 -171 79 -171 203c0 123 63 202 171 202c109 0 172 -79 172 -202c0 -124 -63 -203 -172 -203zM213 48c71 0 110 58 110 150c0 90 -39 148 -110 148c-70 0 -109 -58 -109 -148c0 -92 39 -150 109 -150z" />
    <glyph glyph-name="one.dnom" horiz-adv-x="249" 
d="M116 0v244h-92v45l47 1c50 0 54 10 55 104h52v-394h-62z" />
    <glyph glyph-name="two.dnom" horiz-adv-x="396" 
d="M37 0c0 84 12 105 126 157c105 47 120 70 120 116c0 42 -33 73 -89 73c-62 0 -99 -36 -99 -92c0 -16 2 -34 4 -46h-56c-2 10 -4 29 -4 48c0 88 60 144 158 144c92 0 148 -52 148 -124c0 -63 -30 -103 -145 -153c-85 -37 -91 -46 -92 -69h243v-54h-314z" />
    <glyph glyph-name="three.dnom" horiz-adv-x="413" 
d="M203 -5c-104 0 -164 47 -164 121c0 9 1 21 2 30h55c-1 -11 -1 -19 -1 -23c0 -45 37 -74 106 -74c71 0 112 30 112 76c0 34 -29 56 -74 56h-68v41h56c43 0 70 23 70 59c0 40 -34 65 -93 65c-63 0 -100 -29 -100 -74c0 -7 1 -18 2 -25h-54c-1 6 -3 19 -3 32
c0 74 60 121 158 121c92 0 148 -43 148 -110c0 -41 -23 -72 -59 -79v-2c48 -6 79 -41 79 -88c0 -77 -64 -126 -172 -126z" />
    <glyph glyph-name="four.dnom" horiz-adv-x="415" 
d="M256 0v89h-229v51l220 254h71v-251h65v-54h-65v-89h-62zM94 143h162v186h-2l-160 -185v-1z" />
    <glyph glyph-name="five.dnom" horiz-adv-x="403" 
d="M207 -5c-106 0 -168 44 -168 107v16h58v-12c0 -33 38 -57 107 -57c59 0 97 35 97 84s-37 80 -95 80c-49 0 -90 -19 -103 -49l-57 4l18 226h270v-54h-219l-12 -133h2c17 32 59 52 114 52c89 0 144 -50 144 -127c0 -82 -61 -137 -156 -137z" />
    <glyph glyph-name="six.dnom" horiz-adv-x="413" 
d="M215 -5c-116 0 -175 77 -175 198c0 126 63 207 175 207c93 0 147 -48 147 -122c0 -3 0 -10 -1 -20h-55v16c0 44 -31 72 -91 72c-73 0 -113 -57 -113 -146v-31h2c11 38 58 62 122 62c97 0 150 -43 150 -109c0 -77 -60 -127 -161 -127zM216 47c64 0 100 29 100 75
c0 39 -36 64 -101 64s-104 -28 -104 -70c8 -33 41 -69 105 -69z" />
    <glyph glyph-name="seven.dnom" horiz-adv-x="378" 
d="M84 0c38 151 126 269 206 337v1h-268v56h340v-50c-119 -105 -171 -209 -204 -344h-74z" />
    <glyph glyph-name="eight.dnom" horiz-adv-x="414" 
d="M207 -5c-103 0 -169 45 -169 117c0 47 34 84 87 93v1c-47 10 -68 43 -68 82c0 70 58 112 150 112s150 -42 150 -112c0 -39 -21 -73 -68 -82v-1c53 -9 87 -46 87 -93c0 -72 -66 -117 -169 -117zM207 224c57 0 94 24 94 62c0 39 -37 64 -94 64s-94 -25 -94 -64
c0 -38 37 -62 94 -62zM207 45c65 0 107 27 107 69c0 40 -42 66 -107 66s-107 -26 -107 -66c0 -42 42 -69 107 -69z" />
    <glyph glyph-name="nine.dnom" horiz-adv-x="413" 
d="M203 -5c-93 0 -152 43 -152 107c0 2 0 11 1 21h55v-11c0 -40 34 -63 96 -63c76 0 111 53 111 144v34h-2c-8 -44 -52 -75 -123 -75c-97 0 -149 47 -149 115c0 81 65 133 165 133c108 0 171 -66 171 -199c0 -129 -61 -206 -173 -206zM195 196c68 0 110 36 110 79
c-6 46 -45 73 -101 73c-65 0 -104 -32 -104 -81c0 -41 37 -71 95 -71z" />
    <glyph glyph-name="zero.numr" horiz-adv-x="426" 
d="M213 259c-108 0 -171 79 -171 203c0 123 63 202 171 202c109 0 172 -79 172 -202c0 -124 -63 -203 -172 -203zM213 312c71 0 110 58 110 150c0 90 -39 148 -110 148c-70 0 -109 -58 -109 -148c0 -92 39 -150 109 -150z" />
    <glyph glyph-name="one.numr" horiz-adv-x="249" 
d="M116 264v244h-92v45l47 1c50 0 54 10 55 104h52v-394h-62z" />
    <glyph glyph-name="two.numr" horiz-adv-x="396" 
d="M37 264c0 84 12 105 126 157c105 47 120 70 120 116c0 42 -33 73 -89 73c-62 0 -99 -36 -99 -92c0 -16 2 -34 4 -46h-56c-2 10 -4 29 -4 48c0 88 60 144 158 144c92 0 148 -52 148 -124c0 -63 -30 -103 -145 -153c-85 -37 -91 -46 -92 -69h243v-54h-314z" />
    <glyph glyph-name="three.numr" horiz-adv-x="413" 
d="M203 259c-104 0 -164 47 -164 121c0 9 1 21 2 30h55c-1 -11 -1 -19 -1 -23c0 -45 37 -74 106 -74c71 0 112 30 112 76c0 34 -29 56 -74 56h-68v41h56c43 0 70 23 70 59c0 40 -34 65 -93 65c-63 0 -100 -29 -100 -74c0 -7 1 -18 2 -25h-54c-1 6 -3 19 -3 32
c0 74 60 121 158 121c92 0 148 -43 148 -110c0 -41 -23 -72 -59 -79v-2c48 -6 79 -41 79 -88c0 -77 -64 -126 -172 -126z" />
    <glyph glyph-name="four.numr" horiz-adv-x="415" 
d="M256 264v89h-229v51l220 254h71v-251h65v-54h-65v-89h-62zM94 407h162v186h-2l-160 -185v-1z" />
    <glyph glyph-name="five.numr" horiz-adv-x="403" 
d="M207 259c-106 0 -168 44 -168 107v16h58v-12c0 -33 38 -57 107 -57c59 0 97 35 97 84s-37 80 -95 80c-49 0 -90 -19 -103 -49l-57 4l18 226h270v-54h-219l-12 -133h2c17 32 59 52 114 52c89 0 144 -50 144 -127c0 -82 -61 -137 -156 -137z" />
    <glyph glyph-name="six.numr" horiz-adv-x="413" 
d="M215 259c-116 0 -175 77 -175 198c0 126 63 207 175 207c93 0 147 -48 147 -122c0 -3 0 -10 -1 -20h-55v16c0 44 -31 72 -91 72c-73 0 -113 -57 -113 -146v-31h2c11 38 58 62 122 62c97 0 150 -43 150 -109c0 -77 -60 -127 -161 -127zM216 311c64 0 100 29 100 75
c0 39 -36 64 -101 64s-104 -28 -104 -70c8 -33 41 -69 105 -69z" />
    <glyph glyph-name="seven.numr" horiz-adv-x="378" 
d="M84 264c38 151 126 269 206 337v1h-268v56h340v-50c-119 -105 -171 -209 -204 -344h-74z" />
    <glyph glyph-name="eight.numr" horiz-adv-x="414" 
d="M207 259c-103 0 -169 45 -169 117c0 47 34 84 87 93v1c-47 10 -68 43 -68 82c0 70 58 112 150 112s150 -42 150 -112c0 -39 -21 -73 -68 -82v-1c53 -9 87 -46 87 -93c0 -72 -66 -117 -169 -117zM207 488c57 0 94 24 94 62c0 39 -37 64 -94 64s-94 -25 -94 -64
c0 -38 37 -62 94 -62zM207 309c65 0 107 27 107 69c0 40 -42 66 -107 66s-107 -26 -107 -66c0 -42 42 -69 107 -69z" />
    <glyph glyph-name="nine.numr" horiz-adv-x="413" 
d="M203 259c-93 0 -152 43 -152 107c0 2 0 11 1 21h55v-11c0 -40 34 -63 96 -63c76 0 111 53 111 144v34h-2c-8 -44 -52 -75 -123 -75c-97 0 -149 47 -149 115c0 81 65 133 165 133c108 0 171 -66 171 -199c0 -129 -61 -206 -173 -206zM195 460c68 0 110 36 110 79
c-6 46 -45 73 -101 73c-65 0 -104 -32 -104 -81c0 -41 37 -71 95 -71z" />
    <glyph glyph-name="zero.sups" horiz-adv-x="426" 
d="M213 301c-108 0 -171 79 -171 203c0 123 63 202 171 202c109 0 172 -79 172 -202c0 -124 -63 -203 -172 -203zM213 354c71 0 110 58 110 150c0 90 -39 148 -110 148c-70 0 -109 -58 -109 -148c0 -92 39 -150 109 -150z" />
    <glyph glyph-name="one.sups" horiz-adv-x="249" 
d="M116 306v244h-92v45l47 1c50 0 54 10 55 104h52v-394h-62z" />
    <glyph glyph-name="two.sups" horiz-adv-x="396" 
d="M37 306c0 84 12 105 126 157c105 47 120 70 120 116c0 42 -33 73 -89 73c-62 0 -99 -36 -99 -92c0 -16 2 -34 4 -46h-56c-2 10 -4 29 -4 48c0 88 60 144 158 144c92 0 148 -52 148 -124c0 -63 -30 -103 -145 -153c-85 -37 -91 -46 -92 -69h243v-54h-314z" />
    <glyph glyph-name="three.sups" horiz-adv-x="413" 
d="M203 301c-104 0 -164 47 -164 121c0 9 1 21 2 30h55c-1 -11 -1 -19 -1 -23c0 -45 37 -74 106 -74c71 0 112 30 112 76c0 34 -29 56 -74 56h-68v41h56c43 0 70 23 70 59c0 40 -34 65 -93 65c-63 0 -100 -29 -100 -74c0 -7 1 -18 2 -25h-54c-1 6 -3 19 -3 32
c0 74 60 121 158 121c92 0 148 -43 148 -110c0 -41 -23 -72 -59 -79v-2c48 -6 79 -41 79 -88c0 -77 -64 -126 -172 -126z" />
    <glyph glyph-name="four.sups" horiz-adv-x="415" 
d="M256 306v89h-229v51l220 254h71v-251h65v-54h-65v-89h-62zM94 449h162v186h-2l-160 -185v-1z" />
    <glyph glyph-name="five.sups" horiz-adv-x="403" 
d="M207 301c-106 0 -168 44 -168 107v16h58v-12c0 -33 38 -57 107 -57c59 0 97 35 97 84s-37 80 -95 80c-49 0 -90 -19 -103 -49l-57 4l18 226h270v-54h-219l-12 -133h2c17 32 59 52 114 52c89 0 144 -50 144 -127c0 -82 -61 -137 -156 -137z" />
    <glyph glyph-name="six.sups" horiz-adv-x="413" 
d="M215 301c-116 0 -175 77 -175 198c0 126 63 207 175 207c93 0 147 -48 147 -122c0 -3 0 -10 -1 -20h-55v16c0 44 -31 72 -91 72c-73 0 -113 -57 -113 -146v-31h2c11 38 58 62 122 62c97 0 150 -43 150 -109c0 -77 -60 -127 -161 -127zM216 353c64 0 100 29 100 75
c0 39 -36 64 -101 64s-104 -28 -104 -70c8 -33 41 -69 105 -69z" />
    <glyph glyph-name="seven.sups" horiz-adv-x="378" 
d="M84 306c38 151 126 269 206 337v1h-268v56h340v-50c-119 -105 -171 -209 -204 -344h-74z" />
    <glyph glyph-name="eight.sups" horiz-adv-x="414" 
d="M207 301c-103 0 -169 45 -169 117c0 47 34 84 87 93v1c-47 10 -68 43 -68 82c0 70 58 112 150 112s150 -42 150 -112c0 -39 -21 -73 -68 -82v-1c53 -9 87 -46 87 -93c0 -72 -66 -117 -169 -117zM207 530c57 0 94 24 94 62c0 39 -37 64 -94 64s-94 -25 -94 -64
c0 -38 37 -62 94 -62zM207 351c65 0 107 27 107 69c0 40 -42 66 -107 66s-107 -26 -107 -66c0 -42 42 -69 107 -69z" />
    <glyph glyph-name="nine.sups" horiz-adv-x="413" 
d="M203 301c-93 0 -152 43 -152 107c0 2 0 11 1 21h55v-11c0 -40 34 -63 96 -63c76 0 111 53 111 144v34h-2c-8 -44 -52 -75 -123 -75c-97 0 -149 47 -149 115c0 81 65 133 165 133c108 0 171 -66 171 -199c0 -129 -61 -206 -173 -206zM195 502c68 0 110 36 110 79
c-6 46 -45 73 -101 73c-65 0 -104 -32 -104 -81c0 -41 37 -71 95 -71z" />
    <glyph glyph-name="onehalf" unicode="&#xbd;" horiz-adv-x="769" 
d="M164 -49l-38 19l332 736l38 -18zM116 264v244h-92v45l47 1c50 0 54 10 55 104h52v-394h-62zM410 0c0 84 12 105 126 157c105 47 120 70 120 116c0 42 -33 73 -89 73c-62 0 -99 -36 -99 -92c0 -16 2 -34 4 -46h-56c-2 10 -4 29 -4 48c0 88 60 144 158 144
c92 0 148 -52 148 -124c0 -63 -30 -103 -145 -153c-85 -37 -91 -46 -92 -69h243v-54h-314z" />
    <glyph glyph-name="uni2153" unicode="&#x2153;" horiz-adv-x="786" 
d="M164 -49l-38 19l332 736l38 -18zM116 264v244h-92v45l47 1c50 0 54 10 55 104h52v-394h-62zM576 -5c-104 0 -164 47 -164 121c0 9 1 21 2 30h55c-1 -11 -1 -19 -1 -23c0 -45 37 -74 106 -74c71 0 112 30 112 76c0 34 -29 56 -74 56h-68v41h56c43 0 70 23 70 59
c0 40 -34 65 -93 65c-63 0 -100 -29 -100 -74c0 -7 1 -18 2 -25h-54c-1 6 -3 19 -3 32c0 74 60 121 158 121c92 0 148 -43 148 -110c0 -41 -23 -72 -59 -79v-2c48 -6 79 -41 79 -88c0 -77 -64 -126 -172 -126z" />
    <glyph glyph-name="uni2154" unicode="&#x2154;" horiz-adv-x="937" 
d="M315 -49l-38 19l332 736l38 -18zM37 264c0 84 12 105 126 157c105 47 120 70 120 116c0 42 -33 73 -89 73c-62 0 -99 -36 -99 -92c0 -16 2 -34 4 -46h-56c-2 10 -4 29 -4 48c0 88 60 144 158 144c92 0 148 -52 148 -124c0 -63 -30 -103 -145 -153
c-85 -37 -91 -46 -92 -69h243v-54h-314zM727 -5c-104 0 -164 47 -164 121c0 9 1 21 2 30h55c-1 -11 -1 -19 -1 -23c0 -45 37 -74 106 -74c71 0 112 30 112 76c0 34 -29 56 -74 56h-68v41h56c43 0 70 23 70 59c0 40 -34 65 -93 65c-63 0 -100 -29 -100 -74c0 -7 1 -18 2 -25
h-54c-1 6 -3 19 -3 32c0 74 60 121 158 121c92 0 148 -43 148 -110c0 -41 -23 -72 -59 -79v-2c48 -6 79 -41 79 -88c0 -77 -64 -126 -172 -126z" />
    <glyph glyph-name="onequarter" unicode="&#xbc;" horiz-adv-x="755" 
d="M164 -49l-38 19l332 736l38 -18zM116 264v244h-92v45l47 1c50 0 54 10 55 104h52v-394h-62zM596 0v89h-229v51l220 254h71v-251h65v-54h-65v-89h-62zM434 143h162v186h-2l-160 -185v-1z" />
    <glyph glyph-name="threequarters" unicode="&#xbe;" horiz-adv-x="919" 
d="M328 -49l-38 19l332 736l38 -18zM203 259c-104 0 -164 47 -164 121c0 9 1 21 2 30h55c-1 -11 -1 -19 -1 -23c0 -45 37 -74 106 -74c71 0 112 30 112 76c0 34 -29 56 -74 56h-68v41h56c43 0 70 23 70 59c0 40 -34 65 -93 65c-63 0 -100 -29 -100 -74c0 -7 1 -18 2 -25h-54
c-1 6 -3 19 -3 32c0 74 60 121 158 121c92 0 148 -43 148 -110c0 -41 -23 -72 -59 -79v-2c48 -6 79 -41 79 -88c0 -77 -64 -126 -172 -126zM760 0v89h-229v51l220 254h71v-251h65v-54h-65v-89h-62zM598 143h162v186h-2l-160 -185v-1z" />
    <glyph glyph-name="oneeighth" unicode="&#x215b;" horiz-adv-x="787" 
d="M164 -49l-38 19l332 736l38 -18zM116 264v244h-92v45l47 1c50 0 54 10 55 104h52v-394h-62zM580 -5c-103 0 -169 45 -169 117c0 47 34 84 87 93v1c-47 10 -68 43 -68 82c0 70 58 112 150 112s150 -42 150 -112c0 -39 -21 -73 -68 -82v-1c53 -9 87 -46 87 -93
c0 -72 -66 -117 -169 -117zM580 224c57 0 94 24 94 62c0 39 -37 64 -94 64s-94 -25 -94 -64c0 -38 37 -62 94 -62zM580 45c65 0 107 27 107 69c0 40 -42 66 -107 66s-107 -26 -107 -66c0 -42 42 -69 107 -69z" />
    <glyph glyph-name="threeeighths" unicode="&#x215c;" horiz-adv-x="951" 
d="M328 -49l-38 19l332 736l38 -18zM203 259c-104 0 -164 47 -164 121c0 9 1 21 2 30h55c-1 -11 -1 -19 -1 -23c0 -45 37 -74 106 -74c71 0 112 30 112 76c0 34 -29 56 -74 56h-68v41h56c43 0 70 23 70 59c0 40 -34 65 -93 65c-63 0 -100 -29 -100 -74c0 -7 1 -18 2 -25h-54
c-1 6 -3 19 -3 32c0 74 60 121 158 121c92 0 148 -43 148 -110c0 -41 -23 -72 -59 -79v-2c48 -6 79 -41 79 -88c0 -77 -64 -126 -172 -126zM744 -5c-103 0 -169 45 -169 117c0 47 34 84 87 93v1c-47 10 -68 43 -68 82c0 70 58 112 150 112s150 -42 150 -112
c0 -39 -21 -73 -68 -82v-1c53 -9 87 -46 87 -93c0 -72 -66 -117 -169 -117zM744 224c57 0 94 24 94 62c0 39 -37 64 -94 64s-94 -25 -94 -64c0 -38 37 -62 94 -62zM744 45c65 0 107 27 107 69c0 40 -42 66 -107 66s-107 -26 -107 -66c0 -42 42 -69 107 -69z" />
    <glyph glyph-name="fiveeighths" unicode="&#x215d;" horiz-adv-x="941" 
d="M318 -49l-38 19l332 736l38 -18zM207 259c-106 0 -168 44 -168 107v16h58v-12c0 -33 38 -57 107 -57c59 0 97 35 97 84s-37 80 -95 80c-49 0 -90 -19 -103 -49l-57 4l18 226h270v-54h-219l-12 -133h2c17 32 59 52 114 52c89 0 144 -50 144 -127c0 -82 -61 -137 -156 -137
zM734 -5c-103 0 -169 45 -169 117c0 47 34 84 87 93v1c-47 10 -68 43 -68 82c0 70 58 112 150 112s150 -42 150 -112c0 -39 -21 -73 -68 -82v-1c53 -9 87 -46 87 -93c0 -72 -66 -117 -169 -117zM734 224c57 0 94 24 94 62c0 39 -37 64 -94 64s-94 -25 -94 -64
c0 -38 37 -62 94 -62zM734 45c65 0 107 27 107 69c0 40 -42 66 -107 66s-107 -26 -107 -66c0 -42 42 -69 107 -69z" />
    <glyph glyph-name="seveneighths" unicode="&#x215e;" horiz-adv-x="858" 
d="M235 -49l-38 19l332 736l38 -18zM84 264c38 151 126 269 206 337v1h-268v56h340v-50c-119 -105 -171 -209 -204 -344h-74zM651 -5c-103 0 -169 45 -169 117c0 47 34 84 87 93v1c-47 10 -68 43 -68 82c0 70 58 112 150 112s150 -42 150 -112c0 -39 -21 -73 -68 -82v-1
c53 -9 87 -46 87 -93c0 -72 -66 -117 -169 -117zM651 224c57 0 94 24 94 62c0 39 -37 64 -94 64s-94 -25 -94 -64c0 -38 37 -62 94 -62zM651 45c65 0 107 27 107 69c0 40 -42 66 -107 66s-107 -26 -107 -66c0 -42 42 -69 107 -69z" />
    <glyph glyph-name="periodcentered.loclCAT.case" horiz-adv-x="10" 
d="M-182 300v114h86v-114h-86z" />
    <glyph glyph-name="periodcentered.loclCAT" horiz-adv-x="76" 
d="M-5 250v114h86v-114h-86z" />
    <glyph glyph-name="comma.dnom" horiz-adv-x="118" 
d="M21 -78v27c28 4 38 19 39 50v1h-23v68h55v-51c0 -61 -21 -89 -71 -95z" />
    <glyph glyph-name="period.dnom" horiz-adv-x="115" 
d="M25 0v68h55v-68h-55z" />
    <glyph glyph-name="comma.numr" horiz-adv-x="118" 
d="M21 186v27c28 4 38 19 39 50v1h-23v68h55v-51c0 -61 -21 -89 -71 -95z" />
    <glyph glyph-name="period.numr" horiz-adv-x="115" 
d="M25 264v68h55v-68h-55z" />
    <glyph glyph-name="comma.subs" horiz-adv-x="118" 
d="M21 -198v27c28 4 38 19 39 50v1h-23v68h55v-51c0 -61 -21 -89 -71 -95z" />
    <glyph glyph-name="period.subs" horiz-adv-x="115" 
d="M25 -120v68h55v-68h-55z" />
    <glyph glyph-name="comma.sups" horiz-adv-x="118" 
d="M21 228v27c28 4 38 19 39 50v1h-23v68h55v-51c0 -61 -21 -89 -71 -95z" />
    <glyph glyph-name="period.sups" horiz-adv-x="115" 
d="M25 306v68h55v-68h-55z" />
    <glyph glyph-name="uni00A0" unicode="&#xa0;" horiz-adv-x="230" 
 />
    <glyph glyph-name="CR" unicode="&#xd;" horiz-adv-x="204" 
 />
    <glyph glyph-name="uni2116" unicode="&#x2116;" horiz-adv-x="1127" 
d="M80 0v658h135l357 -546h2v546h80v-658h-99l-393 597h-2v-597h-80zM931 300c-99 0 -163 60 -163 154s64 154 163 154s162 -60 162 -154s-63 -154 -162 -154zM931 350c64 0 102 41 102 104s-38 104 -102 104c-65 0 -103 -41 -103 -104s38 -104 103 -104zM768 187v52h325
v-52h-325z" />
    <glyph glyph-name="uni0308" unicode="&#x308;" horiz-adv-x="0" 
d="M-344 557v101h76v-101h-76zM-174 557v101h76v-101h-76z" />
    <glyph glyph-name="uni0307" unicode="&#x307;" horiz-adv-x="0" 
d="M-260 557v101h78v-101h-78z" />
    <glyph glyph-name="gravecomb" unicode="&#x300;" horiz-adv-x="0" 
d="M-191 545l-108 140h89l85 -140h-66z" />
    <glyph glyph-name="acutecomb" unicode="&#x301;" horiz-adv-x="0" 
d="M-301 545l85 140h89l-107 -140h-67z" />
    <glyph glyph-name="uni030B" unicode="&#x30b;" horiz-adv-x="0" 
d="M-389 548l77 137h81l-95 -137h-63zM-228 548l77 137h81l-95 -137h-63z" />
    <glyph glyph-name="uni0302" unicode="&#x302;" horiz-adv-x="0" 
d="M-363 544v69l141 79h2l141 -79v-69l-141 79h-2z" />
    <glyph glyph-name="uni030C" unicode="&#x30c;" horiz-adv-x="0" 
d="M-266 545l-103 140h85l62 -94h2l62 94h85l-103 -140h-90z" />
    <glyph glyph-name="uni0306" unicode="&#x306;" horiz-adv-x="0" 
d="M-221 555c-99 0 -132 68 -132 116v14h58v-11c0 -31 19 -67 74 -67c56 0 74 36 74 67v11h58v-14c0 -48 -33 -116 -132 -116z" />
    <glyph glyph-name="uni030A" unicode="&#x30a;" horiz-adv-x="0" 
d="M-221 545c-93 0 -139 47 -139 112s50 113 139 113c92 0 139 -48 139 -113s-46 -112 -139 -112zM-221 594c55 0 83 25 83 63c0 39 -29 63 -83 63c-53 0 -83 -24 -83 -63c0 -38 28 -63 83 -63z" />
    <glyph glyph-name="tildecomb" unicode="&#x303;" horiz-adv-x="0" 
d="M-394 555c9 98 51 140 104 140c38 0 61 -15 82 -40l14 -16c17 -20 28 -32 50 -32c25 0 41 27 47 88h57c-8 -98 -50 -140 -104 -140c-38 0 -61 15 -82 40l-14 16c-18 21 -27 32 -49 32c-25 0 -42 -27 -48 -88h-57z" />
    <glyph glyph-name="uni0304" unicode="&#x304;" horiz-adv-x="0" 
d="M-357 594v58h273v-58h-273z" />
    <glyph glyph-name="uni030F" unicode="&#x30f;" horiz-adv-x="0" 
d="M-288 545l-94 140h80l79 -140h-65zM-127 545l-95 140h81l79 -140h-65z" />
    <glyph glyph-name="uni0311" unicode="&#x311;" horiz-adv-x="0" 
d="M-264 555v14c0 48 33 116 132 116s132 -68 132 -116v-14h-58v11c0 31 -19 67 -74 67c-56 0 -74 -36 -74 -67v-11h-58z" />
    <glyph glyph-name="uni0312" unicode="&#x312;" horiz-adv-x="0" 
d="M-10 790v-46c-43 -6 -59 -32 -60 -83v-2h36v-114h-86v85c0 102 33 150 110 160z" />
    <glyph glyph-name="uni0326" unicode="&#x326;" horiz-adv-x="0" 
d="M-209 -277v46c43 6 59 32 60 83v2h-36v114h86v-85c0 -102 -33 -150 -110 -160z" />
    <glyph glyph-name="uni0327" unicode="&#x327;" horiz-adv-x="0" 
d="M-216 -218c-87 0 -125 36 -130 87h61c5 -29 25 -42 69 -42c50 0 70 23 70 52c0 24 -16 36 -60 36c-33 0 -61 -5 -73 -8l40 106h51l-27 -70l1 -1c8 5 21 12 46 12c54 0 79 -30 79 -73c0 -53 -38 -99 -127 -99z" />
    <glyph glyph-name="uni0328" unicode="&#x328;" horiz-adv-x="0" 
d="M-160 -201c-74 0 -107 41 -107 83s28 84 67 118h79c-47 -34 -77 -76 -77 -105c0 -23 13 -41 49 -41c24 0 39 5 48 8v-53c-11 -4 -31 -10 -59 -10z" />
    <glyph glyph-name="NULL" horiz-adv-x="0" 
 />
    <glyph glyph-name="NULL" horiz-adv-x="0" 
 />
    </font>
</defs>
</svg>
